<svg xmlns="http://www.w3.org/2000/svg" xmlns:xlink="http://www.w3.org/1999/xlink" xml:space="preserve" width="1200" height="800" viewBox="-36.138 -59.544 313.196 357.265"><defs><linearGradient id="p"><stop offset="0" style="stop-color:#30487b;stop-opacity:1"/><stop offset="1" style="stop-color:#30487b;stop-opacity:0"/></linearGradient><linearGradient id="o"><stop offset="0" style="stop-color:#30487b;stop-opacity:1"/><stop offset="1" style="stop-color:#30487b;stop-opacity:0"/></linearGradient><linearGradient id="m"><stop offset="0" style="stop-color:#30487b;stop-opacity:1"/><stop offset="1" style="stop-color:#30487b;stop-opacity:0"/></linearGradient><linearGradient id="l"><stop offset="0" style="stop-color:#2b509d;stop-opacity:1"/><stop offset=".5" style="stop-color:#406dcb;stop-opacity:1"/><stop offset="1" style="stop-color:#0d1830;stop-opacity:1"/></linearGradient><linearGradient id="k"><stop offset="0" style="stop-color:#30487b;stop-opacity:1"/><stop offset="1" style="stop-color:#395591;stop-opacity:1"/></linearGradient><linearGradient id="q"><stop offset="0" style="stop-color:#4c79dc;stop-opacity:1"/><stop offset=".26" style="stop-color:#4976da;stop-opacity:1"/><stop offset=".438" style="stop-color:#436fd0;stop-opacity:1"/><stop offset=".578" style="stop-color:#3c66c3;stop-opacity:1"/><stop offset=".723" style="stop-color:#3d5da4;stop-opacity:1"/><stop offset=".842" style="stop-color:#384e80;stop-opacity:1"/><stop offset=".984" style="stop-color:#253966;stop-opacity:1"/></linearGradient><linearGradient id="j"><stop offset="0" style="stop-color:#547bc6;stop-opacity:1"/><stop offset="1" style="stop-color:#98afdc;stop-opacity:1"/></linearGradient><linearGradient id="i"><stop offset="0" style="stop-color:#547bc6;stop-opacity:1"/><stop offset="1" style="stop-color:#98afdc;stop-opacity:1"/></linearGradient><linearGradient id="h"><stop offset="0" style="stop-color:#241a7e;stop-opacity:1"/><stop offset=".5" style="stop-color:#241a7e;stop-opacity:1"/><stop offset="1" style="stop-color:#731d12;stop-opacity:1"/></linearGradient><linearGradient id="g"><stop offset="0" style="stop-color:#233a68;stop-opacity:1"/><stop offset="1" style="stop-color:#567cc6;stop-opacity:1"/></linearGradient><linearGradient id="f"><stop offset="0" style="stop-color:#233a68;stop-opacity:1"/><stop offset="1" style="stop-color:#567cc6;stop-opacity:1"/></linearGradient><linearGradient id="e"><stop offset="0" style="stop-color:#223967;stop-opacity:1"/><stop offset="1" style="stop-color:#223967;stop-opacity:0"/></linearGradient><linearGradient id="c"><stop offset="0" style="stop-color:#89eafe;stop-opacity:1"/><stop offset=".5" style="stop-color:#fff;stop-opacity:1"/><stop offset="1" style="stop-color:#14d4fe;stop-opacity:1"/></linearGradient><linearGradient id="b"><stop offset="0" style="stop-color:#4b78db;stop-opacity:1"/><stop offset=".5" style="stop-color:#19397a;stop-opacity:1"/></linearGradient><linearGradient id="a"><stop offset="0" style="stop-color:#1a2f5a;stop-opacity:1"/><stop offset=".5" style="stop-color:#6a8dd4;stop-opacity:1"/><stop offset="1" style="stop-color:#0e192f;stop-opacity:.42235637"/></linearGradient><linearGradient xlink:href="#a" id="x" x1="63.335" x2="31.898" y1="69.704" y2="188.61" gradientTransform="translate(38.568 -81.71)scale(1.7201)" gradientUnits="userSpaceOnUse"/><linearGradient xlink:href="#b" id="w" x1="12.239" x2="82.593" y1="137.415" y2="178.237" gradientTransform="translate(38.568 -81.71)scale(1.7201)" gradientUnits="userSpaceOnUse"/><linearGradient xlink:href="#c" id="t" x1="56.434" x2="64.789" y1="218.607" y2="58.35" gradientTransform="translate(70.619 5.596)scale(1.04689)" gradientUnits="userSpaceOnUse"/><linearGradient xlink:href="#e" id="B" x1="80.628" x2="89.273" y1="45.297" y2="47.282" gradientTransform="translate(70.619 5.596)scale(1.04689)" gradientUnits="userSpaceOnUse"/><linearGradient xlink:href="#f" id="z" x1="-222.503" x2="-222.466" y1="200.518" y2="207.438" gradientTransform="translate(511.375 -279.668)scale(1.74922)" gradientUnits="userSpaceOnUse"/><linearGradient xlink:href="#g" id="A" x1="49.528" x2="49.241" y1="215.929" y2="205.079" gradientTransform="translate(70.619 5.596)scale(1.04689)" gradientUnits="userSpaceOnUse"/><linearGradient xlink:href="#h" id="u" x1=".679" x2="106.027" y1="159.162" y2="125.184" gradientTransform="rotate(-31.231 39.755 80.222)scale(1.36438)" gradientUnits="userSpaceOnUse"/><linearGradient xlink:href="#i" id="C" x1="124.292" x2="113.358" y1="129.349" y2="129.356" gradientTransform="translate(70.619 5.596)scale(1.04689)" gradientUnits="userSpaceOnUse"/><linearGradient xlink:href="#j" id="D" x1="-14.599" x2="-3.122" y1="135.823" y2="135.823" gradientTransform="translate(70.619 5.596)scale(1.04689)" gradientUnits="userSpaceOnUse"/><linearGradient xlink:href="#k" id="y" x1="26.715" x2="40.426" y1="-4.255" y2="-.38" gradientTransform="translate(70.619 5.596)scale(1.04689)" gradientUnits="userSpaceOnUse"/><linearGradient xlink:href="#l" id="s" x1="54.475" x2="39.389" y1="-6.678" y2="48.692" gradientTransform="translate(70.619 5.596)scale(1.04689)" gradientUnits="userSpaceOnUse"/><linearGradient xlink:href="#m" id="E" x1="40.943" x2="38.443" y1="18.223" y2="24.322" gradientTransform="translate(70.619 5.596)scale(1.04689)" gradientUnits="userSpaceOnUse"/><linearGradient xlink:href="#o" id="F" x1="128.449" x2="128.675" y1="14.819" y2="25.979" gradientUnits="userSpaceOnUse"/><linearGradient xlink:href="#p" id="G" x1="133.232" x2="130.299" y1="11.109" y2=".454" gradientUnits="userSpaceOnUse"/><radialGradient xlink:href="#q" id="v" cx="-136.169" cy="149.04" r="79.158" fx="-136.169" fy="149.04" gradientTransform="matrix(.22756 .39743 -.51003 .29202 222.606 158.23)" gradientUnits="userSpaceOnUse"/></defs><path d="M117.494-9.667c-12.569-.144-23.503 11.26-23.483 25.073.553 10.517 7.13 15.233 15.322 19.8l-.224 5.827c-.221 5.732-.262 5.837-2.555 6.505-4.597 1.338-8.963 2.834-13.12 4.505 12.393 4.819 29.269 11.195 29.494 11.054 0 0 13.57-17.17 7.318-17.702l-5.826-.496.261-4.992c.239-4.556.45-5.091 2.424-6.112 4.044-2.091 8.985-8.488 10.78-13.957 6.886-20.975-12.798-29.418-20.391-29.505m3.708 6.398c2.32.04 4.412.634 5.627 1.775 2.855 2.682 4.654 7.913 4.336 13.02-.332 5.334-2.499 9.307-6.01 13.03l-2.513 2.663-3.563-1.895c-3.983-2.118-6.072-1.938-8.076.697-.738.969-1.713 2.387-2.167 3.15-.75 1.258-1.015 1.138-2.837-1.276-8.188-10.843-.948-24.93 8.208-29.6 2.126-1.085 4.675-1.603 6.995-1.564" style="fill:url(#s);fill-opacity:1;stroke-width:1.73944" transform="translate(-29.246 -28.913)scale(1.24279)"/><path d="M213.578 142.934c0 56.6-44.524 102.482-98.02 102.482S37.865 204.21 37.865 147.61s28.289-94.593 81.784-94.593 93.929 33.318 93.929 89.917" style="vector-effect:none;fill:url(#t);fill-opacity:1;fill-rule:evenodd;stroke-width:12.3691;stop-color:#000" transform="translate(-29.246 -28.913)scale(1.24279)"/><path d="m188.085 85.67-1.888 2.793c-3.661 5.419-36.216 55.127-41.09 62.74-4.278 6.684-21.83 24.62-34.62 35.378-1.334 1.122-9.206 8.5-17.492 16.393S77.76 217.38 77.553 217.446c-.86.275 3.096-5.939 24.628-38.692l22.644-34.446 29.485-27.542c16.217-15.149 30.45-28.343 31.63-29.32z" style="fill:url(#u);fill-opacity:1;stroke-width:2.32946" transform="translate(-29.246 -28.913)scale(1.24279)"/><path d="M125.28 99.005c-4.947.01-9.836.905-13.826 2.59-10.2 4.307-16.071 13.33-15.989 24.466.082 11.059 4.557 18.621 14.357 24.596 2.357 1.437 8.033 4.19 13.494 6.552 7.83 3.385 11.164 5.158 14.192 7.537 4.477 3.516 6.69 7.778 6.822 13.051.174 6.974-3.224 12.532-9.401 15.424-3.766 1.762-8.943 2.396-13.492 1.64-6.669-1.11-12.19-5.503-16.11-12.922-1.08-2.042-2.642-5.907-3.462-8.573l-.622-2.023-1.996.116c-1.1.064-2.044.167-2.098.227s.171 2.27.504 4.9c.983 7.819 1.368 11.199 1.753 15.39.2 2.181.444 4.512.541 5.187l.176 1.225.897.055 3.743.222c1.56.09 4.033.306 5.494.478 8.787 1.032 10.851 1.138 16.244.849 3.319-.178 4.506-.306 6.08-.657 6.767-1.509 12.082-4.27 16.032-8.316 5.04-5.162 7.47-11.515 7.362-19.333-.075-5.218-1.259-9.357-3.817-13.251-3.65-5.555-8.968-9.348-20.564-14.58-13.484-6.084-18.914-10.038-21.46-15.734-1.775-3.976-1.857-10.007-.17-14.072 2.014-4.86 6.277-7.984 12.21-8.954 2.294-.374 6.307-.205 8.563.358 3.43.857 5.895 2.35 8.426 5.093 3.619 3.92 5.43 7.89 8.5 18.54.074.259 1.89.339 3.436.152l.887-.107-.104-.952c-.199-1.795-.746-9.605-1.133-16.19-.215-3.653-.449-7.445-.519-8.409l-.126-1.757-3.435-.135c-2.695-.106-4.166-.272-6.727-.76-5.816-1.106-7.003-1.305-9.753-1.636a41 41 0 0 0-4.91-.287" style="fill:url(#v);fill-opacity:1;fill-rule:evenodd;stroke:none;stroke-width:2.38924" transform="translate(-29.246 -28.913)scale(1.24279)"/><path d="M108.53 34.875V46.11C19.117 66.8-7.819 192.587 68.201 232.428l9.61 5.434c12.675 6.369 18.441 8.264 28.415 9.34 7.968.861 10.81.86 18.436-.015 39.396-4.509 74.894-36.021 87.48-77.658 11.09-36.694 3.378-72.703-20.605-96.21-13.392-13.127-34.56-25.508-67.644-28.824 1.491 2.417 2.22 4.648 0 6.161l-5.353.725-5.351.725-2.092-5.467-.454-11.202zm29.27 17.059c3.194-.077 6.228.102 9.176.39-2.946-.288-5.984-.467-9.176-.39m0 0c-3.459.082-7.076.475-10.742 1.023 3.667-.549 7.282-.94 10.742-1.023m11.34.634c2.861.372 5.631.848 8.169 1.541-2.536-.692-5.31-1.17-8.17-1.54m-49.241 8.724c-3.744 1.789-7.46 3.929-11.13 6.293 3.673-2.366 7.383-4.503 11.13-6.292m38.55 5.006c30.49.263 65.524 22.02 68.594 68.14 3.109 46.698-30.745 93.563-77.288 100.395-48.132 7.064-83.809-32.108-78.698-82.566 4.613-45.55 41.333-82.248 81.364-85.737a63 63 0 0 1 6.027-.232m-52.053 2.867c-3.673 2.514-7.293 5.27-10.794 8.415 3.502-3.147 7.12-5.9 10.794-8.415m-11.99 9.58c-3.23 2.994-6.346 6.31-9.352 9.887 3.007-3.578 6.121-6.892 9.353-9.887M63.267 90.73c-3.128 3.913-6.086 8.199-8.874 12.806 2.79-4.61 5.745-8.892 8.875-12.806m-10.583 15.79c-2.807 4.935-5.477 10.125-7.816 15.856 2.34-5.732 5.008-10.92 7.816-15.857" style="fill:url(#w);fill-opacity:1;stroke-width:.768168" transform="translate(-29.246 -28.913)scale(1.24279)"/><path d="m108.521 34.767.01 11.343C19.115 66.8-7.82 192.586 68.2 232.427c4.081 2.138 3.988 2.02-2.595-3.35-24.317-19.835-37.795-64.914-20.74-106.7 20.83-51.033 61.914-69.709 92.95-70.444l.347-.007c3.06-.055 5.977.121 8.813.398-.626-.06 6.62.772 10.333 1.785-.67-.182-1.454-.36-2.286-.526v-2.425c-8.968-3.125-19.27-5.47-31.092-6.658l-.038-.006v6.162l-5.353.725-5.351.725-.434-16.105c-1.408-.377-2.825-.859-4.234-1.234m48.79 19.343c3.192.872 7.421 2.485 8.325 2.596-.902-.11-5.132-1.724-8.325-2.596m8.481 2.59q-.037.018-.137.007.1.01.137-.007" style="fill:url(#x);fill-opacity:1;stroke-width:.768168" transform="translate(-29.246 -28.913)scale(1.24279)"/><path d="M117.802-9.513c-20.458-.595-31.288 25.86-18.013 38.096 4.072 3.753 4.876 3.962 2.425.63-9.307-12.65-.168-36.416 18.867-36.62 4.47-.047 4.545-.081 2.332-1.037-1.521-.658-3.499-1.007-5.611-1.069" style="fill:url(#y);fill-opacity:1;stroke-width:1.70822" transform="translate(-29.246 -28.913)scale(1.24279)"/><path d="m120.102 71.474 4.133-.785.13 11.982-4.262 1.03z" style="fill:url(#z);fill-opacity:1;fill-rule:evenodd;stroke-width:4.67974" transform="translate(-29.246 -28.913)scale(1.24279)"/><path d="m120.102 220.683 4.133-.785.13 11.982-4.467.3z" style="fill:url(#A);fill-opacity:1;fill-rule:evenodd;stroke-width:4.67974" transform="translate(-29.246 -28.913)scale(1.24279)"/><path d="M155.022 51.157v2.425c.833.167 1.617.344 2.287.527 3.802 1.039 9.079 3.129 8.449 2.478q-1.193-1.23-2.898-2.365a111 111 0 0 0-7.838-3.065" style="display:inline;fill:url(#B);fill-opacity:1;stroke-width:.768168" transform="translate(-29.246 -28.913)scale(1.24279)"/><path d="m189.275 143.126.033-4.22 11.982-.13-1.103 4.467z" style="fill:url(#C);fill-opacity:1;fill-rule:evenodd;stroke-width:4.67974" transform="translate(-29.246 -28.913)scale(1.24279)"/><path d="m55.336 149.903.033-4.22 11.981-.13-1.103 4.467z" style="fill:url(#D);fill-opacity:1;fill-rule:evenodd;stroke-width:4.67974" transform="translate(-29.246 -28.913)scale(1.24279)"/><path d="M114.636 23.877c-.063 0-.122.008-.184.01a4 4 0 0 0-.375.033c-.073.01-.144.028-.216.043q-.16.03-.314.075a4 4 0 0 0-.216.075 3.7 3.7 0 0 0-.778.396q-.104.068-.205.141a5 5 0 0 0-.277.223c-.058.05-.117.097-.174.15a7 7 0 0 0-.32.322c-.043.047-.088.089-.132.138a9 9 0 0 0-.442.538c-.738.969-1.713 2.387-2.167 3.15l-.059.096c.097.643.53 1.042 1.428 1.474.97.467 1.817.872 1.88.9.915-5.198 8.596-6.57 3.995-7.568a6 6 0 0 0-.845-.163 5 5 0 0 0-.599-.033" style="fill:url(#E);fill-opacity:1;stroke-width:1.73944" transform="translate(-29.246 -28.913)scale(1.24279)"/><path d="M132.14 2.42c.105.132.199.268.297.402-.098-.134-.192-.27-.296-.401m1.753 2.858c.063.136.133.269.191.406-.058-.137-.128-.27-.19-.406m.729 1.868c.026.087.043.176.068.264-.025-.088-.042-.177-.068-.264m.374 1.528q.048.253.087.508c-.028-.17-.054-.34-.087-.508m.227 1.585q.028.264.047.53-.02-.267-.047-.53m-4.037.85q-.008.21-.021.418c-.28 4.502-1.93 8.015-4.53 11.245-.024.038-.04.08-.066.117-.284.426-.638.805-.98 1.194l-.033.038c-1.54 1.758-2.233 2.885-1.932 4.035q.037.145.082.276.016.044.034.085l-.002-.008q.031.084.066.162l-.033-.071a3 3 0 0 0 .1.222l.048.094-.031-.07c.819 1.562 2.676 1.037 5.115-1.513q.344-.359.674-.74c3.53-4.068 5.867-9.92 5.602-15.484z" style="fill:url(#F);fill-opacity:1;stroke-width:1.73944" transform="translate(-29.246 -28.913)scale(1.24279)"/><path d="M127.648-1.395c-.301-.007-.208.28.181.998 2.194 2.777 3.53 7.16 3.357 11.506h4.093c-.173-3.634-1.445-7.144-4.255-9.954-1.667-1.667-2.903-2.54-3.376-2.55" style="fill:url(#G);fill-opacity:1;stroke-width:1.73944" transform="translate(-29.246 -28.913)scale(1.24279)"/></svg>