<svg xmlns="http://www.w3.org/2000/svg" xmlns:xlink="http://www.w3.org/1999/xlink" xml:space="preserve" id="svg1" width="256" height="256" version="1.1"><defs id="defs1"><linearGradient id="linearGradient129"><stop id="stop128" offset="0" style="stop-color:#244580;stop-opacity:1"/><stop id="stop129" offset="1" style="stop-color:#4173cc;stop-opacity:1"/></linearGradient><linearGradient id="linearGradient127"><stop id="stop126" offset="0" style="stop-color:#4173cc;stop-opacity:1"/><stop id="stop127" offset="1" style="stop-color:#244580;stop-opacity:1"/></linearGradient><linearGradient id="linearGradient125"><stop id="stop123" offset="0" style="stop-color:#2c519a;stop-opacity:1"/><stop id="stop124" offset=".5" style="stop-color:#7e9fdb;stop-opacity:1"/><stop id="stop125" offset="1" style="stop-color:#7496d8;stop-opacity:1"/></linearGradient><linearGradient id="linearGradient122"><stop id="stop120" offset="0" style="stop-color:#2c519a;stop-opacity:1"/><stop id="stop121" offset=".389" style="stop-color:#7e9fdb;stop-opacity:1"/><stop id="stop122" offset="1" style="stop-color:#7496d8;stop-opacity:1"/></linearGradient><linearGradient id="linearGradient24"><stop id="stop24" offset="0" style="stop-color:#2c529b;stop-opacity:1"/><stop id="stop26" offset=".467" style="stop-color:#678ed5;stop-opacity:1"/><stop id="stop25" offset="1" style="stop-color:#2c529b;stop-opacity:1"/></linearGradient><linearGradient xlink:href="#linearGradient129" id="linearGradient3" x1="38.596" x2="25.86" y1="203.04" y2="206.313" gradientUnits="userSpaceOnUse"/><linearGradient xlink:href="#linearGradient125" id="linearGradient6" x1="17.137" x2="39.069" y1="206.6" y2="206.6" gradientUnits="userSpaceOnUse"/><linearGradient xlink:href="#linearGradient127" id="linearGradient8" x1="32.292" x2="33.75" y1="48.99" y2="58.658" gradientUnits="userSpaceOnUse"/><linearGradient xlink:href="#linearGradient122" id="linearGradient10" x1="16.88" x2="38.813" y1="46.025" y2="44.563" gradientUnits="userSpaceOnUse"/><linearGradient xlink:href="#linearGradient24" id="linearGradient25" x1="22.153" x2="233.851" y1="137.201" y2="137.205" gradientUnits="userSpaceOnUse"/><linearGradient xlink:href="#linearGradient125" id="linearGradient137" x1="17.137" x2="39.069" y1="206.6" y2="206.6" gradientTransform="matrix(-1.03818 0 0 1.2865 265.258 -34.777)" gradientUnits="userSpaceOnUse"/><linearGradient xlink:href="#linearGradient129" id="linearGradient138" x1="38.596" x2="25.86" y1="203.04" y2="206.313" gradientTransform="matrix(-1.03818 0 0 1.2865 265.258 -34.777)" gradientUnits="userSpaceOnUse"/><linearGradient xlink:href="#linearGradient122" id="linearGradient139" x1="16.88" x2="38.813" y1="46.025" y2="44.563" gradientTransform="matrix(-1.03818 0 0 1.2865 265.258 -34.777)" gradientUnits="userSpaceOnUse"/><linearGradient xlink:href="#linearGradient127" id="linearGradient140" x1="32.292" x2="33.75" y1="48.99" y2="58.658" gradientTransform="matrix(-1.03818 0 0 1.2865 265.258 -34.777)" gradientUnits="userSpaceOnUse"/></defs><g id="g145"><path id="path131" d="M247.733 24.434c-.138-.785-.276-1.57-.904-2.38-3.513-4.532-17.897-4.664-21.866.499.356 6.054.712 12.109 4.385 12.911s10.66-3.648 14.277-6.361c3.617-2.714 3.863-3.691 4.108-4.669" style="fill:url(#linearGradient139);fill-rule:evenodd;stroke:none;stroke-width:2;stroke-dasharray:none;stroke-opacity:1"/><path id="path132" d="M238.522 32.738a51 51 0 0 1 .084-3.672c-.806 0-1.612 0-2.76-.107a26 26 0 0 1-4.113-.71c-1.47-.39-2.92-.952-4.012-1.595-1.653-.832-2.335-2.105-2.758-4.101l.716 16.098c.995 5.891 1.989 11.782 4.162 11.886s5.526-5.578 7.157-9.628 1.543-6.47 1.524-8.171" style="fill:url(#linearGradient140);fill-opacity:1;fill-rule:evenodd;stroke:none;stroke-width:2;stroke-dasharray:none;stroke-opacity:1"/></g><g id="g146"><path id="path129" d="M247.466 234.979c.002.72-.056 1.506-.526 2.273s-1.351 1.515-2.554 2.106c-1.203.59-2.728 1.025-4.407 1.308-1.68.283-3.515.415-5.819.076s-5.076-1.147-6.731-1.955c-1.656-.809-2.194-1.617-2.732-2.425l.257-2.246s3.94-11.89 6.355-12.08l12.078-.953c1.316 3.956 2.633 7.912 3.323 10.217s.754 2.959.756 3.679" style="fill:url(#linearGradient137);fill-rule:evenodd;stroke:none;stroke-width:2;stroke-dasharray:none;stroke-opacity:1"/><path id="path130" d="m238.495 226.952-.084 3.692c-.046.006-.091.012-.95-.005-5.13-.508-9.106 1.25-12.764 5.723l.982-19.137 13.597 2.658-.636 5.275c-.128 1.055-.128 1.055-.145 1.794" style="fill:url(#linearGradient138);fill-rule:evenodd;stroke-width:2;stroke-dasharray:none"/></g><g id="g28" style="stroke-width:1.73057;stroke-dasharray:none" transform="matrix(1.03818 0 0 1.2865 -.52 -34.777)"><path id="path3" d="M17.137 209.682c-.002.56.055 1.17.508 1.767.452.596 1.3 1.177 2.46 1.637 1.158.46 2.626.797 4.245 1.017 1.618.22 3.385.322 5.604.059s4.89-.892 6.484-1.52 2.113-1.257 2.631-1.885l-.247-1.745s-3.795-9.243-6.122-9.39l-11.634-.741c-1.267 3.075-2.535 6.15-3.2 7.942s-.726 2.3-.729 2.86" style="opacity:1;fill:url(#linearGradient6);fill-rule:evenodd;stroke:none;stroke-width:1.73057;stroke-dasharray:none;stroke-opacity:1"/><path id="path2" d="m25.778 203.443.082 2.87c.044.005.087.009.914-.004 4.941-.395 8.772.97 12.295 4.448l-.946-14.875-13.096 2.066.612 4.1c.123.82.123.82.14 1.395z" style="fill:url(#linearGradient3);fill-rule:evenodd;stroke-width:1.73057;stroke-dasharray:none"/><path id="path8" d="M16.88 46.025c.133-.61.267-1.22.871-1.85 3.384-3.523 17.239-3.626 21.062.388-.343 4.706-.686 9.412-4.224 10.035-3.537.624-10.268-2.835-13.752-4.944s-3.72-2.87-3.957-3.63" style="fill:url(#linearGradient10);fill-rule:evenodd;stroke:none;stroke-width:1.73057;stroke-dasharray:none;stroke-opacity:1"/><path id="path6" d="M25.753 52.48c.018-1.324-.032-2.09-.081-2.855.776 0 1.552 0 2.659-.083a31 31 0 0 0 3.96-.552c1.417-.303 2.813-.74 3.865-1.24 1.593-.646 2.25-1.636 2.657-3.187l-.69 12.513c-.958 4.579-1.915 9.158-4.009 9.239-2.093.08-5.322-4.336-6.894-7.484-1.571-3.149-1.485-5.029-1.467-6.352" style="fill:url(#linearGradient8);fill-opacity:1;fill-rule:evenodd;stroke:none;stroke-width:1.73057;stroke-dasharray:none;stroke-opacity:1"/><path id="path1" d="M16.88 46.025c1.203 11.402 3.007 23.137 3.83 35.963.825 12.827 1.27 27.078 1.403 40.795.134 13.717.096 27.134-.972 41.697-1.07 14.564-2.103 29.207-4.063 45.15 1.692-2.226 2.318-3.388 5.881-5.392s8.997-3.785 16.346-5.566c7.348-1.782 16.61-3.562 27.299-4.854 5.778-.698 37.231-3.971 86.587-2.494 13.406.401 25.52 1.203 36.21 2.494 10.688 1.292 19.95 3.072 27.298 4.854 7.349 1.781 12.783 3.562 16.346 5.566s4.188 3.166 5.88 5.393c-1.959-15.944-2.993-30.587-4.062-45.15-1.069-14.564-1.106-27.98-.972-41.698.133-13.717.578-27.968 1.402-40.795.824-12.826 2.628-24.561 3.83-35.963-18.96 15.15-44.19 15.785-67.51 17.579-29.137 2.055-64.501 1.603-87.222 0-23.32-1.794-48.55-2.428-67.51-17.579" style="opacity:1;fill:url(#linearGradient25);fill-opacity:1;fill-rule:evenodd;stroke-width:1.73057;stroke-dasharray:none"/></g><g id="g5" style="fill:#fff;fill-opacity:1" transform="translate(92.093 17.838)scale(.5862)"><path id="path19" fill="#fffeff" d="M-65.72 274.444v5.402l9.229 8.974-9.227-1.59v5.401l14.133 1.374v-4.616zm0 0" style="fill:#fff;fill-opacity:1;stroke-width:.819303"/><path id="path20" fill="#4b4953" d="M-43.05 237.482c-1.505 0-2.98.399-4.282 1.149l-26.887 15.523a8.57 8.57 0 0 0-4.28 7.418v31.043a8.57 8.57 0 0 0 4.28 7.418l26.887 15.524a8.58 8.58 0 0 0 8.566 0l26.883-15.525a8.57 8.57 0 0 0 4.285-7.418v-31.042a8.56 8.56 0 0 0-4.285-7.418l-26.883-15.522a8.6 8.6 0 0 0-4.285-1.15m-.496 2.97a2.86 2.86 0 0 1 1.926.34l26 15.01a.953.953 0 0 1 0 1.65l-26 15.008a2.85 2.85 0 0 1-2.856 0l-26-15.008a.953.953 0 0 1 0-1.648l26-15.012q.436-.252.93-.34m-30.868 22.596a1 1 0 0 1 .64.113l26 15.012c.883.512 2.31 1.453 2.31 2.473v30.02c0 .733-1.677 1.19-2.31.827l-26-15.012a2.86 2.86 0 0 1-1.43-2.472v-30.023c0-.46.333-.855.79-.937m62.73 0a.955.955 0 0 1 .785.937v30.024c0 1.02-.543 1.96-1.426 2.472l-26 15.012a.953.953 0 0 1-1.425-.828v-30.02c0-1.02.543-1.96 1.425-2.472l26-15.012a.98.98 0 0 1 .641-.113m0 0" style="fill:#fff;fill-opacity:1"/><path id="path21" fill="#fffeff" d="M-16.442 293.859v-5.085l-17.002 9.817v5.087zm0 0" style="fill:#fff;fill-opacity:1;stroke-width:.744179"/></g><style id="style1" type="text/css">.st3{fill:#a67c52}</style><path id="polygon1" d="m164.137 151.66 10.195-3.901 10.196 3.902v6.542h-20.391z" style="fill:none;fill-opacity:1;stroke-width:.0487129"/><g id="path3172" style="stroke-miterlimit:0" transform="matrix(.01414 -.02177 .01776 .01445 180.776 124.157)"><path id="path3-2" d="M-815.11 230.18A241.43 241.43 0 0 1-649.513 95.579c73.109-16.713 142.82-3.688 200.621 44.096" style="baseline-shift:baseline;display:inline;overflow:visible;vector-effect:none;fill-opacity:0;stop-color:#000;stop-opacity:1"/></g><path id="path6-0" d="M175.34 146.727c1.237 1.354 1.75 3.22 1.604 5.19a6.372 5.4 88.062 0 1-2.474 4.784" style="baseline-shift:baseline;display:inline;overflow:visible;vector-effect:none;fill-opacity:0;stroke-width:.0242977;stroke-miterlimit:0;stop-color:#000"/><g id="g24" style="stroke:#fff;stroke-opacity:1" transform="translate(-163.51 -172.24)scale(1.96553)"><path id="polygon6" d="m181.56 144.318-2.939 2.469 9.21 3.573 2.932-2.463a.43.43 0 0 0-.121-.731l-7.861-3.05a1.21 1.21 0 0 0-1.22.202" class="st3" style="fill:none;fill-opacity:1;stroke:#fff;stroke-width:1.4;stroke-dasharray:none;stroke-opacity:1"/><path id="path11" d="m178.621 146.81-9.21 3.574-3.141-2.639a.27.27 0 0 1 .076-.456l8.242-3.198a.99.99 0 0 1 .99.164z" style="baseline-shift:baseline;display:inline;overflow:visible;fill:none;stroke:#fff;stroke-width:1.4;stroke-dasharray:none;stroke-opacity:1;stop-color:#000"/><path id="polygon2" d="m186.75 163.577-7.988 3.06a.104.104 0 0 1-.14-.096v-12.584l9.21-3.622v11.669a1.685 1.685 0 0 1-1.083 1.573" style="fill:none;fill-opacity:1;stroke:#fff;stroke-width:1.4;stroke-dasharray:none;stroke-opacity:1"/><path id="polygon3" d="m170.141 163.439 8.43 3.19a.296.296 0 0 0 .402-.285l-.352-12.387-9.21-3.622v12.048a1.13 1.13 0 0 0 .73 1.056" style="fill:none;fill-opacity:1;stroke:#fff;stroke-width:1.4;stroke-dasharray:none;stroke-opacity:1"/><path id="polygon5" d="m178.621 153.957-9.21-3.573-2.858 2.4a.488.488 0 0 0 .138.829l7.49 2.905a1.73 1.73 0 0 0 1.733-.287z" class="st3" style="fill:none;fill-opacity:1;stroke:#fff;stroke-width:1.4;stroke-dasharray:none;stroke-opacity:1"/><path id="polygon5-2" d="m178.621 153.957 9.21-3.613 2.859 2.4a.488.488 0 0 1-.138.83l-7.49 2.905a1.74 1.74 0 0 1-1.737-.282z" class="st3" style="fill:none;fill-opacity:1;stroke:#fff;stroke-width:1.4;stroke-dasharray:none;stroke-opacity:1"/></g><g id="g114" transform="matrix(-1.5652 0 0 1.5652 223.763 -46.56)"><path id="path73-5" fill="url(#M)" d="M70.29 70.283c0-.002.058-.04.13-.081.392-.232.916-.544.923-.55.01-.01.299-.002.404.011.127.016.24.047.409.111.09.103.196.013.291.02.573-.147 1.708-.266 2.433.035.067.057.138-.011.21-.017a3.9 3.9 0 0 1 1.149-.154l.21-.002a5 5 0 0 1 .54.024c.194.023.328.055.577.137l.087.03.104-.034c.181-.057.421-.114.504-.119q1.096-.011 2.193-.017h.221c.1.228.196.699.001 1.162-.192.015-2.146.009-3.27.024-.245.003-.3-.01-.557-.124l-.22-.097c-.07-.028-.068-.028-.184.012a4 4 0 0 1-.81.187 4.5 4.5 0 0 1-.627.032c-.627.002-.701-.01-1.101-.183a2 2 0 0 0-.153-.061 1 1 0 0 0-.114.036 4 4 0 0 1-.788.195c-.256.035-.459.046-1.017.053l-.404.005-.096-.053c-.052-.03-.256-.142-.454-.25-.41-.226-.59-.326-.59-.332" style="fill:#fff;fill-opacity:1;stroke-width:.0851644"/><path id="path78-9" d="m81.855 67.34-.933.863c-.25.23-.39.56-.39.904v2.33c0 .344.13.674.366.918l.954.989h3.37c.28 0 .506-.235.508-.518l.04-4.967a.51.51 0 0 0-.502-.52zm.102.256h3.31c.136 0 .248.113.247.261l-.04 4.967a.26.26 0 0 1-.251.264H81.96l-.877-.91a1.07 1.07 0 0 1-.295-.74v-2.33a.97.97 0 0 1 .307-.715z" style="baseline-shift:baseline;display:inline;overflow:visible;fill:#fff;fill-rule:evenodd;stroke:#fff;stroke-width:.5;stroke-dasharray:none;stroke-opacity:1;stop-color:#000"/><path id="path67" d="M89.066 65.893v.25c.008 2.812-.081 5.64-.025 7.17.027.752.032 1.172.072 1.459.02.143.05.263.121.37a.6.6 0 0 0 .28.214c.205.08.448.1.707.13s.523.064.68.112c.172.052.448.157.925.062.477-.094.953-.65.56-.572-.71.149-1.406.02-2.107-.098-.257-.03-.504-.068-.584-.1l-.039-.017h-.002v-.002h-.002l-.002-.006a.5.5 0 0 1-.04-.164c-.032-.218-.042-.652-.07-1.408-.052-1.436.028-4.178.026-6.902l15.653-.051c.708-.21-.14.626-.03.92.192.514.213-.799.164-1.14l.14-.228z" style="baseline-shift:baseline;display:inline;overflow:visible;vector-effect:none;fill:#fff;fill-rule:evenodd;stop-color:#000"/><path id="path68" d="M88.566 65.393v.752c.008 2.8-.082 5.613-.025 7.185.027.748.027 1.163.076 1.512.025.172.07.379.201.576.151.228.35.34.514.404v-.002c.304.12.582.134.83.162.254.03.524.073.592.094.137.042.587.19 1.17.074.39-.077.67-.277.877-.502.103-.112.256-.18.228-.552-.013-.186.03-.127-.14-.16-.084-.016-.227-.008-.429-.04h-.002.002c-1.897.135-2.354-.036-2.419-1.62-.047-1.294.015-3.855.023-6.387l14.72-.047c-.07.141-.175.291-.063.592.036.098.018.194.254.353.117.08.39.111.546.025s.198-.18.229-.242c.123-.244.096-.347.11-.521.004-.063-.006-.116-.003-.18l.018-.035a1.4 1.4 0 0 0 .096-.23c.028-.094.077-.229-.01-.44-.006-.014-.028-.01-.036-.023l-.685-.795zm1.63 10.091h.015l.01.002z" style="baseline-shift:baseline;display:inline;overflow:visible;vector-effect:none;fill:#fff;fill-opacity:1;fill-rule:evenodd;stop-color:#000"/><g id="path80-3" style="opacity:1"><path id="path69" d="m105.219 66.34-.235-.244c-.109 2.997-.058 5.784-.088 8.666l.006.26.266-.008c1.547-.143 3.011-.422 4.064-.953.658-.332 1.048-.917 1.27-1.561s.287-1.357.31-2.014c.048-1.313-.071-2.427-.88-3.232-.776-.773-4.44-1.361-4.44-1.361zm.263.055s3.465.583 4.098 1.213c.664.66.779 1.586.732 2.859-.023.635-.089 1.307-.283 1.871s-.502 1.013-1.021 1.275c-.88.444-2.215.689-3.608.838.023-2.685-.026-7.97-.026-7.97z" style="baseline-shift:baseline;display:inline;overflow:visible;vector-effect:none;fill:#fff;fill-rule:evenodd;stop-color:#000;stop-opacity:1"/><path id="path101" d="m104.68 65.378-.196.7c-.11 3.015-.058 5.805-.088 8.678v.01l.557.48c1.086.067 3.814-.399 4.504-.738.801-.394 1.268-1.118 1.518-1.846.248-.723.313-1.482.337-2.158.05-1.354-.072-2.653-1.027-3.604-.31-.31-.724-.48-1.205-.654a15 15 0 0 0-1.543-.45c-1.035-.248-1.965-.398-1.965-.398l-.332-.052-.11.181zm1.197 1.608c.294.053.624.105 1.3.266.464.11.945.239 1.333.373.387.134.693.314.717.338.518.516.63 1.252.586 2.486-.023.613-.09 1.244-.256 1.727-.168.488-.388.798-.774.992-.641.324-1.763.507-2.885.66.01-2.619-.016-6.29-.021-6.842" style="baseline-shift:baseline;display:inline;overflow:visible;vector-effect:none;fill:#fff;fill-rule:evenodd;stop-color:#000;stop-opacity:1"/></g><g id="path82-1" style="opacity:1;stroke-width:.4;stroke-dasharray:none" transform="translate(0 .031)"><path id="path104" d="M105.337 74.504a36 36 0 0 0-1.793.012c-.493.024-1.108.088-1.652.654-.773.803-.104.616-.118.941q.243-.364.467-.583c.46-.45.857-.49 1.326-.514s.927-.01 1.39.002l.255.006zm-12.467.574q-.088.002-.174.01l-.476.242.027.094.06.194.202-.018q.196-.02.361-.022h.002c.255 0 .477.018.645.065.418.118.768.53.916 1.113.147.582.085 1.314-.297 2.004l-.075.135.088.129c.059.085.102.1.14.125l.065.043c.57.41 1.102.627 1.354.888.294.305.33.485.383.772.053.286-.078.735.385 1.103.491.244.117-.479.105-1.195-.005-.31-.152-.651-.512-1.025-.376-.39-.911-.582-1.422-.95l-.039-.025c.333-.727.47-1.49.309-2.127-.18-.71-.628-1.293-1.264-1.472a3 3 0 0 0-.783-.082z" style="baseline-shift:baseline;display:inline;overflow:visible;fill:#fff;fill-rule:evenodd;stroke-width:.4;stroke-dasharray:none;stop-color:#000;stop-opacity:1"/><path id="path105" d="M105.342 74.305c-.392-.01-1.387-.01-1.809.011-.502.026-1.193.1-1.785.715-.2.209-.317.357-.38.496-.065.14-.054.312.019.41.072.1.145.133.174.157s.014-.004.013.01l-.03.712.397-.593q.236-.352.44-.553c.422-.413.734-.434 1.197-.457.459-.023.911-.01 1.375.002l.637-.904zm-.26.4-.027.113-.092-.002c-.463-.012-.927-.026-1.406-.002-.475.024-.96.085-1.455.57-.102.1-.206.249-.309.383l-.084-.066c.003.004-.007.054.022-.008.028-.061.118-.191.304-.384.498-.518 1.035-.57 1.52-.594a34 34 0 0 1 1.527-.01m-13.102.524.047.158.03.097.107.346.363-.031q.196-.019.342-.02h.004c.246 0 .455.019.59.057.33.093.64.438.775.969s.08 1.214-.277 1.86l-.135.241.158.23c.078.114.185.173.196.18l.047.032.011.006q.003.001.004.004h.002l.004.003.01.006.004.002.006.002c.576.41 1.108.652 1.297.848.272.283.277.385.33.67.052.284-.178 1.105.336 1.516l.016.013.02.01a.5.5 0 0 0 .21.068c.042.004.096 0 .15-.03a.26.26 0 0 0 .112-.138c.032-.095.012-.15-.002-.207a2 2 0 0 0-.054-.173c-.09-.247.104-.887.098-1.192-.006-.37-.185-.762-.568-1.16-.404-.42-.927-.612-1.397-.938.288-.7.458-1.43.295-2.074-.193-.762-.683-1.411-1.404-1.615-.221-.062-1.018-.068-1.247-.073l.339.185c-.413-.039-.448-.042-.819.148m.858.05h.033c.269 0 .515.014.729.075.55.155.956.669 1.123 1.328.145.574.022 1.298-.297 1.996l-.072.16.15.092.027.017c.538.388 1.062.58 1.395.926.336.35.45.64.455.89.003.173.065.276.105.428-.041-.126-.178-.264-.199-.375-.053-.287-.12-.547-.435-.875-.312-.323-.832-.516-1.381-.912l-.116.162-.052.073.15-.246-.008-.006-.049-.032c-.062-.04-.042-.013-.082-.07l-.017-.027.014-.026c.406-.734.476-1.516.316-2.15s-.549-1.112-1.057-1.256a2.6 2.6 0 0 0-.699-.072h-.002c-.108 0-.222.01-.34.02l.225-.114z" style="baseline-shift:baseline;display:inline;overflow:visible;fill:#fff;fill-rule:evenodd;stroke-width:.4;stroke-dasharray:none;stop-color:#000;stop-opacity:1"/></g><path id="path113" d="M99.467 72.836c-.696-.04-1.252.29-1.514.795-.255.491-.283 1.077-.242 1.672.081 1.186.48 2.492.603 3.072.083.492.122.904.108 1.195-.015.29-.09.44-.127.475-.177.173-.743.375-1.258.375a3.7 3.7 0 0 1-.748-.088l-.715-.148.19.707c.126.89.206 1.59.252 2.183v.006l.004.024.002.013v.002c.205 1.157.316 1.994.414 2.81q.002.034.01.067l-.005-.013v.082l.055.058.026.022.002.002.002.002h.002v.002h.002l.037.039h.086c.077.001.108-.022.134-.035a1 1 0 0 0 .082-.045.3.3 0 0 1-.078-.01l.051.006h.041l-.014.004a.4.4 0 0 0 .243-.102c.06-.05.1-.09.105-.092l.113-.066a54 54 0 0 0-.416-2.85v-.002l-.002-.012v-.004l-.004-.021a34 34 0 0 0-.197-1.678c.106.015.203.035.326.035.693 0 1.415-.173 1.885-.63.286-.28.378-.668.398-1.073s-.03-.865-.117-1.388v-.006l-.002-.01-.002-.004c-.144-.68-.52-1.934-.59-2.965-.035-.514.023-.966.143-1.197a.52.52 0 0 1 .217-.246c.09-.048.223-.078.445-.065.178.01.412.058.695.155.031.01.222.161.38.472.158.314.31.767.444 1.28.268 1.025.466 2.298.633 3.35.335 2.104.571 3.284.768 4.577.14.928.444 1.828.724 2.717l.045.139h.948l-.08-.258c-.298-.959-.617-1.869-.749-2.733-.2-1.317-.434-2.491-.767-4.583-.167-1.048-.364-2.34-.65-3.436-.143-.548-.308-1.048-.516-1.459-.207-.408-.467-.776-.889-.92a3.6 3.6 0 0 0-.847-.184l-.014-.003h-.006v-.002l-.035-.006-.02-.004z" style="baseline-shift:baseline;display:inline;overflow:visible;vector-effect:none;fill:#fff;fill-rule:evenodd;stop-color:#000"/><path id="path109" d="m90.834 74.91-.225.434.545.449c.945.778.979 1.322.979 1.873 0 .265-.045.541.025.86a.95.95 0 0 0 .283.503c.156.141.349.21.545.248.34.086.735.092 1.125.104l.297.008.15-.256.003-.002.02-.035.218-.391-.361-.262c-.26-.187-.53-.142-.649-.14-.164.002-.322.005-.412-.01a.4.4 0 0 1-.086-.022l-.006-.002v-.004c-.006-.012-.035-.083-.002-.293.202-1.28-.422-2.187-1.195-2.925l-.002-.002a.2.2 0 0 0-.086-.059l-.158-.054-.178.125h-.004c-.289.048-.525-.063-.826-.147" style="baseline-shift:baseline;display:inline;overflow:visible;vector-effect:none;fill:#fff;fill-rule:evenodd;stop-color:#000"/><path id="path115" d="M88.026 65.39c-.752 0-1.45.207-1.994.585-.551.381-.97.985-.97 1.701v5.364c0 .716.419 1.318.97 1.7.546.378 1.243.582 1.994.582h1.894l.024-.726c.09-2.813.07-5.642-.024-8.479v-.001l-.023-.725zm0 1.5h.396a128 128 0 0 1 .02 6.932h-.416c-.473 0-.89-.14-1.14-.313-.256-.177-.323-.333-.323-.47v-5.363c0-.137.067-.293.323-.47.25-.174.668-.315 1.14-.315" style="baseline-shift:baseline;display:inline;overflow:visible;vector-effect:none;fill:#fff;fill-rule:evenodd;stop-color:#000"/><path id="path86-7" d="m105.683 86.47-.25.067c.06.373-.707.863-.16.596-.02.502-.136 3.378-.232 4.455-.372.293-1.037.567-1.906.75-.906.19-1.995.3-3.11.316-2.18.033-4.44-.316-5.617-.982a43 43 0 0 1-.371-4.537c.563.316-.053-.157-.148-.594l-.184-.064-.2.28c.02 1.72.193 3.432.419 5.128l.015.12.104.062c1.335.806 3.707 1.12 5.99 1.086 1.142-.018 2.258-.127 3.205-.327.947-.199 1.724-.474 2.207-.888l.076-.067.01-.1c.113-1.123.262-5 .262-5z" style="baseline-shift:baseline;display:inline;overflow:visible;fill:#fff;fill-opacity:1;fill-rule:evenodd;stroke:#fff;stroke-width:.4;stroke-dasharray:none;stroke-opacity:1;stop-color:#000"/><path id="path110" d="M97.085 85.492c-.747.058-1.085.13-1.651.239-.544.104-.988.225-1.317.375a1.5 1.5 0 0 0-.412.257.57.57 0 0 0-.2.41c0 .167.09.308.2.41.11.103.248.182.412.257.33.149.773.273 1.317.377 1.087.208 2.568.334 4.2.334s3.12-.124 4.216-.33c.547-.104.996-.226 1.328-.374.166-.073.303-.153.414-.255a.57.57 0 0 0 .2-.41c0-.168-.09-.31-.2-.413a1.5 1.5 0 0 0-.414-.256c-.332-.15-.78-.273-1.328-.378-.268-.052-.236-.106-.547-.147v.504c.278.038.214.087.453.133.524.1.947.222 1.217.344.135.06.23.123.279.168a.2.2 0 0 1 .039.044l.002-.004v.004h-.002a.2.2 0 0 1-.04.043 1.1 1.1 0 0 1-.278.166c-.27.12-.69.24-1.215.338q-.398.075-.87.135a.2.2 0 0 1-.126.041h-.22c-.856.093-1.851.147-2.907.147-1.607 0-3.066-.127-4.108-.327-.52-.1-.938-.219-1.205-.34a1.1 1.1 0 0 1-.275-.165.2.2 0 0 1-.04-.045.2.2 0 0 1 .04-.045 1.1 1.1 0 0 1 .275-.166c.267-.121.685-.242 1.205-.342.534-.103.9-.212 1.616-.269z" style="baseline-shift:baseline;display:inline;overflow:visible;vector-effect:none;fill:#fff;fill-rule:evenodd;stop-color:#000"/><path id="path111" d="m97.33 85.85-.266-.608c-.756.059-1.112.134-1.677.242-.555.107-1.014.232-1.373.395-.179.08-.343.173-.48.303a.82.82 0 0 0-.278.591c0 .257.135.46.28.594.138.13.3.22.478.301.358.162.818.288 1.373.395 1.11.212 2.602.337 4.248.337 1.645 0 3.144-.123 4.261-.334.559-.105 1.022-.229 1.383-.39.18-.08.344-.173.483-.301a.8.8 0 0 0 .281-.594.82.82 0 0 0-.281-.595c-.14-.13-.302-.22-.48-.301-.362-.163-.827-.29-1.386-.397-.116-.022-.14-.036-.212-.064a1.5 1.5 0 0 0-.348-.084l-.283-.037.028 1.051.189-.014c.123-.01.127.022.168.04.04.02.213.017.353.044.485.093.774.253 1.016.355a5.7 5.7 0 0 1-1.096.303c-1.564.295-3.315.318-4.076.318-1.594 0-3.042-.127-4.06-.322a5.6 5.6 0 0 1-1.087-.305c.24-.101.605-.214 1.086-.306.545-.105.89-.21 1.588-.266l.191-.015c-.012-.156 0-.182-.023-.336m7.865.779.28.025c.025.042.065.082.066.123l-.46-.033zm.014.508v.002c-.047.026-.075.054-.133.08.059-.026.086-.056.133-.082" style="baseline-shift:baseline;display:inline;overflow:visible;vector-effect:none;fill:#fff;fill-rule:evenodd;stop-color:#000"/><path id="path1-8" d="M106.647 68.81c-.174 0-.32.098-.32.217 0 .118.146.217.32.217h2.39c.174 0 .32-.099.32-.217 0-.119-.146-.218-.32-.218z" style="baseline-shift:baseline;display:inline;overflow:visible;fill:#fff;fill-opacity:1;fill-rule:evenodd;stroke-width:.446733;stroke-dasharray:none;stop-color:#000"/><path id="path1-6" d="M82.363 68.268a.3.3 0 0 0-.295.294c0 .161.135.295.295.295h2.21c.16 0 .294-.134.294-.295a.3.3 0 0 0-.295-.294z" style="baseline-shift:baseline;display:inline;overflow:visible;fill:#fff;fill-opacity:1;fill-rule:evenodd;stroke-width:.5;stroke-dasharray:none;stop-color:#000"/><path id="path64" d="M82.363 69.387a.3.3 0 0 0-.295.295c0 .16.135.295.295.295h2.21c.16 0 .294-.135.294-.295a.3.3 0 0 0-.295-.295z" style="baseline-shift:baseline;display:inline;overflow:visible;fill:#fff;fill-opacity:1;fill-rule:evenodd;stroke-width:.5;stroke-dasharray:none;stop-color:#000"/><path id="path65" d="M82.363 70.361a.3.3 0 0 0-.295.295c0 .16.135.295.295.295h2.21c.16 0 .294-.134.294-.295a.3.3 0 0 0-.295-.295z" style="baseline-shift:baseline;display:inline;overflow:visible;fill:#fff;fill-opacity:1;fill-rule:evenodd;stroke-width:.5;stroke-dasharray:none;stop-color:#000"/><path id="path66" d="M82.408 71.549a.3.3 0 0 0-.295.295c0 .16.135.295.295.295h2.21c.16 0 .294-.135.294-.295a.3.3 0 0 0-.295-.295z" style="baseline-shift:baseline;display:inline;overflow:visible;fill:#fff;fill-opacity:1;fill-rule:evenodd;stroke-width:.5;stroke-dasharray:none;stop-color:#000"/><path id="path102" d="M106.647 70.136c-.174 0-.32.1-.32.218s.146.217.32.217h2.39c.174 0 .32-.099.32-.217 0-.119-.146-.218-.32-.218z" style="baseline-shift:baseline;display:inline;overflow:visible;fill:#fff;fill-opacity:1;fill-rule:evenodd;stroke-width:.446733;stroke-dasharray:none;stop-color:#000"/><path id="path103" d="M106.647 71.474c-.174 0-.32.099-.32.217 0 .119.146.218.32.218h2.39c.174 0 .32-.1.32-.218s-.146-.217-.32-.217z" style="baseline-shift:baseline;display:inline;overflow:visible;fill:#fff;fill-opacity:1;fill-rule:evenodd;stroke-width:.446733;stroke-dasharray:none;stop-color:#000"/></g><path id="path2-6" d="M135.686 52.36c-2.021.007-2.07 3.019-.05 3.091 2.027.032 4.06.133 6.098.272 2.102.193 2.318-2.99.21-3.084a121 121 0 0 0-6.258-.28m-6.262.06-.041.002-.736.03h-.004q-1.41.06-2.819.157c-2.057.143-1.842 3.23.215 3.086q1.312-.09 2.625-.15l.834-.033.033-.002c2.081-.052 1.973-3.182-.107-3.09m-9.682.789a2 2 0 0 0-.158.012q-3.114.393-6.203.976c-2.027.384-1.45 3.424.576 3.04a98 98 0 0 1 6.016-.948c1.952-.239 1.736-3.134-.23-3.08m-12.187 2.316a1.6 1.6 0 0 0-.309.05 79 79 0 0 0-6.037 1.825c-1.983.66-.948 3.634 1.016 2.92a76 76 0 0 1 5.8-1.754c1.802-.47 1.39-3.137-.47-3.04m26.674 4.934a82 82 0 0 0-6.301.074c-2.059.107-1.899 3.195.16 3.088a79 79 0 0 1 6.064-.07c2.061.051 2.138-3.04.077-3.092m6.177.43c-1.968-.075-2.211 2.824-.258 3.078 1.586.215 3.162.518 4.715.904.391.1.763.195 1.11.297 1.978.582 2.851-2.385.873-2.967-.421-.124-.826-.225-1.21-.324l-.005-.002-.006-.002a47 47 0 0 0-5.06-.97 2 2 0 0 0-.159-.014m-18.498.36a1.6 1.6 0 0 0-.312.022 52 52 0 0 0-6.194 1.5c-2.017.586-1.076 3.614.918 2.952a48 48 0 0 1 5.823-1.409c1.825-.335 1.62-3.013-.235-3.066m30.211 3.136c-1.611.035-2.099 2.204-.658 2.926 1.74.884 3.398 1.96 4.973 3.164 1.607 1.227 3.485-1.233 1.877-2.46-1.7-1.298-3.513-2.479-5.45-3.462a1.54 1.54 0 0 0-.742-.168m-41.945.601a1.54 1.54 0 0 0-.742.162c-1.93.962-3.789 2.11-5.494 3.48-1.609 1.291.328 3.704 1.937 2.413 1.51-1.213 3.177-2.249 4.936-3.125 1.44-.714.969-2.878-.637-2.93m-9.47 7.76a1.55 1.55 0 0 0-1.308.635c-1.326 1.82-2.302 3.86-2.95 5.98-.653 1.997 2.38 2.926 2.956.905.557-1.822 1.39-3.55 2.494-5.065.729-1 .044-2.41-1.193-2.455m-3.71 11.611a1.546 1.546 0 0 0-1.578 1.516l-.002.123v.006c-.025 2.16.24 4.348.879 6.457.599 1.973 3.558 1.075 2.959-.898-.535-1.765-.768-3.64-.746-5.522v-.002l.002-.103a1.546 1.546 0 0 0-1.514-1.577m3.697 11.55c-1.303-.043-2.07 1.448-1.279 2.484 1.35 1.765 2.949 3.288 4.649 4.623 1.621 1.273 3.531-1.159 1.91-2.432-1.54-1.21-2.947-2.558-4.104-4.07a1.55 1.55 0 0 0-1.176-.606m-29.564 2.388a1.546 1.546 0 0 0-1.492 1.744c.28 2.15.783 4.28 1.535 6.332.676 2.006 3.683.903 2.902-1.064a26.3 26.3 0 0 1-1.37-5.666 1.545 1.545 0 0 0-1.575-1.346m39.072 5.377c-1.608-.043-2.204 2.093-.806 2.889a77 77 0 0 0 5.607 2.892c1.88.916 3.22-1.939 1.313-2.799a74 74 0 0 1-5.381-2.777 1.54 1.54 0 0 0-.733-.205m11.106 5.316c-1.689.013-2.136 2.338-.573 2.977 1.925.792 3.86 1.546 5.803 2.275 1.9.66 2.95-2.141 1.086-2.894a196 196 0 0 1-5.713-2.24 1.6 1.6 0 0 0-.603-.118m-45.897.817c-1.235-.011-1.984 1.358-1.308 2.392a33 33 0 0 0 4.08 5.033c1.444 1.471 3.651-.695 2.207-2.166a30 30 0 0 1-3.7-4.558 1.55 1.55 0 0 0-1.279-.701m57.541 3.554c-1.768-.063-2.24 2.412-.572 3.004a430 430 0 0 0 5.87 2.02c1.955.657 2.94-2.275.985-2.932a422 422 0 0 1-5.826-2.004 1.6 1.6 0 0 0-.457-.088m11.697 3.996c-1.77-.055-2.227 2.426-.554 3.006 1.94.672 3.87 1.36 5.79 2.073 1.943.738 3.03-2.192 1.075-2.899a290 290 0 0 0-5.853-2.096 1.5 1.5 0 0 0-.458-.084m-60.771 1.315c-1.448.058-2.028 1.897-.875 2.775A58 58 0 0 0 88.264 125c1.768 1.06 3.358-1.592 1.59-2.652a55 55 0 0 1-4.983-3.364 1.54 1.54 0 0 0-.996-.314m72.291 2.996c-1.689.022-2.124 2.35-.557 2.98 1.895.767 3.771 1.565 5.621 2.41 1.875.857 3.16-1.955 1.286-2.812a142 142 0 0 0-5.746-2.465 1.5 1.5 0 0 0-.604-.113m-61.73 3.395c-1.604.066-2.055 2.23-.612 2.933 1.886.92 3.798 1.77 5.719 2.576 1.9.798 3.098-2.053 1.197-2.851-1.88-.79-3.74-1.617-5.56-2.504a1.54 1.54 0 0 0-.744-.154m11.396 4.828c-1.682.062-2.07 2.386-.498 2.99 1.94.74 3.888 1.451 5.838 2.146 1.912.63 2.917-2.192 1.037-2.912a277 277 0 0 1-5.771-2.123 1.5 1.5 0 0 0-.606-.101m11.744 4.17c-1.769-.048-2.22 2.43-.549 3.01 1.96.672 3.92 1.324 5.873 1.978 1.956.655 2.939-2.279.983-2.934-1.957-.655-3.91-1.304-5.85-1.97a1.5 1.5 0 0 0-.457-.084m11.72 3.97c-1.767-.052-2.226 2.422-.558 3.008q2.907 1.005 5.791 2.074c1.932.719 3.01-2.18 1.078-2.898q-2.915-1.08-5.853-2.098a1.6 1.6 0 0 0-.457-.086m11.534 4.34c-1.698-.011-2.17 2.327-.6 2.975a83 83 0 0 1 5.522 2.521c1.84.93 3.236-1.83 1.396-2.76a86 86 0 0 0-5.726-2.617 1.6 1.6 0 0 0-.592-.119m10.969 5.62a1.54 1.54 0 0 0-1.274.712 1.547 1.547 0 0 0 .471 2.135c1.68 1.073 3.278 2.251 4.736 3.562 1.533 1.378 3.6-.922 2.067-2.3-1.609-1.446-3.343-2.721-5.137-3.867a1.55 1.55 0 0 0-.863-.243m37.639 6.777q-.08 0-.159.008c-.85.088-1.466.85-1.377 1.699a37.5 37.5 0 0 1 .131 5.931c-.11 2.059 2.977 2.225 3.088.166.115-2.13.083-4.28-.142-6.421a1.546 1.546 0 0 0-1.542-1.383zm-28.592 1.547c-1.234.018-1.951 1.403-1.254 2.421a18.6 18.6 0 0 1 2.486 5.116c.6 1.973 3.56 1.074 2.96-.899a21.7 21.7 0 0 0-2.897-5.967 1.55 1.55 0 0 0-1.295-.672m27.918 10.746a1.55 1.55 0 0 0-1.54 1.205 32 32 0 0 1-1.824 5.6c-.82 1.892 2.018 3.122 2.838 1.23a35 35 0 0 0 2.002-6.145 1.546 1.546 0 0 0-1.476-1.89m-24.325.894c-.853 0-1.545.693-1.544 1.547 0 1.94-.227 3.868-.733 5.705-.547 1.989 2.436 2.809 2.983.82.589-2.14.842-4.345.841-6.527 0-.854-.693-1.545-1.547-1.545m19.418 10.402a1.55 1.55 0 0 0-1.279.69 36.5 36.5 0 0 1-3.685 4.643c-1.318 1.504.854 3.527 2.261 2.107a39.5 39.5 0 0 0 3.998-5.035c.688-1.03-.056-2.411-1.295-2.404m-22.744 1.34a1.55 1.55 0 0 0-1.271.715c-1.028 1.612-2.303 3.087-3.729 4.418-1.507 1.408.605 3.668 2.112 2.26 1.586-1.481 3.034-3.149 4.224-5.016.664-1.042-.1-2.403-1.336-2.377m-71.982.977c-1.306.076-1.934 1.638-1.043 2.596a44 44 0 0 0 4.68 4.37c1.6 1.248 3.5-1.11 1.939-2.408a41 41 0 0 1-4.352-4.064 1.55 1.55 0 0 0-1.224-.494m86.38 6.744c-.355 0-.702.124-.98.352a52 52 0 0 1-4.853 3.53c-1.736 1.113-.066 3.717 1.67 2.604a55 55 0 0 0 5.142-3.744c1.123-.92.474-2.74-.978-2.742zm-23.193.752a1.54 1.54 0 0 0-.865.23c-1.665 1.032-3.446 1.904-5.289 2.647-1.911.772-.753 3.639 1.158 2.867 1.98-.798 3.917-1.745 5.758-2.885 1.302-.805.768-2.81-.762-2.86m-53.443.228c-1.607-.058-2.223 2.072-.832 2.88a44 44 0 0 0 5.75 2.82c1.911.772 3.07-2.095 1.158-2.867a41 41 0 0 1-5.346-2.622 1.54 1.54 0 0 0-.73-.21m41.912 4.463a1.6 1.6 0 0 0-.308.05 56 56 0 0 1-5.895 1.194c-2.04.303-1.585 3.363.455 3.06a59 59 0 0 0 6.223-1.263c1.807-.469 1.389-3.145-.475-3.04m-30.619.178c-1.768.092-2.02 2.601-.305 3.043a54 54 0 0 0 6.25 1.195c2.08.323 2.502-2.829.41-3.064a51 51 0 0 1-5.892-1.127 1.5 1.5 0 0 0-.463-.047m55.018 1.068a1.54 1.54 0 0 0-.743.163 65 65 0 0 1-5.523 2.437c-1.922.747-.802 3.63 1.12 2.883a68 68 0 0 0 5.788-2.555c1.435-.718.962-2.877-.642-2.928m-36.606.596c-2.01.105-4.028.115-6.04.033-2.06-.084-2.186 3.006-.126 3.09q3.164.13 6.326-.035c2.059-.107 1.899-3.195-.16-3.088m-54.805 3.873c-1.947.058-2.024 2.925-.082 3.086l1.666.131 4.502.346c2.056.16 2.295-2.925.239-3.084l-4.502-.346-1.664-.129q-.08-.006-.159-.004m79.871.03q-.235 0-.46.066a90 90 0 0 1-5.88 1.543c-2.01.457-1.325 3.473.686 3.016a93 93 0 0 0 6.082-1.598c1.698-.508 1.344-3.01-.428-3.027m-67.511.998c-1.933.033-2.068 2.867-.147 3.084q3.06.3 6.106.68c2.047.257 2.432-2.813.385-3.07a238 238 0 0 0-6.186-.687 2 2 0 0 0-.158-.008zm12.314 1.423c-1.942-.011-2.128 2.839-.201 3.08 2.051.241 4.106.476 6.168.688 2.05.21 2.367-2.865.316-3.076-2.04-.21-4.08-.442-6.125-.682a2 2 0 0 0-.158-.01m43.188.348a1.6 1.6 0 0 0-.313.022q-1.417.24-2.847.445h-.006l-.004.002a44 44 0 0 1-3.133.351c-2.101.12-1.854 3.289.24 3.082a47 47 0 0 0 3.344-.375l.01-.002q1.456-.21 2.914-.455c1.841-.308 1.66-3.01-.205-3.07m-30.94.889c-1.948.056-2.026 2.924-.084 3.086 2.094.165 4.182.25 6.258.304 2.11.107 2.193-3.088.08-3.09a116 116 0 0 1-6.096-.296 2 2 0 0 0-.158-.004m18.532.256q-3.067.097-6.14.107c-2.061.007-2.051 3.099.01 3.092q3.114-.01 6.23-.11c2.094-.035 1.992-3.19-.1-3.09" style="baseline-shift:baseline;display:inline;overflow:visible;opacity:1;vector-effect:none;fill:#fefeff;stroke-linecap:round;stroke-dasharray:6.18477,6.18477;stroke-dashoffset:3.40162;stop-color:#000;stop-opacity:1"/><path id="text148" d="m166.045 80.316-8.715-4.759 21.927-3.435-8.963-20.304 8.714 4.759 5.852 14.515 15.374-2.924 8.715 4.758-21.927 3.436 8.963 20.304-8.715-4.759-5.85-14.515z" aria-label="x" style="font-size:71.5108px;line-height:1;font-family:&quot;Adwaita Mono&quot;;-inkscape-font-specification:&quot;Adwaita Mono&quot;;text-align:center;text-anchor:middle;fill:#fff;fill-rule:evenodd;stroke-width:.744908;stroke-linecap:round;stroke-linejoin:bevel;stroke-miterlimit:7;stroke-dashoffset:3.3"/><path id="path1-5" d="M160.439 56.874c-1.605.142-1.948 2.338-.463 2.963 1.795.767 3.52 1.73 5.17 2.828 1.687 1.118 3.397-1.46 1.71-2.578-1.781-1.184-3.668-2.241-5.665-3.095a1.54 1.54 0 0 0-.752-.118" style="baseline-shift:baseline;display:inline;overflow:visible;vector-effect:none;fill:#fefeff;stroke-linecap:round;stroke-dasharray:6.18477,6.18477;stroke-dashoffset:3.40162;stop-color:#000"/><path id="path1-53" d="M147.01 52.983c-1.52.534-1.31 2.747.283 2.985 1.93.3 3.839.808 5.71 1.463 1.91.667 2.93-2.253 1.02-2.92-2.02-.707-4.109-1.265-6.255-1.6a1.54 1.54 0 0 0-.758.072" style="baseline-shift:baseline;display:inline;overflow:visible;vector-effect:none;fill:#fefeff;stroke-linecap:round;stroke-dasharray:6.18477,6.18477;stroke-dashoffset:3.40162;stop-color:#000;fill-opacity:1"/></svg>