<svg xmlns="http://www.w3.org/2000/svg" xmlns:xlink="http://www.w3.org/1999/xlink" xml:space="preserve" width="256" height="256"><defs><linearGradient id="r"><stop offset="0" style="stop-color:#84451e;stop-opacity:1"/><stop offset=".172" style="stop-color:#cbaf7d;stop-opacity:1"/><stop offset=".366" style="stop-color:#b69562;stop-opacity:1"/><stop offset=".404" style="stop-color:#ab895b;stop-opacity:1"/><stop offset=".539" style="stop-color:#936d3c;stop-opacity:1"/></linearGradient><linearGradient id="k"><stop offset="0" style="stop-color:#8a673c;stop-opacity:.14195693"/><stop offset="1" style="stop-color:#755b2b;stop-opacity:0"/></linearGradient><linearGradient id="m"><stop offset="0" style="stop-color:#584224;stop-opacity:1"/><stop offset="1" style="stop-color:#584224;stop-opacity:0"/></linearGradient><linearGradient id="l"><stop offset="0" style="stop-color:#8a673c;stop-opacity:.14195693"/><stop offset="1" style="stop-color:#dac397;stop-opacity:0"/></linearGradient><linearGradient id="g"><stop offset="0" style="stop-color:#765730;stop-opacity:.78584099"/><stop offset="1" style="stop-color:#936d3c;stop-opacity:0"/></linearGradient><linearGradient id="j"><stop offset="0" style="stop-color:#795c37;stop-opacity:.813263"/><stop offset="1" style="stop-color:#42321e;stop-opacity:0"/></linearGradient><linearGradient id="i"><stop offset="0" style="stop-color:#8a673c;stop-opacity:1"/><stop offset="1" style="stop-color:#7c5c36;stop-opacity:0"/></linearGradient><linearGradient id="h"><stop offset="0" style="stop-color:#523d22;stop-opacity:.90197855"/><stop offset="1" style="stop-color:#936d3c;stop-opacity:0"/></linearGradient><linearGradient id="f"><stop offset="0" style="stop-color:#936d3c;stop-opacity:.35686275"/><stop offset="1" style="stop-color:#936d3c;stop-opacity:0"/></linearGradient><linearGradient id="b"><stop offset="0" style="stop-color:#93744b;stop-opacity:1"/><stop offset=".5" style="stop-color:#f3e1b3;stop-opacity:1"/><stop offset="1" style="stop-color:#f1deac;stop-opacity:1"/></linearGradient><linearGradient id="a"><stop offset="0" style="stop-color:#936d3c;stop-opacity:1"/><stop offset="1" style="stop-color:#c3a87e;stop-opacity:1"/></linearGradient><linearGradient id="d"><stop offset="0" style="stop-color:#93744b;stop-opacity:1"/><stop offset=".389" style="stop-color:#f3e1b3;stop-opacity:1"/><stop offset="1" style="stop-color:#f1deac;stop-opacity:1"/></linearGradient><linearGradient id="c"><stop offset="0" style="stop-color:#c3a87e;stop-opacity:1"/><stop offset="1" style="stop-color:#936d3c;stop-opacity:1"/></linearGradient><linearGradient id="e"><stop offset="0" style="stop-color:#d17237;stop-opacity:1"/><stop offset=".202" style="stop-color:#cbaf7d;stop-opacity:1"/><stop offset=".303" style="stop-color:#bd9f71;stop-opacity:1"/><stop offset=".404" style="stop-color:#ab895b;stop-opacity:1"/><stop offset=".539" style="stop-color:#936d3c;stop-opacity:1"/></linearGradient><linearGradient xlink:href="#a" id="x" x1="38.596" x2="25.86" y1="203.04" y2="206.313" gradientTransform="matrix(.9824 0 0 1.07137 5.338 -7.255)" gradientUnits="userSpaceOnUse"/><linearGradient xlink:href="#b" id="w" x1="17.137" x2="39.069" y1="206.6" y2="206.6" gradientTransform="matrix(.9824 0 0 1.07137 5.338 -7.255)" gradientUnits="userSpaceOnUse"/><linearGradient xlink:href="#c" id="z" x1="32.292" x2="33.75" y1="48.99" y2="58.658" gradientTransform="matrix(.9824 0 0 1.07137 5.338 -7.255)" gradientUnits="userSpaceOnUse"/><linearGradient xlink:href="#d" id="y" x1="16.88" x2="38.813" y1="46.025" y2="44.563" gradientTransform="matrix(.9824 0 0 1.07137 5.338 -7.255)" gradientUnits="userSpaceOnUse"/><linearGradient xlink:href="#e" id="A" x1="142.089" x2="123.976" y1="40.394" y2="337.653" gradientUnits="userSpaceOnUse"/><linearGradient xlink:href="#b" id="s" x1="17.137" x2="39.069" y1="206.6" y2="206.6" gradientTransform="matrix(.9824 0 0 1.07137 5.338 -7.255)" gradientUnits="userSpaceOnUse"/><linearGradient xlink:href="#a" id="t" x1="38.596" x2="25.86" y1="203.04" y2="206.313" gradientTransform="matrix(.9824 0 0 1.07137 5.338 -7.255)" gradientUnits="userSpaceOnUse"/><linearGradient xlink:href="#d" id="u" x1="16.88" x2="38.813" y1="46.025" y2="44.563" gradientTransform="matrix(.9824 0 0 1.07137 5.338 -7.255)" gradientUnits="userSpaceOnUse"/><linearGradient xlink:href="#c" id="v" x1="32.292" x2="33.75" y1="48.99" y2="58.658" gradientTransform="matrix(.9824 0 0 1.07137 5.338 -7.255)" gradientUnits="userSpaceOnUse"/><linearGradient xlink:href="#f" id="H" x1="229.954" x2="239.123" y1="62.355" y2="83.536" gradientUnits="userSpaceOnUse"/><linearGradient xlink:href="#g" id="I" x1="236.772" x2="219.536" y1="51.035" y2="71.937" gradientUnits="userSpaceOnUse"/><linearGradient xlink:href="#h" id="G" x1="18.987" x2="47.472" y1="52.071" y2="69.292" gradientUnits="userSpaceOnUse"/><linearGradient xlink:href="#i" id="J" x1="233.284" x2="199.368" y1="204.237" y2="167.124" gradientUnits="userSpaceOnUse"/><linearGradient xlink:href="#j" id="D" x1="25.027" x2="49.941" y1="197.948" y2="171.15" gradientTransform="matrix(.9824 0 0 1.07137 5.338 -7.255)" gradientUnits="userSpaceOnUse"/><linearGradient xlink:href="#k" id="E" x1="117.568" x2="47.248" y1="91.191" y2="103.545" gradientUnits="userSpaceOnUse"/><linearGradient xlink:href="#l" id="F" x1="117.568" x2="56.904" y1="91.191" y2="99.882" gradientUnits="userSpaceOnUse"/><linearGradient xlink:href="#m" id="C" x1="22.159" x2="25.345" y1="216.96" y2="209.437" gradientUnits="userSpaceOnUse"/><linearGradient xlink:href="#r" id="B" x1="146.669" x2="123.976" y1="30.827" y2="337.653" gradientUnits="userSpaceOnUse"/></defs><path d="M26.033 205.82c-1.245 3.295-2.49 6.589-3.143 8.509-.653 1.918-.716 3.062-.716 3.062s.053 1.255.498 1.894c.444.639 1.277 1.26 2.417 1.753.752.326 1.638.595 2.611.807.678-4.029 1.133-7.056 1.133-7.056s.47 3.394 1.186 7.44c1.385.16 2.908.2 4.746-.037.9-.117 1.877-.3 2.823-.522.71-1.961.978-2.509 1.085-.277.935-.257 1.795-.543 2.462-.83 1.566-.672 2.076-1.347 2.585-2.02l-.243-1.868s-3.73-9.903-6.015-10.06z" style="fill:url(#s);fill-rule:evenodd;stroke:none;stroke-width:1.77543;stroke-dasharray:none;stroke-opacity:1" transform="matrix(-1 0 0 1 262.23 -.054)"/><path d="m30.662 210.707.08 3.075c.044.005.086.01.899-.004 4.854-.423 8.617 1.04 12.078 4.766l-.929-15.937-12.866 2.214.602 4.392c.12.879.12.879.137 1.495z" style="fill:url(#t);fill-rule:evenodd;stroke-width:1.77543;stroke-dasharray:none" transform="matrix(-1 0 0 1 262.23 -.054)"/><path d="M33.907 37.277a27 27 0 0 0-4.063.128c-.617 3.587-1.01 6.435-1.01 6.435s-.388-2.57-.979-6.126c-2.24.458-4.102 1.25-5.078 2.359-.594.675-.726 1.328-.857 1.98.233.815.466 1.63 3.888 3.89 3.423 2.26 10.036 5.964 13.511 5.296 3.476-.668 3.812-5.71 4.15-10.751-1.022-1.17-2.772-2.012-4.845-2.544-.108 1.12-.318.895-.734-.173a24 24 0 0 0-3.983-.494" style="fill:url(#u);fill-rule:evenodd;stroke:none;stroke-width:1.77543;stroke-dasharray:none;stroke-opacity:1" transform="matrix(-1 0 0 1 262.172 0)"/><path d="M30.638 48.97c.017-1.418-.032-2.24-.08-3.059.762 0 1.525 0 2.612-.089a30.454 33.213 0 0 0 3.89-.591c1.393-.325 2.764-.793 3.798-1.329 1.565-.692 2.21-1.752 2.61-3.414l-.678 13.406c-.941 4.906-1.881 9.812-3.938 9.898s-5.229-4.645-6.773-8.018-1.459-5.388-1.441-6.805" style="fill:url(#v);fill-opacity:1;fill-rule:evenodd;stroke:none;stroke-width:1.77543;stroke-dasharray:none;stroke-opacity:1" transform="matrix(-1 0 0 1 262.172 0)"/><path d="M26.033 205.82c-1.245 3.295-2.493 6.588-3.143 8.509-.65 1.92-.736 2.448-.773 3.007-.06.9.22 1.467.555 1.95.444.638 1.277 1.26 2.417 1.752.752.326 1.638.595 2.611.807.678-4.029 1.133-7.056 1.133-7.056s.47 3.394 1.186 7.44c1.385.16 2.908.2 4.746-.037.9-.117 1.877-.3 2.823-.522.71-1.961.978-2.509 1.085-.277.935-.257 1.795-.543 2.462-.83 1.566-.672 2.076-1.347 2.585-2.02l-.243-1.868s-3.73-9.903-6.015-10.06z" style="fill:url(#w);fill-rule:evenodd;stroke:none;stroke-width:1.77543;stroke-dasharray:none;stroke-opacity:1"/><path d="m30.662 210.707.08 3.075c.044.005.086.01.899-.004 4.854-.423 8.617 1.04 12.078 4.766l-.929-15.937-12.866 2.214.602 4.392c.12.879.12.879.137 1.495z" style="fill:url(#x);fill-rule:evenodd;stroke-width:1.77543;stroke-dasharray:none"/><path d="M33.907 37.277a27 27 0 0 0-4.063.128c-.617 3.587-1.01 6.435-1.01 6.435s-.388-2.57-.979-6.126c-2.24.458-4.102 1.25-5.078 2.359-.594.675-.726 1.328-.857 1.98.233.815.466 1.63 3.888 3.89 3.423 2.26 10.036 5.964 13.511 5.296 3.476-.668 3.812-5.71 4.15-10.751-1.022-1.17-2.772-2.012-4.845-2.544-.108 1.12-.318.895-.734-.173a24 24 0 0 0-3.983-.494" style="fill:url(#y);fill-rule:evenodd;stroke:none;stroke-width:1.77543;stroke-dasharray:none;stroke-opacity:1"/><path d="M30.638 48.97c.017-1.418-.032-2.24-.08-3.059.762 0 1.525 0 2.612-.089a30.454 33.213 0 0 0 3.89-.591c1.393-.325 2.764-.793 3.798-1.329 1.565-.692 2.21-1.752 2.61-3.414l-.678 13.406c-.941 4.906-1.881 9.812-3.938 9.898s-5.229-4.645-6.773-8.018-1.459-5.388-1.441-6.805" style="fill:url(#z);fill-opacity:1;fill-rule:evenodd;stroke:none;stroke-width:1.77543;stroke-dasharray:none;stroke-opacity:1"/><g style="stroke-width:1.73057;stroke-dasharray:none"><path d="M16.88 46.025c1.202 11.402 3.007 23.137 3.83 35.963.825 12.827 1.27 27.078 1.404 40.795s.094 27.133-.974 41.696c-1.07 14.564-2.1 29.208-4.06 45.15 1.692-2.225 2.318-3.388 5.88-5.392 3.564-2.004 8.996-3.784 16.345-5.565 5.833-1.415 12.872-2.828 20.873-3.996 0 0 .124-4.28 1.652-5.85 0 0-.02.202-.119.523-.214.697-.159 5.13-.159 5.13q2.469-.348 5.052-.66c5.778-.698 37.23-3.973 86.586-2.496 13.406.401 25.522 1.205 36.212 2.496q.662.08 1.316.162c.048-2.747.101-5.76.12-6.696l.033-1.704.861 2.142c.392.975 1.022 3.844 1.573 6.597 9.049 1.232 16.955 2.79 23.394 4.352 7.349 1.78 12.783 3.561 16.346 5.565s4.187 3.168 5.879 5.395c-1.959-15.944-2.99-30.588-4.06-45.15-1.069-14.565-1.108-27.98-.974-41.699.133-13.717.58-27.968 1.404-40.795.824-12.826 2.627-24.56 3.829-35.963-10.829 8.653-23.704 12.57-37.098 14.674.06.75-.555 1.611-.555 1.611s.111-1.168.042-1.531a183 183 0 0 1-8.221 1.057c-.551 2.753-1.167 5.546-1.559 6.521l-.86 2.142-.035-1.704c-.018-.936-.071-3.95-.119-6.696-6.4.621-12.822 1.02-19.106 1.504-4.862.343-9.896.616-15.018.826l.05.585c.084.999.09 1.782.02 1.852l-.002.002h-.002l-.004.002h-.008l-.002-.002h-.002l-.002-.002-.002-.002c-.094-.075-.407-.951-.698-1.947l-.133-.456c-5.571.221-11.24.367-16.89.447l.022.314c.126 1.897-.233 1.818-.721-.157l-.036-.146h-.002c-9.43.123-18.8.062-27.587-.146-.06.974-.128 1.967-.195 2.959-.48-1.006-.962-2.013-1.42-2.999-9.055-.235-17.446-.626-24.589-1.13-7.506-.578-15.21-1.034-22.84-1.894-.131 1.042-.054 4.432.16 5.13.098.321.12.523.12.523-1.53-1.57-1.36-5.285-1.643-5.812-15.598-1.862-30.813-5.54-43.307-15.525Z" style="opacity:1;fill:url(#A);fill-opacity:1;fill-rule:evenodd;stroke-width:1.73057;stroke-dasharray:none" transform="matrix(.9824 0 0 1.07137 5.338 -7.255)"/><path d="M16.88 46.025c1.202 11.402 3.007 23.137 3.83 35.963.825 12.827 1.27 27.078 1.404 40.795s.094 27.133-.974 41.696c-1.07 14.564-2.1 29.208-4.06 45.15 1.692-2.225 2.318-3.388 5.88-5.392 3.564-2.004 8.996-3.784 16.345-5.565 5.833-1.415 12.872-2.828 20.873-3.996 0 0 .124-4.28 1.652-5.85 0 0-.02.202-.119.523-.214.697-.159 5.13-.159 5.13q2.469-.348 5.052-.66c5.778-.698 37.23-3.973 86.586-2.496 13.406.401 25.522 1.205 36.212 2.496q.662.08 1.316.162c.048-2.747.101-5.76.12-6.696l.033-1.704.861 2.142c.392.975 1.022 3.844 1.573 6.597 9.049 1.232 16.955 2.79 23.394 4.352 7.349 1.78 12.783 3.561 16.346 5.565s4.187 3.168 5.879 5.395c-1.959-15.944-2.99-30.588-4.06-45.15-1.069-14.565-1.108-27.98-.974-41.699.133-13.717.58-27.968 1.404-40.795.824-12.826 2.627-24.56 3.829-35.963-10.829 8.653-23.704 12.57-37.098 14.674.06.75-.555 1.611-.555 1.611s.111-1.168.042-1.531a183 183 0 0 1-8.221 1.057c-.551 2.753-1.167 5.546-1.559 6.521l-.86 2.142-.035-1.704c-.018-.936-.071-3.95-.119-6.696-6.4.621-12.822 1.02-19.106 1.504-4.862.343-9.896.616-15.018.826l.05.585c.084.999.09 1.782.02 1.852l-.002.002h-.002l-.004.002h-.008l-.002-.002h-.002l-.002-.002-.002-.002c-.094-.075-.407-.951-.698-1.947l-.133-.456c-5.571.221-11.24.367-16.89.447l.022.314c.126 1.897-.233 1.818-.721-.157l-.036-.146h-.002c-9.43.123-18.8.062-27.587-.146-.06.974-.128 1.967-.195 2.959-.48-1.006-.962-2.013-1.42-2.999-9.055-.235-17.446-.626-24.589-1.13-7.506-.578-15.21-1.034-22.84-1.894-.131 1.042-.054 4.432.16 5.13.098.321.12.523.12.523-1.53-1.57-1.36-5.285-1.643-5.812-15.598-1.862-30.813-5.54-43.307-15.525Z" style="opacity:1;fill:url(#B);fill-opacity:1;fill-rule:evenodd;stroke-width:1.73057;stroke-dasharray:none" transform="matrix(.9824 0 0 1.07137 5.338 -7.255)"/></g><path d="M-43.05 237.483c-1.504 0-2.98.397-4.28 1.147l-26.889 15.523a8.57 8.57 0 0 0-4.281 7.42v31.042a8.57 8.57 0 0 0 4.281 7.417l26.888 15.526a8.58 8.58 0 0 0 8.566 0l26.882-15.526a8.57 8.57 0 0 0 4.284-7.417v-31.042a8.56 8.56 0 0 0-4.284-7.42l-26.882-15.52a8.6 8.6 0 0 0-4.284-1.15m-22.67 36.96 14.134 14.947v4.615l-14.133-1.373v-5.4l9.229 1.588-9.23-8.976zm49.279 14.33v5.085l-17.003 9.82v-5.089z" style="fill:#251c0d;fill-opacity:1" transform="translate(230.681 -16.46)scale(.37248)"/><path d="m158.61 148.005 8.49-3.248 8.491 3.25v5.447h-16.98z" style="fill:none;fill-opacity:1;stroke-width:.0405671"/><g style="stroke-miterlimit:0"><path fill="none" d="M-815.11 230.18A241.43 241.43 0 0 1-649.513 95.579c73.109-16.713 142.82-3.688 200.621 44.096" style="baseline-shift:baseline;display:inline;overflow:visible;vector-effect:none;fill-opacity:0;stop-color:#000;stop-opacity:1" transform="matrix(.01178 -.01813 .01479 .01203 172.467 125.102)"/></g><path fill="none" d="M167.94 143.897c1.03 1.128 1.457 2.682 1.336 4.322a5.306 4.497 88.062 0 1-2.06 3.984" style="baseline-shift:baseline;display:inline;overflow:visible;vector-effect:none;fill-opacity:0;stroke-width:.0202346;stroke-miterlimit:0;stop-color:#000"/><path d="M23.168 207.275a735 735 0 0 1-1.05 10.06c1.661-2.384 2.276-3.63 5.777-5.776v-1.27c-.915-2.06-2.994-2.293-4.727-3.014" style="fill:url(#C);fill-opacity:.481978;fill-rule:evenodd;stroke:none;stroke-width:2;stroke-linecap:round;stroke-linejoin:bevel;stroke-miterlimit:7;stroke-opacity:1"/><path d="M30.164 129.225c-.494.84-.91 1.987-1.102 3.228-.437 2.847-1.056 4.472-1.95 5.033-.01 3.17-.04 6.343-.098 9.541 1.894-.27 3.573-.63 4.06-.89 1.495-.8 1.826-4.104.54-5.39-.568-.568-.876-1.503-.684-2.077.238-.716-.037-.897-.873-.576-.871.334-1.22.054-1.22-.977 0-.897.378-1.297.995-1.06.731.28.928-.269.746-2.075-.136-1.35-.039-1.996.215-1.437.39.858.562.858 1.105 0 .504-.795.646-.732.655.289.008.944.617 1.303 2.203 1.303 2.648 0 3.714-1.38 2.021-2.617-.677-.496-1.232-1.302-1.232-1.793 0-.251-.086-.426-.227-.502h-.384a1 1 0 0 0-.133.068c-.238.147-.415.104-.535-.068zm10.97 1.185c-.614 0-1.116.336-1.116.746s.502.746 1.117.746 1.117-.336 1.117-.746-.502-.746-1.117-.746m-2.98 4.473c-.663 0-1 .334-.746.744s.59.746.746.746.491-.336.744-.746c.254-.41-.08-.744-.744-.744m6.06 4.031c-.172.007-.143.413.075 1.246.264 1.008.601 1.345.787.787.18-.537-.03-1.332-.463-1.765q-.272-.273-.398-.268m2.28 4.924c-.533.008-.441.298.23.732 1.432.926 1.69.926 1.118 0-.254-.41-.86-.738-1.348-.732m-13.58 3.217c-.209.01-.35.173-.35.453 0 .434.335.789.745.789s.746-.147.746-.328-.337-.536-.746-.79a.75.75 0 0 0-.395-.124m6.068 1.193c-1.345-.022-2.273 1.4-1.224 3.36.656 1.225 1.38 1.583 2.695 1.331 2.008-.383 2.238-1.393.762-3.337-.71-.934-1.528-1.342-2.233-1.354m13.668 1.594c-.51.015-.709.554-.709 1.683 0 1.352.373 1.706 1.676 1.588 1.734-.157 1.915-1.73.315-2.748-.556-.353-.975-.533-1.282-.523m-23.644 2.205c-1.083-.027-2.63 3.476-1.992 4.51.655 1.06 1.382.817 2.396-.807.512-.82 1.496-1.49 2.186-1.49 1.087 0 1.061-.145-.194-1.094-.795-.602-1.874-1.106-2.396-1.12m14.219 1.224q-.42.002-.973.084c-2.657.39-2.667.44-.693 3.211.847 1.19 1.6 2.16 1.675 2.155 1.27-.105 6.1-2.255 6.1-2.715 0-.346-1.092-.733-2.424-.861-1.332-.129-2.422-.658-2.422-1.176 0-.467-.427-.701-1.263-.697m-9.082 1.733c-.41 0-.952.336-1.206.746-.253.41-.124.746.286.746s.951-.336 1.205-.746c.253-.41.124-.746-.285-.746m25.295 2.236c-.386 0-.91.335-1.163.744-.253.41.063.746.702.746s1.162-.336 1.162-.746-.316-.744-.702-.744m-8.03.78c-.57-.015-.917.407-.615 1.359.815 2.567-.856 4.694-3.564 4.535-3.05-.178-7.57.842-6.543 1.477.5.308.273.93-.616 1.691-1.304 1.117-1.432 1.1-1.777-.22-.383-1.464-2.002-2.012-2.002-.678 0 .41-.525.744-1.168.744-.829 0-1.031.432-.695 1.49.367 1.158.134 1.492-1.05 1.492-1.293 0-1.453-.336-1.073-2.236.384-1.923.225-2.236-1.137-2.236-.871 0-1.584.47-1.584 1.044 0 .71-.834 1.021-2.61.971a11 11 0 0 1-.767-.049q-.049.778-.102 1.559c-.841 12.493-1.657 25.04-2.937 38.312 1.416.465 2.69 2.408 2.69 4.32q.002.625.144 1.241a23 23 0 0 1 1.893-1.277c3.5-2.147 8.837-4.055 16.056-5.963 5.73-1.516 12.645-3.03 20.506-4.282 0 0 .122-4.585 1.623-6.267 0 0-.02.216-.117.56-.21.748-.156 5.497-.156 5.497a235 235 0 0 1 2.6-.383l.253-.815c.385-1.237.222-1.677-.623-1.677-.709 0-.981-.423-.717-1.112.282-.734 1.006-.967 2.127-.685 1.631.409 1.684.278 1.313-3.174-.213-1.98-.485-3.715-.606-3.856v-.002l-.002-.002v-.002c-.068-.182 1.435-1.717 3.387-3.45 2.465-2.19 3.365-3.445 2.842-3.968s-.247-1.314.873-2.503c2.224-2.362 3.27-4.348 2.289-4.348-.424 0-.774.286-.774.635 0 .903-4.336 5.326-5.222 5.326-.406 0-.74.587-.742 1.304-.009 2.704-2.588 5.554-6.297 6.958-2.845 1.077-3.825 1.187-4.274.48-.434-.685-.585-.692-.593-.03-.007.489.353 1.114.798 1.39s.53.754.186 1.064c-.852.77-6.213.023-6.213-.865 0-.393.643-.51 1.428-.26s1.626.136 1.867-.254c.61-.988-.295-3.08-1.332-3.08-1.335 0-2.83 2.912-2.32 4.517.346 1.091.102 1.446-.993 1.446-1.83 0-3.423-1.865-2.855-3.344.265-.69.009-1.129-.662-1.129-.718 0-1.094.766-1.094 2.223 0 1.811-.38 2.309-2.05 2.697-1.128.262-2.386.876-2.796 1.363-.562.67-1.364.464-3.273-.834l-2.533-1.72 2.904.111c5.509.21 7.748-1.633 7.748-6.379 0-1.511-.373-1.702-3.42-1.748-2.486-.038-3.832.362-4.928 1.457-1.311 1.312-1.759 1.386-3.472.58-1.15-.54-1.58-1.065-1.035-1.262 1.313-.475 1.161-2.449-.188-2.449-1.337 0-1.481-2.32-.223-3.578.492-.492 1.51-.893 2.26-.893s1.557-.504 1.793-1.119c.632-1.645 3.321-1.38 3.78.373.454 1.737 1.707 2.01 1.707.371 0-.614-.348-1.117-.772-1.117-.523 0-.513-.48.027-1.49.708-1.321.561-1.496-1.279-1.54-2.032-.05-2.04-.067-.398-.858.922-.445 1.677-1.09 1.677-1.432s1.173-1.112 2.608-1.71c1.434-.6 2.607-1.611 2.607-2.247s.491-1.156 1.09-1.156c1.32 0 4.127-2.882 4.127-4.239 0-.537-.424-.978-.941-.978-.518 0-1.272-.752-1.676-1.672-.555-1.26-1.654-2.001-2.387-2.02m-5.297 1.798a.43.43 0 0 0-.336.11c-.241.241-.26.91-.039 1.484.436 1.135 2.479 1.457 2.479.39 0-.784-1.362-1.953-2.104-1.984m36.758 4.875c-.787 0-1.084.717-1.006 2.422l.112 2.422.35-2.236c.307-1.973.419-2.06.952-.744.575 1.415.609 1.405.659-.188.031-1.017-.389-1.676-1.067-1.676m-6.103.051c-.898-.029-1.84.284-2.094.694-.545.881.183.881 2.234 0 1.437-.618 1.434-.644-.14-.694m16.91 2.184a.75.75 0 0 0-.746.746.746.746 0 1 0 .746-.746m-2.049.916c-.075.04-.094.511-.123 1.383-.035 1.058.158 2.148.432 2.421.865.866.966.12.289-2.148-.328-1.096-.495-1.637-.586-1.656h-.01zm-9.477 5.047c-.185.02-.526.347-.771.744-.253.41-.106.746.328.746s.79-.336.79-.746-.148-.744-.329-.744zm4.631.011c-.725-.006-1.304.54-1.304 1.23 0 .684.253.938.56.567a9 9 0 0 1 1.305-1.23c.425-.318.184-.56-.56-.567m-54.287 1.108q.184.001.48.115c.595.228 1.08.716 1.08 1.082 0 1.071-1.293.763-1.745-.416q-.285-.744.136-.78zm15.975 3.61c-.104.01-.174.283-.196.798-.032.786.143 1.226.391.978.248-.247.276-.891.06-1.43-.096-.24-.184-.355-.255-.347m-6.217 4.958a.747.747 0 0 0 0 1.492c.41 0 .746-.336.746-.746a.75.75 0 0 0-.746-.746m58.412 0-.002.002c-.154.026-.28.853-.28 1.861 0 1.025.288 1.864.641 1.864s.483-.839.287-1.864c-.195-1.024-.485-1.863-.642-1.863h-.002zm-20.922.33-.05.002c-.13.007-.303.05-.51.13-.636.243-1.157.574-1.157.735 0 .604 1.42.265 1.858-.443.168-.272.104-.42-.14-.424m9.418.416c-.434 0-.581.336-.328.746s.608.744.79.744c.18 0 .327-.334.327-.744s-.355-.746-.789-.746m-5.336 4.56-2.445.087 2.234.476c1.718.365 2.29.934 2.467 2.461.202 1.742.018 1.934-1.49 1.565-.947-.232-2.118-.731-2.604-1.11-.641-.5-.864-.049-.816 1.65.056 1.987.3 2.28 1.627 1.956.859-.21 3.323-.612 5.474-.893 2.152-.28 3.915-.85 3.915-1.264 0-1.04-2.35-2.728-3.834-2.757-.674-.013-1.419-.526-1.655-1.141-.271-.708-1.324-1.085-2.873-1.03m18.057.071c-.54.025-.754 1.178-.754 3.94 0 3.047.26 4.136.932 3.912.574-.192.933-1.693.933-3.912 0-2.22-.36-3.723-.933-3.915a.5.5 0 0 0-.178-.025m-17.194 2.076c-.434 0-.58.334-.328.744.254.41.609.746.79.746.18 0 .328-.336.328-.746s-.355-.744-.79-.744m11.399 2.541c-1.08-.032-2.258.46-2.656 1.498-.199.518-.063 1.413.302 1.99 1.276 2.016.71 2.584-2.293 2.297-1.64-.156-2.98-.605-2.98-.998 0-.392-1.087-.61-2.416-.482-2.007.194-3.004 1.253-2.68 2.24 4.382-.36 9.78-.734 16.12-1.047-.03-.667.131-1.456.404-1.89.374-.597.166-.932-.578-.932-.64 0-1.163-.466-1.163-1.037 0-1.05-.98-1.607-2.06-1.639m-38.516 1.932c.497 0 1.066.846 1.264 1.88.382 2.001-.173 2.822-1.34 1.983-1.041-.748-.98-3.863.076-3.863m58.266.937c-1.404.933-1.552 1.1-.629 2.063l.629-.014zm-36.867 1.827c-.566 0-1.23.239-1.805.738-1.032.897-1.49.91-2.816.088-1.026-.636-1.774-.719-2.121-.237-.295.41-1.336 1.415-2.313 2.235l-.596.5q.72-.1 1.452-.196c1.525-.2 4.873-.601 9.894-1.048-.254-.315-.404-.64-.404-.952 0-.735-.564-1.129-1.291-1.128" style="fill:url(#D);fill-opacity:.405202;fill-rule:evenodd;stroke-width:1.77543;stroke-dasharray:none"/><path d="M46.105 121.963a2.7 2.7 0 0 0-1.062.165l-13.192 4.976-.002.002c-1.03.398-1.285 1.879-.452 2.62l.002.002 3.918 3.416-3.514 2.89c-1.052.863-.765 2.662.501 3.176l3.53 1.442-.138 11.147a2.81 2.81 0 0 0 1.785 2.634l12.845 5.08h.004c.215.085.437.114.654.098q.195.003.39-.062h.005l12.515-4.355c1.454-.505 2.467-1.84 2.54-3.346l.506-10.685 3.66-1.319c1.318-.47 1.717-2.276.699-3.183l-3.368-3.011 3.8-3.011c1.063-.839.868-2.602-.348-3.105l-12.402-5.155v.004a2.97 2.97 0 0 0-1.608-.197 3.1 3.1 0 0 0-1.498.669v-.004l-4.115 3.355-4.024-3.579v-.002a2.66 2.66 0 0 0-1.631-.662m5.645 6.926 11.325 4.678-9.752 3.62-1.89.7-11.276-4.691z" style="baseline-shift:baseline;display:inline;overflow:visible;vector-effect:none;fill:#251c0d;fill-opacity:1;stroke:none;stroke-width:1.51195;stroke-opacity:1;stop-color:#000" transform="translate(4.961 21.963)scale(.84066)"/><g style="fill:url(#E);fill-opacity:1;stroke-width:1.73057;stroke-dasharray:none"><path d="M166.469 63.936c-3.24.193-6.538.356-9.875.493l.05.585c.245 2.89-.11 1.83-.702-.097l-.133-.456-.176 4.64c2.01-.528 7.059-1.364 7.87-1.858.81-.493 2.274-.708 3.25-.477 1.635.386 1.68.31.557-.945q-.604-.674-.841-1.885m-33.842 2.99c-3.134 0-3.527.203-3.968 2.05-.27 1.126-.626 2.459-.793 2.96s.46 1.402 1.393 2.001c1.096.704 1.513 1.533 1.175 2.34-.424 1.014-.75 1.077-1.731.33-.68-.517-1.209-.596-1.209-.177 0 1.26 2.152 2.469 5.209 2.924 1.604.238 2.916.725 2.916 1.08 0 .935.35.82 2.364-.781 1.332-1.06 1.767-2.173 1.674-4.284-.069-1.57-.184-4.111-.254-5.648s-.4-2.795-.736-2.795-.61.403-.61.895c0 .696-.216.696-.974 0-.537-.492-2.542-.895-4.456-.895m-46 1.645a.55.55 0 0 0-.353.138c-.32.293-.054.833.59 1.198.645.365.919.897.607 1.183-.311.286-1.084.127-1.716-.354-1.012-.77-3.896-.226-6.101 1.152-.167.105.71 1.295 1.952 2.644 2.704 2.937 5.216 7.773 5.24 10.09.013 1.145.508 1.677 1.564 1.677 1.296 0 1.633.75 2.087 4.656.65 5.595 2.46 11.187 4.752 14.668 1.173 1.784 1.39 2.65.713 2.857-1.169.357-1.318 6.133-.159 6.133.447 0 .812.73.812 1.62v1.62l-1.881-1.62c-2.27-1.955-4.296-2.09-4.798-.317-.59 2.089.128 3.04 1.965 2.6 1.076-.258 2.083.061 2.721.862.661.828 2.438 1.36 5.104 1.53 5.238.332 6.063.845 5.636 3.51-.27 1.69-.08 2.085.85 1.758.987-.348 1.017-.221.17.715-.565.624-1.499 1.133-2.077 1.133-.579 0-1.376.89-1.772 1.978-.85 2.341.476 6.963 2 6.963 1.267 0 1.277-.387.062-2.172-.768-1.127-.683-1.792.425-3.343 1.907-2.669 2.653-2.44 3.982 1.218.985 2.708 1.568 3.243 4.132 3.799 1.641.356 2.984 1.01 2.984 1.453s1.082-.309 2.406-1.668c2.176-2.236 2.726-2.431 5.757-2.058 3.422.42 5.987-.279 9.871-2.691 2.584-1.605 10.873-2.804 13.384-1.936 2.171.75 3.183 3.37 1.865 4.827-.704.778-.734 1.353-.105 2.047 1.287 1.423.827 4.479-.843 5.595-1.863 1.245-1.884 3.658-.036 4.107q.24.06.264.095v.002l.002.002v.006h-.002l-.002.002v.002l-.002.002-.002.002c-.09.064-1.023.026-2.493-.113-3.37-.319-3.784-.166-5.282 1.944-1.693 2.383-3.135 3.112-2.324 1.174.552-1.32-.612-1.48-1.937-.265-.698.64-1.066.362-1.471-1.117-.506-1.848-2.801-2.852-2.801-1.225 0 .41-.408.743-.907.743-.53 0-.745-.775-.519-1.863.26-1.249.024-1.863-.717-1.863a1.114 1.114 0 0 1-1.106-1.117c0-.681-.756-1.118-1.936-1.118-1.467 0-2.041.499-2.366 2.051-.443 2.112.18 3.517.825 1.861.2-.512 1.273-.931 2.386-.931 1.49 0 1.949.345 1.747 1.305-.15.717-.815 1.304-1.479 1.305s-1.215.529-1.223 1.17c-.007.643-.667 2.081-1.465 3.198-.843 1.18-1.24 2.641-.946 3.488.354 1.022.122 1.456-.772 1.456-.7 0-1.272.193-1.272.427 0 1.014 2.817 2.88 4.384 2.902 1.243.018 1.693.482 1.646 1.701-.036.922.238 1.677.608 1.677.371 0 .674.503.674 1.118 0 1.62 1.364 1.371 1.851-.338.228-.8-.002-1.595-.513-1.766-.551-.184.03-1.247 1.43-2.616 1.297-1.269 2.683-2.122 3.081-1.896s1.23.025 1.847-.445c.618-.47 1.607-.78 2.2-.69.591.089 1.74-.104 2.55-.427.866-.346 2.374-.188 3.656.38 1.2.533 2.822.892 3.605.797s1.421.148 1.421.54-.64.938-1.421 1.214c-1.323.467-1.328.552-.056 1.207.858.442 1.342 1.573 1.296 3.04-.044 1.428.481 2.709 1.35 3.291 1.286.863 1.196.978-.946 1.194-2.234.225-2.332.376-1.696 2.604.508 1.779 1.255 2.48 3.022 2.836 2.51.506 3.435 2.057 3.71 6.23.153 2.334 1.409 3.805 3.274 3.835.447.007.888 1.02.982 2.253s.827 3.065 1.626 4.073c1.675 2.11 1.992 2.204 3.323.984 1.542-1.414 1.168-2.738-.65-2.302-1.96.47-2.167-.922-.283-1.889 1.019-.522 1.226-1.336.865-3.376-.262-1.478-.133-2.88.284-3.117.418-.237.76-1.417.76-2.622 0-1.532.399-2.191 1.328-2.191 1.944 0 5.372-3.686 4.916-5.285-.212-.744.066-1.918.617-2.609.923-1.157 1.044-1.16 1.515-.034.718 1.716 2.768 1.52 3.87-.369.742-1.27 1.073-1.384 1.643-.56.5.725.715.359.723-1.228.01-1.699.6-2.578 2.374-3.538 3.427-1.856 4.412-1.658 3.798.769-.286 1.127-.234 1.69.115 1.25s1.281-1.018 2.073-1.287c1.545-.522 2.732-2.533 1.93-3.268-.267-.246-1.044-.021-1.725.497-1.416 1.078-1.703-.005-.334-1.261 1.6-1.468-.084-2.45-4.203-2.45-2.284 0-4.016-.34-4.016-.79 0-.434-.38-.572-.847-.308-.466.265-1.318.124-1.892-.313s-1.928-.926-3.01-1.087c-1.212-.18-1.925-.757-1.855-1.504.062-.667-.397-1.214-1.018-1.214-.667 0-1.127-.774-1.127-1.892 0-1.041-.73-3.208-1.625-4.815-2.045-3.677-2.05-5.377-.02-7.062.884-.733 1.427-1.599 1.207-1.925s-.03-.807.426-1.065 1.175.37 1.6 1.395c.974 2.348 3.67 3.703 6.207 3.119 1.167-.269 1.954-.122 1.954.36 0 .492.72.612 1.83.309.84-.23 1.292-.347 1.365-.294l.004.004v.004l.002.002c.026.081-.37.363-1.167.92-.893.623-1.351 1.383-1.02 1.687.332.305 1.245.025 2.03-.618s2.312-1.282 3.394-1.422c2.197-.283 3.368-2.118 1.352-2.118-.708 0-1.289-.466-1.289-1.037 0-1.434-2.404-2.15-3.759-1.12-.814.62-1.115.623-1.115.015 0-.459-1.336-2.19-2.969-3.847l-2.968-3.013-1.35 1.885c-1.04 1.455-1.567 1.682-2.312 1-.745-.684-.964-.598-.964.38 0 1.927-1.528 1.511-2.098-.57-.613-2.241 1.857-5.418 5.615-7.222 3.173-1.523 4.608-.686 4.608 2.693 0 1.316.194 2.57.432 2.787.68.624 6.03-1.837 5.548-2.552-.237-.352-.003-1.116.523-1.697.772-.852.433-1.345-1.76-2.574-1.492-.837-3.1-1.388-3.574-1.225-.53.182-.73-.538-.519-1.863.193-1.205-.027-2.157-.5-2.157-.467 0-.967-.755-1.11-1.677-.324-2.09-4.123-2.71-6.008-.98-.7.641-1.568 1.168-1.929 1.168-1.005 0-2.296-1.697-2.55-3.355-.316-2.051.853-6.333 1.73-6.333.394 0 .496-2.171.226-4.825-.32-3.137-.17-5.181.43-5.843 1.008-1.115.464-1.998-1.231-1.998-.596 0-1.084.456-1.084 1.014 0 .606-1.125.09-2.803-1.284-1.963-1.607-2.512-2.473-1.83-2.89.716-.435.58-.872-.51-1.636-1.176-.825-1.308-1.35-.626-2.518.715-1.225.512-1.685-1.207-2.718-2.488-1.495-4.4-.497-4.4 2.299 0 .974-.381 1.772-.847 1.772-1.775 0-3.03 1.843-2.358 3.463.365.88.452 1.794.193 2.031-.258.237-.01.939.55 1.559.663.732.829 2.07.472 3.814-.425 2.079-.236 2.896.843 3.62 1.547 1.037.932 2.65-1.01 2.65-1.986 0-6.118 3.042-5.65 4.16.564 1.347-.942 2.127-2.225 1.151-.562-.428-1.827-.585-2.81-.35-1.09.262-1.784.087-1.784-.448 0-.482-.408-.645-.905-.363-1.197.679-2.319-1.047-2.334-3.591-.01-1.673-.375-2.048-1.996-2.048-1.092 0-2.464-.62-3.048-1.378s-2.449-1.614-4.145-1.903c-2.235-.381-3.294-1.027-3.841-2.348-.416-1.003-.918-1.823-1.116-1.823-.197 0-.939-.203-1.646-.452-1.025-.361-1.284.09-1.284 2.235 0 1.478-.325 2.687-.724 2.687s-.976.921-1.284 2.045c-1.3 4.753-7.41 11.184-9.817 10.337-1.238-.436-1.669-3.44-.493-3.44.376 0 .399-1.594.05-3.54-.35-1.947-.658-3.937-.685-4.423-.068-1.247-7.273-.537-8.988.886-1.88 1.56-2.86 1.4-4.376-.72-1.516-2.122-1.715-4.126-.411-4.126.545 0 .661-.512.296-1.301-.332-.717-.707-3.484-.833-6.148s-.26-5.096-.296-5.403c-.037-.307-.572-.56-1.187-.56s-1.606-.536-2.201-1.194c-.909-1.004-.86-1.548.304-3.407 1.397-2.231.793-5.082-1.075-5.082-.432 0-.784-.62-.784-1.377 0-1.389-2.276-3.665-3.425-3.686h-.062zm-30.204.628c-.38.006-.885.091-1.527.24-2.304.53-3.502 2.68-1.984 3.563 1.867 1.087 3.1.668 3.93-1.336.745-1.796.722-2.484-.42-2.467m69.353.14c-.55-.003-1.182.662-1.385 1.93-.173 1.074.166 1.618 1.013 1.618.83 0 1.277-.673 1.277-1.925 0-1.094-.42-1.619-.905-1.622m46.824 1.313c-.222.04-.765.696-1.228 1.49-.694 1.19-.616 1.491.38 1.491.705 0 1.246-.648 1.246-1.491 0-.82-.17-1.49-.378-1.49zm-68.637 2.14c-1.08-.034-1.716.667-1.547 2.144.306 2.678-.601 3.925-2.801 3.853-.98-.033-1.324-.228-.766-.434.559-.207 1.018-.874 1.018-1.482 0-.803-.502-.965-1.829-.591-2.534.714-2.472.537-1.777 4.938l.624 3.962 1.195-2.795c1.342-3.14 3.411-3.753 3.411-1.012 0 1.365.714 2.046 3.046 2.903 3.473 1.275 5.891.583 5.891-1.687 0-.78.334-1.608.742-1.84 1.212-.686.548-2.113-2.358-5.07-1.834-1.867-3.626-2.85-4.85-2.888m63.347.095c-.447 0-.813.503-.813 1.118s.366 1.117.813 1.117.813-.502.813-1.117-.366-1.118-.813-1.118m-61.475 2.432c.224.001.626.325 1.344.92.894.743 1.625 2.135 1.625 3.096 0 .997-.486 1.747-1.132 1.747-1.329 0-2.119-1.592-2.119-4.273 0-1.023.012-1.491.282-1.49m40.077 2.038c-1.528 0-2.128.718-1.618 1.936.663 1.585 2.701 1.248 2.701-.446 0-.82-.487-1.49-1.083-1.49m-79.698 1.95a7 7 0 0 0-.968.12c-2.373.416-2.937 1.11-2.243 2.769.365.87.7.985 1.11.377.323-.48.913-.864 1.31-.853.397.01.963-.58 1.258-1.31.331-.82.268-1.123-.467-1.104m4.257.247c-.404.017-.803.423-1.046 1.31-.342 1.248-.153 2.161.53 2.559 1.621.942 1.878.789 1.878-1.127 0-1.717-.689-2.77-1.362-2.742m85.82.038c-.643 0-1.17.336-1.17.746s.754.744 1.674.744 1.445-.334 1.169-.744-1.028-.746-1.672-.746m-81.615.746c-.447 0-.814.334-.814.744s.367.745.814.745.813-.335.813-.745-.366-.744-.813-.744m67.72.549c-.434-.005-.961.11-1.576.366-2.216.926-2.283 1.173-1.075 4.066l.877 2.098 1.56-1.76c2.23-2.51 2.1-4.752.215-4.77m6.558 1.024c-.752-.026-1.145.472-1.145 1.493 0 1.183.386 1.486 1.542 1.209 1.239-.297 1.5-.014 1.326 1.438-.158 1.32.136 1.747 1.088 1.58 2.11-.374 2.104-2.928-.012-4.42-1.195-.842-2.136-1.276-2.8-1.3M48.625 86.3c-.473 0-.634.336-.358.746.277.41.662.744.86.744.196 0 .36-.334.36-.744s-.388-.746-.862-.746m80.135 1.49c-.644 0-1.397.336-1.674.745-.276.41.251.746 1.171.746s1.674-.336 1.674-.746-.527-.745-1.17-.745m-81.512 1.453v28.606c.6-.482 1.331-.691 2.065-.517.963.228 1.742-.404 2.53-2.051.625-1.31 1.857-3.042 2.737-3.849 1.3-1.191 1.73-1.275 2.302-.446.45.652.71-.36.718-2.813.01-3.106.395-4.168 2.03-5.59 2.623-2.28 2.6-5.086-.076-9.594l-2.12-3.573-4.99.166c-2.066.068-4.008-.07-5.196-.34m99.022.038c-.914 0-1.765 1.937-1.114 2.534.979.897 1.84.408 1.84-1.045 0-.82-.327-1.489-.726-1.489m.085 5.628c-.52-.006-1.203.165-2.036.52-2.293.976-3.12 2.532-.938 1.764.755-.266 1.051-.134.74.328-.287.425-.317 1.259-.068 1.854.72 1.721 1.849 1.266 2.96-1.194.952-2.107.673-3.26-.658-3.272m49.982.685c-.337.02-.691.31-.883.77-.256.612-.132 1.111.274 1.111 1.102 0 1.785-1.323.933-1.806a.6.6 0 0 0-.324-.075m-48.902 5.744c-1.324.076-1.49 3.39-.135 4.81 1.303 1.366 1.507 1.235.882-.57-.317-.917-.228-1.401.213-1.151.419.237.703-.308.63-1.21-.072-.904-.696-1.743-1.385-1.866a1 1 0 0 0-.205-.013m-79.324 4.469q-.035-.001-.07.002c-.392.03-.678.391-.678.918 0 .65.579 1.18 1.287 1.18 1.435 0 1.184-1.603-.322-2.064a.8.8 0 0 0-.217-.036m-4.318 6.152c-.28.014-.566.263-.79.797-.256.612-.991 1.112-1.634 1.112-.806 0-1.025.52-.708 1.677.565 2.06 3.452 5.609 3.452 4.242 0-.69.306-.616 1.016.245.558.677 1.93 1.536 3.047 1.91 1.368.458 2.223.405 2.617-.159.341-.488-.055-.99-.952-1.208-2.18-.528-4.917-3.993-4.917-6.222 0-1.473-.557-2.423-1.131-2.394m91.823 20.87h.004c.119-.01.16.392.09 1.098-.185 1.826-1.444 2.752-2.468 1.813-.931-.854-.628-1.753.593-1.753.633 0 1.355-.421 1.604-.934q.106-.213.177-.224m2.755 1.902c.447 0 .814.838.814 1.863s-.43 1.863-.953 1.863-1.573.515-2.334 1.146c-1.26 1.046-1.426 1-1.86-.525-.513-1.796.245-3.124.868-1.522.475 1.223 2.652-.254 2.652-1.8 0-.564.366-1.025.813-1.025m-89.763.063c-1.817-.046-4.06.344-6.851 1.17-3.974 1.178-4.104 1.3-2.811 2.61.745.755 1.808 1.372 2.362 1.372 1.17 0 2.209 2.057 1.54 3.048-.251.373-.21 1.044.09 1.49.393.583.793.583 1.43 0 1.103-1.013 2.453-1.07 1.783-.075-.287.425.044.545.785.284.706-.248 1.627-1.038 2.046-1.755.54-.926 1.397-1.192 2.954-.92 1.774.312 2.097.154 1.69-.82-.277-.662-.155-1.402.272-1.644 1.219-.69.926-1.658-1-3.303-1.083-.926-2.473-1.41-4.29-1.457m14.277 2.662c-.521-.01-.895.35-.895 1.045 0 .385.745.7 1.656.7 1.377 0 1.479-.176.608-1.04-.473-.469-.964-.698-1.37-.705m5.604 5.47c-.894 0-1.624.337-1.624.746 0 .41.73.746 1.624.746s1.626-.336 1.626-.746-.732-.745-1.626-.745m18.004.746c-.963 0-1.751.45-1.751 1 0 1.016-3.535 2.926-5.618 3.037-.632.033-1.312.502-1.51 1.04-.268.734.33.87 2.37.544 3.533-.566 5.51.53 4.269 2.368-.493.729-1.661 1.43-2.597 1.559-1.094.15-1.54.614-1.252 1.303.273.652-.052 1.07-.831 1.07-.75 0-1.106.424-.855 1.023.235.562-.108 1.21-.763 1.44-.926.326-1.042 1.026-.523 3.136.367 1.493.79 2.773.94 2.843s1.007.502 1.9.96c2.183 1.116 3.886.425 3.375-1.368-.297-1.04-.087-1.324.747-1.013l2.378.884c.925.343 1.256-.15 1.37-2.05.082-1.375.193-3.172.246-3.992.1-1.538.503-1.872 2.245-1.852q1.015.011-.205.735c-.955.565-.748.725.95.734 2.58.014 4.74-.663 4.74-1.485 0-.326-1.334-1.313-2.964-2.195-2.075-1.123-3.22-1.368-3.82-.819-1.43 1.313-3.215.952-2.57-.52.314-.717.638-1.639.72-2.048.483-2.444 4.003-3.576 5.85-1.882.515.472 1.134.226 1.766-.702.808-1.186.735-1.487-.427-1.775-2.2-.545-5.272-1.022-5.43-.883l-.002.002-.002.002v.007l.002.005.002.005q.022.035.171.095c1.77.706 1.1 1.393-1.527 1.563-2.478.16-2.505.128-1.091-1.304 1.398-1.417 1.388-1.467-.303-1.467m14.365 2.474c-.257.007-.463.06-.587.173-.272.25.215.93 1.082 1.512 1.864 1.25 2.617 1.32 3.298.31.469-.696-2.408-2.03-3.793-1.995m25.122 3.499c1.452-.006 2.642.303 2.642.689 0 1.218-1.152 1.327-3.25.308l-2.033-.986zm-95.69.04c-.937.009-1.877.49-2.43 1.438a3.6 3.6 0 0 1-.612.811v7.51c.343-.633.577-1.303.586-1.75.014-.69.758-1.467 1.652-1.727s1.624-.787 1.624-1.169.55-.694 1.221-.694c1.427 0 1.551-1.016.376-3.03a2.74 2.74 0 0 0-2.418-1.39m68.597.692c-.638 0-.899.466-.626 1.118.257.615 1.205 1.117 2.106 1.117 1.363 0 1.468-.186.626-1.117-.557-.615-1.504-1.118-2.106-1.118m-65.216 7.92c-1.143 0-5.811 4.144-5.811 5.285 0 .524.732.953 1.626.953s1.624-.296 1.624-.658.733-.834 1.627-1.048c1.57-.377 2.317-3.372 1.115-4.474a.26.26 0 0 0-.18-.058m62.352 5.565a.74.74 0 0 0-.466.194c-.249.228-.237.933.028 1.565.607 1.452 2.157 1.505 2.157.075 0-.964-.973-1.876-1.72-1.834m55.253 18.187c-.447-.006-.715.265-.715.765 0 .602.548 1.092 1.218 1.092s1.219-.297 1.219-.663-.548-.86-1.219-1.096a1.6 1.6 0 0 0-.503-.098m28.804 5.996c-.307.009-.712.152-1.27.426-1.33.652-1.434.94-.53 1.466 1.993 1.157 3.348.51 2.613-1.245-.187-.448-.418-.66-.813-.647" style="opacity:1;fill:url(#F);fill-opacity:1;fill-rule:evenodd;stroke-width:1.73057;stroke-dasharray:none" transform="matrix(1.14184 0 0 .96226 -14.655 6.379)"/></g><path d="m155.583 132.583-.468.055s-1.31.168-2.768.483q-1.11.232-2.178.599c-.678.24-1.26.482-1.672.952-1.275 1.447-1.277 3.504-1.019 5.66.128 1.074.327 2.283.79 3.441.466 1.165 1.247 2.33 2.469 2.98 1.048.557 5.033 1.374 6.569 1.301.655-.005 1.29-.013 1.94.036.654.05 1.094.091 1.739.743q.28.286.614.763-.444 5.576-.777 11.194c-.053 1-.248 2.04-.466 3.124a1 1 0 0 1-.21.065c-.771.174-1.41.379-1.9.638a2.2 2.2 0 0 0-.697.546h-.002l-.002.004a1.26 1.26 0 0 0-.26.86c.017.157.06.313.129.458.175 1.444.716 5.845.979 7.33l.049.276.208.18v.002c.809.682 1.977 1.072 3.348 1.339 1.368.268 2.94.382 4.526.354 3.138-.058 6.308-.626 8.07-1.966l.235-.174.01-.328-.002.002c.081-2.423.099-4.871-.06-7.33.034-.126.05-.263.037-.414a1.4 1.4 0 0 0-.444-.886 2.4 2.4 0 0 0-.675-.448c-.498-.24-1.125-.423-1.88-.577-.487-.098-.861-.177-1.328-.243.209-2.223.158-4.476.237-6.714l.141-.91.045-.062c.23-.296.913-.655 1.63-1.27l.008-.005.004-.005.014-.009.005-.005h.002v-.002h.001v-.002h.006l.166-.006c.517-.014 1.042-.017 1.482-.143.255-.055.502-.158.69-.368.174-.2.283-.462.312-.751.052-.479-.043-.894-.077-1.293-.056-.68-.082-1.353.544-2.206.545.037.934-.106 1.072-.153.087-.03.435-.086.763-.125.32-.036.681-.05 1.062-.221v.002c.206-.091.45-.252.618-.588q.036-.071.062-.144l.95.02c.969.02 1.84-.263 2.492-.807.48-.4.855-.976.988-1.668l4.291.112 1.154-1.522c.316-.416.46-.981.411-1.575l-.07-.863c.832.036 2.492.092 3.548.146.3.014.366 0 .666-.154l.255-.132c.082-.037.08-.037.226.025q.497.213 1.007.305.383.066.762.071c.756.03.844.015 1.305-.216q.087-.045.177-.082.07.023.14.056.477.214.967.312c.31.06.554.086 1.219.119l.479.023.107-.07c.059-.041.287-.193.509-.339.458-.304.66-.437.659-.446 0-.005-.072-.06-.161-.12-.49-.348-1.147-.818-1.156-.826-.013-.015-.356-.016-.48-.001-.148.017-.28.056-.473.14-.095.143-.232.008-.344.014-.702-.236-2.076-.458-2.915-.058-.074.078-.17-.024-.257-.036a4.3 4.3 0 0 0-1.41-.275l-.258-.012a5 5 0 0 0-.655.01 2.5 2.5 0 0 0-.69.17l-.102.04-.131-.052c-.229-.091-.532-.187-.634-.198q-1.245-.062-2.5-.117l-.069-.833a2.65 2.65 0 0 0-.716-1.613l-1.367-1.416-4.302-.2a4 4 0 0 0-1.254-1.703 4.6 4.6 0 0 0-2.645-1.001l-1.632-.082zm21.823 16.248h.01l-.013.002zm-3.465.42h.005q.068 0 .143.006c-.475.88-.712 1.927-.42 3.244.07.317.042.422.035.44v.006l-.006.003a.5.5 0 0 1-.113.033c-.117.022-.328.016-.546.01-.097-.001-.269-.03-.462.011-.327-.797-.412-1.592-.321-2.235.182-1.171.75-1.445 1.685-1.518" style="fill:#251c0d;fill-opacity:1;stroke-width:.107865" transform="translate(-22.886 -25.791)scale(.94706)"/><path d="M135.53 66.193c-.912.01-1.676.386-1.706.84s.682.814 1.593.805a257 257 0 0 1 9.814.087c.918.026 1.748-.323 1.852-.78.106-.456-.555-.847-1.474-.873a263 263 0 0 0-10.079-.079m-9.974.277c-3.3.15-6.584.36-9.843.644-.884.077-1.512.498-1.402.94s.915.737 1.799.661c3.161-.271 6.355-.473 9.57-.615.902-.04 1.607-.437 1.573-.887-.033-.451-.794-.784-1.697-.743m30.171.303c-.914-.067-1.81.248-2 .702s.396.876 1.309.943c3.26.241 6.498.563 9.679.976.897.116 1.862-.152 2.155-.598.293-.447-.198-.904-1.097-1.02a183 183 0 0 0-10.046-1.003m-49.647 1.409c-3.159.432-6.273.948-9.312 1.557-.82.164-1.25.63-.96 1.04.288.411 1.188.612 2.01.448 2.916-.58 5.913-1.074 8.962-1.488.86-.117 1.401-.56 1.208-.99-.193-.431-1.048-.685-1.908-.567m69.491 1.177c-.864-.171-1.894.039-2.299.47-.405.43-.034.917.83 1.088a112 112 0 0 1 8.883 2.126c.806.23 1.887.09 2.413-.314.527-.404.3-.918-.507-1.148-2.994-.85-6.115-1.59-9.32-2.222m-86.434 2.406a3 3 0 0 0-1.189.07 92 92 0 0 0-8.124 2.662c-.691.264-.85.758-.357 1.105.494.346 1.455.413 2.147.15a88 88 0 0 1 7.752-2.527c.766-.213 1.07-.697.68-1.081-.189-.185-.516-.32-.91-.379m104.349 2.655c-.74-.28-1.85-.207-2.48.165-.63.37-.541.899.196 1.179 2.606.99 5.038 2.081 7.21 3.28.62.341 1.736.364 2.492.048.756-.315.866-.849.245-1.191-2.325-1.28-4.91-2.438-7.663-3.481M72.548 77.656c-2.25 1.152-4.29 2.41-6.035 3.769-.464.36-.28.84.412 1.073.693.232 1.63.129 2.096-.232 1.625-1.26 3.534-2.435 5.65-3.513.606-.308.621-.804.034-1.107-.586-.304-1.553-.299-2.157.01m133.63 4.057a3.6 3.6 0 0 0-1.36.085c-.874.234-1.22.749-.774 1.15 1.553 1.4 2.749 2.894 3.548 4.44.23.446 1.191.701 2.148.571.959-.13 1.55-.596 1.32-1.041-.865-1.68-2.16-3.298-3.845-4.814-.215-.194-.588-.334-1.038-.391m-142.006 3.56c-.776-.145-1.64.063-1.93.464-1.088 1.506-1.822 3.067-2.23 4.642-.108.42.464.803 1.28.856.816.054 1.567-.242 1.677-.662.383-1.47 1.072-2.921 2.083-4.314.29-.4-.104-.843-.88-.987m-3.084 9.018c-.82.026-1.443.387-1.395.807.183 1.57.674 3.137 1.547 4.657.231.402 1.056.635 1.842.52.788-.117 1.24-.537 1.01-.94a11.2 11.2 0 0 1-1.428-4.328c-.049-.422-.755-.742-1.576-.716m5.522 8.68a2.8 2.8 0 0 0-1.127.086c-.7.215-.92.68-.49 1.039 1.161.97 2.51 1.878 4.004 2.719l.025.015q.907.484 1.854.95c.594.294 1.541.29 2.115-.006.574-.298.557-.778-.04-1.071a61 61 0 0 1-1.743-.895c-1.377-.773-2.614-1.607-3.675-2.492-.206-.173-.539-.297-.923-.345m11.962 6.493c-.395.027-.751.132-.99.292-.493.333-.353.808.315 1.061 2.47.938 5.056 1.801 7.73 2.593.726.215 1.657.097 2.077-.263s.17-.827-.557-1.042a105 105 0 0 1-7.456-2.493 2.7 2.7 0 0 0-1.119-.148m15.404 4.691c-.375.075-.673.22-.829.406-.324.385.046.833.826 1a431 431 0 0 0 8.644 1.752c.8.154 1.692-.04 1.994-.433.3-.393-.105-.837-.906-.99a424 424 0 0 1-8.555-1.726 3 3 0 0 0-1.174-.01zm18.476 3.35c-.815-.145-1.707.06-1.992.458-.285.397.144.837.959.983q4.442.795 8.939 1.556c.826.14 1.72-.072 1.996-.473.277-.402-.171-.841-1-.981a951 951 0 0 1-8.902-1.542m17.938 3.033c-.84-.134-1.736.085-2.003.49-.266.405.197.841 1.035.976q4.554.734 9.121 1.496c.844.14 1.757-.073 2.039-.478s-.174-.849-1.02-.989q-4.593-.762-9.173-1.495m18.397 3.053c-.849-.146-1.776.064-2.071.468s.153.85 1 .996q4.607.796 9.213 1.627c.853.154 1.799-.048 2.113-.452s-.123-.856-.977-1.01q-4.643-.834-9.278-1.63m18.59 3.35c-.854-.163-1.817.031-2.152.433-.333.401.087.858.94 1.021 3.084.59 6.16 1.196 9.222 1.827.852.176 1.839-.004 2.203-.403.365-.398-.031-.863-.885-1.039a650 650 0 0 0-9.327-1.84m17.356 3.789c-.424.066-.773.208-.97.396-.408.39-.058.863.782 1.06a127 127 0 0 1 8.687 2.34c.79.245 1.851.15 2.369-.214s.296-.857-.496-1.101a133 133 0 0 0-9.075-2.438 3.5 3.5 0 0 0-1.297-.043m18.795 5.449c-.725-.29-1.813-.258-2.432.071-.618.33-.535.83.187 1.12a84 84 0 0 1 7.254 3.307c.64.33 1.738.366 2.45.078.715-.287.774-.79.132-1.121a88 88 0 0 0-7.592-3.455zm13.11 7.004a3.6 3.6 0 0 0-1.314.097c-.81.23-1.045.718-.526 1.092 1.814 1.304 3.321 2.699 4.5 4.145.338.414 1.345.634 2.251.492.907-.143 1.37-.594 1.031-1.009-1.266-1.553-2.885-3.053-4.843-4.46-.25-.18-.645-.308-1.098-.357m6.705 8.91c-.953.06-1.594.46-1.43.893.573 1.52.859 3.059.91 4.597.015.435.809.794 1.774.804.966.01 1.74-.335 1.726-.77a15 15 0 0 0-.954-4.85c-.162-.434-1.07-.736-2.026-.675m-175.856 3.073c-.78-.02-1.394.279-1.373.669a13.5 13.5 0 0 0 .975 4.349c.156.386.9.663 1.663.618.764-.045 1.257-.395 1.101-.782a12.7 12.7 0 0 1-.916-4.11c-.02-.39-.67-.724-1.45-.744m176.765 6.352c-.958-.067-1.822.226-1.931.653-.386 1.51-1 3-1.863 4.449-.244.41.309.847 1.235.977s1.878-.096 2.123-.507a17.6 17.6 0 0 0 1.974-4.675c.11-.428-.58-.83-1.538-.897M50.37 163.56c-.723.112-1.074.503-.785.874 1.08 1.386 2.402 2.732 3.925 4.024.41.346 1.28.489 1.945.318.666-.171.874-.592.464-.94-1.445-1.224-2.695-2.498-3.713-3.805-.29-.372-1.113-.583-1.836-.471m169.04 6.916c-.873-.194-1.892-.041-2.275.34-1.349 1.342-2.943 2.623-4.755 3.83-.514.341-.287.823.506 1.075.793.253 1.853.181 2.37-.16 1.92-1.273 3.609-2.626 5.04-4.043.386-.382-.01-.849-.885-1.042m-159.58.603a2.5 2.5 0 0 0-1.037.113c-.599.22-.674.656-.17.975a65 65 0 0 0 6.077 3.366c.586.286 1.49.308 2.018.047.529-.26.483-.704-.104-.991a62 62 0 0 1-5.818-3.219c-.244-.153-.591-.257-.967-.29m147.691 6.73c-.449-.002-.869.077-1.167.22-2.188 1.045-4.552 2.012-7.042 2.902-.7.25-.777.724-.172 1.06.607.336 1.668.406 2.37.156 2.604-.925 5.082-1.934 7.386-3.03.622-.297.557-.782-.147-1.082-.337-.144-.779-.226-1.228-.227zm-135.377-.516c-.376.014-.71.101-.928.242-.454.295-.293.738.36.991 2.408.935 4.918 1.806 7.504 2.615.702.22 1.583.14 1.967-.18.386-.321.126-.76-.579-.981a115 115 0 0 1-7.247-2.52 2.8 2.8 0 0 0-1.077-.167m119.397 6.09a119 119 0 0 1-8.304 1.971c-.803.162-1.11.6-.69.98.422.38 1.414.557 2.218.397a125 125 0 0 0 8.664-2.047c.755-.208.945-.67.423-1.029-.521-.36-1.556-.482-2.311-.273m-103.327-1.215c-.744-.19-1.604-.067-1.92.274-.317.341.028.77.77.96 2.737.7 5.54 1.337 8.393 1.912.777.157 1.608-.007 1.855-.366.248-.359-.182-.777-.96-.933a163 163 0 0 1-8.138-1.847m86.278 4.66c-2.967.408-5.986.74-9.038.997-.854.072-1.356.455-1.122.856.235.4 1.117.667 1.972.596 3.157-.263 6.285-.604 9.364-1.025.837-.114 1.252-.526.927-.92s-1.267-.62-2.103-.505m-69.666-1.31c-.804-.125-1.601.076-1.78.448s.324.775 1.127.9c2.955.461 5.945.864 8.96 1.215.823.096 1.587-.137 1.705-.52s-.455-.771-1.28-.866c-2.942-.34-5.857-.731-8.732-1.177m51.43 2.871a241 241 0 0 1-9.252.185c-.862 0-1.492.327-1.408.73s.852.728 1.715.727q4.756.002 9.505-.18c.864-.033 1.44-.388 1.284-.792-.154-.404-.98-.704-1.843-.67m-33.763-.82c-.839-.068-1.568.193-1.629.584s.57.762 1.409.831q4.617.378 9.273.62 3.148.166 6.316.27c.856.028 1.53-.273 1.505-.672-.025-.4-.74-.746-1.598-.774q-3.099-.098-6.189-.258a307 307 0 0 1-9.087-.6" style="font-weight:250;font-size:527.015px;line-height:.8;font-family:Barlow;-inkscape-font-specification:&quot;Barlow weight=250&quot;;text-align:center;baseline-shift:baseline;text-anchor:middle;display:inline;overflow:visible;opacity:1;vector-effect:none;fill:#251c0d;stroke-width:.711892;stroke-linecap:round;stroke-linejoin:bevel;stroke-miterlimit:7;stroke-dasharray:6.83415,6.83415;stop-color:#000;stop-opacity:1"/><g style="stroke-width:1.73057;stroke-dasharray:none;fill:#936d3c;fill-opacity:.35608131"><path d="M16.88 46.025c1.202 11.402 3.007 23.137 3.83 35.963.457 7.096.797 14.627 1.032 22.263.217-.072.516-.275.877-.606.702-.644 1.617-1.17 2.032-1.17a.75.75 0 0 0 .753-.746c0-.41-.548-.745-1.219-.745-.765 0-1.218-.707-1.218-1.905 0-1.049.305-1.735.678-1.524.372.21.676-.603.676-1.809s.609-2.81 1.353-3.564c1.617-1.638 1.72-2.372.333-2.372-1.435 0-3.235-2.781-2.185-3.376.478-.271.592-1.577.274-3.134-.467-2.28-.352-2.6.787-2.2 1.924.677 3.772-.174 3.772-1.737 0-.742.43-1.48.958-1.641 1.422-.435.119-2.887-1.775-3.342-2.582-.619-1.971-2.448.817-2.448 2.383 0 2.435-.084 2.435-3.726 0-3.649.05-3.725 2.457-3.725 1.873 0 2.641-.441 3.23-1.859l.77-1.861 2.722 1.402c4.295 2.211 6.906 4.796 7.203 7.13.15 1.183.698 2.278 1.219 2.435 1.21.364 2.032-2.018 2.1-6.09l.051-3.202 1.845 1.954c1.7 1.801 1.891 1.847 2.43.576.331-.783.193-1.6-.32-1.892-.418-.236-.845-1.253-1.046-2.412a125 125 0 0 1-7.605-1.438c-.502.128-1.564-.157-2.42-.569-9.659-2.4-18.814-6.212-26.845-12.63zm20.027 11.396c.538-.003 1.054.256 1.259.82.167.46-.464 1.02-1.402 1.245-1.284.308-1.642.102-1.445-.836.165-.787.897-1.225 1.588-1.229m-13.873 32.39c.993 0 1.552.385 1.354.931-.512 1.41-3.046 1.61-3.046.24 0-.69.694-1.172 1.692-1.172m5.26 2.978c-.196 0-.582.336-.858.746s-.115.745.358.745.859-.335.859-.745-.161-.746-.358-.746m.776 6.862c-.68.01-.396.222.754 1.005 1.929 1.314 2.08 1.322 2.08.114 0-.527-.822-1.01-1.828-1.073-.444-.028-.78-.049-1.006-.046m-3.634 4.565c-1.784-.034-3.282 1.61-3.282 3.828 0 .492-.093 1.057-.26 1.657.091 3.79.158 7.583.202 11.345 1.101-.504 2.16-.95 2.698-1.132.782-.264 1.423-1.112 1.423-1.883 0-1.52 1.204-1.884 2.054-.622.36.535.885.509 1.664-.084.626-.476.937-1.162.692-1.526-.737-1.093 1.002-.743 2.048.412 1.634 1.806 3.133.564 3.004-2.492-.09-2.118-.57-3.004-1.949-3.604-1.52-.662-1.827-.583-1.827.474 0 .7.458 1.706 1.016 2.237.822.782.704.912-.61.682-1.248-.219-1.565-.777-1.374-2.4.164-1.39-.323-2.6-1.423-3.54-.92-.785-1.67-1.726-1.67-2.092s-.734-.88-1.629-1.14a3 3 0 0 0-.777-.12m8.362.038a.64.64 0 0 0-.282.09c-.455.257-.617.78-.36 1.16.696 1.034 1.185.843 1.185-.466 0-.499-.227-.8-.543-.784" style="opacity:1;fill:url(#G);fill-opacity:.39411399;fill-rule:evenodd;stroke-width:1.73057;stroke-dasharray:none" transform="matrix(.9824 0 0 1.07137 5.338 -7.255)"/></g><g style="stroke-width:1.73057;stroke-dasharray:none;fill:url(#H)"><path d="M239.123 46.025a59 59 0 0 1-6.533 4.507c-.729.436-1.496.779-2.239 1.183-1.542.84-3.084 1.677-4.68 2.386-.945.42-1.92.76-2.883 1.138-1.442.567-2.883 1.14-4.36 1.62-1.049.342-2.118.629-3.182.93-.993.281-1.965.617-2.969.866-.854.411-1.914.696-2.417.569h-.002a124 124 0 0 1-7.605 1.438c-.201 1.159-.628 2.176-1.046 2.412-.513.291-.651 1.11-.32 1.892.539 1.27.73 1.225 2.43-.576l1.845-1.954.051 3.201c.068 4.073.89 6.455 2.1 6.091.52-.157 1.068-1.252 1.219-2.436.297-2.333 2.908-4.918 7.203-7.13l2.721-1.401.772 1.861c.588 1.418 1.355 1.86 3.228 1.86 2.408 0 2.458.075 2.458 3.724 0 3.642.052 3.726 2.435 3.726 2.788 0 3.399 1.83.817 2.448-1.894.455-3.197 2.907-1.775 3.342.527.161.958.9.958 1.64 0 1.564 1.848 2.415 3.772 1.738 1.139-.4 1.253-.08.787 2.2-.319 1.557-.204 2.863.274 3.134 1.05.595-.75 3.376-2.185 3.376-1.388 0-1.284.734.332 2.372.745.755 1.354 2.358 1.354 3.564s.304 2.02.676 1.809.678.475.678 1.524c0 1.198-.453 1.905-1.219 1.905-.67 0-1.218.336-1.218.745 0 .41.338.746.753.746s1.33.526 2.032 1.17c.36.331.66.534.877.606.234-7.592.571-15.08 1.024-22.14l.008-.123.008-.124c.827-12.778 2.623-24.473 3.82-35.839m-20.026 11.396c.691.004 1.423.442 1.588 1.229.197.938-.16 1.144-1.445.836-.938-.224-1.57-.785-1.402-1.245.205-.564.72-.823 1.259-.82m13.873 32.39c.998 0 1.691.48 1.691 1.172 0 1.369-2.533 1.169-3.045-.241-.199-.546.36-.932 1.354-.932m-5.261 2.978c-.197 0-.358.336-.358.746s.386.745.859.745.634-.335.358-.745-.662-.746-.859-.746m-.775 6.862c-.227-.003-.562.018-1.006.046-1.006.063-1.827.546-1.827 1.073 0 1.208.15 1.2 2.08-.114 1.149-.783 1.432-.996.753-1.005m3.634 4.565a3 3 0 0 0-.777.12c-.895.26-1.629.773-1.629 1.14s-.75 1.307-1.67 2.092c-1.1.94-1.587 2.15-1.423 3.54.191 1.623-.126 2.181-1.374 2.4-1.314.23-1.432.1-.61-.682.558-.531 1.016-1.538 1.016-2.237 0-1.057-.307-1.136-1.827-.474-1.38.6-1.86 1.486-1.949 3.604-.129 3.056 1.37 4.298 3.004 2.492 1.046-1.155 2.785-1.505 2.048-.412-.245.364.066 1.05.692 1.526.778.593 1.303.619 1.664.084.85-1.262 2.054-.897 2.054.622 0 .771.641 1.619 1.423 1.883.539.182 1.597.628 2.698 1.132.044-3.762.11-7.556.203-11.345-.168-.6-.26-1.165-.26-1.657 0-2.219-1.499-3.862-3.283-3.828m-8.42.038c-.285.022-.485.316-.485.784 0 1.309.489 1.5 1.185.467.257-.382.094-.904-.36-1.161a.65.65 0 0 0-.34-.09" style="opacity:1;fill:url(#I);fill-opacity:1;fill-rule:evenodd;stroke-width:1.73057;stroke-dasharray:none" transform="matrix(.9824 0 0 1.07137 5.338 -7.255)"/></g><g style="stroke-width:1.73057;stroke-dasharray:none;fill:#584126;fill-opacity:.40190873"><path d="M229.093 193.868c-.107.01-.191.093-.191.193v8.257q2.379.929 4.143 1.92c3.563 2.003 4.187 3.167 5.879 5.394a569 569 0 0 1-1.706-15.764z" style="opacity:1;fill:#42311c;fill-opacity:.1683505;fill-rule:evenodd;stroke-width:1.73057;stroke-dasharray:none" transform="matrix(.9824 0 0 1.07137 5.338 -7.255)"/></g><g style="stroke-width:1.73057;stroke-dasharray:none"><path d="M225.727 127.388c-.143.071-.23.234-.23.469 0 .458-.566 1.211-1.255 1.673-1.723 1.156-.639 2.443 2.057 2.443 1.615 0 2.235-.335 2.243-1.216.01-.952.153-1.012.666-.27.553.801.729.801 1.125 0 .259-.521.357.082.22 1.342-.186 1.685.014 2.198.759 1.936.628-.22 1.011.153 1.011.99 0 .962-.354 1.223-1.24.912-.851-.3-1.132-.13-.889.537.195.536-.118 1.408-.696 1.938-1.31 1.2-.973 4.285.55 5.032.475.233 2.062.55 3.89.798-.06-3.03-.09-6.037-.1-9.04-.781-.642-1.338-2.116-1.743-4.53-.194-1.158-.619-2.23-1.121-3.014h-4.176c-.122.162-.302.201-.544.064a1 1 0 0 0-.135-.064zm-5.92 1.107c-.627 0-1.138.314-1.138.696 0 .383.511.697 1.137.697s1.137-.314 1.137-.697-.51-.696-1.137-.696m3.033 4.175c-.675 0-1.015.312-.757.694.258.383.598.696.757.696s.502-.313.76-.696c.257-.382-.085-.694-.76-.694m-6.185 3.762q-.129.011-.39.25c-.44.404-.653 1.146-.47 1.648.189.521.532.206.8-.735.222-.777.252-1.156.076-1.163zm-2.304 4.596c-.497-.006-1.114.301-1.372.684-.582.863-.32.863 1.137 0 .684-.405.778-.677.235-.684m13.782 3.003a.8.8 0 0 0-.36.116c-.418.237-.76.568-.76.737 0 .168.342.306.76.306a.75.75 0 0 0 .757-.737c0-.26-.143-.412-.356-.422zm-6.136 1.113c-.717.011-1.55.392-2.272 1.264-1.503 1.815-1.268 2.757.775 3.115 1.34.235 2.076-.099 2.744-1.243 1.067-1.83.123-3.156-1.247-3.136m-13.913 1.488c-.312-.009-.738.159-1.304.489-1.629.95-1.445 2.418.32 2.565 1.327.11 1.706-.221 1.706-1.483 0-1.054-.202-1.556-.722-1.571m24.068 2.058c-.531.012-1.629.483-2.439 1.045-1.277.886-1.304 1.02-.197 1.02.702 0 1.704.626 2.225 1.392 1.032 1.515 1.772 1.743 2.44.753l.023-.039-.063-1.646c-.388-1.213-1.285-2.54-1.989-2.525m-14.473 1.143c-.852-.003-1.286.215-1.286.651 0 .483-1.11.978-2.466 1.097-1.356.12-2.467.482-2.467.804 0 .43 4.916 2.436 6.209 2.534.076.006.843-.9 1.706-2.01 2.009-2.587 2-2.633-.706-2.997a8 8 0 0 0-.99-.079m9.245 1.617c-.418 0-.548.314-.29.697.257.382.809.696 1.226.696s.548-.314.29-.696c-.257-.383-.809-.697-1.226-.697m-25.748 2.088a.706.706 0 0 0-.714.694c0 .383.532.697 1.183.697.65 0 .971-.314.714-.697-.258-.382-.79-.694-1.183-.694m8.173.727c-.746.017-1.865.708-2.43 1.885-.412.859-1.179 1.56-1.706 1.56s-.958.412-.958.914c0 1.266 2.857 3.956 4.201 3.956.61 0 1.11.486 1.11 1.079s1.193 1.537 2.654 2.096 2.654 1.278 2.654 1.597c0 .32.769.921 1.708 1.337 1.67.738 1.662.754-.406.8-1.873.042-2.022.205-1.302 1.438.55.944.56 1.391.028 1.391-.432 0-.786.47-.786 1.043 0 1.529 1.276 1.275 1.738-.346.466-1.636 3.204-1.884 3.847-.349.24.574 1.06 1.045 1.825 1.045s1.8.374 2.3.833c1.281 1.175 1.135 3.34-.226 3.34-1.374 0-1.528 1.843-.191 2.286.554.184.117.673-1.054 1.178-1.744.752-2.2.683-3.535-.542-1.115-1.022-2.485-1.395-5.016-1.36-3.1.043-3.481.221-3.481 1.632 0 4.43 2.28 6.15 7.887 5.954l2.956-.104-2.578 1.606c-1.944 1.211-2.76 1.403-3.333.778-.417-.455-1.697-1.028-2.845-1.272-1.7-.362-2.087-.827-2.087-2.518 0-1.36-.383-2.074-1.113-2.074-.683 0-.944.409-.674 1.053.577 1.38-1.043 3.121-2.907 3.121-1.114 0-1.362-.33-1.01-1.349.519-1.498-1.003-4.216-2.362-4.216-1.056 0-1.977 1.953-1.356 2.875.245.363 1.102.47 1.9.237.8-.233 1.454-.124 1.454.242 0 .83-5.456 1.527-6.324.808-.35-.29-.265-.737.189-.994.453-.257.82-.84.813-1.296-.009-.618-.162-.611-.604.027-.457.66-1.454.557-4.35-.448-3.776-1.31-6.402-3.97-6.41-6.494-.002-.67-.342-1.217-.756-1.217-.901 0-5.316-4.129-5.316-4.972 0-.326-.355-.592-.787-.592-1 0 .066 1.854 2.33 4.058 1.14 1.11 1.421 1.849.889 2.337-.533.488.383 1.659 2.892 3.702 1.987 1.618 3.518 3.052 3.448 3.222v.002l-.002.001v.002c.188.644.436 1.444.72 2.314l.003.009.742 1.843c.149.37.332 1.015.533 1.823.959 2.59 1.95 4.866 2.427 4.933 0 0 .055-4.433-.159-5.13-.098-.321-.119-.523-.119-.523 1.528 1.57 1.652 5.85 1.652 5.85 8.002 1.168 15.04 2.581 20.873 3.996 7.35 1.78 12.782 3.561 16.345 5.565.764.43 1.393.822 1.926 1.193q.145-.575.147-1.158c0-1.689 1.162-3.403 2.507-3.95-1.308-12.42-2.142-24.156-3-35.84q-.053-.721-.103-1.437-.263.018-.54.025c-1.808.047-2.657-.243-2.657-.906 0-.536-.726-.975-1.612-.975-1.387 0-1.549.292-1.157 2.087.386 1.774.223 2.087-1.094 2.087-1.204 0-1.442-.311-1.068-1.392.342-.988.136-1.391-.707-1.391-.654 0-1.19-.312-1.19-.695 0-1.245-1.647-.733-2.037.633-.352 1.233-.482 1.248-1.81.206-.904-.71-1.134-1.29-.625-1.579 1.045-.593-3.557-1.545-6.66-1.378-2.757.148-4.458-1.837-3.629-4.233.308-.89-.046-1.283-.626-1.269m5.392 1.679c-.755.029-2.142 1.12-2.142 1.852 0 .995 2.08.695 2.523-.364.225-.537.206-1.16-.04-1.386-.083-.077-.202-.108-.341-.102m-37.417 4.55c-.69 0-1.118.615-1.085 1.564.05 1.487.085 1.497.67.175.543-1.227.656-1.147.97.695l.356 2.087.113-2.26c.08-1.592-.222-2.26-1.024-2.26m6.213.048c-1.602.047-1.606.07-.143.647 2.088.823 2.829.823 2.274 0-.258-.383-1.217-.674-2.131-.647m-17.213 2.038c-.417 0-.758.314-.758.696 0 .383.34.695.758.695.417 0 .76-.312.76-.695s-.343-.696-.76-.696m2.074.855c-.093.018-.264.523-.597 1.546-.69 2.117-.587 2.813.294 2.005.278-.255.476-1.272.44-2.26-.03-.814-.05-1.253-.126-1.291zm9.64 4.71c-.184 0-.334.312-.334.695s.361.696.803.696.592-.313.334-.696c-.25-.37-.596-.676-.785-.695zm-4.696.011c-.758.007-1.004.233-.57.529a9 9 0 0 1 1.327 1.149c.313.346.571.108.571-.53 0-.644-.59-1.154-1.328-1.148m55.26 1.034.05.002q.429.033.139.727c-.46 1.1-1.778 1.388-1.778.388 0-.341.495-.797 1.1-1.01q.3-.105.489-.107m-16.275 3.369q-.106.009-.247.324c-.219.503-.19 1.104.062 1.335s.43-.18.398-.913c-.022-.482-.093-.736-.2-.746zm-53.127 4.629c-.161.023-.451.797-.648 1.739-.199.956-.067 1.739.293 1.739.359 0 .652-.783.652-1.74 0-.94-.128-1.713-.285-1.737l-.002-.001zm59.47 0c-.418 0-.76.313-.76.696s.342.696.76.696c.416 0 .757-.313.757-.696s-.34-.696-.758-.696m-38.163.308c-.249.003-.314.141-.143.395.446.661 1.89.977 1.89.414 0-.15-.529-.46-1.176-.687a2 2 0 0 0-.57-.122m-9.587.388c-.441 0-.803.314-.803.696 0 .383.15.695.334.695s.546-.312.803-.695c.258-.382.108-.696-.334-.696m5.432 4.257c-1.577-.052-2.648.3-2.925.96-.24.574-.998 1.053-1.683 1.065-1.512.027-3.903 1.604-3.903 2.574 0 .387 1.794.918 3.984 1.18s4.698.636 5.573.833c1.35.303 1.598.029 1.656-1.825.049-1.586-.178-2.008-.831-1.54-.495.353-1.687.818-2.65 1.035-1.535.345-1.723.166-1.517-1.46.18-1.426.762-1.957 2.51-2.297l2.275-.445zm-18.422.065a.6.6 0 0 0-.14.024c-.583.179-.95 1.582-.95 3.653 0 2.072.367 3.473.95 3.652.685.209.95-.807.95-3.652 0-2.577-.218-3.653-.768-3.677zm17.543 1.938c-.442 0-.803.312-.803.695s.15.696.334.696.545-.314.803-.696c.258-.383.108-.695-.334-.695m-11.602 2.372c-1.1.03-2.098.549-2.098 1.53 0 .532-.532.967-1.183.967-.757 0-.97.313-.588.87.268.392.431 1.092.415 1.7q2.95.127 5.808.282c-.851-.245-.786-.895.041-2.093.372-.54.51-1.374.308-1.858-.405-.97-1.604-1.428-2.703-1.398m39.205 1.803c1.075 0 1.138 2.908.078 3.606-1.188.782-1.753.017-1.364-1.85.201-.966.78-1.756 1.286-1.756m-59.31.875v1.9l.655.012c.924-.887.767-1.046-.654-1.912m29.373 1.309c-.882.024-1.505.206-1.505.481 0 .367-1.365.786-3.034.932q-.344.03-.646.045 4.566.265 8.885.611c.274-.906-.742-1.86-2.746-2.038a8 8 0 0 0-.954-.031m8.155.395c-.74 0-1.314.368-1.314 1.054 0 .28-.14.57-.38.851q2.742.242 5.378.518c2.181.212 3.745.387 4.663.498.74.143 1.046.142 1.08.038v-.04c-.077-.343-1.994-1.4-2.564-2.368-.287-.488-1.115-.373-2.159.22-1.35.768-1.816.756-2.867-.081-.584-.467-1.26-.69-1.837-.69" style="opacity:1;fill:url(#J);fill-opacity:1;fill-rule:evenodd;stroke-width:1.73057;stroke-dasharray:none" transform="matrix(.9824 0 0 1.07137 5.338 -7.255)"/></g></svg>