<?xml version="1.0" encoding="UTF-8" standalone="no"?>
<!-- Created with Inkscape (http://www.inkscape.org/) -->

<svg
   width="210mm"
   height="297mm"
   viewBox="0 0 210 297"
   version="1.1"
   id="svg1"
   xml:space="preserve"
   inkscape:export-filename="stillOS-classic.svg"
   inkscape:export-xdpi="250"
   inkscape:export-ydpi="250"
   xmlns:inkscape="http://www.inkscape.org/namespaces/inkscape"
   xmlns:sodipodi="http://sodipodi.sourceforge.net/DTD/sodipodi-0.dtd"
   xmlns="http://www.w3.org/2000/svg"
   xmlns:svg="http://www.w3.org/2000/svg"><sodipodi:namedview
     id="namedview1"
     pagecolor="#ffffff"
     bordercolor="#000000"
     borderopacity="0.25"
     inkscape:showpageshadow="2"
     inkscape:pageopacity="0.0"
     inkscape:pagecheckerboard="0"
     inkscape:deskcolor="#d1d1d1"
     inkscape:document-units="mm"><inkscape:page
       x="0"
       y="0"
       width="210"
       height="297"
       id="page2"
       margin="0"
       bleed="0" /></sodipodi:namedview><defs
     id="defs1" /><g
     inkscape:label="Layer 1"
     inkscape:groupmode="layer"
     id="layer1"><rect
       style="fill:#ffffff;fill-opacity:1;fill-rule:evenodd;stroke-width:0.556175"
       id="rect6"
       width="210"
       height="297"
       x="2.7533531e-14"
       y="7.1054274e-15" /><g
       id="g5"
       transform="matrix(1.6830154,0,0,1.6830154,-38.162169,47.446159)"><path
         id="path5"
         style="fill:#1a2f5a;fill-opacity:1"
         d="m 69.944051,18.346684 c -16.34619,0 -17.053311,0.0051 -17.449581,0.126607 -1.67168,0.512563 -2.852999,1.908624 -3.328479,3.93361 -0.1044,0.443358 -0.113171,2.329502 -0.113171,22.991878 v 22.508704 l 0.154512,0.606164 c 0.21795,0.855088 0.529121,1.563629 0.988571,2.250509 0.68481,1.023813 1.814265,1.968346 2.746085,2.296501 0.17036,0.06 1.843066,0.557058 3.717086,1.104842 1.87402,0.547784 8.673115,2.543866 15.109155,4.435388 13.27823,3.902407 12.18148,3.588281 12.76873,3.657141 H 117.2931 c 0.16715,-0.01104 0.26707,-0.02395 0.339,-0.03876 1.92492,-0.396159 3.41935,-1.84349 3.92224,-3.798735 0.11215,-0.43461 0.11885,-1.846315 0.11885,-22.834265 0,-25.315294 0.0591,-22.824355 -0.56792,-24.07915 -0.26007,-0.520436 -0.42715,-0.743698 -0.9431,-1.260388 -0.53729,-0.53806 -0.72049,-0.67277 -1.27899,-0.939995 -0.37963,-0.181639 -4.67494,-1.692259 -10.28826,-3.618384 -5.30027,-1.818709 -12.130303,-4.162891 -15.177883,-5.208984 -3.04758,-1.046092 -5.742622,-1.953918 -5.988782,-2.017448 -0.41307,-0.106611 -1.760664,-0.115238 -17.484204,-0.115238 z m 17.09043,12.928926 c 0.626172,-0.02006 1.25425,-0.0065 1.87327,0.04237 1.05297,0.08319 1.508789,0.138726 3.751709,0.45837 0.99495,0.141793 1.569607,0.183586 2.627747,0.190686 l 1.354439,0.0088 0.03721,0.6196 c 0.02059,0.340732 0.08633,1.687995 0.145728,2.994133 0.10805,2.376667 0.273264,5.23158 0.341064,5.89318 l 0.03566,0.351917 -0.360701,0.04341 c -0.62755,0.07538 -1.360746,0.05363 -1.388546,-0.04134 -1.13547,-3.874301 -1.815978,-5.290583 -3.200838,-6.660059 -0.95897,-0.948309 -1.899802,-1.450774 -3.216342,-1.717208 -0.86146,-0.174341 -2.397519,-0.192452 -3.278869,-0.03876 -2.27001,0.395856 -3.937973,1.521957 -4.794023,3.235978 -0.71961,1.440844 -0.814555,3.576563 -0.221175,4.988843 0.85976,2.046281 2.885184,3.475857 8.098214,5.716447 4.61139,1.982004 6.756134,3.444721 8.224304,5.60896 1.04287,1.537302 1.51621,3.179425 1.51567,5.260144 -8.2e-4,3.154476 -1.081719,5.719511 -3.275769,7.774202 -1.72205,1.612678 -4.00792,2.670995 -6.8771,3.183269 -0.66464,0.118664 -1.162471,0.151412 -2.547131,0.168982 -2.23586,0.02837 -3.082999,-0.04983 -6.642489,-0.614433 -0.58682,-0.09308 -1.577779,-0.21961 -2.202449,-0.28112 -0.62468,-0.06151 -1.296149,-0.128391 -1.491899,-0.148311 l -0.356051,-0.03617 -0.03721,-0.494543 c -0.0207,-0.272131 -0.0556,-1.207152 -0.077,-2.07791 -0.04099,-1.663532 -0.102789,-2.996 -0.281119,-6.046659 -0.0599,-1.016103 -0.08926,-1.865647 -0.06666,-1.888257 0.02262,-0.02262 0.391969,-0.05488 0.821139,-0.07131 l 0.780314,-0.02946 0.192753,0.782381 c 0.25512,1.036569 0.774757,2.553988 1.151867,3.364136 1.38633,2.978232 3.514641,4.81538 6.212541,5.362463 1.85971,0.377114 4.018265,0.197549 5.616195,-0.467671 2.63039,-1.095034 4.124296,-3.317753 4.124296,-6.135543 0,-2.106823 -0.873285,-3.809921 -2.674255,-5.216219 -1.20528,-0.94115 -2.531739,-1.642296 -5.620329,-2.970361 -2.12233,-0.91258 -4.294613,-1.961653 -5.182113,-2.50269 -3.63449,-2.215666 -5.142088,-4.959162 -4.895308,-8.9085 0.24397,-3.904254 2.628875,-7.072023 6.516915,-8.655803 1.528672,-0.622701 3.387827,-0.985734 5.266345,-1.045931 z" /><path
         id="path5-6"
         style="fill:#000000;fill-opacity:1"
         d="m 115.98859,86.822528 c -1.00942,0.0112 -2.04051,0.25727 -2.93264,0.73691 -2.03874,1.09609 -3.46435,3.17829 -3.9889,5.826 -0.17185,0.8651 -0.17329,2.6207 -0.003,3.34605 0.53546,2.28221 2.06525,3.653642 4.36821,3.915522 0.91365,0.10389 1.70272,0.0154 2.87889,-0.32194 0.12459,-0.0357 0.20226,0.0582 0.56896,0.68677 l 0.4253,0.72813 h 1.16892 c 0.643,0 1.16785,-0.0233 1.16685,-0.0517 -0.001,-0.0284 -0.32334,-0.59338 -0.7152,-1.25574 l -0.7121,-1.204582 0.43563,-0.42478 c 1.3637,-1.33056 2.24702,-3.2362 2.51354,-5.42085 0.15039,-1.23277 -0.0247,-2.74611 -0.42271,-3.65404 -0.38944,-0.88842 -1.17716,-1.7907 -1.94923,-2.23243 -0.80538,-0.46078 -1.793,-0.68455 -2.80242,-0.67334 z m -17.266129,0.18655 c -0.64661,0 -1.17777,0.008 -1.17977,0.0176 -0.002,0.009 -0.50801,3.04512 -1.12293,6.74584 l -1.11776,6.728272 h 1.17564 1.17564 l 0.47852,-2.890772 0.47904,-2.8913 h 3.014289 3.01428 l -0.0356,0.15503 c -0.0381,0.16622 -0.9307,5.527042 -0.9307,5.589842 0,0.0207 0.5242,0.0372 1.16479,0.0372 h 1.16479 l 0.0398,-0.18913 c 0.0858,-0.407182 2.17396,-13.068372 2.17403,-13.181632 7e-5,-0.10996 -0.10109,-0.12092 -1.15911,-0.12092 h -1.1591 l -0.42995,2.59881 c -0.23646,1.42918 -0.44632,2.66812 -0.46612,2.75332 l -0.0362,0.15503 h -2.9869 c -1.7153,0 -2.986379,-0.0266 -2.986379,-0.062 0,-0.0727 0.8085,-4.97859 0.8661,-5.2555 l 0.0393,-0.18965 z m -43.99162,0.18397 c -0.48751,-0.005 -0.97753,0.0222 -1.27228,0.0853 -2.164852,0.46354 -3.676945,2.12213 -3.681945,4.03799 -0.0021,0.86028 0.319402,1.46101 1.066602,1.9942 0.604561,0.43141 1.111343,0.64388 2.595713,1.08778 1.89388,0.56637 2.51957,0.93034 2.73833,1.59319 0.18611,0.56392 -0.11655,1.38293 -0.72244,1.95595 -0.84952,0.80344 -2.34186,1.16255 -3.59926,0.8661 -1.071792,-0.25269 -1.606179,-0.76721 -1.709459,-1.6459 l -0.04547,-0.38395 h -0.824756 -0.824755 l 0.02894,0.60358 c 0.0365,0.76363 0.285796,1.34 0.804086,1.85828 0.428195,0.42821 1.282667,0.865022 1.970942,1.007182 h 5.1e-4 c 0.634962,0.13091 2.088172,0.13729 2.729552,0.0119 1.95322,-0.381892 3.30787,-1.589502 3.74758,-3.340882 0.15426,-0.61443 0.10649,-1.44325 -0.10749,-1.86087 -0.5079,-0.99124 -1.29832,-1.47499 -3.42976,-2.10013 -1.67596,-0.49154 -2.2532,-0.78127 -2.588992,-1.29914 -0.21682,-0.33433 -0.24152,-0.86781 -0.0641,-1.38958 0.222272,-0.65361 1.112742,-1.34272 2.004012,-1.55133 0.50017,-0.11709 1.57254,-0.10252 2.01073,0.0274 0.85458,0.25335 1.35383,0.76288 1.42523,1.45469 l 0.0403,0.38809 0.79892,-0.0191 0.79892,-0.0196 -0.007,-0.48163 c -0.0112,-0.73174 -0.22112,-1.20586 -0.77773,-1.75648 -0.50771,-0.50224 -1.10123,-0.82677 -1.84847,-1.00976 -0.2838,-0.0695 -0.76875,-0.10779 -1.25625,-0.11317 z m 6.35258,0.1602 -0.0847,0.53381 c -0.0466,0.2934 -0.10134,0.61833 -0.12144,0.72244 l -0.0362,0.18965 h 2.00453 c 1.76469,0 2.00504,0.0126 2.00504,0.10646 0,0.11416 -1.76319,10.8365 -1.82469,11.096482 -0.0364,0.154 -0.0318,0.15451 0.78341,0.15451 0.79339,0 0.821,-0.005 0.8568,-0.15451 0.0204,-0.0852 0.44709,-2.641052 0.94826,-5.679242 l 0.91106,-5.5237 h 2.0071 2.00712 l 0.11627,-0.67127 c 0.064,-0.36912 0.11584,-0.69456 0.11524,-0.72296 -6e-4,-0.0284 -2.18028,-0.0517 -4.84415,-0.0517 z m 12.10675,0 -0.0393,0.18965 c -0.0216,0.10411 -0.48813,2.89935 -1.03663,6.21202 -0.54849,3.31267 -1.01215,6.10843 -1.03095,6.21254 l -0.0341,0.189142 h 0.82113 0.82114 l 0.0388,-0.223762 c 0.0214,-0.12304 0.48759,-2.93398 1.0356,-6.24665 0.54802,-3.31267 1.01217,-6.09271 1.03197,-6.17791 0.0358,-0.15398 0.0316,-0.15503 -0.78548,-0.15503 z m 14.68231,0 -1.0511,6.35 c -0.57821,3.4925 -1.05,6.373272 -1.048,6.401672 0.002,0.0284 1.70204,0.0517 3.7791,0.0517 h 3.77651 l 0.0847,-0.533302 c 0.0466,-0.2934 0.10134,-0.61884 0.12144,-0.72295 l 0.0367,-0.18914 h -2.97191 -2.97139 l 0.0398,-0.22376 c 0.12013,-0.67645 1.82469,-11.01937 1.82469,-11.07167 v -5.2e-4 c -4e-5,-2.7e-4 9e-5,-7.7e-4 0,-0.001 -1.3e-4,-2.7e-4 -8.6e-4,-10e-4 -0.001,-0.002 -0.027,-0.0325 -0.381,-0.0594 -0.80925,-0.0594 z m -9.1674,0.0155 -0.80667,0.0191 -1.04955,6.33295 c -0.57713,3.48304 -1.05061,6.355702 -1.05161,6.384102 -0.001,0.0284 1.7015,0.0517 3.78375,0.0517 2.08225,0 3.78628,-0.008 3.78633,-0.017 6e-5,-0.009 0.0461,-0.280752 0.10283,-0.602552 0.0567,-0.3218 0.10331,-0.63908 0.10336,-0.70538 9e-5,-0.11246 -0.18672,-0.12041 -2.96106,-0.12041 h -2.96106 l 0.0362,-0.15503 c 0.0605,-0.2557 1.8247,-10.99089 1.8247,-11.1032 0,-0.0874 -0.12526,-0.10063 -0.80719,-0.0842 z m 37.293329,1.70532 c 1.27462,0 2.04976,0.44806 2.56057,1.48002 0.26391,0.53314 0.35536,1.02759 0.35036,1.8929 -0.007,1.23528 -0.29484,2.39567 -0.84956,3.42408 -0.31077,0.57615 -0.88465,1.34085 -0.98185,1.30845 -0.035,-0.0117 -0.24102,-0.31486 -0.45785,-0.67334 l -0.39429,-0.65164 -1.18236,-0.0186 c -0.65039,-0.0104 -1.18287,-0.002 -1.18287,0.0186 0,0.0206 0.32336,0.57809 0.7183,1.2392 0.49217,0.82386 0.69235,1.21772 0.63665,1.25212 v -5.2e-4 c -0.15463,0.0961 -1.71818,0.0946 -2.00866,-0.002 -0.63162,-0.20899 -1.03972,-0.50043 -1.3932,-0.99477 -1.30122,-1.81973 -0.3992,-5.87489 1.649,-7.41454 0.85855,-0.64539 1.49208,-0.86041 2.53576,-0.86041 z" /></g></g></svg>
