<?xml version="1.0" encoding="UTF-8" standalone="no"?>
<!-- Created with Inkscape (http://www.inkscape.org/) -->

<svg
   width="210mm"
   height="297mm"
   viewBox="0 0 210 297"
   version="1.1"
   id="svg1"
   xml:space="preserve"
   xmlns="http://www.w3.org/2000/svg"
   xmlns:svg="http://www.w3.org/2000/svg"><defs
     id="defs1" /><g
     id="layer1"><rect
       style="fill:#ffffff;fill-opacity:1;fill-rule:evenodd;stroke-width:0.782183"
       id="rect4"
       width="209.3607"
       height="296.99997"
       x="0.63929993"
       y="4.2632564e-14" /><path
       id="path4"
       style="fill:#000000;stroke-width:1.82279"
       d="m 163.06712,197.24241 c -1.83996,0.0204 -3.71942,0.46896 -5.34556,1.34323 -3.71619,1.99793 -6.31479,5.79334 -7.27093,10.61955 -0.31325,1.57689 -0.31493,4.77698 -0.005,6.09914 0.97603,4.15996 3.76451,6.6598 7.96231,7.13715 1.66539,0.18937 3.10277,0.029 5.24668,-0.58588 0.2271,-0.0651 0.36865,0.105 1.03707,1.25091 l 0.77523,1.32721 h 2.13069 c 1.17205,0 2.12874,-0.0425 2.12692,-0.0942 -0.002,-0.0518 -0.58843,-1.08159 -1.30271,-2.28893 l -1.29895,-2.19569 0.79406,-0.77428 c 2.48573,-2.42533 4.09678,-5.89894 4.58259,-9.88108 0.27413,-2.24707 -0.045,-5.00559 -0.77051,-6.66053 -0.70986,-1.6194 -2.14666,-3.26405 -3.55397,-4.06923 -1.46804,-0.8399 -3.26824,-1.2478 -5.10822,-1.22737 z m -31.47153,0.34099 c -1.17863,0 -2.14777,0.0128 -2.15141,0.0312 -0.004,0.0164 -0.92505,5.5506 -2.04592,12.29622 l -2.03838,12.2642 h 2.14294 2.14294 l 0.87319,-5.26927 0.87224,-5.27023 h 5.4944 5.49441 l -0.064,0.28259 c -0.0694,0.303 -1.69647,10.07462 -1.69647,10.18909 0,0.0377 0.95456,0.0678 2.12222,0.0678 h 2.12316 l 0.0735,-0.34476 c 0.1564,-0.74222 3.96172,-23.82083 3.96185,-24.02728 1.2e-4,-0.20043 -0.18425,-0.21948 -2.11279,-0.21948 h -2.11282 l -0.78368,4.73613 c -0.43102,2.60509 -0.81357,4.86341 -0.84966,5.01871 l -0.0651,0.28259 h -5.44448 c -3.12663,0 -5.44449,-0.0485 -5.44449,-0.11301 0,-0.13252 1.47373,-9.07489 1.57872,-9.57964 l 0.0726,-0.34476 z m -80.188292,0.33439 c -0.888609,-0.009 -1.781811,0.0405 -2.319077,0.15548 -3.94606,0.84492 -6.702277,3.86821 -6.711391,7.36041 -0.0038,1.56811 0.582198,2.66309 1.944184,3.63498 1.101984,0.78637 2.025718,1.17368 4.731407,1.98281 3.45214,1.03236 4.592657,1.6958 4.99141,2.90403 0.339239,1.02791 -0.212446,2.52174 -1.316854,3.56623 -1.548494,1.4645 -4.267781,2.11908 -6.559753,1.57871 -1.953645,-0.4606 -2.928653,-1.39939 -3.116911,-3.00105 l -0.08195,-0.69988 H 41.464071 39.96071 l 0.05275,1.1002 c 0.06653,1.39192 0.520953,2.44255 1.465685,3.38727 0.780499,0.78051 2.338034,1.57673 3.592603,1.83585 h 9.3e-4 c 1.157396,0.23862 3.807236,0.25025 4.976335,0.0217 3.560303,-0.6961 6.028593,-2.89732 6.830091,-6.08971 0.281183,-1.11997 0.194108,-2.63075 -0.195932,-3.39197 -0.925793,-1.80683 -2.36563,-2.68859 -6.250791,-3.82809 -3.054917,-0.89597 -4.108032,-1.42408 -4.720106,-2.36807 -0.395216,-0.60941 -0.439291,-1.58181 -0.115856,-2.53291 0.405151,-1.19137 2.02734,-2.44747 3.651935,-2.82772 0.911703,-0.21343 2.867353,-0.18687 3.666079,0.0499 1.557717,0.46181 2.466814,1.39057 2.596961,2.65159 l 0.07346,0.70741 1.456261,-0.0348 1.456261,-0.0348 -0.01221,-0.87884 c -0.02049,-1.33381 -0.404002,-2.19806 -1.418584,-3.20171 -0.925447,-0.91549 -2.007289,-1.50702 -3.369348,-1.84056 -0.517307,-0.12668 -1.401267,-0.19649 -2.289894,-0.2063 z m 11.579416,0.29295 -0.154481,0.9721 c -0.08494,0.53482 -0.183774,1.12801 -0.220412,1.31778 l -0.06688,0.34476 h 3.653831 c 3.216653,0 3.65476,0.023 3.65476,0.19404 0,0.20807 -3.213919,19.75261 -3.32602,20.22651 -0.06642,0.28071 -0.05795,0.28164 1.427989,0.28164 1.446181,0 1.496508,-0.009 1.561763,-0.28164 0.03711,-0.1553 0.81495,-4.81407 1.728476,-10.35204 l 1.66065,-10.06851 h 3.658551 3.658534 l 0.212883,-1.2236 c 0.116713,-0.67283 0.211152,-1.26602 0.210058,-1.31778 -0.0011,-0.0518 -3.975133,-0.0933 -8.8308,-0.0933 z m 22.06897,0 -0.07158,0.34475 c -0.03943,0.18977 -0.889757,5.28584 -1.889555,11.32413 -0.99978,6.03829 -1.845863,11.13342 -1.880132,11.32321 l -0.06217,0.34474 h 1.496763 1.496763 l 0.07063,-0.40692 c 0.03903,-0.22427 0.888773,-5.34895 1.887678,-11.38724 0.998924,-6.03829 1.845918,-11.10573 1.882009,-11.26103 0.06533,-0.28067 0.05669,-0.28164 -1.432692,-0.28164 z m 26.762716,0 -1.91688,11.5747 c -1.05396,6.36608 -1.91393,11.61711 -1.91028,11.66888 0.004,0.0518 3.1034,0.0933 6.88944,0.0933 h 6.88377 l 0.15439,-0.97209 c 0.0849,-0.5348 0.18377,-1.12706 0.22041,-1.31683 l 0.0669,-0.34571 h -5.41621 -5.41716 l 0.0726,-0.40785 c 0.21897,-1.23304 3.32696,-20.08598 3.32696,-20.18131 -7e-5,-4.9e-4 -7.8e-4,-0.002 -9.4e-4,-0.004 -2.4e-4,-4.9e-4 -6.2e-4,-0.002 -9.3e-4,-0.004 -0.0492,-0.0592 -0.69449,-0.10737 -1.47511,-0.10737 z m -16.710212,0.0273 -1.471335,0.0348 -1.912158,11.54362 c -1.051893,6.34833 -1.91491,11.58428 -1.91686,11.63687 -0.0024,0.0518 3.101453,0.0942 6.896951,0.0942 3.795494,0 6.900644,-0.0146 6.900734,-0.031 1.1e-4,-0.0164 0.0849,-0.5108 0.18839,-1.09737 0.10335,-0.58658 0.18736,-1.16586 0.18745,-1.28671 1.6e-4,-0.20499 -0.34035,-0.21948 -5.397376,-0.21948 h -5.397377 l 0.06688,-0.28257 c 0.110224,-0.46609 3.325091,-20.03406 3.325091,-20.23876 0,-0.15931 -0.227375,-0.18345 -1.470388,-0.15348 z m 67.976832,3.10938 c 2.32336,0 3.73627,0.8167 4.66737,2.69776 0.48105,0.97178 0.64776,1.87309 0.63865,3.45035 -0.0128,2.25165 -0.53743,4.36585 -1.54857,6.24044 -0.56646,1.05018 -1.61254,2.44408 -1.78972,2.38502 -0.0638,-0.0213 -0.43933,-0.57394 -0.83456,-1.22737 l -0.71871,-1.1878 -2.15519,-0.0339 c -1.18552,-0.019 -2.15517,-0.004 -2.15517,0.0339 0,0.0376 0.58847,1.05372 1.30836,2.2588 0.89537,1.49877 1.26093,2.21722 1.16143,2.28235 -0.28186,0.17517 -3.13283,0.17134 -3.66231,-0.004 -1.15131,-0.38094 -1.89424,-0.9122 -2.53856,-1.81327 -2.37185,-3.31696 -0.7286,-10.70771 3.00483,-13.51416 1.56495,-1.17641 2.71974,-1.56836 4.62215,-1.56836 z" /><path
       style="fill:#1a2f5a;fill-opacity:1;stroke-width:2.94489"
       d="m 110.81014,186.24039 c -1.07136,-0.17116 -7.20732,-1.38218 -13.635444,-2.69134 -6.428128,-1.30914 -15.072858,-2.827 -19.210474,-3.37298 -8.162967,-1.07712 -8.561465,-1.27443 -18.189606,-9.00511 -2.999778,-2.40863 -8.105167,-6.32565 -11.345316,-8.70446 -3.240149,-2.37887 -7.046383,-5.78374 -8.458332,-7.56644 l -2.567158,-3.2413 0.320793,-14.97782 0.320755,-14.97778 6.774752,-20.64797 C 48.546214,89.698825 52.388557,79.004735 53.358662,77.290575 54.75324,74.826382 57.938997,72.29805 68.57616,65.21348 75.975653,60.28523 84.669087,54.675221 87.894873,52.746767 c 3.225804,-1.928435 7.116943,-4.315283 8.64699,-5.304145 1.530045,-0.988843 3.220261,-1.62968 3.756047,-1.42407 0.53578,0.205556 6.18818,4.188344 12.5609,8.85054 6.37273,4.662197 14.74238,10.72309 18.59927,13.46868 10.82464,7.705667 18.90883,14.731803 22.59984,19.641893 4.06112,5.40249 12.09415,20.963525 14.29269,27.686855 0.87618,2.67945 2.88215,7.47999 4.4577,10.66792 3.28293,6.64258 3.23218,7.43939 -0.87113,13.67917 -2.76098,4.19855 -2.81034,4.409 -2.43391,10.38156 l 0.38415,6.09612 -3.40631,1.46013 c -1.87348,0.80306 -5.67545,2.16099 -8.44886,3.0176 -9.04696,2.79432 -12.06952,4.80817 -17.22241,11.47476 -3.31647,4.29073 -5.79005,6.65588 -8.21704,7.8569 -4.02227,1.99041 -17.4482,6.51331 -18.87012,6.35691 -0.53054,-0.0583 -1.8412,-0.24618 -2.91254,-0.4172 z"
       id="path1" /><path
       id="path2"
       style="fill:#ffffff;fill-opacity:1;stroke-width:1.82279"
       d="m 106.18469,81.644985 c -4.18032,0.23775 -8.186386,1.31079 -11.344856,3.08678 -5.575685,3.13516 -8.949408,8.39984 -9.334745,14.56633 -0.34294,5.488435 1.130711,9.567265 4.706945,13.026245 2.678403,2.59058 5.992375,4.47603 13.662056,7.77393 5.62984,2.42077 8.04768,3.69881 10.24464,5.41433 3.28277,2.56338 4.87461,5.66775 4.87461,9.50805 0,3.56302 -1.18694,6.38646 -3.67643,8.74696 -3.21761,3.05087 -8.80959,4.35751 -14.07745,3.28929 -6.576236,-1.33354 -11.180467,-6.78848 -13.4247,-15.90671 l -0.351342,-1.42706 -1.422357,0.0547 c -0.782267,0.0299 -1.455514,0.0879 -1.496745,0.12905 -0.04119,0.0412 0.01276,1.59069 0.12158,3.44283 0.325057,5.5607 0.438635,7.98856 0.513351,11.02082 0.03919,1.58721 0.101712,3.29155 0.139443,3.78759 l 0.06872,0.90239 0.648056,0.066 c 0.35681,0.0363 1.580775,0.15822 2.719415,0.27034 1.138659,0.1121 2.944967,0.34177 4.014597,0.51147 3.754247,0.59551 5.348949,0.81564 7.152232,0.98717 2.74754,0.26137 7.6546,0.17189 9.59848,-0.17517 5.22992,-0.93376 9.39656,-2.8619 12.53549,-5.80148 3.99928,-3.74526 5.96955,-8.42076 5.97103,-14.1707 9.8e-4,-3.79271 -0.8618,-6.78596 -2.76275,-9.58813 -2.67616,-3.94495 -6.58556,-6.61118 -14.99114,-10.22394 -9.50224,-4.08412 -13.194165,-6.69087 -14.761324,-10.4208 -1.081587,-2.574295 -0.90948,-6.466305 0.402216,-9.092665 1.560378,-3.12429 4.601678,-5.17693 8.739418,-5.89848 1.60651,-0.28022 4.40642,-0.24714 5.97668,0.0705 2.39977,0.48566 4.1147,1.40154 5.8627,3.1301 2.52431,2.49626 3.76473,5.07688 5.83445,12.138935 0.0507,0.17316 1.38714,0.21279 2.53101,0.0753 l 0.6575,-0.0791 -0.0651,-0.64053 c -0.12359,-1.205965 -0.42475,-6.409875 -0.6217,-10.742015 -0.10827,-2.38081 -0.22807,-4.83753 -0.26562,-5.45861 l -0.0678,-1.12847 -2.46885,-0.0164 c -1.92878,-0.0128 -2.97625,-0.0882 -4.78983,-0.34664 -4.08836,-0.58264 -4.91921,-0.6848 -6.83855,-0.83646 -1.40719,-0.11119 -2.81992,-0.1245 -4.21335,-0.0452 z" /></g></svg>
