<svg xmlns="http://www.w3.org/2000/svg" xmlns:xlink="http://www.w3.org/1999/xlink" xml:space="preserve" width="222.64" height="218.79"><defs><linearGradient id="d"><stop offset="0" style="stop-color:#1a2f5a;stop-opacity:1"/><stop offset="1" style="stop-color:#1a2f5a;stop-opacity:0"/></linearGradient><linearGradient id="c"><stop offset="0" style="stop-color:#172a50;stop-opacity:1"/><stop offset="1" style="stop-color:#1a305b;stop-opacity:1"/></linearGradient><linearGradient id="a"><stop offset="0" style="stop-color:#142547;stop-opacity:1"/><stop offset=".5" style="stop-color:#24417d;stop-opacity:1"/><stop offset="1" style="stop-color:#1f396d;stop-opacity:1"/></linearGradient><linearGradient id="b"><stop offset="0" style="stop-color:#1e376b;stop-opacity:1"/><stop offset="1" style="stop-color:#1a2f5a;stop-opacity:0"/></linearGradient><linearGradient xlink:href="#a" id="f" x1="1040.293" x2="986.206" y1="378.441" y2="264.485" gradientTransform="translate(248.157 758.516)scale(.42225)" gradientUnits="userSpaceOnUse"/><linearGradient xlink:href="#b" id="g" x1="1059.341" x2="1043.594" y1="344.494" y2="315.799" gradientTransform="translate(248.157 758.516)scale(.42225)" gradientUnits="userSpaceOnUse"/><linearGradient xlink:href="#c" id="e" x1="649.14" x2="664.58" y1="896.936" y2="941.508" gradientUnits="userSpaceOnUse"/><linearGradient xlink:href="#d" id="h" x1="672.351" x2="679.761" y1="933.241" y2="915.235" gradientUnits="userSpaceOnUse"/></defs><path d="M664.578 870.193 633.7 888.021l1.5 14.204c1.837-2.023 2.991-.133 5.951-.133h12.58a10.034 10.034 0 0 1 10.057 10.056c-.025 3.48.845 4.63.793 8.11 1.625-.171 2.99 1.748 4.1 2.252 2.931 1.33 5.812 2.59 5.812 5.81s-2.817 6.994-5.812 5.813l-4.1-1.617c-2.295-.906-4.4.094-5.246-2.067a10.03 10.03 0 0 1-5.604 1.696h-5.369l16.22 9.363 30.878-17.828v-7.364c-10.963-2.429-20.817-14.295-35.473-19.103-2.98-.978-5.662-2.526-5.662-5.662v-1.84a5.65 5.65 0 0 1 5.662-5.662h8.02a5.65 5.65 0 0 1 5.662 5.662v1.84c0-.767 3.729 2.125 3.729 2.125l6.361 3.628c.567.3 1.338.365 1.585.904 2.796-5.452 7.307-7.862 10.116-10.187z" style="fill:#172a50;fill-opacity:1;fill-rule:evenodd;stroke-width:4.02533" transform="translate(-1513.242 -2098.817)scale(2.43772)"/><path d="M633.7 888.021v14.625l30.88 17.612 4.313 2.521a5.35 5.35 0 0 1 2 7.31 5.34 5.34 0 0 1-6.313 2.427 5.4 5.4 0 0 1-.793-.371l-30.088-17.16v8.695l30.881 17.828 30.879-17.828v-7.364l-24.654-14.06-6.225 3.594z" style="fill:url(#e);fill-opacity:1;stroke:none;stroke-width:1.00633px;stroke-linejoin:round" transform="translate(-1513.242 -2098.817)scale(2.43772)"/><path d="m664.58 870.193-30.88 17.828 30.88 17.829c0 .056 6.626 3.9 8.742 5.33 6.755 4.56 10.745 6.58 14.094 7.13.766.126 2.776.071 3.5-.095 1.003-.231 1.911-.581 3.24-1.246l1.303-.653-24.654-14.06-8.84-5.043a5.35 5.35 0 0 1-2.002-7.31 5.35 5.35 0 0 1 7.31-2l14.284 8.146 13.902 7.928V888.02z" style="fill:url(#f);stroke:none;stroke-width:1.00633px;stroke-linejoin:round" transform="translate(-1513.242 -2098.817)scale(2.43772)"/><path d="m695.459 888.021-13.902 8.028 13.902 7.928z" style="fill:url(#g);stroke:none;stroke-width:1.00633px;stroke-linejoin:round" transform="translate(-1513.242 -2098.817)scale(2.43772)"/><path d="m670.805 902.256-6.225 3.594v14.408l4.313 2.521a5.35 5.35 0 0 1 2 7.31 5.34 5.34 0 0 1-6.313 2.427v8.992l30.879-17.828v-7.364z" style="fill:url(#h);fill-opacity:1;stroke:none;stroke-width:1.00633px;stroke-linejoin:round" transform="translate(-1513.242 -2098.817)scale(2.43772)"/></svg>