<svg xmlns="http://www.w3.org/2000/svg" xml:space="preserve" width="210mm" height="297mm" viewBox="0 0 210 297"><path d="m156.732 185.72-47.957 26.901a7.4 7.4 0 0 1-7.276-.016l-51.32-29.097a7.01 7.01 0 0 1-3.552-6.236l1.123-57.368a7.23 7.23 0 0 1 3.74-6.193l50.243-27.71a7.23 7.23 0 0 1 7.233.141l49.12 29.657a7.23 7.23 0 0 1 3.494 6.335l-1.123 57.368a7.3 7.3 0 0 1-3.725 6.219" style="display:inline;fill:#c4986b;fill-opacity:1;fill-rule:evenodd;stroke-width:1.35929" transform="translate(.773 27.74)"/><path d="M106.263 213.47q-.329.048-.634.083a7.4 7.4 0 0 0 3.146-.931l47.957-26.901c2.257-1.266 3.92-3.475 3.971-6.062l1.124-57.367a7.24 7.24 0 0 0-3.494-6.335l-53.15 32.291c.521 21.766.872 43.478 1.08 65.221" style="display:inline;fill:#784e36;fill-opacity:1;fill-rule:evenodd;stroke-width:1.35928" transform="translate(.773 27.74)"/><path d="M48.355 117.11c-.702 1.103-.556 2.398-.583 3.75l-1.124 57.368c-.05 2.573 1.295 4.998 3.552 6.235l51.812 28.406c1.444.82 3.522.842 4.627.555l-.73-32.66-.726-32.516z" style="display:inline;fill:#946c48;fill-opacity:1;fill-rule:evenodd;stroke-width:1.35928" transform="translate(.773 27.74)"/><path d="m72.485 130.366.018 66.325 6.405 3.512.628-66.006z" style="fill:#57453b;fill-opacity:1;fill-rule:evenodd;stroke-width:.632" transform="translate(.773 27.74)"/><path d="m80.007 97.983-3.396 1.873c-1.731 1.017-3.479 1.88-3.581 1.975-.103.096.308.154.913.505.605.35 2.282 1.338 3.727 2.193 6.405 3.79 8.194 4.836 9.479 5.539a67 67 0 0 1 2.398 1.382c1.904 1.17 4.902 2.93 6.11 3.585.66.359 1.2.717 1.2.797s-.54.464-1.2.853c-.66.39-2.176 1.281-3.37 1.982a2863 2863 0 0 0-4.91 2.894c-1.507.89-4.077 2.393-5.71 3.34s-4.328 2.517-5.99 3.49l-3.192 1.975s7.128 3.905 7.05 3.83c-.04-.04.97-.678 2.247-1.419s3.572-2.085 5.1-2.987a1644 1644 0 0 1 7.462-4.357 1475 1475 0 0 0 6.982-4.075c1.265-.747 2.434-1.358 2.597-1.358.164 0 1.235.562 2.382 1.249 1.147.686 4.81 2.83 8.139 4.762l6.795 3.947c1.48.863 2.475 1.433 3.483 1.996.875.623 2.078 1.237 3.667 2.183 0 0 13.9-8.096 16.096-9.379l-9.288 5.423-1.412-.818c-.776-.45-2.517-1.467-3.869-2.262s-4.95-2.894-7.994-4.665c-8.202-4.772-10.904-6.401-10.904-6.573 0-.133 1.973-1.351 4.796-2.962.44-.251 2.084-1.215 3.654-2.141 1.57-.927 3.318-1.944 3.884-2.26s1.85-1.062 2.855-1.66a759 759 0 0 1 5.32-3.11c1.923-1.114 3.352-1.92 3.294-1.978s-1.503-.945-3.302-1.993l-3.167-1.912-1.229.52c-.63.378-1.607.95-2.172 1.27s-2.313 1.33-3.884 2.244c-9.723 5.662-14.883 8.677-15.953 9.319l-1.221.733-1.634-.96c-5.39-3.173-10.512-6.163-11.805-6.894-.82-.464-2.105-1.215-2.855-1.67-.75-.456-2.877-1.712-4.726-2.792z" style="fill:#886d66;fill-opacity:1;stroke-width:.867955" transform="translate(.773 27.74)"/><path d="m128.961 229.471.2-67.594 6.665-4.04-.642 68.144z" style="fill:#3d2b29;fill-opacity:1;fill-rule:evenodd;stroke-width:.632"/><path d="M79.805 55.686c-3.9.14-7.77 1.148-10.81 3.002-10.535 6.424-19.163 29.695-17.775 47.944l.548 7.182 2.23-8.778c6.528-25.71 20.958-41.568 29.37-32.273 3.399 3.755 7.503 19.84 7.503 29.414 0 7.09-.29 7.647-3.99 7.647-2.194 0-3.99.742-3.99 1.649s5.042 9.166 11.207 18.354c6.164 9.188 11.73 16.68 12.369 16.65s5.25-8.65 10.246-19.153l9.084-19.096h-4.492c-3.997 0-4.6-.698-5.499-6.316-2.922-18.276-14.439-38.534-25.016-44.003-3.156-1.632-7.086-2.362-10.985-2.223" style="fill:#00007a;fill-opacity:1;stroke-width:6.03226"/></svg>