<?xml version="1.0" encoding="UTF-8" standalone="no"?>
<svg
   width="128"
   height="128"
   version="1.1"
   id="svg22"
   xml:space="preserve"
   xmlns:xlink="http://www.w3.org/1999/xlink"
   xmlns="http://www.w3.org/2000/svg"
   xmlns:svg="http://www.w3.org/2000/svg"><defs
     id="defs22"><linearGradient
       id="linearGradient23"><stop
         style="stop-color:#1a1f32;stop-opacity:1;"
         offset="0.28833967"
         id="stop24" /><stop
         style="stop-color:#4d5e96;stop-opacity:0;"
         offset="0.78036654"
         id="stop25" /></linearGradient><linearGradient
       id="linearGradient21"><stop
         style="stop-color:#000000;stop-opacity:1;"
         offset="0.54967141"
         id="stop21" /><stop
         style="stop-color:#25552e;stop-opacity:1;"
         offset="0.8648985"
         id="stop22" /></linearGradient><linearGradient
       id="linearGradient1"><stop
         style="stop-color:#2b0d1f;stop-opacity:1;"
         offset="0.34384257"
         id="stop17" /><stop
         style="stop-color:#2b0d1f;stop-opacity:0;"
         offset="1"
         id="stop18" /></linearGradient><linearGradient
       xlink:href="#linearGradient1"
       id="linearGradient18"
       x1="35.717543"
       y1="42.782276"
       x2="91.304251"
       y2="42.782276"
       gradientUnits="userSpaceOnUse" /><linearGradient
       xlink:href="#linearGradient21"
       id="linearGradient22"
       x1="65.810383"
       y1="73.223641"
       x2="96.892397"
       y2="73.223641"
       gradientUnits="userSpaceOnUse" /><linearGradient
       xlink:href="#linearGradient23"
       id="linearGradient25"
       x1="29.428975"
       y1="63.611509"
       x2="96.917747"
       y2="63.611509"
       gradientUnits="userSpaceOnUse" /></defs><linearGradient
     id="a"
     x1="12"
     x2="116"
     y1="64"
     y2="64"
     gradientUnits="userSpaceOnUse"><stop
       offset="0"
       stop-color="#3d3846"
       id="stop1" /><stop
       offset=".05"
       stop-color="#77767b"
       id="stop2" /><stop
       offset=".1"
       stop-color="#5e5c64"
       id="stop3" /><stop
       offset=".9"
       stop-color="#45434d"
       id="stop4" /><stop
       offset=".95"
       stop-color="#77767b"
       id="stop5" /><stop
       offset="1"
       stop-color="#3d3846"
       id="stop6" /></linearGradient><linearGradient
     id="b"
     x1="12"
     x2="112.041"
     y1="60"
     y2="80.987999"
     gradientUnits="userSpaceOnUse"
     gradientTransform="translate(7.1636267,49.732101)"><stop
       offset="0"
       stop-color="#77767b"
       id="stop7" /><stop
       offset=".384"
       stop-color="#9a9996"
       id="stop8" /><stop
       offset=".721"
       stop-color="#77767b"
       id="stop9" /><stop
       offset="1"
       stop-color="#68666f"
       id="stop10" /></linearGradient><linearGradient
     id="c"
     x1="13.07"
     x2="117.07"
     y1="55.686001"
     y2="55.686001"
     gradientUnits="userSpaceOnUse"
     gradientTransform="translate(0.27566638,5.1247476)"><stop
       offset="0"
       stop-color="#3d3846"
       id="stop11"
       style="stop-color:#534d60;stop-opacity:1;" /><stop
       offset="0.06897929"
       stop-color="#77767b"
       id="stop12"
       style="stop-color:#838287;stop-opacity:1;" /><stop
       offset="0.16062427"
       stop-color="#5e5c64"
       id="stop13"
       style="stop-color:#81808e;stop-opacity:1;" /><stop
       offset="0.53399998"
       stop-color="#45434d"
       id="stop14"
       style="stop-color:#5f5b69;stop-opacity:1;" /><stop
       offset="0.91482955"
       stop-color="#77767b"
       id="stop15"
       style="stop-color:#7c7b80;stop-opacity:1;" /><stop
       offset="1"
       stop-color="#3d3846"
       id="stop16" /></linearGradient><path
     style="fill:#1a1f32;fill-opacity:1;fill-rule:evenodd;stroke-width:0.0891712"
     id="path2"
     d="M 97.575113,82.324599 63.79417,100.23958 36.234299,87.144205 31.526984,44.29778 64.481355,25.926294 94.474651,42.597748 Z" /><path
     fill="#1a1f32"
     d="M 64.497285,25.048515 87.473596,37.4471 c 2.915584,1.573321 8.396261,3.791148 8.479717,7.102096 l 0.964334,38.258099 C 96.982007,85.36081 66.069741,102.48527 65.431668,102.17021 L 56.78261,97.89959 C 53.8129,96.433244 29.299304,85.842212 29.429492,82.531771 l 1.515382,-38.533623"
     id="path18"
     style="fill:url(#linearGradient25);fill-opacity:1" /><path
     fill="#fffeff"
     d="m 39.302666,58.409747 v 6.594 l 11.263,10.953 -11.262,-1.941 v 6.593 l 17.25,1.676 v -5.633 z m 0,0"
     id="path19" /><path
     style="fill:url(#linearGradient22);fill-opacity:1;fill-rule:evenodd;stroke-width:0.0487062"
     d="m 67.333254,97.569227 c 0,0 -0.80421,-0.01707 -0.865975,-0.166572 -0.08355,-0.202227 -0.898035,-4.356783 -0.586046,-15.803201 l 0.421856,-15.477274 0.195705,-1.124225 c 0.05661,-0.325221 0.47272,-0.72333 0.62187,-0.864755 0.14915,-0.141426 4.307508,-3.035383 9.477676,-6.019156 5.170167,-2.983774 11.235194,-6.647548 13.358778,-7.873837 2.2641,-1.307431 4.450343,-2.083496 4.595266,-2.083496 0.135928,0 1.17706,0.820644 1.137744,1.03246 l 0.39347,0.528824 0.39258,15.574864 0.389739,15.462144 0.02648,1.050709 c 0,0 -1.091112,0.811139 -1.313642,1.003126 -0.22253,0.191989 -3.690124,4.645963 -9.905041,8.234532 -15.511375,8.956461 -17.551633,7.086487 -17.769442,7.082083 -0.107153,-0.0022 -0.656263,-0.06916 -0.656263,-0.06916 z"
     id="path5" /><path
     fill="#4b4953"
     d="m 63.529666,23.604747 c -1.504,0 -2.98,0.399 -4.281,1.149 l -26.887,15.523 a 8.57,8.57 0 0 0 -4.281,7.418 v 31.043 a 8.57,8.57 0 0 0 4.28,7.418 l 26.888,15.524003 a 8.58,8.58 0 0 0 8.566,0 l 26.883,-15.525003 a 8.57,8.57 0 0 0 4.285,-7.418 v -31.042 a 8.56,8.56 0 0 0 -4.285,-7.418 l -26.883,-15.522 a 8.6,8.6 0 0 0 -4.285,-1.149 m -0.496,2.97 a 2.86,2.86 0 0 1 1.926,0.34 l 26,15.01 a 0.953,0.953 0 0 1 0,1.65 l -26,15.007 a 2.85,2.85 0 0 1 -2.856,0 l -26,-15.008 a 0.953,0.953 0 0 1 0,-1.648 l 26,-15.012 q 0.436,-0.252 0.93,-0.34 m -30.868,22.596 a 1,1 0 0 1 0.64,0.113 l 26,15.012 c 0.883,0.512 2.309,1.453 2.309,2.473 v 30.02 c 0,0.733 -1.676,1.19 -2.309,0.827 l -26,-15.012 a 2.86,2.86 0 0 1 -1.43,-2.472 v -30.023 c 0,-0.46 0.333,-0.855 0.79,-0.937 m 62.73,0 a 0.955,0.955 0 0 1 0.785,0.937 v 30.024 c 0,1.02 -0.543,1.96 -1.426,2.472 l -26,15.012 a 0.953,0.953 0 0 1 -1.425,-0.828 v -30.02 c 0,-1.019 0.543,-1.96 1.425,-2.472 l 26,-15.012 a 0.98,0.98 0 0 1 0.641,-0.113 m 0,0"
     id="path20" /><path
     fill="#fffeff"
     d="m 93.060666,79.167747 v -6.832 l -22.847,13.191 v 6.836 z m 0,0"
     id="path21" /><path
     fill="url(#c)"
     d="m 63.529666,23.604747 c -1.504,0 -2.98,0.399 -4.281,1.149 l -26.883,15.523 a 8.56,8.56 0 0 0 -4.285,7.418 v 31.043 a 8.57,8.57 0 0 0 4.285,7.418 l 26.883,15.524003 a 8.58,8.58 0 0 0 8.566,0 l 26.883,-15.525003 a 8.57,8.57 0 0 0 4.285,-7.418 v -31.042 a 8.56,8.56 0 0 0 -4.285,-7.418 l -26.883,-15.522 a 8.6,8.6 0 0 0 -4.285,-1.149 m 0.004,2.926 c 0.496,0 0.988,0.133 1.426,0.383 l 26,15.012 a 0.953,0.953 0 0 1 0,1.648 l -26,15.008 a 2.85,2.85 0 0 1 -2.856,0 l -26,-15.008 a 0.953,0.953 0 0 1 0,-1.648 l 26,-15.012 a 2.8,2.8 0 0 1 1.43,-0.383 m -31.203,22.63 q 0.253,0 0.476,0.124 l 26,15.012 c 0.883,0.512 2.313,1.453 2.313,2.473 v 30.023 c -0.004,0.73 -1.68,1.187 -2.313,0.824 l -26,-15.012 a 2.85,2.85 0 0 1 -1.43,-2.472 v -30.025 c 0,-0.46 0.333,-0.855 0.79,-0.937 q 0.081,-0.012 0.164,-0.012 m 62.402,0 q 0.083,0 0.164,0.01 a 0.96,0.96 0 0 1 0.79,0.938 v 30.024 c 0,1.02 -0.548,1.96 -1.43,2.472 l -26,15.012 a 0.952,0.952 0 0 1 -1.426,-0.824 v -30.022 c 0,-1.02 0.543,-1.961 1.425,-2.473 l 26,-15.012 a 1,1 0 0 1 0.477,-0.125 m 0,0"
     style="fill:url(#c)"
     id="path22" /><path
     style="fill:url(#linearGradient18);fill-rule:evenodd;stroke-width:0.301589;fill-opacity:1"
     d="m 62.4414,58.575142 c -0.428615,-0.200288 -2.708067,-1.480857 -5.065449,-2.845707 -2.357382,-1.36485 -5.469711,-3.164224 -6.916286,-3.998609 -1.446575,-0.834383 -4.208219,-2.43094 -6.136986,-3.547903 -1.928767,-1.116963 -4.617895,-2.668455 -5.97584,-3.447763 -1.357945,-0.779307 -2.516838,-1.541608 -2.575317,-1.694002 -0.196498,-0.512067 0.11451,-0.866769 1.413954,-1.612603 1.287688,-0.739086 4.216583,-2.428263 11.618177,-6.700531 2.143075,-1.237002 6.132116,-3.54886 8.864536,-5.137462 6.217603,-3.614852 5.634534,-3.537991 9.551671,-1.259118 3.589146,2.088057 6.562964,3.809188 10.12565,5.860337 1.553729,0.89453 3.833181,2.210384 5.065449,2.92412 1.232268,0.713737 3.673547,2.123135 5.425063,3.131997 3.151855,1.815446 3.641109,2.21271 3.423493,2.779808 -0.0616,0.16052 -1.661282,1.189056 -3.554856,2.285638 -1.893576,1.09658 -4.451082,2.578255 -5.68335,3.292612 -1.232268,0.714355 -3.51172,2.031097 -5.065449,2.926094 -3.515387,2.02497 -6.561896,3.789195 -9.838661,5.697545 -2.892735,1.684694 -3.547074,1.872993 -4.675799,1.345547 z"
     id="path1" /></svg>
