<?xml version="1.0" encoding="UTF-8" standalone="no"?>
<svg
   width="128"
   height="128"
   version="1.1"
   id="svg22"
   sodipodi:docname="still-terminal-cube.svg"
   xmlns:inkscape="http://www.inkscape.org/namespaces/inkscape"
   xmlns:sodipodi="http://sodipodi.sourceforge.net/DTD/sodipodi-0.dtd"
   xmlns="http://www.w3.org/2000/svg"
   xmlns:svg="http://www.w3.org/2000/svg">
  <sodipodi:namedview
     id="namedview1"
     pagecolor="#ffffff"
     bordercolor="#000000"
     borderopacity="0.25"
     inkscape:showpageshadow="2"
     inkscape:pageopacity="0.0"
     inkscape:pagecheckerboard="0"
     inkscape:deskcolor="#d1d1d1">
    <inkscape:page
       x="0"
       y="0"
       width="128"
       height="128"
       id="page2"
       margin="0"
       bleed="0" />
  </sodipodi:namedview>
  <defs
     id="defs22" />
  <linearGradient
     id="a"
     x1="12"
     x2="116"
     y1="64"
     y2="64"
     gradientUnits="userSpaceOnUse">
    <stop
       offset="0"
       stop-color="#3d3846"
       id="stop1" />
    <stop
       offset=".05"
       stop-color="#77767b"
       id="stop2" />
    <stop
       offset=".1"
       stop-color="#5e5c64"
       id="stop3" />
    <stop
       offset=".9"
       stop-color="#45434d"
       id="stop4" />
    <stop
       offset=".95"
       stop-color="#77767b"
       id="stop5" />
    <stop
       offset="1"
       stop-color="#3d3846"
       id="stop6" />
  </linearGradient>
  <linearGradient
     id="b"
     x1="12"
     x2="112.041"
     y1="60"
     y2="80.987999"
     gradientUnits="userSpaceOnUse"
     gradientTransform="translate(7.1636267,49.732101)">
    <stop
       offset="0"
       stop-color="#77767b"
       id="stop7" />
    <stop
       offset=".384"
       stop-color="#9a9996"
       id="stop8" />
    <stop
       offset=".721"
       stop-color="#77767b"
       id="stop9" />
    <stop
       offset="1"
       stop-color="#68666f"
       id="stop10" />
  </linearGradient>
  <linearGradient
     id="c"
     x1="13.07"
     x2="117.07"
     y1="55.686001"
     y2="55.686001"
     gradientUnits="userSpaceOnUse">
    <stop
       offset="0"
       stop-color="#3d3846"
       id="stop11" />
    <stop
       offset="0.06897929"
       stop-color="#77767b"
       id="stop12" />
    <stop
       offset="0.16062427"
       stop-color="#5e5c64"
       id="stop13" />
    <stop
       offset=".534"
       stop-color="#45434d"
       id="stop14" />
    <stop
       offset="0.91482955"
       stop-color="#77767b"
       id="stop15" />
    <stop
       offset="1"
       stop-color="#3d3846"
       id="stop16" />
  </linearGradient>
  <path
     fill="#1a1f32"
     d="M 64.221619,19.923768 87.19793,32.322353 c 2.915584,1.573321 8.396261,3.791148 8.479717,7.102096 l 0.964334,38.258099 c 0.06436,2.553515 -30.847906,19.677979 -31.485979,19.362919 L 56.506944,92.774843 C 53.537234,91.308497 29.023638,80.717465 29.153826,77.407024 l 1.515382,-38.533623"
     id="path18" />
  <path
     fill="#fffeff"
     d="m 39.027,53.285 v 6.594 L 50.29,70.832 39.028,68.891 v 6.593 l 17.25,1.676 v -5.633 z m 0,0"
     id="path19" />
  <path
     fill="#4b4953"
     d="m 63.254,18.48 c -1.504,0 -2.98,0.399 -4.281,1.149 L 32.086,35.152 a 8.57,8.57 0 0 0 -4.281,7.418 v 31.043 a 8.57,8.57 0 0 0 4.28,7.418 l 26.888,15.524 a 8.58,8.58 0 0 0 8.566,0 L 94.422,81.03 a 8.57,8.57 0 0 0 4.285,-7.418 V 42.57 A 8.56,8.56 0 0 0 94.422,35.152 L 67.539,19.63 a 8.6,8.6 0 0 0 -4.285,-1.149 m -0.496,2.97 a 2.86,2.86 0 0 1 1.926,0.34 l 26,15.01 a 0.953,0.953 0 0 1 0,1.65 l -26,15.007 a 2.85,2.85 0 0 1 -2.856,0 l -26,-15.008 a 0.953,0.953 0 0 1 0,-1.648 l 26,-15.012 q 0.436,-0.252 0.93,-0.34 M 31.89,44.046 a 1,1 0 0 1 0.64,0.113 l 26,15.012 c 0.883,0.512 2.309,1.453 2.309,2.473 v 30.02 c 0,0.733 -1.676,1.19 -2.309,0.827 l -26,-15.012 A 2.86,2.86 0 0 1 31.1,75.007 V 44.984 c 0,-0.46 0.333,-0.855 0.79,-0.937 m 62.73,0 a 0.955,0.955 0 0 1 0.785,0.937 v 30.024 c 0,1.02 -0.543,1.96 -1.426,2.472 l -26,15.012 a 0.953,0.953 0 0 1 -1.425,-0.828 v -30.02 c 0,-1.019 0.543,-1.96 1.425,-2.472 l 26,-15.012 a 0.98,0.98 0 0 1 0.641,-0.113 m 0,0"
     id="path20" />
  <path
     fill="#fffeff"
     d="M 92.785,74.043 V 67.211 L 69.938,80.402 v 6.836 z m 0,0"
     id="path21" />
  <path
     fill="url(#c)"
     d="m 63.254,18.48 c -1.504,0 -2.98,0.399 -4.281,1.149 L 32.09,35.152 a 8.56,8.56 0 0 0 -4.285,7.418 v 31.043 a 8.57,8.57 0 0 0 4.285,7.418 l 26.883,15.524 a 8.58,8.58 0 0 0 8.566,0 L 94.422,81.03 a 8.57,8.57 0 0 0 4.285,-7.418 V 42.57 A 8.56,8.56 0 0 0 94.422,35.152 L 67.539,19.63 a 8.6,8.6 0 0 0 -4.285,-1.149 m 0.004,2.926 c 0.496,0 0.988,0.133 1.426,0.383 l 26,15.012 a 0.953,0.953 0 0 1 0,1.648 l -26,15.008 a 2.85,2.85 0 0 1 -2.856,0 l -26,-15.008 a 0.953,0.953 0 0 1 0,-1.648 l 26,-15.012 a 2.8,2.8 0 0 1 1.43,-0.383 m -31.203,22.63 q 0.253,0 0.476,0.124 l 26,15.012 c 0.883,0.512 2.313,1.453 2.313,2.473 v 30.023 c -0.004,0.73 -1.68,1.187 -2.313,0.824 l -26,-15.012 a 2.85,2.85 0 0 1 -1.43,-2.472 V 44.984 c 0,-0.46 0.333,-0.855 0.79,-0.937 q 0.081,-0.012 0.164,-0.012 m 62.402,0 q 0.083,0 0.164,0.01 a 0.96,0.96 0 0 1 0.79,0.938 v 30.024 c 0,1.02 -0.548,1.96 -1.43,2.472 l -26,15.012 A 0.952,0.952 0 0 1 66.555,91.667 V 61.645 c 0,-1.02 0.543,-1.961 1.425,-2.473 l 26,-15.012 a 1,1 0 0 1 0.477,-0.125 m 0,0"
     style="fill:url(#c)"
     id="path22" />
</svg>
