<svg xmlns="http://www.w3.org/2000/svg" xml:space="preserve" id="Layer_1" width="960" height="960" x="0" y="0" version="1.1"><style id="style1" type="text/css">.st3{fill:#a67c52}</style><path id="polygon1" d="M270.7 460.8 480 380.7l209.3 80.1v134.3H270.7z" style="fill:#7b5637;fill-opacity:1"/><path id="polygon6" d="M546.8 324.597 480 380.7l209.3 81.2 66.623-55.954a9.796 9.796 80.59 0 0-2.756-16.634l-178.65-69.308a27.58 27.58 170.59 0 0-27.716 4.593" class="st3" style="fill:#cdab8f" transform="translate(0 -.55)"/><path id="polygon7" d="m480 380.7-209.3 81.2-71.392-59.958a6.11 6.11 99.41 0 1 1.72-10.377l187.316-72.671a22.4 22.4 9.41 0 1 22.505 3.73z" class="st3" style="fill:#cdab8f"/><path id="path9" fill="url(#a)" d="M880.308 439.032c54.349 0 98.408 44.06 98.408 98.408s-44.06 98.408-98.408 98.408-98.408-44.06-98.408-98.408 44.06-98.408 98.408-98.408m0 0" style="stroke-width:1.64013"/><path id="path10" fill="url(#b)" d="M880.308 439.032c-54.348 0-98.408 44.06-98.408 98.408s44.06 98.408 98.408 98.408zm0 0" style="stroke-width:1.64013"/><path id="path17" fill="#1e62b5" d="M552.036 534.828c-8.276 18.181-19.112 32.282-31.443 40.924a127.66 127.66 0 0 0 52.424-25.693c-5.492-5.783-12.597-10.943-20.981-15.23m0 0" style="fill:#626971;fill-opacity:1;stroke-width:2.12719"/><g id="g97" transform="matrix(.77103 0 0 .78388 89.957 92.587)"><path id="path11" fill="#40a1c8" d="M619.765 451.336c0 70.488-57.143 127.631-127.631 127.631s-127.632-57.143-127.632-127.631 57.144-127.632 127.632-127.632 127.631 57.144 127.631 127.632m0 0" style="fill:#5971d1;fill-opacity:1;stroke-width:2.12719"/><path id="path12" fill="#49bbb0" d="M415.563 453.463c.266 29.598 6.133 58.215 16.669 81.365-8.384 4.288-15.489 9.448-20.981 15.231a127.6 127.6 0 0 1-46.732-96.596zm0 0" style="fill:#3b6ac9;fill-opacity:1;stroke-width:2.12719"/><path id="path13" fill="#378bde" d="M492.134 521.533v57.434c-9.572 0-19.12-1.08-28.451-3.215-12.34-8.634-23.175-22.743-31.443-40.924 16.81-8.592 38.007-13.295 59.894-13.295m0 0" style="fill:#4774ce;fill-opacity:1;stroke-width:2.12719"/><path id="path14" fill="#266ec6" d="M568.705 453.463c-.266 29.598-6.133 58.215-16.677 81.365 8.392 4.288 15.488 9.448 20.98 15.231a127.64 127.64 0 0 0 46.74-96.596zm0 0" style="fill:#334ebb;fill-opacity:1;stroke-width:2.12719"/><path id="path15" fill="#378bde" d="M492.134 453.463v125.504c9.572 0 19.12-1.08 28.451-3.215 28.659-20.067 47.63-68.278 48.12-122.289zm0 0" style="fill:#4860cd;fill-opacity:1;stroke-width:2.12719"/><path id="path16" fill="#266ec6" d="M492.134 521.533v57.434c9.572 0 19.12-1.08 28.451-3.215 12.34-8.634 23.175-22.743 31.443-40.924-16.81-8.592-38.007-13.295-59.894-13.295m0 0" style="fill:#334bb9;fill-opacity:1;stroke-width:2.12719"/><path id="path18" fill="#53d795" d="M492.134 323.704c-70.488 0-127.632 57.144-127.632 127.632 0 .706.008 1.42.017 2.127h127.615zm0 0" style="fill:#5973d1;fill-opacity:1;stroke-width:2.12719"/><path id="path19" fill="#72e99a" d="M463.683 326.912a127.74 127.74 0 0 0-52.432 25.692c5.492 5.792 12.597 10.944 20.99 15.24 8.275-18.19 19.11-32.29 31.442-40.932m0 0" style="fill:#7f90dc;fill-opacity:1;stroke-width:2.12719"/><path id="path20" fill="#49bbb0" d="M492.134 323.704c-9.572 0-19.112 1.08-28.451 3.208-29.066 20.358-48.128 69.632-48.128 124.424 0 .706 0 1.42.008 2.127h76.57zm0 0" style="fill:#435ecc;fill-opacity:1;stroke-width:2.12719"/><path id="path21" fill="#53d795" d="M492.134 323.704c-9.572 0-19.112 1.08-28.451 3.208-12.331 8.641-23.167 22.742-31.443 40.932 16.818 8.591 38.007 13.294 59.894 13.294zm0 0" style="fill:#6d7fd7;fill-opacity:1;stroke-width:2.12719"/><path id="path22" fill="#378bde" d="M492.134 323.704c70.488 0 127.631 57.144 127.631 127.632 0 .706-.009 1.42-.017 2.127H492.134Zm0 0" style="fill:#3553c1;fill-opacity:1;stroke-width:2.12719"/><path id="path23" fill="#40a1c8" d="M520.585 326.912a127.74 127.74 0 0 1 52.432 25.692c-5.492 5.792-12.597 10.944-20.981 15.231-8.284-18.18-19.12-32.282-31.45-40.923m0 0" style="fill:#3e5dca;fill-opacity:1;stroke-width:2.12719"/><path id="path24" fill="#40a1c8" d="M492.134 323.704c9.572 0 19.12 1.08 28.451 3.208 29.066 20.358 48.128 69.632 48.128 124.424 0 .706 0 1.42-.008 2.127h-76.57zm0 0" style="fill:#5771d1;fill-opacity:1;stroke-width:2.12719"/><path id="path25" fill="#49bbb0" d="M492.134 323.704c9.572 0 19.12 1.08 28.451 3.208 12.331 8.641 23.167 22.742 31.443 40.923-16.818 8.6-38.007 13.303-59.894 13.303zm0 0" style="fill:#7f90dc;fill-opacity:1;stroke-width:2.12719"/></g><g id="g98" transform="translate(-255.082 -105.252)"><path id="rect45-9" d="M861.193 494.055c1.485 0 2.97.38 4.292 1.143l75.617 43.66a8.62 8.62 0 0 1 4.292 7.432v87.316a8.62 8.62 0 0 1-4.292 7.433l-75.617 43.658a8.62 8.62 0 0 1-8.583 0l-75.618-43.658a8.62 8.62 0 0 1-4.291-7.433V546.29a8.62 8.62 0 0 1 4.291-7.431l75.618-43.66a8.6 8.6 0 0 1 4.291-1.144m98.888 161.564.004.046-.081.033z" style="fill:#4a90d9;fill-opacity:1;fill-rule:evenodd;stroke-width:2.02641"/><path id="path48-3" d="M861.23 494.055q.751.003 1.491.136l4.023 48.018-6.37 54.458-40.684-21.73c-19.854-10.604-40.027-21.6-42.697-24.52v-4.127a8.62 8.62 0 0 1 4.291-7.431l75.618-43.66a8.6 8.6 0 0 1 4.328-1.144" style="fill:#4a90d9;fill-opacity:1;fill-rule:evenodd;stroke-width:.896482"/><path id="path9124-6" d="m778.147 542 83.046 47.948v95.894a8.6 8.6 0 0 1-4.291-1.145l-75.618-43.658a8.62 8.62 0 0 1-4.291-7.433V546.29c0-1.526.411-3.004 1.154-4.29" style="mix-blend-mode:normal;fill:#fff;fill-opacity:1;fill-rule:nonzero;stroke:none;stroke-width:.732643px;stroke-linecap:butt;stroke-linejoin:miter;stroke-opacity:1"/><path id="path9126-0" d="M861.193 494.055c1.485 0 2.97.38 4.292 1.143l75.617 43.66a8.6 8.6 0 0 1 3.138 3.143l-83.047 47.947z" style="mix-blend-mode:normal;fill:#fff;fill-opacity:1;fill-rule:nonzero;stroke:none;stroke-width:.732643px;stroke-linecap:butt;stroke-linejoin:miter;stroke-opacity:1"/></g><path id="polygon2" d="m664.71 761.722-181.51 69.55a2.356 2.356 34.517 0 1-3.2-2.2V543.1l209.3-82.3v265.167a38.29 38.29 124.517 0 1-24.59 35.755" style="fill:#986a44"/><g id="g6" transform="translate(7.721 10.661)scale(.97796)"><g id="g43" transform="translate(-.456 13.316)scale(.96122)"><path id="path63" fill="#9a9996" d="M344.185 440.714a31.464 31.464 0 0 0-12.12 42.927l73.165 130.741a31.464 31.464 0 0 0 42.927 12.121 31.464 31.464 0 0 0 12.121-42.927l-73.165-130.741a31.464 31.464 0 0 0-42.928-12.121m80.867 144.503c5.699-3.19 12.91-1.153 16.098 4.545 3.19 5.699 1.153 12.909-4.545 16.098s-12.909 1.153-16.098-4.546-1.153-12.908 4.545-16.097m0 0" style="stroke-width:3.94266"/><g id="g42"><path id="path61" fill="#9a9996" d="M387.682 389.264c17.012 30.4 6.158 68.842-24.243 85.855-30.4 17.013-68.842 6.158-85.855-24.242s-6.158-68.843 24.242-85.855c30.4-17.013 68.843-6.159 85.856 24.242m0 0" style="stroke-width:3.94266"/><g id="g41"><path id="path62" fill="#deddda" d="M383.83 382.383c17.013 30.4 6.159 68.842-24.242 85.855-30.4 17.013-68.842 6.158-85.855-24.242s-6.158-68.843 24.242-85.855c30.4-17.013 68.843-6.159 85.856 24.242m0 0" style="stroke-width:3.94266"/><path id="path64" fill="#deddda" d="M340.334 433.833a31.464 31.464 0 0 0-12.12 42.927l73.165 130.741a31.464 31.464 0 0 0 42.927 12.121 31.464 31.464 0 0 0 12.122-42.928l-73.166-130.74a31.464 31.464 0 0 0-42.928-12.121m80.868 144.503c5.698-3.19 12.909-1.153 16.097 4.545 3.19 5.699 1.153 12.909-4.545 16.098s-12.909 1.153-16.098-4.546-1.153-12.908 4.546-16.097m0 0" style="stroke-width:3.94266"/><path id="path65" fill="#a7a6a4" d="M355.738 461.357c7.607-4.257 17.207-1.546 21.463 6.06l34.658 61.93c4.257 7.607 1.546 17.207-6.06 21.464-7.608 4.257-17.208 1.546-21.465-6.06l-34.657-61.93c-4.257-7.607-1.546-17.207 6.06-21.464m0 0" style="stroke-width:3.94266"/></g></g></g><path id="path66" fill="#865e3c" d="m267.781 366.418 35.993-18.192 31.644 51.15-14.29 21.026-25.396 1.183z" style="fill:#cdab8f;fill-opacity:1;stroke-width:3.78976"/></g><path id="polygon3" d="m287.279 758.574 191.592 72.5a6.73 6.73 144.552 0 0 9.11-6.486L480 543.1l-209.3-82.3v273.774a25.66 25.66 55.364 0 0 16.579 24" style="fill:#b5835a"/><path id="polygon5" d="m480 543.1-209.3-81.2-64.95 54.548a11.09 11.09 80.59 0 0 3.12 18.83l170.204 66.032a39.2 39.2 170.59 0 0 39.389-6.528z" class="st3" style="fill:#cdab8f"/><path id="polygon5-2" d="m480 544-209.3-82.1-64.95 54.548a11.09 11.09 80.59 0 0 3.12 18.83l170.204 66.032a39.5 39.5 170.781 0 0 39.488-6.409z" class="st3" style="fill:#cdab8f" transform="matrix(-1 0 0 1 960 -.9)"/></svg>