<svg xmlns="http://www.w3.org/2000/svg" xml:space="preserve" width="128" height="128"><path fill="#BF3C1D" d="M98.575 90.996c-.23 9.627-.478 18.307-.676 20.922a374 374 0 0 0-.718 12.049l3.179-14.115-1.785-18.864z" style="fill:#766966;fill-opacity:1"/><radialGradient id="a" cx="-514.13" cy="9.81" r="145.95" gradientTransform="translate(338.17 67.963)scale(.5424)" gradientUnits="userSpaceOnUse"><stop offset="0" style="stop-color:#df5d15"/><stop offset=".179" style="stop-color:#dd5814"/><stop offset=".401" style="stop-color:#d74913"/><stop offset=".552" style="stop-color:#d13a11"/></radialGradient><path fill="url(#a)" d="M18.875 48.174 99.145 58.4s-.701 46.793-1.121 53.518-.841 12.049-.841 12.049l-81.109-14.15s.98-5.461 1.4-12.467c.421-7.007 1.401-49.179 1.401-49.179z" style="fill:#f6f5f4;fill-opacity:1"/><path fill="#AF5B22" d="m99.145 58.398-3.58-4.683-.032 4.226" style="fill:#77665a;fill-opacity:1"/><path fill="#DD4814" d="m108.62 110.29-11.437 13.67 2.877-14.11z" style="fill:#817470;fill-opacity:1"/><linearGradient id="b" x1="-469.81" x2="-482.82" y1="30.669" y2="31.031" gradientTransform="translate(578.55 49.889)" gradientUnits="userSpaceOnUse"><stop offset="0" style="stop-color:#796c69;stop-opacity:1"/><stop offset=".604" style="stop-color:#7e736d;stop-opacity:1"/><stop offset="1" style="stop-color:#7f756f;stop-opacity:1"/></linearGradient><path fill="url(#b)" d="M108.62 110.29s-1.088-13.854-1.231-29.588c-.146-15.74-.58-29.812-.58-29.812l-10.731 2.902 2.821 4.643s-.139 17.441-.437 32.564h.122l1.48 18.854 8.56.44z" style="fill:url(#b)"/><path fill="#D76621" d="m18.875 48.174 11.05-3.412.528.168-.275 4.683" style="fill:#8d786b;fill-opacity:1"/><radialGradient id="c" cx="-497.78" cy="-35.085" r="70.466" gradientTransform="translate(338.17 67.963)scale(.5424)" gradientUnits="userSpaceOnUse"><stop offset="0" style="stop-color:#aca791;stop-opacity:1"/><stop offset="1" style="stop-color:#a69689;stop-opacity:1"/></radialGradient><path fill="url(#c)" d="m30.168 49.455.285-4.525-1.748-3.771 78.105 9.728-11.245 2.828-.032 4.226z" style="fill:url(#c)"/><radialGradient id="d" cx="-443.05" cy="73.85" r="28.366" gradientTransform="translate(338.17 67.963)scale(.5424)" gradientUnits="userSpaceOnUse"><stop offset="0" style="stop-color:#a5a098;stop-opacity:1"/><stop offset=".12" style="stop-color:#a49e96;stop-opacity:1"/><stop offset=".664" style="stop-color:#9f9790;stop-opacity:1"/><stop offset="1" style="stop-color:#9d948e;stop-opacity:1"/></radialGradient><path fill="url(#d)" d="m97.183 123.96.936-14.11.396-15.567" style="fill:url(#d)"/><radialGradient id="e" cx="-431.04" cy="77.632" r="7.557" gradientTransform="translate(338.17 67.963)scale(.5424)" gradientUnits="userSpaceOnUse"><stop offset="0" style="stop-color:#a59e98;stop-opacity:1"/><stop offset=".435" style="stop-color:#a39c96;stop-opacity:1"/><stop offset=".928" style="stop-color:#9e958f;stop-opacity:1"/><stop offset="1" style="stop-color:#9d948e;stop-opacity:1"/></radialGradient><path fill="url(#e)" d="M108.62 110.29s-3.505.135-8.588-.438c0 0 4.31.03 8.59.44z" style="fill:url(#e)"/><radialGradient id="f" cx="-659.92" cy="25.044" r="122.23" gradientTransform="translate(338.17 67.963)scale(.5424)" gradientUnits="userSpaceOnUse"><stop offset="0" style="stop-color:#817c71;stop-opacity:1"/><stop offset=".322" style="stop-color:#817a71;stop-opacity:1"/><stop offset=".997" style="stop-color:#817470;stop-opacity:1"/><stop offset="1" style="stop-color:#817470;stop-opacity:1"/></radialGradient><path fill="url(#f)" d="M18.875 48.174s-.979 42.172-1.4 49.176c-.242 4.037-.67 7.557-.99 9.82.003-.012 1.622-5.359 2.092-20.311.468-14.959.298-38.685.298-38.685" style="fill:url(#f)"/><path fill="#F1BC4C" d="m98.876 57.984.269.414-80.27-10.224.718-.221z" style="fill:#a5a198;fill-opacity:1"/><path fill="#F1BC4C" d="m28.705 41.159.087.259 77.478 9.613.54-.144z" style="fill:#b2a58b;fill-opacity:1"/><path fill="#F1BC4C" d="m95.565 53.715.51.072 10.735-2.9-.7-.028z" style="fill:#aca391;fill-opacity:1"/><path fill="#F1BC4C" d="m95.565 53.715.592.051 2.988 4.632L98.27 58z" style="fill:#aca391;fill-opacity:1"/><path fill="#F1BC4C" d="m30.453 44.93-.528-.168-11.05 3.412 1.312.119z" style="fill:#a5a198;fill-opacity:1"/><radialGradient id="g" cx="-519.07" cy="73.632" r="97.302" gradientTransform="translate(338.17 70.236)scale(.5424)" gradientUnits="userSpaceOnUse"><stop offset="0" style="stop-color:#867d6c;stop-opacity:1"/><stop offset=".322" style="stop-color:#7c7976;stop-opacity:1"/><stop offset=".997" style="stop-color:#82746f;stop-opacity:1"/><stop offset="1" style="stop-color:#817470;stop-opacity:1"/></radialGradient><path fill="url(#g)" d="M96.075 114.333s-43.431-8.51-77.589-12.6c0 .003 29.516 1.5 77.589 12.6" enable-background="new" opacity=".49" style="fill:url(#g)"/><radialGradient id="h" cx="-492.94" cy="-58.118" r="33.582" gradientTransform="translate(338.17 67.963)scale(.5424)" gradientUnits="userSpaceOnUse"><stop offset="0" style="stop-color:#89796b;stop-opacity:1"/><stop offset=".202" style="stop-color:#8b7a69;stop-opacity:1"/><stop offset=".562" style="stop-color:#8b7f69;stop-opacity:1"/><stop offset="1" style="stop-color:#8b8569;stop-opacity:1"/></radialGradient><path fill="url(#h)" d="M59.376 44.939v-8.835l15.053 1.757v9.118l4.491.582v-9.174l-4.491-5.018-15.053-1.757-4.492 3.967v8.779z" style="fill:url(#h)"/><radialGradient id="i" cx="-469.55" cy="-88.552" r="28.119" gradientTransform="matrix(.4482 .0523 0 .4482 287.47 102.28)" gradientUnits="userSpaceOnUse"><stop offset="0" style="stop-color:#837971;stop-opacity:1"/><stop offset=".365" style="stop-color:#837871;stop-opacity:1"/><stop offset="1" style="stop-color:#817470;stop-opacity:1"/></radialGradient><path fill="url(#i)" d="m74.047 47.049 4.493.584v-8.992l-4.493-5.019z" style="fill:url(#i)"/><path fill="none" d="M66.377 49.646V32.829"/><defs><filter id="j" width=".873" height=".505" x="108.18" y="38.037" filterUnits="userSpaceOnUse"><feColorMatrix values="1 0 0 0 0 0 1 0 0 0 0 0 1 0 0 0 0 0 1 0"/></filter></defs><mask id="l" width=".873" height=".505" x="108.185" y="38.037" maskUnits="userSpaceOnUse"><g filter="url(#j)"><radialGradient id="k" cx="-13729" cy="-8029.8" r="30.496" gradientTransform="matrix(-.0034 .0059 -.015 -.0087 -58.349 49.174)" gradientUnits="userSpaceOnUse"><stop offset="0" style="stop-color:#fff"/><stop offset="1"/></radialGradient><path fill="url(#k)" d="M108.51 38.459c-.255-.146-.414-.347-.355-.445.057-.098.308-.058.561.088s.413.346.355.443c-.06.1-.32.06-.57-.086z"/></g></mask><path fill="#fff" d="m109.06 38.541-.37-.332-.51-.173.44.339z" mask="url(#l)"/><defs><filter id="m" width=".505" height=".873" x="108.36" y="37.836" filterUnits="userSpaceOnUse"><feColorMatrix values="1 0 0 0 0 0 1 0 0 0 0 0 1 0 0 0 0 0 1 0"/></filter></defs><mask id="q" width=".505" height=".873" x="108.363" y="37.836" maskUnits="userSpaceOnUse"><g filter="url(#m)"><radialGradient id="p" cx="-22074" cy="5141.6" r="30.586" gradientTransform="matrix(-.0055 -.0032 .0087 -.015 -58.181 44.83)" gradientUnits="userSpaceOnUse"><stop offset="0" style="stop-color:#fff"/><stop offset="1"/></radialGradient><path fill="url(#p)" d="M108.45 38.17c.147-.254.342-.414.438-.361.093.054.049.304-.099.557-.146.254-.342.415-.436.361-.09-.055-.04-.303.1-.557z"/></g></mask><path fill="#fff" d="m108.36 38.709.33-.371.18-.502-.34.434z" mask="url(#q)"/><defs><filter id="r" width=".266" height=".643" x="108.48" y="37.958" filterUnits="userSpaceOnUse"><feColorMatrix values="1 0 0 0 0 0 1 0 0 0 0 0 1 0 0 0 0 0 1 0"/></filter></defs><mask id="t" width=".266" height=".643" x="108.483" y="37.958" maskUnits="userSpaceOnUse"><g filter="url(#r)"><radialGradient id="s" cx="108.62" cy="38.272" r=".278" gradientTransform="matrix(-.0043 .0018 -.0046 -.0111 -58.093 46.925)" gradientUnits="userSpaceOnUse"><stop offset="0" style="stop-color:#fff"/><stop offset="1"/></radialGradient><path fill="url(#s)" d="M108.48 38.326c-.076-.188-.079-.363-.007-.393s.192.098.271.283c.077.188.08.363.008.394-.06.031-.19-.096-.27-.284z"/></g></mask><path fill="#fff" d="m108.75 38.6-.06-.336-.21-.307.1.368z" mask="url(#t)"/><defs><filter id="u" width=".645" height=".266" x="108.3" y="38.135" filterUnits="userSpaceOnUse"><feColorMatrix values="1 0 0 0 0 0 1 0 0 0 0 0 1 0 0 0 0 0 1 0"/></filter></defs><mask id="w" width=".645" height=".266" x="108.3" y="38.135" maskUnits="userSpaceOnUse"><g filter="url(#u)"><radialGradient id="v" cx="108.63" cy="38.269" r=".276" gradientTransform="matrix(-.0017 -.0041 .0111 -.0046 -56.124 45.139)" gradientUnits="userSpaceOnUse"><stop offset="0" style="stop-color:#fff"/><stop offset="1"/></radialGradient><path fill="url(#v)" d="M108.58 38.145c.188-.077.361-.084.392-.016.025.069-.103.188-.29.266-.187.076-.359.082-.389.013-.03-.07.1-.187.29-.263z"/></g></mask><path fill="#fff" d="m108.3 38.4.34-.066.3-.199-.36.096z" mask="url(#w)"/><radialGradient id="x" cx="-506.45" cy="-44.381" r="33.348" gradientTransform="translate(338.17 67.963)scale(.5424)" gradientUnits="userSpaceOnUse"><stop offset="0" style="stop-color:#7f7a75;stop-opacity:1"/><stop offset=".202" style="stop-color:#7f7a75;stop-opacity:1"/><stop offset=".562" style="stop-color:#7f7b75;stop-opacity:1"/><stop offset="1" style="stop-color:#141100;stop-opacity:1"/></radialGradient><path fill="url(#x)" d="M52.049 52.4v-8.792l15.053 1.757v8.942l4.492.584v-9.002l-4.492-5.017-15.053-1.757-4.493 3.967v8.734z" style="fill:url(#x)"/><radialGradient id="y" cx="-529.51" cy="-70.092" r="27.54" gradientTransform="matrix(.4482 .0523 0 .4482 287.47 102.28)" gradientUnits="userSpaceOnUse"><stop offset="0" style="stop-color:#837971;stop-opacity:1"/><stop offset=".365" style="stop-color:#837871;stop-opacity:1"/><stop offset="1" style="stop-color:#807571;stop-opacity:1"/></radialGradient><path fill="url(#y)" d="m51.667 52.568-4.491-.584v-8.648l4.491-3.969z" style="fill:url(#y)"/><radialGradient id="z" cx="-503.88" cy="-75.958" r="17.626" gradientTransform="matrix(.4482 .0523 0 .4482 287.47 102.28)" gradientUnits="userSpaceOnUse"><stop offset="0" style="stop-color:#7e7c76;stop-opacity:1"/><stop offset=".365" style="stop-color:#7e7c77;stop-opacity:1"/><stop offset="1" style="stop-color:#c1c0bd;stop-opacity:1"/></radialGradient><path fill="url(#z)" d="M51.667 43.861v-4.494l15.053 1.758v4.493z" style="fill:url(#z)"/><radialGradient id="A" cx="-485.9" cy="-69.9" r="28.122" gradientTransform="matrix(.4482 .0523 0 .4482 287.47 102.28)" gradientUnits="userSpaceOnUse"><stop offset="0" style="stop-color:#837971;stop-opacity:1"/><stop offset=".365" style="stop-color:#837871;stop-opacity:1"/><stop offset="1" style="stop-color:#807571;stop-opacity:1"/></radialGradient><path fill="url(#A)" d="m66.72 54.553 4.493.582v-8.992l-4.493-5.018z" style="fill:url(#A)"/><path fill="none" d="M59.051 57.15V40.332"/></svg>