<svg xmlns="http://www.w3.org/2000/svg" xmlns:xlink="http://www.w3.org/1999/xlink" xml:space="preserve" width="256" height="256"><defs><linearGradient id="D"><stop offset="0" stop-color="#4e4c4b" style="stop-color:#54514e;stop-opacity:1"/><stop offset="1" stop-color="#343232"/></linearGradient><linearGradient id="C"><stop offset="0" stop-color="#4e4c4b" style="stop-color:#54514e;stop-opacity:1"/><stop offset="1" stop-color="#343232" style="stop-color:#484643;stop-opacity:1"/></linearGradient><linearGradient id="B"><stop offset="0" stop-color="#4e4c4b" style="stop-color:#54514e;stop-opacity:1"/><stop offset="1" stop-color="#343232" style="stop-color:#42403d;stop-opacity:1"/></linearGradient><linearGradient id="I"><stop offset="0" style="stop-color:#1f396c;stop-opacity:1"/><stop offset="1" style="stop-color:#2a4c8f;stop-opacity:0"/></linearGradient><linearGradient id="H"><stop offset="0" style="stop-color:#423f3c;stop-opacity:1"/><stop offset="1" style="stop-color:#3d3b38;stop-opacity:0"/></linearGradient><linearGradient id="G"><stop offset="0" style="stop-color:#a9a9a9;stop-opacity:1"/><stop offset=".5" style="stop-color:#fff;stop-opacity:1"/><stop offset="1" style="stop-color:#a9a9a9;stop-opacity:1"/></linearGradient><linearGradient id="F"><stop offset="0" style="stop-color:#284b90;stop-opacity:1"/><stop offset="1" style="stop-color:#284b90;stop-opacity:0"/></linearGradient><linearGradient id="E"><stop offset="0" style="stop-color:#3f3d3b;stop-opacity:1"/><stop offset="1" style="stop-color:#423f3c;stop-opacity:0"/></linearGradient><linearGradient id="u"><stop offset="0" style="stop-color:#54514e;stop-opacity:1"/><stop offset="1" style="stop-color:#43403d;stop-opacity:0"/></linearGradient><linearGradient id="t"><stop offset="0" style="stop-color:#54514e;stop-opacity:1"/><stop offset="1" style="stop-color:#42403e;stop-opacity:1"/></linearGradient><linearGradient id="R"><stop offset="0" style="stop-color:#3059a9;stop-opacity:.22426501"/><stop offset="1" style="stop-color:#152648;stop-opacity:0"/></linearGradient><linearGradient id="s"><stop offset="0" style="stop-color:#2c529b;stop-opacity:1"/><stop offset=".505" style="stop-color:#678ed5;stop-opacity:1"/><stop offset="1" style="stop-color:#2c529b;stop-opacity:1"/></linearGradient><linearGradient id="r"><stop offset="0" style="stop-color:#585551;stop-opacity:1"/><stop offset="1" style="stop-color:#43403e;stop-opacity:1"/></linearGradient><linearGradient id="q"><stop offset="0" style="stop-color:#1d3a6b;stop-opacity:1"/><stop offset="1" style="stop-color:#23447e;stop-opacity:0"/></linearGradient><linearGradient id="p"><stop offset="0" style="stop-color:#23447e;stop-opacity:1"/><stop offset="1" style="stop-color:#23447e;stop-opacity:0"/></linearGradient><linearGradient id="o"><stop offset="0" style="stop-color:#3059a9;stop-opacity:1"/><stop offset="1" style="stop-color:#3059a9;stop-opacity:1"/></linearGradient><linearGradient id="n"><stop offset="0" style="stop-color:#373432;stop-opacity:1"/><stop offset="1" style="stop-color:#373432;stop-opacity:0"/></linearGradient><linearGradient id="m"><stop offset="0" style="stop-color:#373432;stop-opacity:1"/><stop offset="1" style="stop-color:#373432;stop-opacity:0"/></linearGradient><linearGradient id="l"><stop offset="0" style="stop-color:#373432;stop-opacity:1"/><stop offset="1" style="stop-color:#373432;stop-opacity:0"/></linearGradient><linearGradient id="k"><stop offset="0" style="stop-color:#181b1a;stop-opacity:1"/><stop offset="1" style="stop-color:#181b1a;stop-opacity:0"/></linearGradient><linearGradient id="j"><stop offset="0" style="stop-color:#54514e;stop-opacity:1"/><stop offset="1" style="stop-color:#2d2b2a;stop-opacity:1"/></linearGradient><linearGradient id="i"><stop offset="0" style="stop-color:#294e90;stop-opacity:1"/><stop offset=".596" style="stop-color:#4173cc;stop-opacity:1"/><stop offset="1" style="stop-color:#294e90;stop-opacity:1"/></linearGradient><linearGradient id="h"><stop offset="0" style="stop-color:#2c519a;stop-opacity:1"/><stop offset=".298" style="stop-color:#3159ac;stop-opacity:1"/><stop offset="1" style="stop-color:#1e386a;stop-opacity:1"/></linearGradient><linearGradient id="g"><stop offset="0" style="stop-color:#060b14;stop-opacity:1"/><stop offset="1" style="stop-color:#274989;stop-opacity:0"/></linearGradient><linearGradient id="f"><stop offset="0" style="stop-color:#264786;stop-opacity:1"/><stop offset="1" style="stop-color:#1e386a;stop-opacity:1"/></linearGradient><linearGradient id="e"><stop offset="0" style="stop-color:#254582;stop-opacity:1"/><stop offset="1" style="stop-color:#284b8e;stop-opacity:1"/></linearGradient><linearGradient id="d"><stop offset="0" style="stop-color:#1d3565;stop-opacity:1"/><stop offset="1" style="stop-color:#23417b;stop-opacity:1"/></linearGradient><linearGradient id="c"><stop offset="0" style="stop-color:#254683;stop-opacity:1"/><stop offset="1" style="stop-color:#244481;stop-opacity:1"/></linearGradient><linearGradient id="b"><stop offset="0" style="stop-color:#182c53;stop-opacity:1"/><stop offset="1" style="stop-color:#24417d;stop-opacity:1"/></linearGradient><linearGradient id="z"><stop offset="0" stop-color="#4e4c4b" style="stop-color:#54514e;stop-opacity:1"/><stop offset="1" stop-color="#343232" style="stop-color:#44413f;stop-opacity:1"/></linearGradient><linearGradient id="v"><stop offset="0" stop-color="#d6d8d7"/><stop offset="1" stop-color="#b0b4b1"/></linearGradient><linearGradient id="x"><stop offset="0" stop-color="#d6d8d7"/><stop offset="1" stop-color="#b0b4b1"/></linearGradient><linearGradient id="w"><stop offset="0" stop-color="#d6d8d7"/><stop offset="1" stop-color="#b0b4b1"/></linearGradient><linearGradient id="y"><stop offset="0" stop-color="#686f6f"/><stop offset=".5" stop-color="#7d8484"/><stop offset="1" stop-color="#373b3b"/></linearGradient><linearGradient xlink:href="#a" id="ak" x1="324.912" x2="553.023" y1="1116.645" y2="1153.361" gradientTransform="translate(98.856 -381.208)scale(.73118)" gradientUnits="userSpaceOnUse"/><linearGradient id="a"><stop offset="0" style="stop-color:#000001;stop-opacity:1"/><stop offset=".5" style="stop-color:#191c1b;stop-opacity:1"/><stop offset="1" style="stop-color:#333835;stop-opacity:1"/></linearGradient><linearGradient xlink:href="#b" id="aj" x1="333.202" x2="554.295" y1="1081.52" y2="1086.519" gradientTransform="translate(98.856 -381.208)scale(.73118)" gradientUnits="userSpaceOnUse"/><linearGradient xlink:href="#c" id="ai" x1="323.513" x2="554.132" y1="1087.467" y2="1097.502" gradientTransform="translate(98.856 -381.208)scale(.73118)" gradientUnits="userSpaceOnUse"/><linearGradient xlink:href="#d" id="ah" x1="339.45" x2="535.237" y1="1120.568" y2="1120.568" gradientTransform="translate(98.856 -381.208)scale(.73118)" gradientUnits="userSpaceOnUse"/><linearGradient xlink:href="#e" id="al" x1="-254.733" x2="-130.685" y1="498.737" y2="495.936" gradientTransform="translate(585.17 45.15)scale(.73118)" gradientUnits="userSpaceOnUse"/><linearGradient xlink:href="#f" id="an" x1="-254.818" x2="-241.759" y1="482.005" y2="482.882" gradientTransform="translate(585.17 45.15)scale(.73118)" gradientUnits="userSpaceOnUse"/><linearGradient xlink:href="#g" id="ap" x1="-486.469" x2="-445.777" y1="-165.382" y2="-113.44" gradientTransform="rotate(1.163 -17311.04 32846.929)scale(.73118)" gradientUnits="userSpaceOnUse"/><linearGradient xlink:href="#h" id="ae" x1="-263.645" x2="-270.841" y1="116.201" y2="367.814" gradientTransform="translate(586.723 37.342)scale(.73118)" gradientUnits="userSpaceOnUse"/><linearGradient xlink:href="#i" id="af" x1="-326.774" x2="-334.681" y1="113.913" y2="229.998" gradientTransform="translate(586.723 37.342)scale(.73118)" gradientUnits="userSpaceOnUse"/><linearGradient xlink:href="#j" id="ac" x1="-89.803" x2="-23.911" y1="107.553" y2="213.266" gradientTransform="translate(586.723 37.342)scale(.73118)" gradientUnits="userSpaceOnUse"/><linearGradient xlink:href="#k" id="ad" x1="-103.945" x2="-89.093" y1="199.105" y2="198.219" gradientTransform="matrix(.61682 0 0 .73118 574.371 37.341)" gradientUnits="userSpaceOnUse"/><linearGradient xlink:href="#l" id="au" x1="-88.13" x2="-6.812" y1="169.462" y2="169.462" gradientTransform="translate(586.723 37.342)scale(.73118)" gradientUnits="userSpaceOnUse"/><linearGradient xlink:href="#m" id="at" x1="-88.13" x2="-6.812" y1="141.962" y2="141.962" gradientTransform="translate(586.723 37.342)scale(.73118)" gradientUnits="userSpaceOnUse"/><linearGradient xlink:href="#n" id="av" x1="-88.13" x2="-6.812" y1="194.712" y2="194.712" gradientTransform="translate(586.723 37.342)scale(.73118)" gradientUnits="userSpaceOnUse"/><linearGradient xlink:href="#o" id="aq" x1="-526.079" x2="-514.849" y1="110.966" y2="205.424" gradientTransform="translate(586.723 37.342)scale(.73118)" gradientUnits="userSpaceOnUse"/><linearGradient xlink:href="#p" id="aw" x1="-553.295" x2="-503.537" y1="139.301" y2="139.301" gradientTransform="translate(586.723 32.301)scale(.73118)" gradientUnits="userSpaceOnUse"/><linearGradient xlink:href="#p" id="ax" x1="-553.295" x2="-503.537" y1="139.301" y2="139.301" gradientTransform="translate(586.723 48.328)scale(.73118)" gradientUnits="userSpaceOnUse"/><linearGradient xlink:href="#p" id="ay" x1="-553.295" x2="-503.537" y1="139.301" y2="139.301" gradientTransform="translate(586.723 62.288)scale(.73118)" gradientUnits="userSpaceOnUse"/><linearGradient xlink:href="#q" id="az" x1="-553.295" x2="-503.537" y1="139.301" y2="139.301" gradientTransform="translate(587.362 79.303)scale(.73118)" gradientUnits="userSpaceOnUse"/><linearGradient xlink:href="#r" id="ar" x1="-446.106" x2="-438.361" y1="85.295" y2="250.094" gradientTransform="translate(586.723 37.342)scale(.73118)" gradientUnits="userSpaceOnUse"/><linearGradient xlink:href="#s" id="ab" x1="-374.717" x2="-378.419" y1="87.743" y2="268.327" gradientTransform="translate(586.723 37.342)scale(.73118)" gradientUnits="userSpaceOnUse"/><linearGradient xlink:href="#t" id="aa" x1="14.496" x2="39.131" y1="-378.915" y2="-364.396" gradientTransform="matrix(.90103 0 0 .9348 147.096 513.832)" gradientUnits="userSpaceOnUse"/><linearGradient xlink:href="#u" id="aA" x1="-447.098" x2="-434.033" y1="85" y2="138.154" gradientTransform="translate(586.723 37.342)scale(.73118)" gradientUnits="userSpaceOnUse"/><linearGradient xlink:href="#v" id="S" x1="67.768" x2="25.666" y1="248.97" y2="267.237" gradientTransform="matrix(.90103 .28739 -.4262 .62444 204.254 -19.57)" gradientUnits="userSpaceOnUse"/><linearGradient xlink:href="#w" id="T" x1="-37.528" x2="-45.94" y1="294.3" y2="303.421" gradientTransform="matrix(.90103 .28739 -.4262 .62444 204.254 -19.57)" gradientUnits="userSpaceOnUse"/><linearGradient xlink:href="#x" id="U" x1="-1.438" x2="-11.334" y1="277.751" y2="285.429" gradientTransform="matrix(.90103 .28739 -.4262 .62444 204.254 -19.57)" gradientUnits="userSpaceOnUse"/><linearGradient xlink:href="#y" id="V" x1="61.281" x2="-51.43" y1="247.875" y2="311.894" gradientTransform="matrix(.90102 .2874 -.4262 .62444 203.459 -19.704)" gradientUnits="userSpaceOnUse"/><linearGradient xlink:href="#z" id="W" x1="29.499" x2="-53.528" y1="261.487" y2="317.759" gradientTransform="matrix(.90102 .2874 -.4262 .62444 203.459 -19.704)" gradientUnits="userSpaceOnUse"/><linearGradient xlink:href="#B" id="X" x1="29.499" x2="-53.528" y1="261.487" y2="317.759" gradientTransform="matrix(.90102 .2874 -.4262 .62444 203.459 -19.704)" gradientUnits="userSpaceOnUse"/><linearGradient xlink:href="#C" id="Y" x1="29.499" x2="-53.528" y1="261.487" y2="317.759" gradientTransform="matrix(.90102 .2874 -.4262 .62444 203.459 -19.704)" gradientUnits="userSpaceOnUse"/><linearGradient xlink:href="#D" id="Z" x1="29.499" x2="-53.528" y1="261.487" y2="317.759" gradientTransform="matrix(.90102 .2874 -.4262 .62444 203.459 -19.704)" gradientUnits="userSpaceOnUse"/><linearGradient xlink:href="#E" id="aB" x1="-588.23" x2="-568.999" y1="162.737" y2="165.225" gradientTransform="translate(586.723 37.342)scale(.73118)" gradientUnits="userSpaceOnUse"/><linearGradient xlink:href="#F" id="ao" x1="328.804" x2="338.376" y1="286.367" y2="286.724" gradientTransform="translate(-87.092 -125.78)scale(1.3422)" gradientUnits="userSpaceOnUse"/><linearGradient xlink:href="#G" id="aC" x1="348.305" x2="363.941" y1="210.923" y2="247.423" gradientTransform="translate(-83.233 -125.78)scale(1.3422)" gradientUnits="userSpaceOnUse"/><linearGradient xlink:href="#H" id="am" x1="347.891" x2="376.969" y1="342.837" y2="341.095" gradientTransform="translate(-87.092 -125.78)scale(1.3422)" gradientUnits="userSpaceOnUse"/><linearGradient xlink:href="#I" id="ag" x1="479.706" x2="469.251" y1="224.333" y2="193.111" gradientUnits="userSpaceOnUse"/><radialGradient xlink:href="#R" id="as" cx="-496.217" cy="167.239" r="6.284" fx="-496.217" fy="167.239" gradientTransform="matrix(.73118 0 0 6.54816 586.723 -935.483)" gradientUnits="userSpaceOnUse"/></defs><g transform="translate(2.194 2.195)scale(.41935)"><path fill="url(#J)" fill-rule="evenodd" d="M161.1 152.948s-.26-.07-.334-.085c-.076-.015-.128-.021-.17-.027-.085-.012-.134-.016-.173-.02-.079-.007-.12-.008-.156-.01l-.176-.005-.388-.004q-.469-.002-1.293 0c-1.099.005-2.664.013-4.583.028-3.839.03-9.1.082-14.861.148-11.513.13-22.162.246-23.54.256-1.163.009-1.94.018-2.753.132a7.2 7.2 0 0 0-2.14.672c-.306.154-.568.295-.804.438-.117.072-.22.131-.388.264-.083.067-.188.123-.375.393-.092.136-.259.336-.22.778.039.441.673 1.11 1.294 1.308 0 0 .357.09.44.103.085.014.133.02.174.023.08.008.117.01.149.012.063.004.09.004.117.005l.124.002h.28q.34 0 .949-.005c.81-.006 1.966-.016 3.389-.03 2.845-.028 6.753-.073 11.04-.124 28.263-.346 31.764-.373 32.476-.35.341.011.65.013.95.001a2.75 3.987 89.21 0 0 .504-.037c.107-.012.227-.025.457-.083.231-.06.77-.029 1.313-.824.32-.469.262-.674.263-.878a3.093 4.486 89.21 0 0-.072-.552 2.75 3.987 89.21 0 0-.22-.554c-.119-.21-.004-.57-1.274-.975" style="fill:url(#S);stroke-width:.827722"/><path fill="url(#K)" fill-rule="evenodd" d="m46.973 152.725-.226-.046s-.067-.006-.088-.006c-.04-.002-.061 0-.077 0-.032.001-.046.003-.058.004l-.066.004-.15.016-.487.054c-.402.047-.948.111-1.536.182a191.765 278.105 89.21 0 0-3.23.397c-3.635.47-6.477.968-8.925 1.566a37.803 54.823 89.21 0 0-1.96.508q-.406.114-.672.198c-.087.028-.16.051-.24.08a.687.997 89.21 0 0-.141.064c-.032.017-.072.035-.133.082a.687.997 89.21 0 0-.11.105l-.065.095-.046.143c.011-.074-.011.06-.03.163l-.069.387a6 6 0 0 0-.075.475c-.006.057-.017.102.013.219.015.058.031.147.178.273s.5.227.723.216c.227-.012.174-.021.249-.032l.278-.047c.22-.038.512-.088.836-.147.833-.153 1.726-.284 4.041-.584 2.952-.383 4.457-.643 5.91-1.034.924-.247 1.568-.468 2.7-.927a46.051 66.785 89.21 0 1 2.562-.994c.356-.131.601-.224.775-.295.087-.036.151-.061.242-.11.046-.024.097-.037.212-.154a.55.797 89.21 0 0 .135-.231l.01-.143-.178-.317-.157-.104s-.1-.046-.145-.06" style="fill:url(#T);stroke-width:.827722"/><path fill="url(#L)" fill-rule="evenodd" d="M85.24 152.938c-.145-.071-.211-.064-.262-.068-.097-.008-.147-.003-.218 0-.143.009-.342.027-.659.059-.634.064-1.727.183-3.585.392-2.54.285-3.906.443-4.866.619-.961.175-1.517.38-2.283.7a52.237 75.756 89.21 0 0-2.021.877c-.285.127-.526.239-.705.325q-.133.065-.224.113a.687.997 89.21 0 0-.089.05c-.03.02-.058.005-.145.134a.31.31 0 0 0 .035.361c.11.115.234.14.305.153.143.028.203.02.288.019a4.811 6.978 89.21 0 0 .734-.055c.693-.066 1.883-.2 3.89-.429 2.004-.229 3.023-.345 3.72-.466.699-.121 1.077-.258 1.638-.474.62-.24 1.858-.712 2.747-1.049.447-.17.859-.327 1.16-.446q.227-.091.365-.149l.117-.048.054-.027c.012-.005.022-.012.044-.025q.015-.009.043-.03l.036-.03.048-.057a1 1 0 0 0 .045-.102l-.01-.14-.088-.13s-.079-.06-.115-.077" style="fill:url(#U);stroke-width:.827722"/><path fill="url(#M)" d="M11.698 158.778c-.007-.032.826-.553 1.85-1.158 5.624-3.316 13.117-7.781 13.214-7.87.15-.141 4.28-.025 5.795.161 1.809.224 3.431.665 5.847 1.587 1.184.453 2.191.807 2.238.79.045-.019.917-.248 1.937-.507 8.205-2.098 24.447-3.806 34.827.501l.916.38 2.086-.617c5.225-1.547 9.932-2.178 16.455-2.21a87.074 126.278 89.21 0 0 3.014-.035c1.981-.056 5.833.116 7.735.345 2.762.332 4.691.792 8.252 1.967l1.248.412 1.48-.468c2.6-.821 6.033-1.634 7.22-1.708 10.463-.102 20.928-.202 31.392-.242l3.17-.012c4.312 3.121 10.42 9.61.019 16.64-2.758.224-30.736.122-46.811.345-3.514.05-4.302-.126-7.981-1.772a110.362 160.05 89.21 0 0-3.163-1.386c-.987-.41-.969-.41-2.632.164a29.565 42.876 89.21 0 1-11.603 2.688c-2.652.342-4.672.443-8.967.456-8.97.023-10.036-.153-15.764-2.621-1.121-.482-2.105-.877-2.188-.878-.082 0-.813.233-1.625.52-3.768 1.329-7.713 2.306-11.293 2.797-3.656.501-6.566.651-14.56.753l-5.781.074-1.365-.762c-.75-.418-3.675-2.03-6.502-3.582-5.885-3.231-8.442-4.668-8.46-4.752m17.087-2.726-.102.581-.104.582.637-.1c4.162-.831 8.765-.86 12.558-2.389a50.625 73.417 89.21 0 1 2.989-1.173c.963-.342 1.144-.42 1.067-.46-5.827.685-11.621 1.3-17.045 2.96m40.665.244c.041.023 2.152-.203 4.692-.5l4.619-.538 2.052-.814a48.6 70.48 89.21 0 1 2.972-1.123c.505-.171.885-.328.841-.35-.043-.02-2.353.221-5.134.538-4.268.487-5.179.625-5.84.886-1.318.52-4.28 1.861-4.203 1.902m40.375-.606q-.025.02-.022.03c.018.085 1.527.087 6.436.01 5.093-.08 27.775-.363 35.062-.437a472.834 685.719 89.21 0 1 7.108-.055l1.334.005.011-.52c.007-.286.01-.543.007-.57-.012-.129.548-.133-31.924.26-8.095.097-14.913.157-15.149.131-.246-.026-.637.045-.916.166-.854.37-1.79.844-1.947.98" style="fill:url(#V);stroke-width:1.2193"/><path fill="url(#N)" d="M34.431 150.134a9.619 13.95 89.21 0 0-2.695-.531c-.939-.116-2.88-.205-4.258-.222-1.262.285-2.275.64-2.955 1.05-5.888 3.554-9.751 6.322-12.921 8.326.765.54 3.052 1.75 7.925 4.425l.273.15 8.779-6.117.206-1.163a23.287 33.772 89.21 0 1 5.502-1.346c1.64-1.031 2.852-2.396 4.117-3.208q-.388-.144-.822-.309c-1.207-.462-2.217-.802-3.15-1.055" style="fill:url(#W);stroke-width:1.2193"/><path fill="url(#O)" d="M71.742 150.707c-4.994-1.073-10.636-1.24-15.894-.918l-9.208 5.752c-6.208 3.88-13.067 8.15-15.244 9.487s-3.719 2.734-3.371 2.846c.347.111 4.523 0 9.083-.125 2.661-.105 5.339-.094 7.982-.335h.001l.213-.02 13.668-8.758c5.054-3.24 9.858-6.214 12.77-7.93" style="fill:url(#X);stroke-width:1.2193"/><path fill="url(#P)" d="M104.85 149.92c-1.475-.115-9.483-.762-18.722.766-1.15.817-2.143 1.606-3.427 2.47 3.205-.178-.805.672-1.76.965-6.142 4.053-13.016 8.227-17.083 10.654 4.306 2.493 9.11 2.43 14.086 2.455 10.397-6.5 15.515-10.464 26.906-17.31" style="fill:url(#Y);stroke-width:1.2193"/><path fill="url(#Q)" d="M135.26 150.258c-3.45.03-6.69-.17-10.14-.137-1.186.075-4.62.887-7.218 1.709l-1.48.468-1.25-.411q-.147-.05-.29-.095c-2.59 1.653-5.858 3.605-9.1 5.753l-12.674 8.398c2.116-.47 4.464-.79 6.289-1.718 2.635-1.342 2.546.114 7.183 1.515 4.164-.285 6.073-.83 7.324-1.886 1.119-.948 6.608-4.423 12.792-8.265-5.085.065-9.298.206-11.146-.084-3.145-.492-8.766-.55-4.073-.664 5.699-.138 11.56-.436 17.191-.438 2.049-1.451 4.948-2.555 6.59-4.147" style="fill:url(#Z);stroke-width:1.2193"/><path d="M160.157 141.959v33.348a16.189 16.796 0 0 0 4.742 11.876l13.098 13.588h47.493a5.431 5.634 0 0 0 5.431-5.588l.551-71.117a5.344 5.545 0 0 0-5.344-5.588h-48.131l-12.838 11.89a14.977 15.539 0 0 0-5.002 11.591" style="fill:url(#aa);fill-opacity:1;fill-rule:evenodd;stroke-width:3.67102"/><path d="M312.559 231.45c-6.022-1.695-16.753-1.766-21.165-3.364-4.413-1.597-3.993-4.46-4.846-26.062-.853-21.6.512-62.194.39-102.532l225.049-.517c10.63 8.337 20.235 16.675-10.23 40.056-30.462 23.38-102.016 61.804-140.196 79.487-38.18 17.684-42.982 14.626-49.002 12.932" style="fill:url(#ab);fill-rule:evenodd;stroke-width:2.92474"/><path d="M511.987 98.975c-1.554 42.796-.845 82.653-1.268 123.98 21.918-2.028 42.576-6.065 56.898-13.288 16.846-8.496 19.987-29.623 20.656-48.107 1.344-37.027-6.718-58.408-76.286-62.585" style="fill:url(#ac);fill-rule:evenodd;stroke-width:2.91442"/><path d="M511.987 98.975c-.22 0-1.617 82.652-1.73 123.978.836-.033 2.662-.21 2.662-.21s2.566-35.97 2.566-55.716c0-25.807-.847-50.604-3.498-68.052-.24-.061 0 0 0 0" style="fill:url(#ad);fill-rule:evenodd;stroke-width:1.51103"/><path d="M382.432 309.435c-.814-4.234-1.795-8.003-6.655-12.863-4.667-4.668-12.59-7.575-20.623-13.15-.556-.386-1.795-.988-2.188-1.537-11.497-16.116-23.047-35.09-28.18-51.847-5.24-17.1-4.01-34.97-.896-52.265 3.115-17.295 8.111-34.01 16.643-44.739 8.53-10.728 20.595-15.467 49.721-18.182s75.313-3.403 121.5-4.093l-1.035 112.195c-6.893-.173-13.787-.345-20.94 0-7.152.345-14.561 1.206-22.145 8.359-7.584 7.152-15.338 20.594-23.525 39.207s-16.803 42.396-26.803 52.016-21.386 5.076-27.4.454c-6.016-4.621-6.66-9.321-7.474-13.555" style="fill:url(#ae);fill-opacity:1;fill-rule:evenodd;stroke-width:2.92474"/><path d="M511.728 106.73c-46.188.69-93.698 1.38-122.824 4.095s-41.19 7.452-49.722 18.182c-8.53 10.727-13.53 27.445-16.643 44.738-3.114 17.294-4.343 35.163.897 52.265a69 69 0 0 0 1.236 3.653c.124-2.05.274-4.186.48-7.034.657-9.058 3.029-21.5 6.897-36.311s9.23-31.994 32.08-44.058 63.185-19.01 93.347-22.24c24.461-2.62 43.625-3.73 54.278-9.26z" style="fill:url(#af);fill-rule:evenodd;stroke-width:2.92474"/><path d="M430.512 201.821 453 252.1c4.99-9.25 9.847-16.272 14.635-20.787 7.584-7.153 14.992-8.013 22.145-8.358s14.046-.173 20.94 0l.376-40.908-.29-1.469c-28.507-12.372-54.048 9.414-80.294 21.244" style="fill:url(#ag);fill-opacity:1;fill-rule:evenodd;stroke-width:2.92474"/><path d="M419.281 273.575c2.426 14.546 2.59 24.95-2.162 29.582-4.754 4.63-13.772 7.19-22.485 7.19-4.17 0-8.27-.587-12.033-1.378l.1.379c2.35 26.038 7.821 51.604 11.08 77.516 2.95 11.931 3.152 19.04 1.104 26.15 55.922 8.967 72.798 4.905 97.67-7.82-4.712-19.599-12.897-38.467-15.741-57.163-2.844-18.694-6.186-35.55-10.97-65.593-4.785-30.045-11.353-73.425-25.154-78.14-47.678-16.294-25.62 49.411-21.409 69.277" style="fill:#383533;fill-opacity:1;fill-rule:evenodd;stroke-width:2.92474"/><path d="M335.405 412.977c.282 24.423 2.724 48.795 5.945 73.002 14.274 8.618 69.564-3.89 75.745-3.89h57.417c5.85 0 22.417 5.365 25.911 2.374 1.555-15.57 3.725-71.376 3.725-71.376z" style="fill:url(#ah);fill-opacity:1;fill-rule:evenodd;stroke-width:2.92473"/><path d="M503.436 412.202c-11.011 17.003-158.154 19.192-167.613.286a6 6 0 0 0-.42 1.44q.018 1.002.04 2.004c4.513 20.523 164.204 17.98 168.554-.504q.017-.792.03-1.584a5.1 5.1 0 0 0-.59-1.642" style="fill:url(#ai);fill-opacity:1;fill-rule:evenodd;stroke-width:3.09491"/><path d="M504.147 413.366c0 8.918-38.214 16.016-84.59 16.016s-84.152-7.21-84.152-16.127 37.775-16.166 84.152-16.166c46.376 0 84.59 7.36 84.59 16.277" style="vector-effect:none;fill:url(#aj);fill-opacity:1;fill-rule:evenodd;stroke-width:15.0338;stop-color:#000"/><path d="M503.216 435.265c-24.812 23.653-133.375 26.643-166.79 3.176.067 2.58.29 5.19.574 7.811.39 3.605.894 7.23 1.26 10.815 55.723 7.471 110.058 5.93 163.72 0 .428-8.152.895-14.095 1.236-21.804z" style="fill:url(#ak);fill-opacity:1;fill-rule:evenodd;stroke-width:2.92473"/><path d="M503.088 438.132c-24.814 23.652-133.043 26.724-166.458 3.257 1.07 14.907 2.749 29.78 4.72 44.589 16.69 10.076 47.374 14.905 77.755 15.07 24.163-.124 47.837-2.907 64.503-8.097 7.157-2.346 12.954-5.183 16.817-8.49.858-8.58 1.9-29.384 2.662-46.33" style="fill:#312e2c;fill-opacity:1;fill-rule:evenodd;stroke-width:2.92473"/><path d="M453.298 402.896c-29.789 0-53.649 3.238-56.906 9.286-.234.435-1.507.832-1.507.832.08.445 34.759 6.502 52.895 5.751 18.6-.771 34.68-6.636 44.776-13.57-.516-.43-1.027.955-1.537.524-10.545-1.823-23.909-2.821-37.72-2.823" style="fill:url(#al);fill-rule:evenodd;stroke-width:2.92474"/><path d="m382.602 308.969.1.38c2.348 26.038 7.82 51.604 11.078 77.515 2.73 11.037 3.107 17.949 1.526 24.55 14.463-10.355 23.573-31.272 23.573-54.126 0-18.568-6.032-36.114-16.372-47.629a45.3 45.3 0 0 1-7.872.689c-4.17 0-8.27-.588-12.033-1.379" style="fill:url(#am);fill-opacity:1;fill-rule:evenodd;stroke-width:2.92474"/><path d="M395.302 386.864c-.518-.248-1.07.314-1.33.78 2.768 11.463 2.916 18.417.913 25.37 55.923 8.967 72.797 4.906 97.67-7.819-1.367-6.136-3.268-12.011-5.124-18.043-27.97 8.82-55.125 17.492-92.13-.288" style="fill:#1e386a;fill-opacity:1;fill-rule:evenodd;stroke-width:2.92474"/><path d="M395.01 386.805c-.422.019-.828.46-1.038.84 2.768 11.462 2.916 18.416.913 25.369 3.598.577 7.035 1.1 10.322 1.57 4.554-3.613 7.329-10.478 5.507-16.878-.55-1.938-1.524-3.835-2.733-5.64a114 114 0 0 1-12.68-5.202.6.6 0 0 0-.291-.06" style="fill:url(#an);fill-opacity:1;fill-rule:evenodd;stroke-width:2.92474"/><path d="M332.307 231.002c-2.256 0-4.64.228-7.084.44q.159.485.324.972c9.957-.78 44.69-.13 27.436 49.413l-.017.058c.179.242.519.493.89.731 12.262-21.33 4.742-46.296-10.935-50.559-3.05-.83-6.668-1.058-10.614-1.055" style="fill:url(#ao);fill-opacity:1;fill-rule:evenodd;stroke-width:2.92474"/><path d="M330.91 231.015c-3.945 0-8.287.7-12.646.786.029.165-.125.182-.128.354-.018.865-.217 1.305-.87 1.766 25.42 23.522 4.985 43.843 20.857 46.715 3.395.892 9.12 1.07 14.843 1.249 12.265-21.331 4.236-45.55-11.44-49.813-3.05-.83-6.669-1.06-10.615-1.057" style="fill:#254381;fill-opacity:1;fill-rule:evenodd;stroke-width:2.92474"/><path d="M318.264 231.8c-1.206.023-2.095.35-3.308.34 29.882 24.592 6.72 45.52 23.165 48.496 3.395.892 9.121 1.07 14.845 1.249q.134-.232.265-.463c-3.657-2.638-22.325 4.762-19.416-13.672 2.486-15.763-4.482-25.566-14.964-35.575-.296-.283-.29-.1-.587-.374" style="fill:url(#ap);fill-rule:evenodd;stroke-width:2.92474"/><path d="m177.997 118.479-.5.461v81.313l.5.518h47.493a5.431 5.634 0 0 0 5.43-5.588l.552-71.117a5.344 5.545 0 0 0-5.344-5.588z" style="fill:url(#aq);fill-opacity:1;fill-rule:evenodd;stroke-width:3.67102"/><path d="M266.2 99.492c-22.2 0-40.072 9.793-40.072 21.959v76.798c0 12.164 17.872 21.957 40.072 21.957l21.163-.004c1.614-40.017 1.29-80.276-.426-120.71z" style="fill:url(#ar);fill-opacity:1;fill-rule:evenodd;stroke-width:3.34232"/><path d="M219.303 118.478c0 .03-.003.062 0 .093 1.927 27.8 1.602 55.132 0 82.2h6.187a5.3 5.3 0 0 0 3.001-.938V119.05a5.2 5.2 0 0 0-2.363-.572z" style="fill:url(#as);fill-opacity:1;fill-rule:evenodd;stroke-width:3.67102"/><rect width="59.458" height="9.133" x="522.284" y="136.576" ry="4.567" style="fill:url(#at);fill-opacity:1;fill-rule:evenodd;stroke-width:1.30207"/><rect width="59.458" height="9.133" x="522.284" y="156.683" ry="4.567" style="fill:url(#au);fill-opacity:1;fill-rule:evenodd;stroke-width:1.30207"/><rect width="59.458" height="9.133" x="522.284" y="175.145" ry="4.567" style="fill:url(#av);fill-opacity:1;fill-rule:evenodd;stroke-width:1.30207"/><rect width="36.382" height="4.747" x="182.163" y="131.782" ry="2.373" style="fill:url(#aw);fill-rule:evenodd;stroke-width:.734247"/><rect width="36.382" height="4.747" x="182.163" y="147.81" ry="2.373" style="fill:url(#ax);fill-rule:evenodd;stroke-width:.734247"/><rect width="36.382" height="4.747" x="182.163" y="161.769" ry="2.373" style="fill:url(#ay);fill-rule:evenodd;stroke-width:.734247"/><rect width="36.382" height="4.747" x="182.802" y="178.784" ry="2.373" style="fill:url(#az);fill-rule:evenodd;stroke-width:.734247"/><path d="M266.2 99.492c-22.2 0-40.072 9.794-40.072 21.959v38.399l60.743-30.194.067-30.164z" style="fill:url(#aA);fill-rule:evenodd;stroke-width:3.34232"/><path d="M164.236 131.302a14.977 15.539 0 0 0-4.08 10.657v33.348a16.189 16.796 0 0 0 2.972 9.695 25.592 39.118 0 0 0 7.552-27.746 25.592 39.118 0 0 0-6.444-25.954" style="fill:url(#aB);fill-opacity:1;fill-rule:evenodd;stroke-width:3.67102"/><path d="M398.531 153.576c-3.534.137-6.938 1.014-9.631 2.52-4.716 2.633-7.567 7.103-7.917 12.304-.308 4.545.867 7.903 3.723 10.754 2.12 2.116 4.742 3.667 10.783 6.388 4.394 1.98 6.263 3.01 7.934 4.37 2.479 2.02 3.594 4.41 3.429 7.303-.153 2.657-1.186 4.724-3.193 6.417-2.573 2.17-6.881 3.032-10.877 2.182-5.005-1.066-8.479-5.134-10.146-11.997l-.266-1.09-1.114.018c-.613.011-1.142.045-1.174.076-.034.03.004 1.21.082 2.612.232 4.165.31 5.962.355 8.187a81 81 0 0 0 .091 2.753l.05.652.493.057 2.07.234c.866.098 2.24.29 3.051.428 2.849.483 4.057.665 5.424.814 2.082.229 5.81.236 7.298.017 4.008-.592 7.256-1.919 9.782-4.002 3.25-2.681 5.013-6.115 5.322-10.44.206-2.894-.311-5.214-1.667-7.422-1.928-3.141-4.927-5.32-11.537-8.35-7.563-3.468-10.508-5.665-11.719-8.78-.844-2.17-.636-5.455.498-7.673 1.363-2.665 3.955-4.395 7.444-4.952 1.356-.218 3.704-.14 5.01.164 1.992.465 3.387 1.29 4.77 2.817 1.982 2.19 2.882 4.41 4.224 10.378.033.145 1.124.2 2.067.105l.542-.055-.017-.534c-.033-1.007.011-5.395.093-9.104.045-2.059.087-4.2.091-4.744l.008-.992-2.078-.057c-1.623-.045-2.5-.13-4.015-.388-3.42-.584-4.116-.69-5.729-.856a25 25 0 0 0-3.554-.114" style="fill:url(#aC);stroke-width:1.43992"/></g></svg>