<svg xmlns="http://www.w3.org/2000/svg" xmlns:xlink="http://www.w3.org/1999/xlink" xml:space="preserve" width="256" height="256"><defs><linearGradient id="R"><stop offset="0" style="stop-color:#132343;stop-opacity:1"/><stop offset="1" style="stop-color:#1c3361;stop-opacity:1"/></linearGradient><linearGradient id="D"><stop offset="0" stop-color="#4e4c4b" style="stop-color:#54514e;stop-opacity:1"/><stop offset="1" stop-color="#343232"/></linearGradient><linearGradient id="C"><stop offset="0" stop-color="#4e4c4b" style="stop-color:#54514e;stop-opacity:1"/><stop offset="1" stop-color="#343232" style="stop-color:#484643;stop-opacity:1"/></linearGradient><linearGradient id="A"><stop offset="0" stop-color="#4e4c4b" style="stop-color:#54514e;stop-opacity:1"/><stop offset="1" stop-color="#343232" style="stop-color:#42403d;stop-opacity:1"/></linearGradient><linearGradient id="I"><stop offset="0" style="stop-color:#1f396c;stop-opacity:1"/><stop offset="1" style="stop-color:#2a4c8f;stop-opacity:0"/></linearGradient><linearGradient id="H"><stop offset="0" style="stop-color:#423f3c;stop-opacity:1"/><stop offset="1" style="stop-color:#3d3b38;stop-opacity:0"/></linearGradient><linearGradient id="G"><stop offset="0" style="stop-color:#a9a9a9;stop-opacity:1"/><stop offset=".5" style="stop-color:#fff;stop-opacity:1"/><stop offset="1" style="stop-color:#a9a9a9;stop-opacity:1"/></linearGradient><linearGradient id="F"><stop offset="0" style="stop-color:#284b90;stop-opacity:1"/><stop offset="1" style="stop-color:#284b90;stop-opacity:0"/></linearGradient><linearGradient id="E"><stop offset="0" style="stop-color:#4c4a47;stop-opacity:1"/><stop offset="1" style="stop-color:#423f3c;stop-opacity:0"/></linearGradient><linearGradient id="u"><stop offset="0" style="stop-color:#54514e;stop-opacity:1"/><stop offset="1" style="stop-color:#43403d;stop-opacity:0"/></linearGradient><linearGradient id="t"><stop offset="0" style="stop-color:#54514e;stop-opacity:1"/><stop offset="1" style="stop-color:#42403e;stop-opacity:1"/></linearGradient><linearGradient id="S"><stop offset="0" style="stop-color:#3059a9;stop-opacity:.22426501"/><stop offset="1" style="stop-color:#152648;stop-opacity:0"/></linearGradient><linearGradient id="s"><stop offset="0" style="stop-color:#2c529b;stop-opacity:1"/><stop offset=".505" style="stop-color:#678ed5;stop-opacity:1"/><stop offset="1" style="stop-color:#2c529b;stop-opacity:1"/></linearGradient><linearGradient id="r"><stop offset="0" style="stop-color:#585551;stop-opacity:1"/><stop offset="1" style="stop-color:#43403e;stop-opacity:1"/></linearGradient><linearGradient id="q"><stop offset="0" style="stop-color:#1d3a6b;stop-opacity:1"/><stop offset="1" style="stop-color:#23447e;stop-opacity:0"/></linearGradient><linearGradient id="p"><stop offset="0" style="stop-color:#23447e;stop-opacity:1"/><stop offset="1" style="stop-color:#23447e;stop-opacity:0"/></linearGradient><linearGradient id="o"><stop offset="0" style="stop-color:#3059a9;stop-opacity:1"/><stop offset="1" style="stop-color:#3059a9;stop-opacity:1"/></linearGradient><linearGradient id="n"><stop offset="0" style="stop-color:#373432;stop-opacity:1"/><stop offset="1" style="stop-color:#373432;stop-opacity:0"/></linearGradient><linearGradient id="m"><stop offset="0" style="stop-color:#373432;stop-opacity:1"/><stop offset="1" style="stop-color:#373432;stop-opacity:0"/></linearGradient><linearGradient id="l"><stop offset="0" style="stop-color:#373432;stop-opacity:1"/><stop offset="1" style="stop-color:#373432;stop-opacity:0"/></linearGradient><linearGradient id="k"><stop offset="0" style="stop-color:#181b1a;stop-opacity:1"/><stop offset="1" style="stop-color:#181b1a;stop-opacity:0"/></linearGradient><linearGradient id="j"><stop offset="0" style="stop-color:#54514e;stop-opacity:1"/><stop offset="1" style="stop-color:#2d2b2a;stop-opacity:1"/></linearGradient><linearGradient id="h"><stop offset="0" style="stop-color:#294e90;stop-opacity:1"/><stop offset=".596" style="stop-color:#4173cc;stop-opacity:1"/><stop offset="1" style="stop-color:#294e90;stop-opacity:1"/></linearGradient><linearGradient id="g"><stop offset="0" style="stop-color:#2c519a;stop-opacity:1"/><stop offset=".298" style="stop-color:#3159ac;stop-opacity:1"/><stop offset="1" style="stop-color:#1e386a;stop-opacity:1"/></linearGradient><linearGradient id="f"><stop offset="0" style="stop-color:#264786;stop-opacity:1"/><stop offset="1" style="stop-color:#1e386a;stop-opacity:1"/></linearGradient><linearGradient id="e"><stop offset="0" style="stop-color:#254582;stop-opacity:1"/><stop offset="1" style="stop-color:#284b8e;stop-opacity:1"/></linearGradient><linearGradient id="d"><stop offset="0" style="stop-color:#1d3565;stop-opacity:1"/><stop offset="1" style="stop-color:#23417b;stop-opacity:1"/></linearGradient><linearGradient id="c"><stop offset="0" style="stop-color:#254683;stop-opacity:1"/><stop offset="1" style="stop-color:#244481;stop-opacity:1"/></linearGradient><linearGradient id="b"><stop offset="0" style="stop-color:#182c53;stop-opacity:1"/><stop offset="1" style="stop-color:#24417d;stop-opacity:1"/></linearGradient><linearGradient id="z"><stop offset="0" stop-color="#4e4c4b" style="stop-color:#54514e;stop-opacity:1"/><stop offset="1" stop-color="#343232" style="stop-color:#44413f;stop-opacity:1"/></linearGradient><linearGradient id="v"><stop offset="0" stop-color="#d6d8d7"/><stop offset="1" stop-color="#b0b4b1"/></linearGradient><linearGradient id="x"><stop offset="0" stop-color="#d6d8d7"/><stop offset="1" stop-color="#b0b4b1"/></linearGradient><linearGradient id="w"><stop offset="0" stop-color="#d6d8d7"/><stop offset="1" stop-color="#b0b4b1"/></linearGradient><linearGradient id="y"><stop offset="0" stop-color="#686f6f"/><stop offset=".5" stop-color="#7d8484"/><stop offset="1" stop-color="#373b3b"/></linearGradient><linearGradient xlink:href="#a" id="ak" x1="324.912" x2="553.023" y1="1116.645" y2="1153.361" gradientTransform="matrix(.18409 0 0 .23276 71.008 -88.847)" gradientUnits="userSpaceOnUse"/><linearGradient id="a"><stop offset="0" style="stop-color:#000001;stop-opacity:1"/><stop offset=".5" style="stop-color:#191c1b;stop-opacity:1"/><stop offset="1" style="stop-color:#333835;stop-opacity:1"/></linearGradient><linearGradient xlink:href="#b" id="ag" x1="333.202" x2="554.295" y1="1081.52" y2="1086.519" gradientTransform="matrix(.18409 0 0 .23276 71.008 -88.847)" gradientUnits="userSpaceOnUse"/><linearGradient xlink:href="#c" id="af" x1="323.513" x2="554.132" y1="1087.467" y2="1097.502" gradientTransform="matrix(.18409 0 0 .23276 71.008 -88.847)" gradientUnits="userSpaceOnUse"/><linearGradient xlink:href="#d" id="ae" x1="339.45" x2="535.237" y1="1120.568" y2="1120.568" gradientTransform="matrix(.18409 0 0 .23276 71.008 -88.847)" gradientUnits="userSpaceOnUse"/><linearGradient xlink:href="#e" id="al" x1="-254.733" x2="-130.685" y1="498.737" y2="495.936" gradientTransform="matrix(.18409 0 0 .23276 193.447 46.875)" gradientUnits="userSpaceOnUse"/><linearGradient xlink:href="#f" id="an" x1="-254.818" x2="-241.759" y1="482.005" y2="482.882" gradientTransform="matrix(.18409 0 0 .23276 193.447 46.875)" gradientUnits="userSpaceOnUse"/><linearGradient xlink:href="#g" id="W" x1="-263.645" x2="-270.841" y1="116.201" y2="367.814" gradientTransform="matrix(.17841 0 0 .23276 192.317 44.39)" gradientUnits="userSpaceOnUse"/><linearGradient xlink:href="#h" id="X" x1="-326.774" x2="-334.681" y1="113.913" y2="229.998" gradientTransform="matrix(.17841 0 0 .23276 192.317 44.39)" gradientUnits="userSpaceOnUse"/><linearGradient xlink:href="#j" id="Y" x1="-89.803" x2="-23.911" y1="107.553" y2="213.266" gradientTransform="matrix(.15415 0 0 .23276 189.922 44.39)" gradientUnits="userSpaceOnUse"/><linearGradient xlink:href="#k" id="aL" x1="-103.945" x2="-89.093" y1="199.105" y2="198.219" gradientTransform="matrix(.14373 0 0 .23276 188.73 44.389)" gradientUnits="userSpaceOnUse"/><linearGradient xlink:href="#l" id="aa" x1="-88.13" x2="-6.812" y1="169.462" y2="169.462" gradientTransform="matrix(.15415 0 0 .23276 189.922 44.39)" gradientUnits="userSpaceOnUse"/><linearGradient xlink:href="#m" id="Z" x1="-88.13" x2="-6.812" y1="141.962" y2="141.962" gradientTransform="matrix(.15415 0 0 .23276 189.922 44.39)" gradientUnits="userSpaceOnUse"/><linearGradient xlink:href="#n" id="ab" x1="-88.13" x2="-6.812" y1="194.712" y2="194.712" gradientTransform="matrix(.15415 0 0 .23276 189.922 44.39)" gradientUnits="userSpaceOnUse"/><linearGradient xlink:href="#o" id="aq" x1="-526.079" x2="-514.849" y1="110.966" y2="205.424" gradientTransform="matrix(.14695 0 0 .23276 177.962 44.39)" gradientUnits="userSpaceOnUse"/><linearGradient xlink:href="#p" id="at" x1="-553.295" x2="-503.537" y1="139.301" y2="139.301" gradientTransform="matrix(.14695 0 0 .23276 177.962 42.784)" gradientUnits="userSpaceOnUse"/><linearGradient xlink:href="#p" id="au" x1="-553.295" x2="-503.537" y1="139.301" y2="139.301" gradientTransform="matrix(.14695 0 0 .23276 177.962 47.886)" gradientUnits="userSpaceOnUse"/><linearGradient xlink:href="#p" id="av" x1="-553.295" x2="-503.537" y1="139.301" y2="139.301" gradientTransform="matrix(.14695 0 0 .23276 177.962 52.33)" gradientUnits="userSpaceOnUse"/><linearGradient xlink:href="#q" id="aw" x1="-553.295" x2="-503.537" y1="139.301" y2="139.301" gradientTransform="matrix(.14695 0 0 .23276 178.09 57.746)" gradientUnits="userSpaceOnUse"/><linearGradient xlink:href="#r" id="ar" x1="-446.106" x2="-438.361" y1="85.295" y2="250.094" gradientTransform="matrix(.16667 0 0 .23276 187.545 44.39)" gradientUnits="userSpaceOnUse"/><linearGradient xlink:href="#s" id="V" x1="-374.717" x2="-378.419" y1="87.743" y2="268.327" gradientTransform="matrix(.17841 0 0 .23276 192.317 44.39)" gradientUnits="userSpaceOnUse"/><linearGradient xlink:href="#t" id="U" x1="14.496" x2="39.131" y1="-378.915" y2="-364.396" gradientTransform="matrix(.18109 0 0 .29757 89.607 196.07)" gradientUnits="userSpaceOnUse"/><linearGradient xlink:href="#u" id="aA" x1="-447.098" x2="-434.033" y1="85" y2="138.154" gradientTransform="matrix(.16667 0 0 .23276 187.545 44.39)" gradientUnits="userSpaceOnUse"/><linearGradient xlink:href="#v" id="aB" x1="67.768" x2="25.666" y1="248.97" y2="267.237" gradientTransform="matrix(.24911 .09148 -.11783 .19878 113.6 26.272)" gradientUnits="userSpaceOnUse"/><linearGradient xlink:href="#w" id="aC" x1="-37.528" x2="-45.94" y1="294.3" y2="303.421" gradientTransform="matrix(.24911 .09148 -.11783 .19878 113.6 26.272)" gradientUnits="userSpaceOnUse"/><linearGradient xlink:href="#x" id="aD" x1="-1.438" x2="-11.334" y1="277.751" y2="285.429" gradientTransform="matrix(.24911 .09148 -.11783 .19878 113.6 26.272)" gradientUnits="userSpaceOnUse"/><linearGradient xlink:href="#y" id="aE" x1="61.281" x2="-51.43" y1="247.875" y2="311.894" gradientTransform="matrix(.2491 .09149 -.11783 .19878 113.38 26.23)" gradientUnits="userSpaceOnUse"/><linearGradient xlink:href="#z" id="aF" x1="29.499" x2="-53.528" y1="261.487" y2="317.759" gradientTransform="matrix(.2491 .09149 -.11783 .19878 113.38 26.23)" gradientUnits="userSpaceOnUse"/><linearGradient xlink:href="#A" id="aG" x1="29.499" x2="-53.528" y1="261.487" y2="317.759" gradientTransform="matrix(.2491 .09149 -.11783 .19878 113.38 26.23)" gradientUnits="userSpaceOnUse"/><linearGradient xlink:href="#C" id="aH" x1="29.499" x2="-53.528" y1="261.487" y2="317.759" gradientTransform="matrix(.2491 .09149 -.11783 .19878 113.38 26.23)" gradientUnits="userSpaceOnUse"/><linearGradient xlink:href="#D" id="aI" x1="29.499" x2="-53.528" y1="261.487" y2="317.759" gradientTransform="matrix(.2491 .09149 -.11783 .19878 113.38 26.23)" gradientUnits="userSpaceOnUse"/><linearGradient xlink:href="#E" id="aJ" x1="-574.443" x2="-568.999" y1="165.589" y2="165.225" gradientTransform="matrix(.14695 0 0 .23276 177.962 44.39)" gradientUnits="userSpaceOnUse"/><linearGradient xlink:href="#F" id="ao" x1="328.804" x2="338.376" y1="286.367" y2="286.724" gradientTransform="matrix(.33792 0 0 .42726 25.004 -7.537)" gradientUnits="userSpaceOnUse"/><linearGradient xlink:href="#G" id="aK" x1="348.305" x2="363.941" y1="210.923" y2="247.423" gradientTransform="matrix(.33792 0 0 .42726 25.975 -7.765)" gradientUnits="userSpaceOnUse"/><linearGradient xlink:href="#H" id="am" x1="347.891" x2="376.969" y1="342.837" y2="341.095" gradientTransform="matrix(.33792 0 0 .42726 24.192 -7.537)" gradientUnits="userSpaceOnUse"/><linearGradient xlink:href="#I" id="ad" x1="479.706" x2="469.251" y1="224.333" y2="193.111" gradientTransform="matrix(.244 0 0 .31833 49.153 32.502)" gradientUnits="userSpaceOnUse"/><linearGradient xlink:href="#R" id="ap" x1="146.049" x2="149.342" y1="108.397" y2="116.505" gradientUnits="userSpaceOnUse"/><radialGradient xlink:href="#S" id="as" cx="-496.217" cy="167.239" r="6.284" fx="-496.217" fy="167.239" gradientTransform="matrix(.14695 0 0 2.08447 177.962 -265.289)" gradientUnits="userSpaceOnUse"/></defs><g transform="matrix(.99311 0 0 1 3.035 0)"><path d="M92.232 77.692v10.615a3.254 5.347 0 0 0 .953 3.78l2.632 4.326h9.545a1.092 1.793 0 0 0 1.092-1.779l.11-22.638a1.074 1.765 0 0 0-1.074-1.779h-9.673l-2.58 3.785a3.01 4.947 0 0 0-1.005 3.69" style="fill:url(#U);fill-opacity:1;fill-rule:evenodd;stroke-width:.928541"/><path d="M125.42 106.18c-1.47-.54-4.088-.563-5.165-1.072-1.077-.508-.974-1.42-1.182-8.296-.209-6.876.124-19.798.095-32.639l54.913-.164c2.594 2.654 4.938 5.308-2.496 12.75s-24.893 19.675-34.209 25.304-10.488 4.655-11.957 4.116" style="fill:url(#V);fill-rule:evenodd;stroke-width:.815128"/><path d="M142.469 131.004c-.199-1.348-.438-2.548-1.624-4.095-1.139-1.486-2.864-2.667-4.824-4.442-.136-.123-.062-.206-.158-.38-2.805-5.13-6.208-11.023-7.46-16.357-1.279-5.444-.979-11.132-.219-16.638.76-5.505 1.98-10.826 4.061-14.241s5.026-4.924 12.133-5.788c7.106-.865 18.376-1.084 29.646-1.303l-.252 35.715c-1.682-.055-3.364-.11-5.11 0-1.745.11-3.553.384-5.403 2.66s-3.743 6.556-5.74 12.481-4.1 13.496-6.54 16.558c-2.44 3.063-5.219 1.616-6.686.145-1.468-1.471-1.625-2.967-1.824-4.315" style="fill:url(#W);fill-opacity:1;fill-rule:evenodd;stroke-width:.815128"/><path d="M174.018 66.477c-11.27.22-22.863.44-29.97 1.304s-10.05 2.372-12.132 5.788c-2.082 3.414-3.302 8.736-4.061 14.241-.76 5.505-1.06 11.193.218 16.637a16.836 21.965 0 0 0 .302 1.163c.03-.652.067-1.332.117-2.239.16-2.883.74-6.844 1.683-11.559s2.252-10.184 7.828-14.025c5.575-3.84 15.417-6.051 22.777-7.08 5.969-.833 10.645-1.187 13.244-2.947z" style="fill:url(#X);fill-rule:evenodd;stroke-width:.815128"/><path d="M174.166 64.009c-.327 13.623-.178 26.31-.267 39.466 4.62-.646 8.976-1.93 11.995-4.23 3.552-2.704 4.214-9.43 4.355-15.314.284-11.787-1.416-18.593-16.083-19.922" style="fill:url(#Y);fill-rule:evenodd;stroke-width:.755009"/><rect width="12.535" height="2.907" x="176.337" y="75.978" ry="1.454" style="fill:url(#Z);fill-opacity:1;fill-rule:evenodd;stroke-width:.337314"/><rect width="12.535" height="2.907" x="176.337" y="82.379" ry="1.454" style="fill:url(#aa);fill-opacity:1;fill-rule:evenodd;stroke-width:.337314"/><rect width="12.535" height="2.907" x="176.337" y="88.256" ry="1.454" style="fill:url(#ab);fill-opacity:1;fill-rule:evenodd;stroke-width:.337314"/><path d="m154.2 96.747 5.488 16.006c1.218-2.945 2.403-5.18 3.571-6.617 1.85-2.277 3.658-2.551 5.404-2.661s3.427-.055 5.109 0l.092-13.022-.071-.468c-6.956-3.938-13.188 2.997-19.592 6.763" style="fill:url(#ad);fill-opacity:1;fill-rule:evenodd;stroke-width:.815128"/><path d="M151.682 119.589c.61 4.63.652 7.942-.545 9.417-1.197 1.473-3.467 2.288-5.66 2.288-1.05 0-2.083-.186-3.03-.438l.025.12c.592 8.289 1.97 16.428 2.79 24.676.742 3.798.793 6.06.277 8.324 14.08 2.855 18.329 1.562 24.59-2.49-1.186-6.238-3.246-12.244-3.962-18.196-.716-5.95-1.558-11.316-2.762-20.88-1.205-9.564-2.859-23.373-6.333-24.874-12.004-5.187-6.45 15.729-5.39 22.053" style="fill:#383533;fill-opacity:1;fill-rule:evenodd;stroke-width:.827993"/><path d="M130.564 163.964c.071 7.775.686 15.533 1.497 23.24 3.594 2.742 17.514-1.24 19.07-1.24h14.456c1.473 0 5.644 1.709 6.524.757.391-4.957.937-22.721.937-22.721z" style="fill:url(#ae);fill-opacity:1;fill-rule:evenodd;stroke-width:.827991"/><path d="M172.87 163.718c-2.773 5.412-39.819 6.11-42.2.09a1.51 1.91 0 0 0-.106.46l.01.637c1.136 6.533 41.341 5.724 42.437-.16q.005-.252.007-.505a1.284 1.623 0 0 0-.149-.522" style="fill:url(#af);fill-opacity:1;fill-rule:evenodd;stroke-width:.876168"/><path d="M173.048 164.088c0 2.84-9.62 5.099-21.297 5.099-11.676 0-21.187-2.296-21.187-5.134s9.51-5.146 21.187-5.146c11.676 0 21.297 2.343 21.297 5.181" style="vector-effect:none;fill:url(#ag);fill-opacity:1;fill-rule:evenodd;stroke-width:4.25606;stop-color:#000"/><path d="M172.814 171.06c-6.247 7.529-33.58 8.48-41.993 1.01.017.822.073 1.653.145 2.487.098 1.147.225 2.301.317 3.443 14.03 2.378 27.71 1.887 41.22 0 .107-2.595.225-4.487.31-6.941z" style="fill:url(#ak);fill-opacity:1;fill-rule:evenodd;stroke-width:.827991"/><path d="M172.782 171.972c-6.248 7.53-33.496 8.507-41.91 1.037.27 4.745.693 9.48 1.189 14.194 4.202 3.207 11.927 4.744 19.576 4.797 6.084-.04 12.044-.925 16.24-2.578 1.802-.746 3.262-1.65 4.234-2.702.216-2.731.479-9.354.67-14.748" style="fill:#312e2c;fill-opacity:1;fill-rule:evenodd;stroke-width:.827991"/><path d="M160.246 160.755c-7.5 0-13.507 1.031-14.327 2.956-.059.139-.38.265-.38.265.02.142 8.752 2.07 13.318 1.83 4.683-.244 8.731-2.111 11.273-4.319-.13-.137-.259.304-.387.167-2.655-.58-6.02-.898-9.497-.899" style="fill:url(#al);fill-rule:evenodd;stroke-width:.827993"/><path d="m142.447 130.856.025.12c.591 8.29 1.969 16.428 2.79 24.676.687 3.513.782 5.714.383 7.815 3.642-3.296 5.935-9.955 5.935-17.23 0-5.91-1.518-11.496-4.122-15.162a9 9 0 0 1-1.981.22c-1.05 0-2.083-.187-3.03-.44" style="fill:url(#am);fill-opacity:1;fill-rule:evenodd;stroke-width:.827993"/><path d="M145.644 155.652c-.13-.079-.269.1-.334.248.696 3.65.734 5.863.23 8.076 14.08 2.855 18.328 1.562 24.59-2.489-.344-1.953-.823-3.823-1.29-5.743-7.042 2.807-13.88 5.568-23.196-.092" style="fill:#1e386a;fill-opacity:1;fill-rule:evenodd;stroke-width:.827993"/><path d="M145.57 155.633c-.105.006-.208.147-.26.268.697 3.648.734 5.862.23 8.075q1.357.275 2.598.5c1.147-1.15 1.845-3.335 1.387-5.373a7.3 7.3 0 0 0-.688-1.795 28.702 36.29 0 0 1-3.193-1.656.151.191 0 0 0-.073-.02" style="fill:url(#an);fill-opacity:1;fill-rule:evenodd;stroke-width:.827993"/><path d="M130.595 106.037c-.568 0-1.168.072-1.783.14l.082.31c2.506-.25 11.251-.042 6.907 15.729l-.005.018c.045.077.13.157.224.233 3.087-6.79 1.194-14.738-2.753-16.095-.768-.264-1.679-.336-2.672-.335" style="fill:url(#ao);fill-opacity:1;fill-rule:evenodd;stroke-width:.827993"/><path d="M148.616 106.04c-1.09 0-2.29.224-3.496.251.026.27-.186.462-.276.675 7.028 7.488 1.378 13.956 5.767 14.87.938.284 2.521.341 4.103.398 3.391-6.79 1.171-14.5-3.163-15.857-.843-.264-1.843-.337-2.934-.336" style="fill:#254381;fill-opacity:1;fill-rule:evenodd;stroke-width:.867664" transform="matrix(.91065 0 0 1 -5.093 0)"/><path d="M144.379 106.511c7.028 7.488 1.844 14.41 6.232 15.325.9.272 2.392.336 3.909.39l.07-.14c-1.011-.84-6.172 1.516-5.367-4.352.687-5.017-1.205-8.257-4.103-11.443-.307.307-.454.145-.741.22" style="fill:url(#ap);fill-opacity:1;fill-rule:evenodd;stroke-width:.867664" transform="matrix(.91065 0 0 1 -5.093 0)"/><path d="m95.817 70.217-.1.147v25.884l.1.165h9.545a1.092 1.793 0 0 0 1.092-1.779l.11-22.638a1.074 1.765 0 0 0-1.074-1.779z" style="fill:url(#aq);fill-opacity:1;fill-rule:evenodd;stroke-width:.928541"/><path d="M114.48 64.173c-5.06 0-9.134 3.118-9.134 6.99V95.61c0 3.873 4.074 6.99 9.135 6.99l4.824-.001c.368-12.739.294-25.554-.097-38.426z" style="fill:url(#ar);fill-opacity:1;fill-rule:evenodd;stroke-width:.900342"/><path d="M104.119 70.217v.03c.387 8.85.322 17.55 0 26.166h1.243a1.065 1.687 0 0 0 .603-.298V70.399a1.045 1.655 0 0 0-.475-.182z" style="fill:url(#as);fill-opacity:1;fill-rule:evenodd;stroke-width:.928541"/><rect width="7.312" height="1.511" x="96.654" y="74.452" ry=".755" style="fill:url(#at);fill-rule:evenodd;stroke-width:.185719"/><rect width="7.312" height="1.511" x="96.654" y="79.554" ry=".755" style="fill:url(#au);fill-rule:evenodd;stroke-width:.185719"/><rect width="7.312" height="1.511" x="96.654" y="83.998" ry=".755" style="fill:url(#av);fill-rule:evenodd;stroke-width:.185719"/><rect width="7.312" height="1.511" x="96.783" y="89.414" ry=".755" style="fill:url(#aw);fill-rule:evenodd;stroke-width:.185719"/><path d="M114.48 64.173c-5.06 0-9.134 3.118-9.134 6.99v12.224l13.847-9.612.015-9.602z" style="fill:url(#aA);fill-rule:evenodd;stroke-width:.900342"/><path fill="url(#J)" fill-rule="evenodd" d="M101.669 81.19s-.072-.022-.093-.027q-.03-.007-.047-.009l-.047-.006-.044-.003-.048-.002-.108-.001h-.357a1049 1049 0 0 0-5.376.056c-3.183.041-6.127.078-6.508.081a5 5 0 0 0-.761.042 1.99 2.292 0 0 0-.592.214 3 3 0 0 0-.222.14c-.032.022-.06.041-.107.084-.023.02-.052.039-.104.125-.025.043-.072.107-.06.247.01.14.185.354.357.417 0 0 .099.028.122.032a.4.4 0 0 0 .089.012l.032.001h.374l.937-.01 3.053-.04c7.814-.11 8.781-.119 8.978-.111q.14.005.263 0a.875 1.102 88.709 0 0 .14-.012 1 1 0 0 0 .126-.026c.064-.02.213-.01.363-.262.088-.15.072-.215.072-.28a.985 1.24 88.71 0 0-.02-.176.875 1.102 88.709 0 0-.06-.176c-.033-.067-.001-.181-.353-.31" style="fill:url(#aB);stroke-width:.245555" transform="matrix(.75307 0 0 1 15.95 .31)"/><path fill="url(#K)" fill-rule="evenodd" d="m70.116 81.119-.063-.015-.024-.002h-.022l-.016.002h-.018l-.041.006-.135.017-.425.058a61.042 76.892 88.71 0 0-.893.126c-1.005.15-1.79.309-2.467.499a12.033 15.158 88.71 0 0-.542.162q-.112.036-.186.063l-.066.025a.219.276 88.711 0 0-.04.02c-.008.006-.019.012-.036.027a.219.276 88.711 0 0-.03.033l-.018.03-.013.046-.008.052-.02.123a1.659 1.91 0 0 0-.02.151c-.002.018-.005.033.004.07.004.018.008.047.049.087.04.04.138.072.2.068s.048-.006.068-.01l.077-.015.231-.046c.23-.05.478-.09 1.118-.186.816-.122 1.232-.205 1.634-.33a5 5 0 0 0 .746-.295 14.659 18.465 88.71 0 1 .708-.316c.099-.042.167-.071.215-.094l.067-.035c.012-.008.026-.012.058-.049a.175.22 88.708 0 0 .038-.073l.002-.046-.049-.1-.043-.034z" style="fill:url(#aC);stroke-width:.245555" transform="matrix(.75307 0 0 1 15.95 .31)"/><path fill="url(#L)" fill-rule="evenodd" d="M80.695 81.187c-.04-.023-.058-.02-.072-.022-.027-.003-.04-.001-.06 0-.04.003-.095.009-.183.019-.175.02-.477.058-.99.125-.703.09-1.08.14-1.346.197a2.4 2.4 0 0 0-.631.222 16.628 20.945 88.71 0 0-.559.28q-.12.061-.195.103-.037.02-.062.036a.219.276 88.711 0 0-.024.016c-.009.006-.016.002-.04.043a.086.099 0 0 0 .01.114c.03.037.064.045.084.05.04.008.056.006.08.005a1.531 1.93 88.71 0 0 .202-.017c.192-.021.52-.064 1.076-.137.554-.073.835-.11 1.028-.148.193-.039.298-.082.453-.151a137 137 0 0 1 1.08-.476l.101-.047.032-.016.015-.008.012-.008.012-.01.01-.01.014-.018a.276.318 0 0 0 .012-.032l-.003-.045-.024-.041s-.022-.02-.032-.024" style="fill:url(#aD);stroke-width:.245555" transform="matrix(.75307 0 0 1 15.95 .31)"/><path fill="url(#M)" d="M60.363 83.046c-.002-.01.228-.176.511-.369a347 347 0 0 0 3.654-2.505c.041-.045 1.183-.008 1.602.051.5.071.949.212 1.617.505.327.144.605.257.618.252s.254-.08.536-.162c2.268-.668 6.759-1.211 9.628.16l.254.12.576-.196c1.445-.492 2.746-.693 4.55-.703a27.717 34.914 88.71 0 0 .833-.011 17 17 0 0 1 2.139.11c.763.105 1.297.252 2.281.626l.345.13.41-.148c.718-.262 1.667-.52 1.995-.544 2.893-.032 5.786-.064 8.68-.077l.876-.004c1.192.994 2.88 3.06.005 5.297-.763.072-8.498.04-12.942.11-.972.016-1.19-.04-2.207-.564a35.13 44.251 88.71 0 0-.874-.441c-.273-.13-.268-.13-.728.052a9.411 11.855 88.71 0 1-3.207.856c-.734.109-1.292.14-2.48.145-2.48.007-2.774-.049-4.358-.834a7 7 0 0 0-.605-.28 4 4 0 0 0-.45.166 14.5 14.5 0 0 1-3.121.89c-1.011.16-1.816.207-4.026.24l-1.598.023-.377-.242c-.208-.133-1.016-.647-1.798-1.14-1.627-1.03-2.334-1.487-2.339-1.513m4.724-.868-.028.185-.029.185.176-.032c1.151-.264 2.424-.274 3.472-.76a16.115 20.299 88.71 0 1 .827-.374c.266-.108.316-.133.295-.146-1.611.218-3.213.414-4.713.942m11.243.078c.011.007.595-.065 1.297-.16l1.277-.17.567-.26a15.47 19.487 88.71 0 1 .822-.357c.14-.055.245-.105.233-.112-.012-.006-.65.07-1.42.172-1.18.155-1.432.199-1.614.282-.365.165-1.184.592-1.162.605m11.162-.193q-.007.007-.006.01c.005.027.422.028 1.78.003 1.408-.025 7.679-.115 9.693-.139a150.51 189.591 88.71 0 1 1.965-.018l.37.002.002-.165.002-.182c-.003-.041.152-.042-8.826.083-2.238.03-4.123.05-4.188.042a.5.5 0 0 0-.254.052c-.236.118-.494.27-.538.312" style="fill:url(#aE);stroke-width:.361722" transform="matrix(.75307 0 0 1 15.95 .31)"/><path fill="url(#N)" d="M66.648 80.294a3.062 3.857 88.71 0 0-.745-.169c-.26-.037-.796-.065-1.177-.07-.35.09-.63.203-.817.334-1.628 1.13-2.696 2.012-3.573 2.65.212.172.844.557 2.192 1.409l.075.047 2.427-1.947.057-.37a7.413 9.337 88.71 0 1 1.521-.429c.454-.328.789-.762 1.139-1.02l-.228-.1a8 8 0 0 0-.87-.335" style="fill:url(#aF);stroke-width:.361722" transform="matrix(.75307 0 0 1 15.95 .31)"/><path fill="url(#O)" d="M76.964 80.476c-1.381-.341-2.941-.394-4.395-.292l-2.545 1.831a969 969 0 0 1-4.215 3.02c-.602.426-1.028.87-.932.906.096.035 1.25 0 2.511-.04.736-.033 1.476-.03 2.207-.106l.06-.007L73.432 83a123 123 0 0 1 3.53-2.524" style="fill:url(#aG);stroke-width:.361722" transform="matrix(.75307 0 0 1 15.95 .31)"/><path fill="url(#P)" d="M86.117 80.226c-.408-.037-2.622-.243-5.176.244-.318.26-.593.511-.948.786.887-.057-.222.214-.486.307a130 130 0 0 1-4.723 3.392c1.19.793 2.519.773 3.894.781 2.875-2.069 4.29-3.33 7.439-5.51" style="fill:url(#aH);stroke-width:.361722" transform="matrix(.75307 0 0 1 15.95 .31)"/><path fill="url(#Q)" d="M94.525 80.333c-.954.01-1.85-.054-2.804-.043-.328.024-1.277.282-1.995.544l-.41.149-.345-.131-.08-.03c-.716.526-1.62 1.147-2.516 1.831l-3.504 2.673c.585-.15 1.234-.251 1.738-.546.729-.428.704.036 1.986.482 1.152-.09 1.68-.264 2.025-.6.31-.302 1.827-1.408 3.537-2.632-1.406.021-2.57.066-3.082-.026-.87-.157-2.423-.175-1.126-.212 1.576-.044 3.196-.138 4.753-.139.567-.462 1.368-.813 1.822-1.32" style="fill:url(#aI);stroke-width:.361722" transform="matrix(.75307 0 0 1 15.95 .31)"/><path d="M93.052 74.3a3.01 4.947 0 0 0-.82 3.392v10.615a3.254 5.347 0 0 0 .597 3.086 5.143 12.452 0 0 0 1.518-8.832A5.143 12.452 0 0 0 93.05 74.3" style="fill:url(#aJ);fill-opacity:1;fill-rule:evenodd;stroke-width:.928541"/><path d="M147.269 81.162c-.89.044-1.747.323-2.425.802-1.188.838-1.905 2.261-1.993 3.917-.078 1.447.218 2.516.937 3.423.534.674 1.194 1.168 2.715 2.034 1.106.63 1.577.958 1.997 1.39.624.644.905 1.405.864 2.326-.039.845-.299 1.503-.804 2.042-.648.691-1.733.965-2.739.695-1.26-.34-2.135-1.634-2.554-3.82l-.067-.346-.28.006a1.4 1.4 0 0 0-.296.024c-.008.01 0 .385.02.831a86 86 0 0 1 .09 2.606 20.393 25.785 0 0 0 .023.877l.012.207.125.019.52.074c.219.031.565.092.769.136.717.154 1.021.212 1.365.26.525.072 1.463.074 1.838.005 1.009-.189 1.827-.611 2.463-1.274.818-.854 1.262-1.947 1.34-3.324.052-.92-.079-1.66-.42-2.362-.486-1-1.24-1.694-2.905-2.658-1.904-1.104-2.645-1.804-2.95-2.795-.213-.69-.16-1.737.125-2.443.343-.848.996-1.399 1.874-1.576a3.2 3.2 0 0 1 1.262.052c.501.148.852.41 1.2.897.5.697.726 1.404 1.064 3.304.008.046.283.063.52.033l.137-.018-.005-.17c-.008-.32.003-1.717.023-2.898.012-.655.022-1.337.023-1.51l.002-.316-.523-.018a5 5 0 0 1-1.01-.123c-.862-.186-1.037-.22-1.443-.273a6.294 7.958 0 0 0-.895-.036" style="fill:url(#aK);stroke-width:.407641"/><path d="M174.194 64.009c-.051 0-.377 26.31-.403 39.465.195-.01.62-.066.62-.066s.598-11.45.598-17.736c0-8.216-.197-16.11-.815-21.663-.056-.02 0 0 0 0" style="fill:url(#aL);fill-rule:evenodd;stroke-width:.411529"/></g></svg>