<svg xmlns="http://www.w3.org/2000/svg" width="128" height="128"><linearGradient id="a" x1="12" x2="116" y1="64" y2="64" gradientUnits="userSpaceOnUse"><stop offset="0" stop-color="#3d3846"/><stop offset=".05" stop-color="#77767b"/><stop offset=".1" stop-color="#5e5c64"/><stop offset=".9" stop-color="#45434d"/><stop offset=".95" stop-color="#77767b"/><stop offset="1" stop-color="#3d3846"/></linearGradient><linearGradient id="b" x1="12" x2="112.041" y1="60" y2="80.988" gradientUnits="userSpaceOnUse"><stop offset="0" stop-color="#77767b"/><stop offset=".384" stop-color="#9a9996"/><stop offset=".721" stop-color="#77767b"/><stop offset="1" stop-color="#68666f"/></linearGradient><linearGradient id="c" x1="13.07" x2="117.07" y1="55.686" y2="55.686" gradientUnits="userSpaceOnUse"><stop offset="0" stop-color="#3d3846"/><stop offset=".252" stop-color="#77767b"/><stop offset=".324" stop-color="#5e5c64"/><stop offset=".534" stop-color="#45434d"/><stop offset=".744" stop-color="#77767b"/><stop offset="1" stop-color="#3d3846"/></linearGradient><path fill="url(#a)" d="M20 22h88a8 8 0 0 1 8 8v78a8 8 0 0 1-8 8H20a8 8 0 0 1-8-8V30a8 8 0 0 1 8-8m0 0" style="fill:url(#a)"/><path fill="url(#b)" d="M20 12h88a8 8 0 0 1 8 8v80a8 8 0 0 1-8 8H20a8 8 0 0 1-8-8V20a8 8 0 0 1 8-8m0 0" style="fill:url(#b)"/><path fill="#1a1f32" d="M20 14h88c3.313 0 6 2.688 6 6v80a6 6 0 0 1-6 6H20c-3.312 0-6-2.687-6-6V20c0-3.312 2.688-6 6-6m0 0"/><path fill="#fffeff" d="M39.027 53.285v6.594L50.29 70.832l-11.262-1.941v6.593l17.25 1.676v-5.633zm0 0"/><path fill="#4b4953" d="M63.254 18.48c-1.504 0-2.98.399-4.281 1.149L32.086 35.152a8.57 8.57 0 0 0-4.281 7.418v31.043a8.57 8.57 0 0 0 4.28 7.418l26.888 15.524a8.58 8.58 0 0 0 8.566 0L94.422 81.03a8.57 8.57 0 0 0 4.285-7.418V42.57a8.56 8.56 0 0 0-4.285-7.418L67.539 19.63a8.6 8.6 0 0 0-4.285-1.149m-.496 2.97a2.86 2.86 0 0 1 1.926.34l26 15.01a.953.953 0 0 1 0 1.65l-26 15.007a2.85 2.85 0 0 1-2.856 0l-26-15.008a.953.953 0 0 1 0-1.648l26-15.012q.436-.252.93-.34M31.89 44.046a1 1 0 0 1 .64.113l26 15.012c.883.512 2.309 1.453 2.309 2.473v30.02c0 .733-1.676 1.19-2.309.827l-26-15.012a2.86 2.86 0 0 1-1.43-2.472V44.984c0-.46.333-.855.79-.937m62.73 0a.955.955 0 0 1 .785.937v30.024c0 1.02-.543 1.96-1.426 2.472l-26 15.012a.953.953 0 0 1-1.425-.828v-30.02c0-1.019.543-1.96 1.425-2.472l26-15.012a.98.98 0 0 1 .641-.113m0 0"/><path fill="#fffeff" d="M92.785 74.043v-6.832L69.938 80.402v6.836zm0 0"/><path fill="url(#c)" d="M63.254 18.48c-1.504 0-2.98.399-4.281 1.149L32.09 35.152a8.56 8.56 0 0 0-4.285 7.418v31.043a8.57 8.57 0 0 0 4.285 7.418l26.883 15.524a8.58 8.58 0 0 0 8.566 0L94.422 81.03a8.57 8.57 0 0 0 4.285-7.418V42.57a8.56 8.56 0 0 0-4.285-7.418L67.539 19.63a8.6 8.6 0 0 0-4.285-1.149m.004 2.926c.496 0 .988.133 1.426.383l26 15.012a.953.953 0 0 1 0 1.648l-26 15.008a2.85 2.85 0 0 1-2.856 0l-26-15.008a.953.953 0 0 1 0-1.648l26-15.012a2.8 2.8 0 0 1 1.43-.383m-31.203 22.63q.253 0 .476.124l26 15.012c.883.512 2.313 1.453 2.313 2.473v30.023c-.004.73-1.68 1.187-2.313.824l-26-15.012a2.85 2.85 0 0 1-1.43-2.472V44.984c0-.46.333-.855.79-.937q.081-.012.164-.012m62.402 0q.083 0 .164.01a.96.96 0 0 1 .79.938v30.024c0 1.02-.548 1.96-1.43 2.472l-26 15.012a.952.952 0 0 1-1.426-.824V61.645c0-1.02.543-1.961 1.425-2.473l26-15.012a1 1 0 0 1 .477-.125m0 0" style="fill:url(#c)"/></svg>