<svg xmlns="http://www.w3.org/2000/svg" width="128" height="128"><linearGradient id="a" x1="12" x2="116" y1="64" y2="64" gradientUnits="userSpaceOnUse"><stop offset="0" stop-color="#3d3846"/><stop offset=".05" stop-color="#77767b"/><stop offset=".1" stop-color="#5e5c64"/><stop offset=".9" stop-color="#45434d"/><stop offset=".95" stop-color="#77767b"/><stop offset="1" stop-color="#3d3846"/></linearGradient><linearGradient id="b" x1="12" x2="112.041" y1="60" y2="80.988" gradientUnits="userSpaceOnUse"><stop offset="0" stop-color="#77767b"/><stop offset=".384" stop-color="#9a9996"/><stop offset=".721" stop-color="#77767b"/><stop offset="1" stop-color="#68666f"/></linearGradient><path fill="url(#a)" d="M20 22h88a8 8 0 0 1 8 8v78a8 8 0 0 1-8 8H20a8 8 0 0 1-8-8V30a8 8 0 0 1 8-8m0 0"/><path fill="url(#b)" d="M20 12h88a8 8 0 0 1 8 8v80a8 8 0 0 1-8 8H20a8 8 0 0 1-8-8V20a8 8 0 0 1 8-8m0 0"/><path fill="#1a1f32" d="M20 14h88c3.313 0 6 2.688 6 6v80a6 6 0 0 1-6 6H20c-3.312 0-6-2.687-6-6V20c0-3.312 2.688-6 6-6m0 0"/><path fill="#fffeff" d="M50 56v4h16v-4zm-12.586-3.27v-3.792a9 9 0 0 1-1.355-.227 6.5 6.5 0 0 1-1.309-.469 5.6 5.6 0 0 1-1.148-.738 4.7 4.7 0 0 1-.891-.996 4.4 4.4 0 0 1-.531-1.196 4.7 4.7 0 0 1-.18-1.3v-.254h2.457v.164q-.001.565.227 1.117.246.545.68.938c.3.265.636.468 1.019.62.375.141.765.239 1.18.286v-6.434a20 20 0 0 1-1.91-.832 7.5 7.5 0 0 1-1.696-1.148 5.6 5.6 0 0 1-1.21-1.57 4.1 4.1 0 0 1-.454-1.872c0-.636.129-1.242.387-1.828a4.25 4.25 0 0 1 1.117-1.527 5.2 5.2 0 0 1 1.695-.965 8.4 8.4 0 0 1 1.922-.426v-3.836h2.313v3.809a9.2 9.2 0 0 1 1.972.469q.983.344 1.715 1.011c.484.446.856.965 1.113 1.57.258.602.387 1.235.387 1.887v.243h-2.457v-.168q0-.554-.207-1.07a2.7 2.7 0 0 0-.617-.923 3.1 3.1 0 0 0-.938-.62 4 4 0 0 0-1.113-.317v6.332c.453.148.895.324 1.324.512q.664.286 1.262.648a8.6 8.6 0 0 1 1.148.817 5 5 0 0 1 .922 1.011q.4.562.63 1.211.224.65.226 1.313-.001.634-.196 1.27a4.7 4.7 0 0 1-.55 1.163 4.4 4.4 0 0 1-.871.95 5.6 5.6 0 0 1-1.133.695 6.5 6.5 0 0 1-1.274.453q-.665.155-1.343.227v3.792zm.148-14.742v-5.652a5.6 5.6 0 0 0-1.082.273 2.9 2.9 0 0 0-.921.559c-.262.242-.465.523-.618.848s-.222.66-.222 1.011c0 .344.082.68.258 1.012.168.332.386.617.644.86q.4.362.906.636c.332.172.68.324 1.035.453m2.02 8.895c.395-.047.777-.14 1.133-.27.363-.129.683-.308.969-.531q.433-.344.695-.86.272-.51.273-1.042-.002-.557-.273-1.075a3.2 3.2 0 0 0-.727-.906 4.2 4.2 0 0 0-.972-.617 11 11 0 0 0-1.098-.453zm-9.89-23.813"/></svg>