<?xml version="1.0" encoding="UTF-8"?>
<svg height="128px" viewBox="0 0 128 128" width="128px" xmlns="http://www.w3.org/2000/svg" xmlns:xlink="http://www.w3.org/1999/xlink">
    <filter id="a" height="100%" width="100%" x="0%" y="0%">
        <feColorMatrix color-interpolation-filters="sRGB" values="0 0 0 0 1 0 0 0 0 1 0 0 0 0 1 0 0 0 1 0"/>
    </filter>
    <linearGradient id="b" gradientUnits="userSpaceOnUse" x1="11.999989" x2="115.999992" y1="64" y2="64">
        <stop offset="0" stop-color="#3d3846"/>
        <stop offset="0.05" stop-color="#77767b"/>
        <stop offset="0.1" stop-color="#5e5c64"/>
        <stop offset="0.899999" stop-color="#45434d"/>
        <stop offset="0.95" stop-color="#77767b"/>
        <stop offset="1" stop-color="#3d3846"/>
    </linearGradient>
    <linearGradient id="c" gradientUnits="userSpaceOnUse" x1="12" x2="112.041023" y1="60" y2="80.988281">
        <stop offset="0" stop-color="#77767b"/>
        <stop offset="0.384443" stop-color="#9a9996"/>
        <stop offset="0.720567" stop-color="#77767b"/>
        <stop offset="1" stop-color="#68666f"/>
    </linearGradient>
    <clipPath id="d">
        <rect height="128" width="128"/>
    </clipPath>
    <clipPath id="e">
        <rect height="128" width="128"/>
    </clipPath>
    <mask id="f">
        <g filter="url(#a)">
            <g clip-path="url(#e)" filter="url(#a)">
                <g clip-path="url(#d)">
                    <path d="m 20 22 h 88 c 4.417969 0 8 3.582031 8 8 v 78 c 0 4.417969 -3.582031 8 -8 8 h -88 c -4.417969 0 -8 -3.582031 -8 -8 v -78 c 0 -4.417969 3.582031 -8 8 -8 z m 0 0" fill="url(#b)"/>
                    <path d="m 20 12 h 88 c 4.417969 0 8 3.582031 8 8 v 80 c 0 4.417969 -3.582031 8 -8 8 h -88 c -4.417969 0 -8 -3.582031 -8 -8 v -80 c 0 -4.417969 3.582031 -8 8 -8 z m 0 0" fill="url(#c)"/>
                    <path d="m 20 14 h 88 c 3.3125 0 6 2.6875 6 6 v 80 c 0 3.3125 -2.6875 6 -6 6 h -88 c -3.3125 0 -6 -2.6875 -6 -6 v -80 c 0 -3.3125 2.6875 -6 6 -6 z m 0 0" fill="#1a1f32"/>
                    <path d="m 51.167969 69.171875 v 6.414063 h 25.664062 v -6.414063 z m 0 0" fill="#fffeff"/>
                    <path d="m 30.996094 63.914062 v -6.070312 c -0.734375 -0.0625 -1.464844 -0.175781 -2.199219 -0.347656 c -0.722656 -0.179688 -1.417969 -0.429688 -2.082031 -0.753906 c -0.660156 -0.332032 -1.273438 -0.734376 -1.84375 -1.210938 c -0.574219 -0.472656 -1.050782 -1 -1.4375 -1.585938 c -0.382813 -0.59375 -0.664063 -1.230468 -0.859375 -1.917968 c -0.183594 -0.683594 -0.273438 -1.378906 -0.273438 -2.085938 v -0.40625 h 3.945313 v 0.273438 c 0 0.59375 0.121094 1.1875 0.371094 1.78125 c 0.257812 0.585937 0.621093 1.085937 1.097656 1.511718 c 0.472656 0.414063 1.011718 0.738282 1.617187 0.980469 c 0.601563 0.234375 1.234375 0.390625 1.90625 0.46875 v -10.332031 c -1.046875 -0.382812 -2.070312 -0.824219 -3.070312 -1.328125 c -1.003907 -0.503906 -1.90625 -1.121094 -2.714844 -1.84375 c -0.800781 -0.726563 -1.445313 -1.5625 -1.941406 -2.523437 c -0.484375 -0.964844 -0.726563 -1.96875 -0.726563 -3.003907 c 0 -1.007812 0.203125 -1.984375 0.613282 -2.933593 c 0.410156 -0.941407 1.007812 -1.753907 1.796874 -2.429688 c 0.792969 -0.683594 1.699219 -1.203125 2.714844 -1.558594 c 1.007813 -0.359375 2.039063 -0.578125 3.085938 -0.664062 v -6.175782 h 3.703125 v 6.132813 c 1.074219 0.113281 2.136719 0.355469 3.183593 0.722656 c 1.039063 0.375 1.953126 0.917969 2.730469 1.632813 c 0.773438 0.707031 1.363281 1.546875 1.777344 2.523437 c 0.40625 0.976563 0.613281 1.984375 0.613281 3.019531 v 0.394532 h -3.941406 v -0.273438 c 0 -0.582031 -0.113281 -1.15625 -0.339844 -1.722656 c -0.21875 -0.5625 -0.542968 -1.050781 -0.96875 -1.464844 c -0.421875 -0.410156 -0.917968 -0.742187 -1.488281 -0.996094 c -0.574219 -0.25 -1.175781 -0.421874 -1.8125 -0.515624 v 10.167968 c 0.734375 0.234375 1.445313 0.503906 2.136719 0.816406 c 0.699218 0.3125 1.371094 0.660157 2.019531 1.042969 c 0.652344 0.382813 1.265625 0.808594 1.824219 1.28125 c 0.570312 0.476563 1.070312 1.019531 1.503906 1.632813 c 0.429688 0.605468 0.765625 1.253906 1.003906 1.949218 c 0.234375 0.695313 0.355469 1.398438 0.355469 2.113282 c 0 0.675781 -0.105469 1.34375 -0.308594 2.007812 c -0.207031 0.667969 -0.5 1.292969 -0.886719 1.875 c -0.382812 0.574219 -0.851562 1.082032 -1.40625 1.523438 c -0.550781 0.449218 -1.148437 0.824218 -1.796874 1.136718 c -0.644532 0.3125 -1.324219 0.550782 -2.035157 0.707032 c -0.710937 0.164062 -1.433593 0.289062 -2.164062 0.378906 v 6.070312 z m 0.242187 -23.652343 v -9.050781 c -0.605469 0.09375 -1.1875 0.242187 -1.746093 0.453124 c -0.546876 0.207032 -1.042969 0.496094 -1.46875 0.878907 c -0.421876 0.382812 -0.757813 0.835937 -1.003907 1.359375 c -0.238281 0.511718 -0.355469 1.050781 -0.355469 1.617187 c 0 0.566407 0.132813 1.113281 0.40625 1.644531 c 0.265626 0.535157 0.617188 0.992188 1.050782 1.375 c 0.425781 0.386719 0.910156 0.71875 1.453125 0.996094 c 0.535156 0.285156 1.089843 0.527344 1.664062 0.726563 z m 3.214844 14.289062 c 0.636719 -0.078125 1.246094 -0.21875 1.828125 -0.421875 c 0.589844 -0.210937 1.113281 -0.503906 1.566406 -0.878906 c 0.460938 -0.367188 0.832032 -0.828125 1.117188 -1.375 c 0.289062 -0.550781 0.4375 -1.105469 0.4375 -1.660156 c 0 -0.59375 -0.15625 -1.171875 -0.453125 -1.738282 c -0.304688 -0.5625 -0.691407 -1.039062 -1.164063 -1.433593 c -0.476562 -0.398438 -1 -0.734375 -1.570312 -0.996094 c -0.570313 -0.273437 -1.15625 -0.515625 -1.761719 -0.726563 z m -15.851563 -38.199219" fill="#fffeff"/>
                </g>
            </g>
        </g>
    </mask>
    <mask id="g">
        <g filter="url(#a)">
            <rect fill-opacity="0.8" height="184.32" width="184.32" x="-28.16" y="-28.16"/>
        </g>
    </mask>
    <linearGradient id="h" gradientTransform="matrix(0 0.37 -0.98462 0 295.38501 -30.360001)" gradientUnits="userSpaceOnUse" x1="300" x2="428" y1="235" y2="235">
        <stop offset="0" stop-color="#f9f06b"/>
        <stop offset="1" stop-color="#f5c211"/>
    </linearGradient>
    <clipPath id="i">
        <rect height="128" width="128"/>
    </clipPath>
    <clipPath id="j">
        <rect height="128" width="128"/>
    </clipPath>
    <path d="m 20 22 h 88 c 4.417969 0 8 3.582031 8 8 v 78 c 0 4.417969 -3.582031 8 -8 8 h -88 c -4.417969 0 -8 -3.582031 -8 -8 v -78 c 0 -4.417969 3.582031 -8 8 -8 z m 0 0" fill="url(#b)"/>
    <path d="m 20 12 h 88 c 4.417969 0 8 3.582031 8 8 v 80 c 0 4.417969 -3.582031 8 -8 8 h -88 c -4.417969 0 -8 -3.582031 -8 -8 v -80 c 0 -4.417969 3.582031 -8 8 -8 z m 0 0" fill="url(#c)"/>
    <path d="m 20 14 h 88 c 3.3125 0 6 2.6875 6 6 v 80 c 0 3.3125 -2.6875 6 -6 6 h -88 c -3.3125 0 -6 -2.6875 -6 -6 v -80 c 0 -3.3125 2.6875 -6 6 -6 z m 0 0" fill="#1a1f32"/>
    <path d="m 51.167969 69.171875 v 6.414063 h 25.664062 v -6.414063 z m 0 0" fill="#fffeff"/>
    <path d="m 30.996094 63.914062 v -6.070312 c -0.734375 -0.0625 -1.464844 -0.175781 -2.199219 -0.347656 c -0.722656 -0.179688 -1.417969 -0.429688 -2.082031 -0.753906 c -0.660156 -0.332032 -1.273438 -0.734376 -1.84375 -1.210938 c -0.574219 -0.472656 -1.050782 -1 -1.4375 -1.585938 c -0.382813 -0.59375 -0.664063 -1.230468 -0.859375 -1.917968 c -0.183594 -0.683594 -0.273438 -1.378906 -0.273438 -2.085938 v -0.40625 h 3.945313 v 0.273438 c 0 0.59375 0.121094 1.1875 0.371094 1.78125 c 0.257812 0.585937 0.621093 1.085937 1.097656 1.511718 c 0.472656 0.414063 1.011718 0.738282 1.617187 0.980469 c 0.601563 0.234375 1.234375 0.390625 1.90625 0.46875 v -10.332031 c -1.046875 -0.382812 -2.070312 -0.824219 -3.070312 -1.328125 c -1.003907 -0.503906 -1.90625 -1.121094 -2.714844 -1.84375 c -0.800781 -0.726563 -1.445313 -1.5625 -1.941406 -2.523437 c -0.484375 -0.964844 -0.726563 -1.96875 -0.726563 -3.003907 c 0 -1.007812 0.203125 -1.984375 0.613282 -2.933593 c 0.410156 -0.941407 1.007812 -1.753907 1.796874 -2.429688 c 0.792969 -0.683594 1.699219 -1.203125 2.714844 -1.558594 c 1.007813 -0.359375 2.039063 -0.578125 3.085938 -0.664062 v -6.175782 h 3.703125 v 6.132813 c 1.074219 0.113281 2.136719 0.355469 3.183593 0.722656 c 1.039063 0.375 1.953126 0.917969 2.730469 1.632813 c 0.773438 0.707031 1.363281 1.546875 1.777344 2.523437 c 0.40625 0.976563 0.613281 1.984375 0.613281 3.019531 v 0.394532 h -3.941406 v -0.273438 c 0 -0.582031 -0.113281 -1.15625 -0.339844 -1.722656 c -0.21875 -0.5625 -0.542968 -1.050781 -0.96875 -1.464844 c -0.421875 -0.410156 -0.917968 -0.742187 -1.488281 -0.996094 c -0.574219 -0.25 -1.175781 -0.421874 -1.8125 -0.515624 v 10.167968 c 0.734375 0.234375 1.445313 0.503906 2.136719 0.816406 c 0.699218 0.3125 1.371094 0.660157 2.019531 1.042969 c 0.652344 0.382813 1.265625 0.808594 1.824219 1.28125 c 0.570312 0.476563 1.070312 1.019531 1.503906 1.632813 c 0.429688 0.605468 0.765625 1.253906 1.003906 1.949218 c 0.234375 0.695313 0.355469 1.398438 0.355469 2.113282 c 0 0.675781 -0.105469 1.34375 -0.308594 2.007812 c -0.207031 0.667969 -0.5 1.292969 -0.886719 1.875 c -0.382812 0.574219 -0.851562 1.082032 -1.40625 1.523438 c -0.550781 0.449218 -1.148437 0.824218 -1.796874 1.136718 c -0.644532 0.3125 -1.324219 0.550782 -2.035157 0.707032 c -0.710937 0.164062 -1.433593 0.289062 -2.164062 0.378906 v 6.070312 z m 0.242187 -23.652343 v -9.050781 c -0.605469 0.09375 -1.1875 0.242187 -1.746093 0.453124 c -0.546876 0.207032 -1.042969 0.496094 -1.46875 0.878907 c -0.421876 0.382812 -0.757813 0.835937 -1.003907 1.359375 c -0.238281 0.511718 -0.355469 1.050781 -0.355469 1.617187 c 0 0.566407 0.132813 1.113281 0.40625 1.644531 c 0.265626 0.535157 0.617188 0.992188 1.050782 1.375 c 0.425781 0.386719 0.910156 0.71875 1.453125 0.996094 c 0.535156 0.285156 1.089843 0.527344 1.664062 0.726563 z m 3.214844 14.289062 c 0.636719 -0.078125 1.246094 -0.21875 1.828125 -0.421875 c 0.589844 -0.210937 1.113281 -0.503906 1.566406 -0.878906 c 0.460938 -0.367188 0.832032 -0.828125 1.117188 -1.375 c 0.289062 -0.550781 0.4375 -1.105469 0.4375 -1.660156 c 0 -0.59375 -0.15625 -1.171875 -0.453125 -1.738282 c -0.304688 -0.5625 -0.691407 -1.039062 -1.164063 -1.433593 c -0.476562 -0.398438 -1 -0.734375 -1.570312 -0.996094 c -0.570313 -0.273437 -1.15625 -0.515625 -1.761719 -0.726563 z m -15.851563 -38.199219" fill="#fffeff"/>
    <g mask="url(#f)">
        <g clip-path="url(#j)">
            <g mask="url(#g)">
                <g clip-path="url(#i)">
                    <path d="m 128 80.640625 v 47.359375 h -128 v -47.359375 z m 0 0" fill="url(#h)"/>
                    <path d="m 13.308594 80.640625 l 47.355468 47.359375 h 21.214844 l -47.359375 -47.359375 z m 42.421875 0 l 47.363281 47.359375 h 21.214844 l -47.363282 -47.359375 z m 42.429687 0 l 29.839844 29.839844 v -21.210938 l -8.628906 -8.628906 z m -98.160156 7.90625 v 21.214844 l 18.238281 18.238281 h 21.214844 z m 0 0"/>
                </g>
            </g>
        </g>
    </g>
</svg>
