<?xml version="1.0" encoding="UTF-8" standalone="no"?>
<svg
   width="128"
   height="128"
   version="1.1"
   id="svg22"
   xml:space="preserve"
   sodipodi:docname="still-terminal-cube-hexagon-subtle-gradient.svg"
   inkscape:export-filename="still-terminal-cube-hexagon-subtle-gradient-dark-blue.png"
   inkscape:export-xdpi="96"
   inkscape:export-ydpi="96"
   xmlns:inkscape="http://www.inkscape.org/namespaces/inkscape"
   xmlns:sodipodi="http://sodipodi.sourceforge.net/DTD/sodipodi-0.dtd"
   xmlns="http://www.w3.org/2000/svg"
   xmlns:svg="http://www.w3.org/2000/svg"><sodipodi:namedview
     id="namedview1"
     pagecolor="#ffffff"
     bordercolor="#000000"
     borderopacity="0.25"
     inkscape:showpageshadow="2"
     inkscape:pageopacity="0.0"
     inkscape:pagecheckerboard="0"
     inkscape:deskcolor="#d1d1d1"><inkscape:page
       x="0"
       y="0"
       width="128"
       height="128"
       id="page2"
       margin="0"
       bleed="0" /></sodipodi:namedview><defs
     id="defs22" /><linearGradient
     id="a"
     x1="12"
     x2="116"
     y1="64"
     y2="64"
     gradientUnits="userSpaceOnUse"><stop
       offset="0"
       stop-color="#3d3846"
       id="stop1" /><stop
       offset=".05"
       stop-color="#77767b"
       id="stop2" /><stop
       offset=".1"
       stop-color="#5e5c64"
       id="stop3" /><stop
       offset=".9"
       stop-color="#45434d"
       id="stop4" /><stop
       offset=".95"
       stop-color="#77767b"
       id="stop5" /><stop
       offset="1"
       stop-color="#3d3846"
       id="stop6" /></linearGradient><linearGradient
     id="b"
     x1="12"
     x2="112.041"
     y1="60"
     y2="80.987999"
     gradientUnits="userSpaceOnUse"
     gradientTransform="translate(7.1636267,49.732101)"><stop
       offset="0"
       stop-color="#77767b"
       id="stop7" /><stop
       offset=".384"
       stop-color="#9a9996"
       id="stop8" /><stop
       offset=".721"
       stop-color="#77767b"
       id="stop9" /><stop
       offset="1"
       stop-color="#68666f"
       id="stop10" /></linearGradient><linearGradient
     id="c"
     x1="13.07"
     x2="117.07"
     y1="55.686001"
     y2="55.686001"
     gradientUnits="userSpaceOnUse"><stop
       offset="0"
       stop-color="#3d3846"
       id="stop11" /><stop
       offset="0.06897929"
       stop-color="#77767b"
       id="stop12" /><stop
       offset="0.16062427"
       stop-color="#5e5c64"
       id="stop13" /><stop
       offset=".534"
       stop-color="#45434d"
       id="stop14" /><stop
       offset="0.91482955"
       stop-color="#77767b"
       id="stop15" /><stop
       offset="1"
       stop-color="#3d3846"
       id="stop16" /></linearGradient><path
     style="fill:#1a1f32;fill-opacity:1;fill-rule:evenodd;stroke-width:0.0891712"
     id="path2"
     d="M 111.90222,89.598436 64.069551,117.61327 15.891662,90.196371 15.546444,34.764647 63.379116,6.7498176 111.55701,34.166712 Z" /><path
     fill="#1a1f32"
     d="M 64.221619,19.923768 87.19793,32.322353 c 2.915584,1.573321 8.396261,3.791148 8.479717,7.102096 l 0.964334,38.258099 c 0.06436,2.553515 -30.847906,19.677979 -31.485979,19.362919 L 56.506944,92.774843 C 53.537234,91.308497 29.023638,80.717465 29.153826,77.407024 l 1.515382,-38.533623"
     id="path18"
     style="fill:#1a1f32;fill-opacity:1" /><path
     id="path3"
     style="fill:#131526;fill-opacity:1;fill-rule:evenodd;stroke-width:0.5"
     d="M 97.146484,37.638672 29.722656,79.015625 64.070312,117.61328 111.73047,90.095703 V 57.994141 Z" /><path
     style="fill:#1a1f32;fill-opacity:1;fill-rule:evenodd;stroke-width:0.0487062"
     d="M 57.52048,93.275294 C 56.506944,92.774843 33.189533,78.626699 32.531,77.481 l -0.05846,-0.101702 2.21301,-3.713318 c 33.340268,-25.948053 8.773888,-13.586247 25.837495,-13.903423 0.04266,-7.93e-4 1.462189,0.467617 1.462189,0.467617 l 0.281132,1.19779 0.444401,15.568257 c 0.31447,11.016502 -0.663685,15.332395 -0.743025,15.524492 -0.226661,0.548619 -2.823732,1.556227 -3.4241,1.259785 z"
     id="path4" /><path
     fill="#fffeff"
     d="m 39.027,53.285 v 6.594 L 50.29,70.832 39.028,68.891 v 6.593 l 17.25,1.676 v -5.633 z m 0,0"
     id="path19" /><path
     style="fill:#1a1f32;fill-opacity:1;fill-rule:evenodd;stroke-width:0.0487062"
     d="m 67.057588,92.44448 c 0,0 -0.80421,-0.01707 -0.865975,-0.166572 -0.08355,-0.202227 -0.898035,-4.356783 -0.586046,-15.803201 l 0.421856,-15.477274 0.195705,-1.124225 c 0.05661,-0.325221 0.47272,-0.72333 0.62187,-0.864755 0.14915,-0.141426 4.307508,-3.035383 9.477676,-6.019156 5.170167,-2.983774 11.235194,-6.647548 13.358778,-7.873837 2.2641,-1.307431 4.450343,-2.083496 4.595266,-2.083496 0.135928,0 1.17706,0.820644 1.137744,1.03246 l 0.39347,0.528824 0.39258,15.574864 0.389739,15.462144 0.02648,1.050709 c 0,0 -1.091112,0.811139 -1.313642,1.003126 -0.22253,0.191989 -3.690124,4.645963 -9.905041,8.234532 -15.511375,8.956461 -17.551633,7.086487 -17.769442,7.082083 -0.107153,-0.0022 -0.656263,-0.06916 -0.656263,-0.06916 z"
     id="path5" /><path
     fill="#4b4953"
     d="m 63.254,18.48 c -1.504,0 -2.98,0.399 -4.281,1.149 L 32.086,35.152 a 8.57,8.57 0 0 0 -4.281,7.418 v 31.043 a 8.57,8.57 0 0 0 4.28,7.418 l 26.888,15.524 a 8.58,8.58 0 0 0 8.566,0 L 94.422,81.03 a 8.57,8.57 0 0 0 4.285,-7.418 V 42.57 A 8.56,8.56 0 0 0 94.422,35.152 L 67.539,19.63 a 8.6,8.6 0 0 0 -4.285,-1.149 m -0.496,2.97 a 2.86,2.86 0 0 1 1.926,0.34 l 26,15.01 a 0.953,0.953 0 0 1 0,1.65 l -26,15.007 a 2.85,2.85 0 0 1 -2.856,0 l -26,-15.008 a 0.953,0.953 0 0 1 0,-1.648 l 26,-15.012 q 0.436,-0.252 0.93,-0.34 M 31.89,44.046 a 1,1 0 0 1 0.64,0.113 l 26,15.012 c 0.883,0.512 2.309,1.453 2.309,2.473 v 30.02 c 0,0.733 -1.676,1.19 -2.309,0.827 l -26,-15.012 A 2.86,2.86 0 0 1 31.1,75.007 V 44.984 c 0,-0.46 0.333,-0.855 0.79,-0.937 m 62.73,0 a 0.955,0.955 0 0 1 0.785,0.937 v 30.024 c 0,1.02 -0.543,1.96 -1.426,2.472 l -26,15.012 a 0.953,0.953 0 0 1 -1.425,-0.828 v -30.02 c 0,-1.019 0.543,-1.96 1.425,-2.472 l 26,-15.012 a 0.98,0.98 0 0 1 0.641,-0.113 m 0,0"
     id="path20" /><path
     fill="#fffeff"
     d="M 92.785,74.043 V 67.211 L 69.938,80.402 v 6.836 z m 0,0"
     id="path21" /><path
     fill="url(#c)"
     d="m 63.254,18.48 c -1.504,0 -2.98,0.399 -4.281,1.149 L 32.09,35.152 a 8.56,8.56 0 0 0 -4.285,7.418 v 31.043 a 8.57,8.57 0 0 0 4.285,7.418 l 26.883,15.524 a 8.58,8.58 0 0 0 8.566,0 L 94.422,81.03 a 8.57,8.57 0 0 0 4.285,-7.418 V 42.57 A 8.56,8.56 0 0 0 94.422,35.152 L 67.539,19.63 a 8.6,8.6 0 0 0 -4.285,-1.149 m 0.004,2.926 c 0.496,0 0.988,0.133 1.426,0.383 l 26,15.012 a 0.953,0.953 0 0 1 0,1.648 l -26,15.008 a 2.85,2.85 0 0 1 -2.856,0 l -26,-15.008 a 0.953,0.953 0 0 1 0,-1.648 l 26,-15.012 a 2.8,2.8 0 0 1 1.43,-0.383 m -31.203,22.63 q 0.253,0 0.476,0.124 l 26,15.012 c 0.883,0.512 2.313,1.453 2.313,2.473 v 30.023 c -0.004,0.73 -1.68,1.187 -2.313,0.824 l -26,-15.012 a 2.85,2.85 0 0 1 -1.43,-2.472 V 44.984 c 0,-0.46 0.333,-0.855 0.79,-0.937 q 0.081,-0.012 0.164,-0.012 m 62.402,0 q 0.083,0 0.164,0.01 a 0.96,0.96 0 0 1 0.79,0.938 v 30.024 c 0,1.02 -0.548,1.96 -1.43,2.472 l -26,15.012 A 0.952,0.952 0 0 1 66.555,91.667 V 61.645 c 0,-1.02 0.543,-1.961 1.425,-2.473 l 26,-15.012 a 1,1 0 0 1 0.477,-0.125 m 0,0"
     style="fill:url(#c)"
     id="path22" /></svg>
