<svg xmlns="http://www.w3.org/2000/svg" width="128" height="128"><linearGradient id="a" x1="12" x2="116" y1="64" y2="64" gradientUnits="userSpaceOnUse"><stop offset="0" stop-color="#3d3846"/><stop offset=".05" stop-color="#77767b"/><stop offset=".1" stop-color="#5e5c64"/><stop offset=".9" stop-color="#45434d"/><stop offset=".95" stop-color="#77767b"/><stop offset="1" stop-color="#3d3846"/></linearGradient><linearGradient id="b" x1="12" x2="112.041" y1="60" y2="80.988" gradientUnits="userSpaceOnUse"><stop offset="0" stop-color="#77767b"/><stop offset=".384" stop-color="#9a9996"/><stop offset=".721" stop-color="#77767b"/><stop offset="1" stop-color="#68666f"/></linearGradient><path fill="url(#a)" d="M20 22h88a8 8 0 0 1 8 8v78a8 8 0 0 1-8 8H20a8 8 0 0 1-8-8V30a8 8 0 0 1 8-8m0 0"/><path fill="url(#b)" d="M20 12h88a8 8 0 0 1 8 8v80a8 8 0 0 1-8 8H20a8 8 0 0 1-8-8V20a8 8 0 0 1 8-8m0 0"/><path fill="#1a1f32" d="M20 14h88c3.313 0 6 2.688 6 6v80a6 6 0 0 1-6 6H20c-3.312 0-6-2.687-6-6V20c0-3.312 2.688-6 6-6m0 0"/><path fill="#fffeff" d="M51.168 69.172v6.414h25.664v-6.414zm-20.172-5.258v-6.07a15 15 0 0 1-2.2-.348q-1.084-.269-2.081-.754a9.6 9.6 0 0 1-1.844-1.21 7.1 7.1 0 0 1-1.437-1.587 7 7 0 0 1-.86-1.918 8 8 0 0 1-.273-2.086v-.406h3.945v.274q-.002.89.371 1.78a4.3 4.3 0 0 0 1.098 1.513 5.6 5.6 0 0 0 1.617.98 7.7 7.7 0 0 0 1.906.469V44.219a29 29 0 0 1-3.07-1.328 12.4 12.4 0 0 1-2.715-1.844 8.9 8.9 0 0 1-1.941-2.524 6.6 6.6 0 0 1-.727-3.003q-.001-1.511.613-2.934a6.7 6.7 0 0 1 1.797-2.43 8.3 8.3 0 0 1 2.715-1.558c1.008-.36 2.04-.578 3.086-.664v-6.176H34.7v6.133q1.612.17 3.184.722a8 8 0 0 1 2.73 1.633 7.2 7.2 0 0 1 1.778 2.524 7.8 7.8 0 0 1 .613 3.02v.394h-3.941v-.274q0-.873-.34-1.722a4.1 4.1 0 0 0-.97-1.465 5.1 5.1 0 0 0-1.487-.996 7 7 0 0 0-1.813-.516v10.168q1.1.35 2.137.816c.7.313 1.37.66 2.02 1.043.652.383 1.265.809 1.824 1.282q.854.714 1.504 1.632.645.907 1.003 1.95.354 1.042.356 2.113c0 .676-.106 1.344-.309 2.008a7.2 7.2 0 0 1-.886 1.875 6.7 6.7 0 0 1-1.407 1.523c-.55.45-1.148.824-1.797 1.137a9.2 9.2 0 0 1-2.035.707q-1.066.245-2.164.379v6.07zm.242-23.652V31.21a8.7 8.7 0 0 0-1.746.453 4.6 4.6 0 0 0-1.469.879 4.3 4.3 0 0 0-1.003 1.36 3.8 3.8 0 0 0-.356 1.617q-.002.848.406 1.644a4.5 4.5 0 0 0 1.051 1.375q.639.58 1.453.996.803.428 1.664.727m3.215 14.289a8.8 8.8 0 0 0 1.828-.422 5.2 5.2 0 0 0 1.567-.879c.46-.367.832-.828 1.117-1.375q.435-.826.437-1.66c0-.594-.156-1.172-.453-1.738a4.9 4.9 0 0 0-1.164-1.434c-.476-.398-1-.734-1.57-.996a17 17 0 0 0-1.762-.727zm-15.851-38.2"/></svg>