<?xml version="1.0" encoding="UTF-8"?>
<svg height="128px" viewBox="0 0 128 128" width="128px" xmlns="http://www.w3.org/2000/svg" xmlns:xlink="http://www.w3.org/1999/xlink">
    <filter id="a" height="100%" width="100%" x="0%" y="0%">
        <feColorMatrix color-interpolation-filters="sRGB" values="0 0 0 0 1 0 0 0 0 1 0 0 0 0 1 0 0 0 1 0"/>
    </filter>
    <linearGradient id="b" gradientUnits="userSpaceOnUse" x1="11.999989" x2="115.999992" y1="64" y2="64">
        <stop offset="0" stop-color="#3d3846"/>
        <stop offset="0.05" stop-color="#77767b"/>
        <stop offset="0.1" stop-color="#5e5c64"/>
        <stop offset="0.899999" stop-color="#45434d"/>
        <stop offset="0.95" stop-color="#77767b"/>
        <stop offset="1" stop-color="#3d3846"/>
    </linearGradient>
    <linearGradient id="c" gradientUnits="userSpaceOnUse" x1="12" x2="112.041023" y1="60" y2="80.988281">
        <stop offset="0" stop-color="#77767b"/>
        <stop offset="0.384443" stop-color="#9a9996"/>
        <stop offset="0.720567" stop-color="#77767b"/>
        <stop offset="1" stop-color="#68666f"/>
    </linearGradient>
    <clipPath id="d">
        <rect height="128" width="128"/>
    </clipPath>
    <clipPath id="e">
        <rect height="128" width="128"/>
    </clipPath>
    <mask id="f">
        <g filter="url(#a)">
            <g clip-path="url(#e)" filter="url(#a)">
                <g clip-path="url(#d)">
                    <path d="m 20 22 h 88 c 4.417969 0 8 3.582031 8 8 v 78 c 0 4.417969 -3.582031 8 -8 8 h -88 c -4.417969 0 -8 -3.582031 -8 -8 v -78 c 0 -4.417969 3.582031 -8 8 -8 z m 0 0" fill="url(#b)"/>
                    <path d="m 20 12 h 88 c 4.417969 0 8 3.582031 8 8 v 80 c 0 4.417969 -3.582031 8 -8 8 h -88 c -4.417969 0 -8 -3.582031 -8 -8 v -80 c 0 -4.417969 3.582031 -8 8 -8 z m 0 0" fill="url(#c)"/>
                    <path d="m 20 14 h 88 c 3.3125 0 6 2.6875 6 6 v 80 c 0 3.3125 -2.6875 6 -6 6 h -88 c -3.3125 0 -6 -2.6875 -6 -6 v -80 c 0 -3.3125 2.6875 -6 6 -6 z m 0 0" fill="#1a1f32"/>
                    <path d="m 50 56 v 4 h 16 v -4 z m 0 0" fill="#fffeff"/>
                    <path d="m 37.414062 52.730469 v -3.792969 c -0.449218 -0.039062 -0.902343 -0.113281 -1.355468 -0.226562 c -0.453125 -0.109376 -0.890625 -0.265626 -1.308594 -0.46875 c -0.414062 -0.199219 -0.792969 -0.445313 -1.148438 -0.738282 c -0.355468 -0.304687 -0.65625 -0.636718 -0.890624 -0.996094 c -0.238282 -0.371093 -0.414063 -0.773437 -0.53125 -1.195312 c -0.121094 -0.421875 -0.179688 -0.851562 -0.179688 -1.300781 v -0.253907 h 2.457031 v 0.164063 c 0 0.375 0.074219 0.75 0.226563 1.117187 c 0.164062 0.363282 0.390625 0.675782 0.679687 0.9375 c 0.300781 0.265626 0.636719 0.46875 1.019531 0.621094 c 0.375 0.140625 0.765626 0.238282 1.179688 0.285156 v -6.433593 c -0.648438 -0.242188 -1.285156 -0.519531 -1.910156 -0.832031 c -0.625 -0.308594 -1.191406 -0.695313 -1.695313 -1.148438 c -0.496093 -0.453125 -0.902343 -0.972656 -1.210937 -1.570312 c -0.304688 -0.605469 -0.453125 -1.226563 -0.453125 -1.871094 c 0 -0.636719 0.128906 -1.242188 0.386719 -1.828125 c 0.257812 -0.59375 0.632812 -1.105469 1.117187 -1.527344 c 0.492187 -0.421875 1.058594 -0.742187 1.695313 -0.964844 c 0.636718 -0.21875 1.277343 -0.363281 1.921874 -0.425781 v -3.835938 h 2.3125 v 3.808594 c 0.667969 0.082032 1.324219 0.238282 1.972657 0.46875 c 0.65625 0.230469 1.226562 0.566406 1.714843 1.011719 c 0.484376 0.445313 0.855469 0.964844 1.113282 1.570313 c 0.257812 0.601562 0.386718 1.234374 0.386718 1.886718 v 0.242188 h -2.457031 v -0.167969 c 0 -0.367187 -0.070312 -0.726563 -0.207031 -1.070313 c -0.144531 -0.351562 -0.347656 -0.65625 -0.617188 -0.921874 c -0.269531 -0.261719 -0.582031 -0.46875 -0.9375 -0.621094 c -0.347656 -0.15625 -0.71875 -0.261719 -1.113281 -0.316406 v 6.332031 c 0.453125 0.148437 0.894531 0.324219 1.324219 0.511719 c 0.441406 0.191406 0.863281 0.40625 1.261719 0.648437 c 0.40625 0.242187 0.792969 0.515625 1.148437 0.816406 c 0.355469 0.296875 0.660156 0.632813 0.921875 1.011719 c 0.265625 0.375 0.476563 0.777344 0.628907 1.210938 c 0.148437 0.433593 0.226562 0.871093 0.226562 1.3125 c 0 0.421874 -0.066406 0.847656 -0.195312 1.269531 c -0.128907 0.414062 -0.316407 0.800781 -0.550782 1.164062 c -0.238281 0.351563 -0.527344 0.671875 -0.871094 0.949219 c -0.347656 0.273438 -0.722656 0.507812 -1.132812 0.695312 c -0.398438 0.191407 -0.824219 0.34375 -1.273438 0.453126 c -0.445312 0.101562 -0.890624 0.179687 -1.34375 0.226562 v 3.792969 z m 0.148438 -14.742188 v -5.652343 c -0.367188 0.054687 -0.726562 0.144531 -1.082031 0.273437 c -0.347657 0.132813 -0.65625 0.316406 -0.921875 0.558594 c -0.261719 0.242187 -0.464844 0.523437 -0.617188 0.847656 s -0.222656 0.660156 -0.222656 1.011719 c 0 0.34375 0.082031 0.679687 0.257812 1.011718 c 0.167969 0.332032 0.386719 0.617188 0.644532 0.859376 c 0.265625 0.242187 0.570312 0.453124 0.90625 0.636718 c 0.332031 0.171875 0.679687 0.324219 1.035156 0.453125 z m 2.019531 8.894531 c 0.394531 -0.046874 0.777344 -0.140624 1.132813 -0.269531 c 0.363281 -0.128906 0.683594 -0.308593 0.96875 -0.53125 c 0.289062 -0.230469 0.519531 -0.515625 0.695312 -0.859375 c 0.179688 -0.339844 0.273438 -0.6875 0.273438 -1.042968 c 0 -0.371094 -0.09375 -0.730469 -0.273438 -1.074219 c -0.1875 -0.347657 -0.429687 -0.652344 -0.726562 -0.90625 c -0.292969 -0.246094 -0.617188 -0.457031 -0.972656 -0.617188 c -0.355469 -0.171875 -0.722657 -0.320312 -1.097657 -0.453125 z m -9.890625 -23.8125" fill="#fffeff"/>
                </g>
            </g>
        </g>
    </mask>
    <mask id="g">
        <g filter="url(#a)">
            <rect fill-opacity="0.8" height="184.32" width="184.32" x="-28.16" y="-28.16"/>
        </g>
    </mask>
    <linearGradient id="h" gradientTransform="matrix(0 0.37 -0.98462 0 295.38501 -30.360001)" gradientUnits="userSpaceOnUse" x1="300" x2="428" y1="235" y2="235">
        <stop offset="0" stop-color="#f9f06b"/>
        <stop offset="1" stop-color="#f5c211"/>
    </linearGradient>
    <clipPath id="i">
        <rect height="128" width="128"/>
    </clipPath>
    <clipPath id="j">
        <rect height="128" width="128"/>
    </clipPath>
    <path d="m 20 22 h 88 c 4.417969 0 8 3.582031 8 8 v 78 c 0 4.417969 -3.582031 8 -8 8 h -88 c -4.417969 0 -8 -3.582031 -8 -8 v -78 c 0 -4.417969 3.582031 -8 8 -8 z m 0 0" fill="url(#b)"/>
    <path d="m 20 12 h 88 c 4.417969 0 8 3.582031 8 8 v 80 c 0 4.417969 -3.582031 8 -8 8 h -88 c -4.417969 0 -8 -3.582031 -8 -8 v -80 c 0 -4.417969 3.582031 -8 8 -8 z m 0 0" fill="url(#c)"/>
    <path d="m 20 14 h 88 c 3.3125 0 6 2.6875 6 6 v 80 c 0 3.3125 -2.6875 6 -6 6 h -88 c -3.3125 0 -6 -2.6875 -6 -6 v -80 c 0 -3.3125 2.6875 -6 6 -6 z m 0 0" fill="#1a1f32"/>
    <path d="m 50 56 v 4 h 16 v -4 z m 0 0" fill="#fffeff"/>
    <path d="m 37.414062 52.730469 v -3.792969 c -0.449218 -0.039062 -0.902343 -0.113281 -1.355468 -0.226562 c -0.453125 -0.109376 -0.890625 -0.265626 -1.308594 -0.46875 c -0.414062 -0.199219 -0.792969 -0.445313 -1.148438 -0.738282 c -0.355468 -0.304687 -0.65625 -0.636718 -0.890624 -0.996094 c -0.238282 -0.371093 -0.414063 -0.773437 -0.53125 -1.195312 c -0.121094 -0.421875 -0.179688 -0.851562 -0.179688 -1.300781 v -0.253907 h 2.457031 v 0.164063 c 0 0.375 0.074219 0.75 0.226563 1.117187 c 0.164062 0.363282 0.390625 0.675782 0.679687 0.9375 c 0.300781 0.265626 0.636719 0.46875 1.019531 0.621094 c 0.375 0.140625 0.765626 0.238282 1.179688 0.285156 v -6.433593 c -0.648438 -0.242188 -1.285156 -0.519531 -1.910156 -0.832031 c -0.625 -0.308594 -1.191406 -0.695313 -1.695313 -1.148438 c -0.496093 -0.453125 -0.902343 -0.972656 -1.210937 -1.570312 c -0.304688 -0.605469 -0.453125 -1.226563 -0.453125 -1.871094 c 0 -0.636719 0.128906 -1.242188 0.386719 -1.828125 c 0.257812 -0.59375 0.632812 -1.105469 1.117187 -1.527344 c 0.492187 -0.421875 1.058594 -0.742187 1.695313 -0.964844 c 0.636718 -0.21875 1.277343 -0.363281 1.921874 -0.425781 v -3.835938 h 2.3125 v 3.808594 c 0.667969 0.082032 1.324219 0.238282 1.972657 0.46875 c 0.65625 0.230469 1.226562 0.566406 1.714843 1.011719 c 0.484376 0.445313 0.855469 0.964844 1.113282 1.570313 c 0.257812 0.601562 0.386718 1.234374 0.386718 1.886718 v 0.242188 h -2.457031 v -0.167969 c 0 -0.367187 -0.070312 -0.726563 -0.207031 -1.070313 c -0.144531 -0.351562 -0.347656 -0.65625 -0.617188 -0.921874 c -0.269531 -0.261719 -0.582031 -0.46875 -0.9375 -0.621094 c -0.347656 -0.15625 -0.71875 -0.261719 -1.113281 -0.316406 v 6.332031 c 0.453125 0.148437 0.894531 0.324219 1.324219 0.511719 c 0.441406 0.191406 0.863281 0.40625 1.261719 0.648437 c 0.40625 0.242187 0.792969 0.515625 1.148437 0.816406 c 0.355469 0.296875 0.660156 0.632813 0.921875 1.011719 c 0.265625 0.375 0.476563 0.777344 0.628907 1.210938 c 0.148437 0.433593 0.226562 0.871093 0.226562 1.3125 c 0 0.421874 -0.066406 0.847656 -0.195312 1.269531 c -0.128907 0.414062 -0.316407 0.800781 -0.550782 1.164062 c -0.238281 0.351563 -0.527344 0.671875 -0.871094 0.949219 c -0.347656 0.273438 -0.722656 0.507812 -1.132812 0.695312 c -0.398438 0.191407 -0.824219 0.34375 -1.273438 0.453126 c -0.445312 0.101562 -0.890624 0.179687 -1.34375 0.226562 v 3.792969 z m 0.148438 -14.742188 v -5.652343 c -0.367188 0.054687 -0.726562 0.144531 -1.082031 0.273437 c -0.347657 0.132813 -0.65625 0.316406 -0.921875 0.558594 c -0.261719 0.242187 -0.464844 0.523437 -0.617188 0.847656 s -0.222656 0.660156 -0.222656 1.011719 c 0 0.34375 0.082031 0.679687 0.257812 1.011718 c 0.167969 0.332032 0.386719 0.617188 0.644532 0.859376 c 0.265625 0.242187 0.570312 0.453124 0.90625 0.636718 c 0.332031 0.171875 0.679687 0.324219 1.035156 0.453125 z m 2.019531 8.894531 c 0.394531 -0.046874 0.777344 -0.140624 1.132813 -0.269531 c 0.363281 -0.128906 0.683594 -0.308593 0.96875 -0.53125 c 0.289062 -0.230469 0.519531 -0.515625 0.695312 -0.859375 c 0.179688 -0.339844 0.273438 -0.6875 0.273438 -1.042968 c 0 -0.371094 -0.09375 -0.730469 -0.273438 -1.074219 c -0.1875 -0.347657 -0.429687 -0.652344 -0.726562 -0.90625 c -0.292969 -0.246094 -0.617188 -0.457031 -0.972656 -0.617188 c -0.355469 -0.171875 -0.722657 -0.320312 -1.097657 -0.453125 z m -9.890625 -23.8125" fill="#fffeff"/>
    <g mask="url(#f)">
        <g clip-path="url(#j)">
            <g mask="url(#g)">
                <g clip-path="url(#i)">
                    <path d="m 128 80.640625 v 47.359375 h -128 v -47.359375 z m 0 0" fill="url(#h)"/>
                    <path d="m 13.308594 80.640625 l 47.355468 47.359375 h 21.214844 l -47.359375 -47.359375 z m 42.421875 0 l 47.363281 47.359375 h 21.214844 l -47.363282 -47.359375 z m 42.429687 0 l 29.839844 29.839844 v -21.210938 l -8.628906 -8.628906 z m -98.160156 7.90625 v 21.214844 l 18.238281 18.238281 h 21.214844 z m 0 0"/>
                </g>
            </g>
        </g>
    </g>
</svg>
