<svg xmlns="http://www.w3.org/2000/svg" xmlns:xlink="http://www.w3.org/1999/xlink" xml:space="preserve" id="Layer_1" width="960" height="960" x="0" y="0" version="1.1"><defs id="defs1"><linearGradient id="linearGradient1"><stop id="stop1" offset="0" style="stop-color:#a0b4cc;stop-opacity:1"/><stop id="stop2" offset="1" style="stop-color:#86aad2;stop-opacity:1"/></linearGradient><linearGradient xlink:href="#linearGradient1" id="linearGradient2" x1="414.912" x2="624.882" y1="241.058" y2="241.058" gradientUnits="userSpaceOnUse"/></defs><style id="style1" type="text/css">.st3{fill:#a67c52}</style><path id="polygon1" d="M270.7 460.8 480 380.7l209.3 80.1v134.3H270.7Z" style="fill:#254381;fill-opacity:1"/><path id="polygon6" d="M546.8 324.047 480 380.15l209.3 81.2 66.623-55.954a9.796 9.796 0 0 0-2.756-16.634l-178.65-69.308a27.58 27.58 0 0 0-27.716 4.593" class="st3" style="fill:#426dc8;fill-opacity:1"/><path id="polygon7" d="m480 380.7-209.3 81.2-71.392-59.958a6.11 6.11 0 0 1 1.72-10.377l187.316-72.671a22.4 22.4 0 0 1 22.505 3.73z" class="st3" style="fill:#426dc8;fill-opacity:1"/><path id="path9" fill="url(#a)" d="M880.308 439.032c54.349 0 98.408 44.06 98.408 98.408s-44.06 98.408-98.408 98.408-98.408-44.06-98.408-98.408 44.06-98.408 98.408-98.408m0 0" style="stroke-width:1.64013"/><path id="path10" fill="url(#b)" d="M880.308 439.032c-54.348 0-98.408 44.06-98.408 98.408s44.06 98.408 98.408 98.408zm0 0" style="stroke-width:1.64013"/><g id="path3172" style="stroke-miterlimit:0" transform="matrix(.29018 -.447 .36456 .29654 612.276 -103.815)"><path id="path3" d="M-815.11 230.18A241.43 241.43 0 0 1-649.513 95.579c73.109-16.713 142.82-3.688 200.621 44.096" style="baseline-shift:baseline;display:inline;overflow:visible;vector-effect:none;fill-opacity:0;stop-color:#000;stop-opacity:1"/></g><g id="path2395" style="stroke-miterlimit:0" transform="matrix(-.1408 .51375 -.43717 -.17186 483.938 816.179)"><path id="path6" d="M-813.973 223.86c31.297-68.151 91.352-111.569 164.46-128.281A241.43 241.43 0 0 1-441.88 144.86" style="baseline-shift:baseline;display:inline;overflow:visible;vector-effect:none;fill-opacity:0;stop-color:#000;stop-opacity:1"/><g id="g3"><path id="path2392" fill="#95b3d7" stroke="#fff" d="M623.892 253.569a104.745 104.745 0 1 1-207.99-25.021 104.745 104.745 0 1 1 207.99 25.021z" style="fill:url(#linearGradient2);stroke-width:.452598;stroke-miterlimit:0" transform="matrix(-.69077 -2.06497 1.75718 -.56592 -681.107 1442.815)"/><path id="path4" d="M-595.512 85.445c-17.96.379-36.253 2.72-54.73 6.944-74.097 16.938-129.944 69.262-161.665 138.334l.115 1.511c30.875-67.23 90.889-116.978 163.009-133.464 72.308-16.53 147.7-1.23 204.73 45.916l-2.362-5.645c-43.928-36.316-95.215-54.73-149.097-53.596" style="baseline-shift:baseline;display:inline;overflow:visible;vector-effect:none;fill:#fff;stroke-miterlimit:0;stop-color:#000;stop-opacity:1" transform="matrix(-.98592 -.34625 .26925 -.92063 -1286.469 237.232)"/><path id="path3178" fill="none" stroke="#fff" stroke-width="3.613" d="M542.734 138.267 494.14 343.919" style="stroke-miterlimit:0" transform="matrix(-.69077 -2.06497 1.75718 -.56592 -681.107 1442.815)"/><path id="path2396" fill-opacity="0" stroke="#fff" stroke-width="3.266" d="M575.409 153.386c-12.773 8.71-24.019 8.993-40.285 5.433s-27.805-7.919-34.856-20.967" style="stroke-miterlimit:0" transform="matrix(-.69077 -2.06497 1.75718 -.56592 -681.107 1442.815)"/><path id="path3170" fill-opacity="0" stroke="#fff" stroke-width="3.266" d="M606.909 301.79a124.08 105.155 6.858 0 1-191.272-44.24" style="stroke-miterlimit:0" transform="matrix(-.69077 -2.06497 1.75718 -.56592 -681.107 1442.815)"/><path id="path2393" fill-opacity="0" stroke="#fff" stroke-linecap="round" stroke-width="3.266" d="M623.555 244.7a164.982 139.81 9.508 0 1-199.215-42.677" style="stroke-miterlimit:0" transform="matrix(-.69077 -2.06497 1.75718 -.56592 -681.107 1442.815)"/><path id="path7" d="M-594.338 86.234a244.6 244.6 0 0 0-55.904 6.153c-73.369 16.772-131.108 61.67-163.004 129.903-.405.866-.671 2.343-.602 3.296l.258 3.532c.069.953.448 1.022.853.156 31.089-66.37 92.23-114.109 163.954-130.504 72.12-16.487 150.542 5.23 207.56 52.367l-1.323-2.98c-43.937-36.323-95.914-61.607-151.792-61.923" style="baseline-shift:baseline;display:inline;overflow:visible;vector-effect:none;fill:#fff;stop-color:#000;stop-opacity:1"/></g></g><g id="g98" transform="translate(-255.082 -105.252)"><path id="rect45-9" d="M861.193 494.055c1.485 0 2.97.38 4.292 1.143l75.617 43.66a8.62 8.62 0 0 1 4.292 7.432v87.316a8.62 8.62 0 0 1-4.292 7.433l-75.617 43.658a8.62 8.62 0 0 1-8.583 0l-75.618-43.658a8.62 8.62 0 0 1-4.291-7.433V546.29a8.62 8.62 0 0 1 4.291-7.431l75.618-43.66a8.6 8.6 0 0 1 4.291-1.144m98.888 161.564.004.046-.081.033z" style="fill:#4a90d9;fill-opacity:1;fill-rule:evenodd;stroke-width:2.02641"/><path id="path48-3" d="M861.23 494.055q.751.003 1.491.136l4.023 48.018-6.37 54.458-40.684-21.73c-19.854-10.604-40.027-21.6-42.697-24.52v-4.127a8.62 8.62 0 0 1 4.291-7.431l75.618-43.66a8.6 8.6 0 0 1 4.328-1.144" style="fill:#4a90d9;fill-opacity:1;fill-rule:evenodd;stroke-width:.896482"/><path id="path9124-6" d="m778.147 542 83.046 47.948v95.894a8.6 8.6 0 0 1-4.291-1.145l-75.618-43.658a8.62 8.62 0 0 1-4.291-7.433V546.29c0-1.526.411-3.004 1.154-4.29" style="mix-blend-mode:normal;fill:#fff;fill-opacity:1;fill-rule:nonzero;stroke:none;stroke-width:.732643px;stroke-linecap:butt;stroke-linejoin:miter;stroke-opacity:1"/><path id="path9126-0" d="M861.193 494.055c1.485 0 2.97.38 4.292 1.143l75.617 43.66a8.6 8.6 0 0 1 3.138 3.143l-83.047 47.947z" style="mix-blend-mode:normal;fill:#fff;fill-opacity:1;fill-rule:nonzero;stroke:none;stroke-width:.732643px;stroke-linecap:butt;stroke-linejoin:miter;stroke-opacity:1"/></g><path id="path17" fill="#1e62b5" d="M552.036 534.828c-8.276 18.181-19.112 32.282-31.443 40.924a127.66 127.66 0 0 0 52.424-25.693c-5.492-5.783-12.597-10.943-20.981-15.23m0 0" style="fill:#626971;fill-opacity:1;stroke-width:2.12719"/><path id="polygon2" d="m664.71 761.722-181.51 69.55a2.356 2.356 0 0 1-3.2-2.2V543.1l209.3-82.3v265.167a38.29 38.29 0 0 1-24.59 35.755" style="fill:#1a2f5a;fill-opacity:1"/><g id="g43" transform="translate(7.275 23.684)scale(.94003)"><path id="path63" fill="#9a9996" d="M344.185 440.714a31.464 31.464 0 0 0-12.12 42.927l73.165 130.741a31.464 31.464 0 0 0 42.927 12.121 31.464 31.464 0 0 0 12.121-42.927l-73.165-130.741a31.464 31.464 0 0 0-42.928-12.121m80.867 144.503c5.699-3.19 12.91-1.153 16.098 4.545 3.19 5.699 1.153 12.909-4.545 16.098s-12.909 1.153-16.098-4.546-1.153-12.908 4.545-16.097m0 0" style="stroke-width:3.94266"/><g id="g42"><path id="path61" fill="#9a9996" d="M387.682 389.264c17.012 30.4 6.158 68.842-24.243 85.855-30.4 17.013-68.842 6.158-85.855-24.242s-6.158-68.843 24.242-85.855c30.4-17.013 68.843-6.159 85.856 24.242m0 0" style="stroke-width:3.94266"/><g id="g41"><path id="path62" fill="#deddda" d="M383.83 382.383c17.013 30.4 6.159 68.842-24.242 85.855-30.4 17.013-68.842 6.158-85.855-24.242s-6.158-68.843 24.242-85.855c30.4-17.013 68.843-6.159 85.856 24.242m0 0" style="stroke-width:3.94266"/><path id="path64" fill="#deddda" d="M340.334 433.833a31.464 31.464 0 0 0-12.12 42.927l73.165 130.741a31.464 31.464 0 0 0 42.927 12.121 31.464 31.464 0 0 0 12.122-42.928l-73.166-130.74a31.464 31.464 0 0 0-42.928-12.121m80.868 144.503c5.698-3.19 12.909-1.153 16.097 4.545 3.19 5.699 1.153 12.909-4.545 16.098s-12.909 1.153-16.098-4.546-1.153-12.908 4.546-16.097m0 0" style="stroke-width:3.94266"/><path id="path65" fill="#a7a6a4" d="M355.738 461.357c7.607-4.257 17.207-1.546 21.463 6.06l34.658 61.93c4.257 7.607 1.546 17.207-6.06 21.464-7.608 4.257-17.208 1.546-21.465-6.06l-34.657-61.93c-4.257-7.607-1.546-17.207 6.06-21.464m0 0" style="stroke-width:3.94266"/></g></g></g><path id="path66" fill="#865e3c" d="m269.6 369.003 35.2-17.79 30.946 50.022-13.975 20.562-24.836 1.157z" style="fill:#426dc8;fill-opacity:1;stroke-width:3.70623"/><path id="polygon3" d="m287.279 758.574 191.592 72.5a6.73 6.73 0 0 0 9.11-6.486L480 543.1l-209.3-82.3v273.774a25.66 25.66 0 0 0 16.579 24" style="fill:#254381;fill-opacity:1"/><path id="polygon5" d="m480 543.1-209.3-81.2-64.95 54.548a11.09 11.09 0 0 0 3.12 18.83l170.204 66.032a39.2 39.2 0 0 0 39.389-6.528z" class="st3" style="fill:#426dc8;fill-opacity:1"/><path id="polygon5-2" d="M480 543.1 689.3 461l64.95 54.548a11.09 11.09 0 0 1-3.12 18.83L580.926 600.41a39.5 39.5 0 0 1-39.488-6.409z" class="st3" style="fill:#426dc8;fill-opacity:1"/></svg>