<svg xmlns="http://www.w3.org/2000/svg" xml:space="preserve" width="128" height="128"><linearGradient id="a" x1="12" x2="116" y1="64" y2="64" gradientTransform="translate(-128.394 -34.716)" gradientUnits="userSpaceOnUse"><stop offset="0" stop-color="#3d3846"/><stop offset=".05" stop-color="#77767b"/><stop offset=".1" stop-color="#5e5c64"/><stop offset=".9" stop-color="#504e56"/><stop offset=".95" stop-color="#77767b"/><stop offset="1" stop-color="#3d3846"/></linearGradient><path d="M18.08 95.682c-.81-.472-1.276-3.146-.699-21.634l.575-20.55h3.45c3.03 0 3.558-.742 4.104.705.5 1.323-.037-.4 1.729-.4 2.769 0 .47.223 1.86.318l1.768-1.064 32.773-.807 33.302.664 1.685 2.458c.914 1.334 2.39 1.244 2.428-1.24 0-1.147 5.546-1.966 6.506-1.377l3.323.523.177 21.434c.148 17.954-.243 20.558-.946 20.828-1.425.547-91.086.695-92.035.142" style="fill:#b3b3b3;fill-opacity:1;fill-rule:evenodd;stroke:none;stroke-width:.774;stroke-dasharray:none;stroke-opacity:1"/><path fill="url(#a)" d="M20.237 50.319h88a8 8 0 0 1 8 8v72.07a8 8 0 0 1-8 8h-88a8 8 0 0 1-8-8v-72.07a8 8 0 0 1 8-8" style="fill:url(#a-4)"/><path d="M71.706 28.056c-1.126.001-2.261.048-3.383.016H51.696c-4.117-.095-8.112 2.866-8.99 6.934-.551 2.267-.26 4.604-.336 6.914v4.806h8.004c.016-3.2-.024-6.412.033-9.611.148-.81.783-1.012 1.472-1.055h.002c.099-.006.201.001.301 0q.4-.002.754 0h20.092c1.276-.032 1.43 1.35 1.34 2.31v8.356h7.988c-.024-3.422.049-6.846-.049-10.265-.289-3.928-3.356-7.455-7.25-8.155-1.109-.212-2.224-.25-3.35-.25z" style="fill:#222;fill-opacity:1"/><path d="M17.625 51.009 18 46.822l51.828-.546 41.047.733-.125 3.125.5 1.875-5.375-.125-39.72.815-46.905-.002Z" style="fill:#666;fill-opacity:1;fill-rule:evenodd;stroke:#1a1a1a;stroke-width:.1935;stroke-dasharray:none;stroke-opacity:1"/><path d="m17.229 51.588 93.426.018v2.514l-93.426.12z" style="fill:#222;fill-rule:evenodd;stroke-width:1.06115"/><path fill="none" stroke="#573718" stroke-width="1.548" d="M20.413 46.643h87.648c1.758 0 3.184.883 3.184 1.973v45.597c0 1.09-1.426 1.973-3.184 1.973H20.413c-1.758 0-3.184-.883-3.184-1.973V48.616c0-1.09 1.426-1.973 3.184-1.973z" style="stroke:#1a1a1a"/><path fill="url(#e)" d="M16.237 44.388h96a8 8 0 0 1 8 8v26c0 4.418-3.54 8.578-7.848 9.555-11.777 2.668-19.336 5.715-40.152 6.332-4.418.133-11.582.133-16 0-20.785-.633-28.61-3.742-40.153-6.348-4.308-.976-7.847-5.12-7.847-9.539v-26a8 8 0 0 1 8-8m0 0" style="fill:url(#e)"/><path fill="#222" d="M64 56.872c-1.188 0-2.158.97-2.158 2.159v.514c0 1.003-.818 1.947-1.77 2.26-.05.017-.101.025-.135.041-.961.32-2.175.034-2.765-.775l-.304-.422a2.13 2.13 0 0 0-1.408-.86 2.12 2.12 0 0 0-1.602.38 2.15 2.15 0 0 0-.48 3.018l.303.43c.599.81.49 2.057-.118 2.866a.4.4 0 0 1-.076.11c-.59.818-1.736 1.298-2.697.986l-.498-.16a2.15 2.15 0 0 0-2.715 1.383 2.154 2.154 0 0 0 1.383 2.723l.48.16c.962.312 1.594 1.374 1.62 2.378v.151c.033 1.004-.658 2.074-1.611 2.386l-.489.152a2.157 2.157 0 0 0-1.383 2.723 2.15 2.15 0 0 0 2.715 1.383l.498-.16c.96-.312 2.107.168 2.697.986.026.033.06.076.085.11.598.809.7 2.057.11 2.866l-.313.438a2.15 2.15 0 0 0 .48 3.01c.962.7 2.31.49 3.01-.472l.313-.43c.59-.818 1.804-1.096 2.756-.776.043.018.102.026.135.042.961.304 1.77 1.248 1.77 2.26v.514c0 1.189.97 2.158 2.159 2.158s2.158-.97 2.158-2.158v-.514c0-1.012.818-1.956 1.77-2.26.051-.017.102-.033.144-.05.953-.312 2.167-.034 2.757.784l.312.43a2.155 2.155 0 0 0 3.01.472c.96-.7 1.18-2.048.48-3.01l-.32-.438c-.59-.81-.49-2.057.118-2.867.025-.033.05-.076.084-.11.59-.817 1.737-1.297 2.698-.986l.506.169a2.167 2.167 0 0 0 2.714-1.391 2.15 2.15 0 0 0-1.382-2.715l-.498-.16c-.96-.312-1.585-1.383-1.61-2.386v-.151c-.034-1.004.65-2.066 1.61-2.378l.498-.16a2.16 2.16 0 0 0 1.382-2.723 2.155 2.155 0 0 0-2.714-1.383l-.498.16c-.96.312-2.116-.168-2.706-.986-.025-.034-.05-.076-.084-.11-.599-.809-.7-2.057-.11-2.866l.312-.43a2.16 2.16 0 0 0-.48-3.018 2.17 2.17 0 0 0-1.602-.388 2.14 2.14 0 0 0-1.408.868l-.312.422c-.59.818-1.804 1.096-2.765.784a1 1 0 0 0-.135-.05c-.953-.304-1.77-1.248-1.77-2.26v-.514c0-1.189-.97-2.159-2.159-2.159zm0 8.633c1.88 0 3.617.59 5.033 1.602a.2.2 0 0 0 .034.05.3.3 0 0 1 .068.034 8.56 8.56 0 0 1 3.068 4.266v.018s.017.009.017.017c.633 1.838.338 3.575 0 5.303 0 0-.017.009-.017.017v.01a8.66 8.66 0 0 1-3.051 4.265.3.3 0 0 0-.085.042.1.1 0 0 0-.042.042 8.63 8.63 0 0 1-5.033 1.6 8.6 8.6 0 0 1-4.94-1.542c-.043-.033-.093-.076-.135-.101a.3.3 0 0 0-.076-.042 8.56 8.56 0 0 1-3.035-4.199c-.009-.033-.017-.05-.026-.076a.2.2 0 0 0-.025-.042c-.615-1.83-.32-3.549 0-5.26.017-.018.025-.026.025-.043.009-.025.026-.05.026-.084a8.6 8.6 0 0 1 3.052-4.198.2.2 0 0 0 .059-.034.7.7 0 0 0 .126-.101 8.66 8.66 0 0 1 4.949-1.543zm0 0" style="fill:#222;fill-opacity:1;stroke-width:2.15825"/><path d="M128 232.446h6a2.75 2.75 45 0 1 2.75 2.75v9.675a2.75 2.75 135 0 1-2.75 2.75h-6a2.75 2.75 45 0 1-2.75-2.75v-9.675a2.75 2.75 135 0 1 2.75-2.75" style="fill:#222;fill-opacity:1;fill-rule:evenodd;stroke-width:1.05894" transform="translate(-40.406 -72.321)scale(.52174)"/><path d="M128 232.446h6a2.75 2.75 45 0 1 2.75 2.75v9.675a2.75 2.75 135 0 1-2.75 2.75h-6a2.75 2.75 45 0 1-2.75-2.75v-9.675a2.75 2.75 135 0 1 2.75-2.75" style="fill:#222;fill-opacity:1;fill-rule:evenodd;stroke-width:1.05894" transform="translate(31.594 -72.321)scale(.52174)"/></svg>