<svg xmlns="http://www.w3.org/2000/svg" xmlns:xlink="http://www.w3.org/1999/xlink" xml:space="preserve" width="600" height="600"><defs><linearGradient id="x"><stop offset="0" stop-color="#413f3c"/><stop offset="1" stop-color="#302f2d" stop-opacity="0"/></linearGradient><linearGradient id="w"><stop offset="0" stop-color="#282624"/><stop offset="1" stop-color="#22211f"/></linearGradient><linearGradient id="v"><stop offset="0" stop-color="#213f75"/><stop offset="1" stop-color="#254784" stop-opacity="0"/></linearGradient><linearGradient id="u"><stop offset="0" stop-color="#302f2d"/><stop offset=".5" stop-color="#32302e"/><stop offset="1" stop-color="#343230"/></linearGradient><linearGradient id="t"><stop offset="0" stop-color="#2a5094"/><stop offset="1" stop-color="#203d71"/></linearGradient><linearGradient id="s"><stop offset="0" stop-color="#2d2b29"/><stop offset="1" stop-color="#282624"/></linearGradient><linearGradient id="r"><stop offset="0" stop-color="#302f2d"/><stop offset="1" stop-color="#403e3b"/></linearGradient><linearGradient id="q"><stop offset="0" stop-color="#302f2d"/><stop offset="1" stop-color="#1b1b1b"/></linearGradient><linearGradient id="p"><stop offset="0" stop-color="#274989"/><stop offset="1" stop-color="#3565bc"/></linearGradient><linearGradient id="o"><stop offset="0" stop-color="#4e4c4b"/><stop offset="1" stop-color="#343232"/></linearGradient><linearGradient id="n"><stop offset="0" stop-color="#d6d8d7"/><stop offset="1" stop-color="#b0b4b1"/></linearGradient><linearGradient id="m"><stop offset="0" stop-color="#d6d8d7"/><stop offset="1" stop-color="#b0b4b1"/></linearGradient><linearGradient id="l"><stop offset="0" stop-color="#d6d8d7"/><stop offset="1" stop-color="#b0b4b1"/></linearGradient><linearGradient id="k"><stop offset="0" stop-color="#686f6f"/><stop offset=".5" stop-color="#7d8484"/><stop offset="1" stop-color="#373b3b"/></linearGradient><linearGradient id="j"><stop offset="0" stop-color="#343230"/><stop offset="1" stop-color="#1d1b19"/></linearGradient><linearGradient id="i"><stop offset="0" stop-color="#284c8d"/><stop offset="1" stop-color="#2f5aa8"/></linearGradient><linearGradient id="h"><stop offset="0" stop-color="#1a325d"/><stop offset="1" stop-color="#294e92"/></linearGradient><linearGradient id="c"><stop offset="0" stop-color="#353331"/><stop offset="1" stop-color="#2c2b29"/></linearGradient><linearGradient id="b"><stop offset="0" stop-color="#192f58"/><stop offset="1" stop-color="#16294e"/></linearGradient><linearGradient id="a"><stop offset="0" stop-color="#1d3767"/><stop offset="1" stop-color="#192f58"/></linearGradient><linearGradient xlink:href="#a" id="A" x1="414.726" x2="403.162" y1="467.969" y2="500.915" gradientUnits="userSpaceOnUse"/><linearGradient xlink:href="#b" id="z" x1="500.25" x2="511.048" y1="465.875" y2="494.007" gradientUnits="userSpaceOnUse"/><linearGradient xlink:href="#c" id="B" x1="362.151" x2="513.464" y1="468.544" y2="536.486" gradientUnits="userSpaceOnUse"/><linearGradient id="g"><stop offset="0" stop-color="#1a2f5a"/><stop offset="1" stop-color="#1a2f5a" stop-opacity="0"/></linearGradient><linearGradient id="f"><stop offset="0" stop-color="#172a50"/><stop offset="1" stop-color="#1a305b"/></linearGradient><linearGradient id="d"><stop offset="0" stop-color="#142547"/><stop offset=".5" stop-color="#24417d"/><stop offset="1" stop-color="#1f396d"/></linearGradient><linearGradient id="e"><stop offset="0" stop-color="#1e376b"/><stop offset="1" stop-color="#1a2f5a" stop-opacity="0"/></linearGradient><linearGradient xlink:href="#d" id="S" x1="1040.293" x2="986.206" y1="378.441" y2="264.485" gradientTransform="matrix(-.31309 .05522 .05522 .31309 458.136 46.385)" gradientUnits="userSpaceOnUse"/><linearGradient xlink:href="#e" id="T" x1="1059.341" x2="1043.594" y1="344.494" y2="315.799" gradientTransform="matrix(-.31309 .05522 .05522 .31309 458.136 46.385)" gradientUnits="userSpaceOnUse"/><linearGradient xlink:href="#f" id="R" x1="649.14" x2="664.58" y1="896.936" y2="941.508" gradientTransform="matrix(-.74148 .13078 .13078 .74148 542.939 -548.493)" gradientUnits="userSpaceOnUse"/><linearGradient xlink:href="#g" id="U" x1="672.351" x2="679.761" y1="933.241" y2="915.235" gradientTransform="matrix(-.74148 .13078 .13078 .74148 542.939 -548.493)" gradientUnits="userSpaceOnUse"/><linearGradient xlink:href="#h" id="H" x1="289.83" x2="249.982" y1="218.179" y2="103.679" gradientTransform="matrix(-.66853 .11792 .11792 .66853 447.021 62.96)" gradientUnits="userSpaceOnUse"/><linearGradient xlink:href="#i" id="I" x1="263.418" x2="309.323" y1="128.304" y2="125.488" gradientTransform="matrix(-.66853 .11792 .11792 .66853 447.021 62.96)" gradientUnits="userSpaceOnUse"/><linearGradient xlink:href="#j" id="C" x1="417.351" x2="437.338" y1="451.094" y2="193.21" gradientTransform="matrix(-.66853 .11792 .11792 .66853 447.021 62.96)" gradientUnits="userSpaceOnUse"/><linearGradient xlink:href="#k" id="M" x1="61.281" x2="-51.43" y1="247.875" y2="311.894" gradientTransform="matrix(-.66853 .11792 .11792 .66853 427.683 59.744)" gradientUnits="userSpaceOnUse"/><linearGradient xlink:href="#l" id="K" x1="-37.528" x2="-45.94" y1="294.3" y2="303.421" gradientUnits="userSpaceOnUse"/><linearGradient xlink:href="#m" id="L" x1="-1.438" x2="-11.334" y1="277.751" y2="285.429" gradientUnits="userSpaceOnUse"/><linearGradient xlink:href="#n" id="J" x1="67.768" x2="25.666" y1="248.97" y2="267.237" gradientUnits="userSpaceOnUse"/><linearGradient xlink:href="#o" id="N" x1="29.499" x2="-53.528" y1="261.487" y2="317.759" gradientTransform="matrix(-.66853 .11792 .11792 .66853 427.683 59.744)" gradientUnits="userSpaceOnUse"/><linearGradient xlink:href="#o" id="O" x1="29.499" x2="-53.528" y1="261.487" y2="317.759" gradientTransform="matrix(-.66853 .11792 .11792 .66853 427.683 59.744)" gradientUnits="userSpaceOnUse"/><linearGradient xlink:href="#o" id="P" x1="29.499" x2="-53.528" y1="261.487" y2="317.759" gradientTransform="matrix(-.66853 .11792 .11792 .66853 427.683 59.744)" gradientUnits="userSpaceOnUse"/><linearGradient xlink:href="#o" id="Q" x1="29.499" x2="-53.528" y1="261.487" y2="317.759" gradientTransform="matrix(-.66853 .11792 .11792 .66853 427.683 59.744)" gradientUnits="userSpaceOnUse"/><linearGradient xlink:href="#p" id="G" x1="348.746" x2="373.242" y1="228.589" y2="252.093" gradientUnits="userSpaceOnUse"/><linearGradient xlink:href="#q" id="E" x1="249.982" x2="331.29" y1="95.976" y2="206.895" gradientTransform="matrix(-.66853 .11792 .11792 .66853 447.021 62.96)" gradientUnits="userSpaceOnUse"/><linearGradient xlink:href="#r" id="D" x1="236.874" x2="206.639" y1="226.4" y2="144.189" gradientTransform="matrix(-.66853 .11792 .11792 .66853 447.021 62.96)" gradientUnits="userSpaceOnUse"/><linearGradient xlink:href="#s" id="W" x1="195.529" x2="210.978" y1="186.376" y2="215.906" gradientTransform="matrix(-.87756 .1548 .1548 .87756 488.408 -4.58)" gradientUnits="userSpaceOnUse"/><linearGradient xlink:href="#t" id="V" x1="162.704" x2="183.821" y1="204.508" y2="222.131" gradientTransform="matrix(-.87756 .1548 .1548 .87756 488.408 -4.58)" gradientUnits="userSpaceOnUse"/><linearGradient xlink:href="#u" id="y" x1="502.628" x2="395.479" y1="172.425" y2="301.134" gradientTransform="matrix(-.66853 .11792 .11792 .66853 447.021 62.96)" gradientUnits="userSpaceOnUse"/><linearGradient xlink:href="#v" id="X" x1="327.575" x2="329.315" y1="231.856" y2="254.521" gradientTransform="matrix(-.87756 .1548 .1548 .87756 488.408 -4.58)" gradientUnits="userSpaceOnUse"/><linearGradient xlink:href="#w" id="F" x1="471.51" x2="404.597" y1="57.213" y2="205.628" gradientTransform="matrix(-.66853 .11792 .11792 .66853 447.021 62.96)" gradientUnits="userSpaceOnUse"/><linearGradient xlink:href="#x" id="Y" x1="141.745" x2="160.224" y1="210.46" y2="233.39" gradientTransform="matrix(-.87756 .1548 .1548 .87756 488.408 -4.58)" gradientUnits="userSpaceOnUse"/></defs><path fill="url(#y)" fill-rule="evenodd" d="m125.153 228.213 17.627 26.499c2.353 18.045 6.679 37.021 9.155 40.537 8.821 6.513 51.7 1.04 62.411-8.91 10.711-9.952.588-35.15 4.533-51.066-27.176-7.009-69.541-14.15-93.726-7.06" transform="scale(-1 1)rotate(8.456 -1.19 -3780.791)"/><path fill="#294e92" fill-rule="evenodd" d="m339.105 386.868 63.144-17.54a15.07 15.07 0 0 1 13.324 2.653l35.266 27.6-68.445 27.248c-14.812-12.857-38.045-15.538-43.289-39.961"/><path fill="url(#z)" fill-rule="evenodd" d="M432.55 503.814c7.65-7.771 6.986-8.052 21.293-20.696 18.992-11.053 62.324-31.285 92.657-45.618 5.37 9.18 10.805 18.36 14.494 27.541.645 1.606-.112 3.607-1.626 4.445-27.114 14.998-53.964 29.815-72.725 39.05-19.393 9.547-30.143 13.13-37.718 11.35s-11.974-8.926-16.374-16.072" transform="rotate(9.822 -186.032 812.932)scale(.67885)"/><path fill="url(#A)" fill-rule="evenodd" d="m362.617 467.822 18.508-20.697c4.375 3.708 8.75 7.417 16.75 12.25s19.625 10.792 29.557 14.936c9.933 4.145 18.172 6.476 26.411 8.807l-18.28 25.468c-33.598-.024-52.29-21.133-72.88-39.559a.854.854 0 0 1-.066-1.205" transform="rotate(9.822 -186.032 812.932)scale(.67885)"/><path fill="url(#B)" fill-rule="evenodd" d="M561.11 467.167c-36.718 19.14-72.438 39.083-94.032 45.058-21.593 5.974-30.259-5.39-30.259-5.39-.002 0-48.05-17.742-74.422-39.235l-.661 37.026c-.02 1.077.561 2.588 1.308 3.365 24.623 25.613 47.527 31.02 70.196 33.663 2.923 10.542 11.233 16.942 16.85 25.412l104.988-50.66z" transform="rotate(9.822 -186.032 812.932)scale(.67885)"/><path fill="#282624" fill-rule="evenodd" d="M319.45 423.408c.09 7.622 6.017 15.957 9.494 21.698 8.57 16.656 27.192 24.956 42.413 29.979l-8.327-18.95c-2.603-1.084-5.207-2.17-10.035-4.876s-11.88-7.036-17.877-11.786-10.727-10.896-15.667-16.065m75.4-19.016c14.813-4.165 29.743-9.6 44.557-13.765 4.713-36.953 9.425-73.905 10.665-103.557s-.996-52-7.3-55.79-14.757 21.64-25.134 36.41c-9.454 45.78-13.863 92.095-22.789 136.703"/><path fill="url(#C)" fill-rule="evenodd" d="M233.043 400.424c-7.472-17.62-7.298-55.776-6.651-77.994.646-22.218 9.412-49.032-.637-59.607-7.709-7.8-10.128 34.679-51.788 20.885-11.853 15.013 2.064 26.635 10.394 52.164 8.33 25.53 12.316 55.437 23.817 82.135 8.748-3.043 18.03-2.627 24.865-17.583" transform="scale(-1 1)rotate(4.827 68.172 -6742.421)"/><path fill="#0ff" fill-rule="evenodd" d="M409.427 213c9.186 10.246 10.698 37.322-4.012 45.126-2.075.365-7.747.856-8.275.25-20.12-12.253-6.692-39.622 12.287-45.376" style="font-variation-settings:normal;-inkscape-stroke:none" transform="scale(-1 1)rotate(.489 1928.487 -68557.372)"/><path fill="#203d71" fill-rule="evenodd" d="M226.27 182.578c-.92-.08-1.916.196-2.93.703l4.23.709q-.628-.727-1.3-1.412m-15.675-1.434a22.3 22.3 0 0 0-4.581-.219c-7.683 3.616-10.857 8.671-12.527 12.508 2.47-1.105 4.913-2.225 7.197-3.368 1.175-.384 2.925-.355 4.675-.022 13.009 2.478 21.669 29.001 14.4 41.346-.65 1.104-4.2-1.016-4.9-.298-.35 3.545-2.184 1.315-4.41 4.955a39 39 0 0 0 2.351 2.586c-1.717.476-3.46.65-4.662.364-2.37-.95-4.898-1.864-7.452-2.761.43.797 8.483 12.545 19.15 9.974 7.718-1.86 12.052-7.545 15.005-15.997l-4.089-.685c4.912-20.265-3.14-45.746-20.157-48.383"/><path fill="url(#D)" fill-rule="evenodd" d="M315.69 256.812c11.897-.721 16.52 1.767 20.346-7.772 2.64-8.752 4.555-24.771 6.551-37.876s7.084-17.401 9.163-27.591c-4.739-3.472-8.326-7.079-14.776-10.352-31.12-6.63-37.747 25.141-49.857 51.085 9.573 10.838 26.17 31.823 28.573 32.506" transform="scale(-1 1)rotate(.489 1928.487 -68557.372)"/><path fill="url(#E)" fill-rule="evenodd" d="M288.736 142.527c10.504 13.33 13.39 23.523 16.448 42.18-6.65 17.891-22.276 39.525-23.626 63.745l-27.828 13.367c-20.93-18.946-27.082-44.864-27.976-66.079s10.86-41.21 23.464-49.875c12.605-8.666 26.061-6.002 39.518-3.338" transform="scale(-1 1)rotate(.489 1928.487 -68557.372)"/><path fill="#282624" d="M239.109 165.553c-10.279 5.141-22.578 10.013-32.143 14.816-1.003.579-1.27.506-.565.67 27.176 6.276 31.76 46.517 17.022 63.75-1.61 1.884 22.504-2.558 28.498-3.345 52.852-6.947 14.035-84.658-12.812-75.89"/><path fill="url(#F)" fill-rule="evenodd" d="M253.73 261.82c-3.787-5.263-11.599-21.363-15.457-34.713s4.766-21.65.837-43.09c-40.44-7.288-93.433-27.715-133.873-35.003-.35 10.808-.699 21.615 3.098 34.932 3.796 13.316 8.875 28.442 16.818 44.267z" transform="scale(-1 1)rotate(.489 1928.487 -68557.372)"/><path fill="#282624" fill-rule="evenodd" d="m270.844 148.785-21.29 8.35c35.894-1.884 46.043 54.445 21.996 83.406 0 0 12.94-.958 23.408-1.99 9.513-17.067 19.026-34.134 18.593-48.486s-10.814-25.989-19.589-32.416-15.947-7.646-23.118-8.864"/><path fill="#182d54" fill-rule="evenodd" d="m357.086 271.33 23.755-7.409 5.089-33.108-18.709 4.666-10.122 21.546z"/><path fill="url(#G)" fill-rule="evenodd" d="M377.884 214.54c.866 1.265 1.732 2.53 1.632 6.294s-1.166 10.025-2.897 17.485c-1.732 7.46-4.13 16.119-5.03 21.448-.547 5.34.776 7.36.3 9.325l-33.956-18.844a4.76 4.76 59.11 0 1-2.45-4.096l-.162-11.43z" transform="rotate(9.514 -227.515 859.015)scale(.67885)"/><path fill="#343230" fill-rule="evenodd" d="M347.506 167.095c-13.69-31.854-47.46-27.962-49.979-41.065 0 0 72.195-34.926 107.476-33.558 35.28 1.369 50.755 11.85 76.072 38.48-38.927 18.503-92.223 35.79-133.57 36.143"/><path fill="url(#H)" fill-rule="evenodd" d="M315.613 165.052c-40.951 14.6-38.107 56.197-23.347 89.97-58.484-2.87-62.919-80.393-8.605-99.596 8.697-.845 21.321 6.676 31.952 9.626" transform="scale(-1 1)rotate(.489 1928.487 -68557.372)"/><path fill="url(#I)" fill-rule="evenodd" d="M283.66 155.426c8.698-.845 21.322 6.677 31.953 9.627-17.214 6.137-26.69 17.044-30.795 30.135l-32.923-13.106c6.122-11.486 16.678-21.322 31.766-26.656" transform="scale(-1 1)rotate(.489 1928.487 -68557.372)"/><path fill="#2c2b29" fill-rule="evenodd" d="m270.844 148.784-21.29 8.352c16.777-.882 28.199 12.51 33.06 28.445l19.282-6.925c-4.218-13.055-13.787-23.882-31.05-29.871z"/><path fill="#203d71" fill-rule="evenodd" d="M417.362 93.426c-3.85-.469-7.95-.782-12.359-.954-17.5-.679-44.082 7.571-66.43 16.06 44.596 6.81 62.268 25.319 63.601 50.772 27.695-6.84 55.822-17.383 78.9-28.353-22.153-23.302-36.768-34.237-63.712-37.525"/><path fill="#343230" fill-rule="evenodd" d="M381.142 202.68c1.993-.398 3.988-.448 5.333-.022 7.341 3.593 16.363 6.85 23.197 10.207 16.802 4.284 23.002 47.275-11.467 46.254-1.863.047-16.286-1.902-20.382-2.404-7.65-.94-9.964-2.165-12.705-6.731-8.41-14.01 1.209-44.351 16.024-47.305" style="font-variation-settings:normal;-inkscape-stroke:none" transform="scale(-1 1)rotate(.489 1928.487 -68557.372)"/><path fill="#302f2d" d="M206.04 186.492c-1.997-.38-3.993-.413-5.333.026-7.31 3.655-16.06 7.122-22.863 10.537-.713.413-.904.36-.402.476 19.331 4.465 22.592 33.088 12.108 45.346-1.145 1.34 16.008-1.82 20.27-2.379 7.642-1.005 9.945-2.25 12.647-6.84 8.29-14.08-1.588-44.338-16.427-47.166"/><path fill="url(#J)" fill-rule="evenodd" d="M67.986 244.986s-.28.015-.357.028c-.078.012-.13.025-.172.035-.085.02-.132.035-.17.047-.076.024-.114.04-.148.052l-.164.067c-.102.043-.213.094-.356.158q-.428.194-1.178.543c-.999.466-2.42 1.134-4.16 1.959-3.48 1.65-8.243 3.925-13.453 6.428-10.412 5.001-20.046 9.62-21.295 10.21-1.055.5-1.757.838-2.428 1.329-.67.49-1.212 1.2-1.533 1.781-.182.331-.333.627-.459.914-.063.143-.119.264-.19.51-.034.123-.095.24-.097.674 0 .217-.027.55.283 1.115.31.564 1.304 1.178 1.993 1.178 0 0 .382-.031.466-.05.085-.017.133-.03.172-.042.078-.023.113-.036.143-.047.06-.022.085-.033.11-.043l.114-.049.256-.117q.31-.144.862-.404c.734-.347 1.782-.846 3.07-1.461 2.576-1.231 6.11-2.929 9.984-4.795 25.546-12.31 28.72-13.814 29.383-14.082.318-.129.6-.256.867-.397a4 4 0 0 0 .436-.26c.09-.061.191-.129.365-.302.174-.174.684-.36.684-1.633 0-.751-.18-.997-.307-1.266a4.5 4.5 0 0 0-.408-.695 4 4 0 0 0-.545-.637c-.24-.227-.359-.748-1.768-.748" transform="rotate(9.514 -187.67 974.168)scale(.67885)"/><path fill="url(#K)" fill-rule="evenodd" d="m-36.172 292.564-.234.034s-.065.021-.084.029c-.038.015-.056.026-.07.033-.029.015-.04.023-.051.03-.024.013-.04.021-.057.033l-.127.084-.41.275c-.338.23-.795.544-1.287.883a279 279 0 0 0-2.697 1.877c-3.02 2.144-5.301 3.99-7.16 5.804a55 55 0 0 0-1.47 1.49q-.3.32-.49.542c-.062.073-.115.135-.168.207a1 1 0 0 0-.09.142c-.019.036-.043.077-.07.164a1 1 0 0 0-.035.184c-.003.042 0 .152 0 .152l.047.207c-.036-.102.027.085.074.227l.178.539c.103.314.164.5.227.656.03.078.048.141.148.282.05.07.12.181.332.285s.597.089.793-.02c.2-.111.146-.1.207-.146l.225-.178c.177-.143.411-.331.67-.545.664-.55 1.397-1.097 3.32-2.463 2.452-1.742 3.662-2.715 4.744-3.838.688-.713 1.137-1.274 1.883-2.351a67 67 0 0 1 1.717-2.383c.243-.322.409-.546.523-.713.057-.084.1-.144.152-.246.027-.051.066-.089.098-.291a.8.8 0 0 0-.021-.361l-.079-.192-.36-.342-.208-.072s-.12-.018-.17-.018" transform="rotate(9.514 -187.67 974.168)scale(.67885)"/><path fill="url(#L)" fill-rule="evenodd" d="M-1.162 276.793c-.176-.033-.232.004-.28.02-.094.03-.136.058-.199.093-.125.07-.295.177-.564.352-.538.35-1.46.966-3.024 2.02-2.137 1.44-3.284 2.221-4.05 2.855-.767.633-1.146 1.135-1.645 1.879a76 76 0 0 0-1.297 2c-.18.287-.33.535-.44.724q-.081.141-.134.242a1 1 0 0 0-.049.104c-.016.038-.05.03-.05.236 0 .118.085.356.257.461s.3.084.373.073c.148-.023.198-.058.274-.096a7 7 0 0 0 .635-.38c.591-.378 1.592-1.053 3.279-2.196 1.684-1.142 2.54-1.722 3.101-2.174s.82-.791 1.198-1.31c.416-.575 1.25-1.715 1.851-2.532.302-.41.579-.79.78-1.074q.15-.214.24-.348l.076-.113.033-.057c.007-.012.012-.026.024-.052.005-.014.013-.03.021-.057l.014-.055.008-.095c0-.042-.022-.152-.022-.153l-.096-.18s-.16-.134-.162-.134c0 0-.108-.045-.152-.053" transform="rotate(9.514 -187.67 974.168)scale(.67885)"/><path fill="url(#M)" d="M507.464 262.926c.013-.03-.4-.67-.917-1.423-2.84-4.132-6.612-9.681-6.652-9.783-.063-.16-2.814-.764-3.86-.848-1.25-.1-2.434.04-4.266.5-.898.227-1.654.39-1.68.365-.025-.025-.54-.394-1.144-.818-4.858-3.417-15.113-7.853-23.074-5.546l-.703.204-1.213-.949c-3.039-2.377-5.975-3.793-10.264-4.951a86 86 0 0 1-1.976-.555c-1.291-.396-3.873-.898-5.186-1.009-1.906-.162-3.297-.057-5.949.446l-.93.177-.853-.702c-1.498-1.232-3.548-2.6-4.31-2.876-6.867-1.907-13.735-3.812-20.618-5.66l-2.085-.56c-3.655 2.228-9.371 7.353-4.352 15.847 1.758.691 20.216 5.433 30.748 8.426 2.302.655 2.867.624 5.72-.308a109 109 0 0 1 2.445-.773c.757-.219.745-.223 1.691.612a29.2 29.2 0 0 0 6.943 4.567c1.658.784 2.962 1.23 5.788 1.985 5.903 1.574 6.652 1.59 11.069.23.864-.265 1.615-.471 1.67-.458.054.014.475.363.935.777 2.136 1.917 4.48 3.53 6.71 4.617 2.278 1.11 4.156 1.756 9.396 3.236l3.789 1.07 1.098-.49c.603-.268 2.95-1.298 5.217-2.287 4.72-2.06 6.779-2.986 6.813-3.063m-10.546-5.552-.084.571-.083.572-.394-.205c-2.525-1.512-5.55-2.335-7.65-4.448a50 50 0 0 0-1.663-1.634c-.545-.493-.644-.599-.583-.623 3.66 1.66 7.317 3.248 10.457 5.767m-26.853-6.8c-.033.014-1.365-.566-2.961-1.288l-2.902-1.312-1.14-1.13a48 48 0 0 0-1.665-1.584c-.288-.25-.497-.465-.463-.478s1.493.617 3.242 1.4c2.685 1.202 3.249 1.491 3.617 1.854.732.723 2.334 2.513 2.272 2.539m-26.44-7.561q.011.024.007.033c-.034.077-1.029-.182-4.243-1.104-3.334-.957-18.203-5.15-22.984-6.481a467 467 0 0 0-4.668-1.282l-.88-.226.128-.498c.07-.273.135-.518.144-.544.042-.12-.326-.221 20.963 5.77 5.308 1.493 9.784 2.729 9.946 2.745.169.018.408.153.56.317.466.5.959 1.113 1.027 1.27" transform="scale(-1 1)rotate(.489 1928.487 -68557.372)"/><path fill="url(#N)" d="M494.742 250.76a9.5 9.5 0 0 1 1.914-.04c.649.052 1.951.303 2.863.525.757.49 1.332 1.004 1.673 1.512 2.952 4.403 4.775 7.708 6.341 10.165-.645.382-2.467 1.139-6.375 2.845l-.219.096-4.188-7.346.167-1.143a23 23 0 0 0-3.273-2.234c-.812-1.266-1.254-2.776-1.876-3.768q.293-.07.622-.152c.916-.231 1.67-.381 2.35-.46" transform="scale(-1 1)rotate(.489 1928.487 -68557.372)"/><path fill="url(#O)" d="M470.013 244.852c3.57-.158 7.33.659 10.71 1.875l4.566 7.072c3.078 4.77 6.483 10.023 7.568 11.673s1.737 3.248 1.479 3.294-2.98-.782-5.951-1.69c-1.726-.56-3.493-1.013-5.171-1.7h-.001l-.135-.056-6.72-10.706c-2.485-3.96-4.874-7.624-6.345-9.762" transform="scale(-1 1)rotate(.489 1928.487 -68557.372)"/><path fill="url(#P)" d="M448.407 238.377c1.002.145 6.446.914 12.134 3.967.545.977.993 1.9 1.614 2.945-2.065-.723.355.78.907 1.224 2.99 4.923 6.43 10.088 8.476 13.103-3.487 1.63-6.636.74-9.92-.097-5.154-7.991-7.492-12.651-13.211-21.142" transform="scale(-1 1)rotate(.489 1928.487 -68557.372)"/><path fill="url(#Q)" d="M428.286 233.438c2.264.626 4.451.996 6.715 1.624.762.276 2.812 1.644 4.31 2.876l.853.702.93-.176q.11-.022.216-.04c1.275 2.023 2.919 4.447 4.495 7.054l6.159 10.192c-1.272-.813-2.735-1.524-3.695-2.724-1.386-1.734-1.707-.332-5.127.2-2.669-.991-3.785-1.84-4.333-3.063-.49-1.096-3.2-5.356-6.272-10.085 3.333.941 6.072 1.804 7.365 1.848 2.2.075 5.918.992 2.856.071-3.718-1.117-7.502-2.414-11.211-3.39-.971-1.737-2.593-3.29-3.26-5.09" transform="scale(-1 1)rotate(.489 1928.487 -68557.372)"/><path fill="#172a50" fill-rule="evenodd" d="m422.635 166.088-25.147 9.395-.654 10.735c1.616-1.274 2.237.274 4.435.642l9.342 1.566a7.555 7.555 0 0 1 6.217 8.718c-.452 2.582.05 3.544-.421 6.122 1.228.074 2.002 1.67 2.765 2.182 2.01 1.352 3.992 2.646 3.593 5.038-.402 2.39-2.963 4.842-5.04 3.593l-2.843-1.711c-1.592-.958-3.28-.478-3.64-2.189a7.55 7.55 0 0 1-4.372.563l-3.985-.669 10.879 8.972 25.147-9.395.917-5.468c-7.839-3.17-13.68-13.207-23.964-18.601-2.091-1.098-3.89-2.58-3.5-4.909l.228-1.367a4.254 4.254 0 0 1 4.91-3.499l5.955.997a4.254 4.254 0 0 1 3.5 4.91l-.229 1.366c.095-.569 2.505 2.043 2.505 2.043l4.271 3.485c.384.293.948.437 1.065.868 2.754-3.7 6.404-4.928 8.78-6.305z"/><path fill="url(#R)" d="m189.201 192.832 1.913 10.844-20.593 17.097-2.869 2.434a4.03 4.03 0 0 0-.527 5.682 4.02 4.02 0 0 0 4.999.973 4 4 45 0 0 .54-.378l20.065-16.66 1.137 6.448L173.3 236.53l-25.228-9.18-.963-5.461 16.442-13.65 5.085 1.851z" transform="scale(-1 1)rotate(.489 1928.487 -68557.372)"/><path fill="url(#S)" d="m163.973 183.651 25.228 9.18-20.565 17.26c.007.04-4.403 3.758-5.785 5.095-4.412 4.264-7.106 6.284-9.517 7.13-.552.193-2.05.415-2.608.387-.774-.04-1.493-.181-2.565-.5l-1.052-.314 16.442-13.65 5.895-4.895a4.03 4.03 0 0 0 .528-5.682 4.03 4.03 0 0 0-5.682-.527l-9.525 7.908-9.272 7.697-2.087-11.832z" transform="scale(-1 1)rotate(.489 1928.487 -68557.372)"/><path fill="url(#T)" d="m143.409 200.909 11.358 4.134-9.272 7.697z" transform="scale(-1 1)rotate(.489 1928.487 -68557.372)"/><path fill="url(#U)" d="m163.55 208.24 5.086 1.85 1.885 10.683-2.869 2.434a4.03 4.03 0 0 0-.527 5.682 4.02 4.02 0 0 0 4.999.973l1.176 6.668-25.228-9.18-.963-5.461z" transform="scale(-1 1)rotate(.489 1928.487 -68557.372)"/><path fill="url(#V)" fill-rule="evenodd" d="M380.715 196.638c4.779 2.2 7.832 4.968 9.869 7.665a166 166 0 0 1-4.515-2.118c-1.344-.427-3.338-.376-5.331.021h-.002c-7.521 1.327-12.204 8.274-16.057 17.624l-6.4-2.046c3.407-11.047 10.151-18.173 22.05-21.029.226-.054.353-.084.386-.117" transform="scale(-1 1)rotate(.489 1928.487 -68557.372)"/><path fill="url(#W)" d="M341.017 181.06c2.194-.316 4.368-.177 6.473.491 10.322 5.052 22.662 9.82 32.268 14.54.583.33.92.446.963.516l.002.01v.01l-.001.002-.003.006c-.026.036-.154.066-.39.122-11.09 2.661-18.354 10.967-22.05 21.027l-42.917-13.2c6.268-12.262 16.148-22.155 25.655-23.523z" transform="scale(-1 1)rotate(.489 1928.487 -68557.372)"/><path fill="url(#X)" fill-rule="evenodd" d="m219.98 252.566 30.833 8.473.744 4.597-25.485 8.233c-.827-1.856-1.677-3.757-2.444-5.555-2.037-4.783-3.488-8.844-3.998-11.348s-.08-3.452.35-4.4" transform="scale(-1 1)rotate(.489 1928.487 -68557.372)"/><path fill="url(#Y)" d="M380.74 202.206c1.074.392 16.001 5.815 27.822 10.097l.46.224c.42.238.66.32.686.37v.009l.001.002v.004l-.002.002v.002l-.002.002c-.021.024-.11.044-.275.083-7.403 1.777-12.41 7.091-15.17 13.653l-29.415-7.251c3.367-8.688 9.081-15.836 15.893-17.195h.004zm0 0c1.992-.397 3.986-.447 5.33-.021 1.44.705 2.94 1.403 4.467 2.094l.006.003.025.013c5.984 2.709 12.42 5.317 17.774 7.902z" transform="scale(-1 1)rotate(.489 1928.487 -68557.372)"/></svg>