<?xml version="1.0" encoding="UTF-8" standalone="no"?>
<svg
   height="128"
   viewBox="0 0 128 128"
   width="128"
   version="1.1"
   id="svg14"
   xml:space="preserve"
   xmlns="http://www.w3.org/2000/svg"
   xmlns:svg="http://www.w3.org/2000/svg"><defs
     id="defs14" /><linearGradient
     id="a"
     gradientUnits="userSpaceOnUse"
     x1="11.999989"
     x2="115.99999"
     y1="64"
     y2="64"
     gradientTransform="translate(-128.39423,-34.716037)"><stop
       offset="0"
       stop-color="#3d3846"
       id="stop1" /><stop
       offset="0.05"
       stop-color="#77767b"
       id="stop2" /><stop
       offset="0.1"
       stop-color="#5e5c64"
       id="stop3" /><stop
       offset="0.899999"
       stop-color="#504e56"
       id="stop4" /><stop
       offset="0.95"
       stop-color="#77767b"
       id="stop5" /><stop
       offset="1"
       stop-color="#3d3846"
       id="stop6" /></linearGradient><linearGradient
     id="b"
     gradientUnits="userSpaceOnUse"
     x1="12"
     x2="112.04102"
     y1="60"
     y2="80.988281"
     gradientTransform="translate(-16.87893,141.75668)"><stop
       offset="0"
       stop-color="#77767b"
       id="stop7" /><stop
       offset="0.384443"
       stop-color="#9a9996"
       id="stop8" /><stop
       offset="0.720567"
       stop-color="#77767b"
       id="stop9" /><stop
       offset="1"
       stop-color="#68666f"
       id="stop10" /></linearGradient><path
     style="fill:#b3b3b3;fill-opacity:1;fill-rule:evenodd;stroke:none;stroke-width:0.774;stroke-dasharray:none;stroke-opacity:1"
     d="M 18.079505,95.682222 C 17.269278,95.210308 16.803531,92.535828 17.381282,74.048378 l 0.574524,-20.549679 h 3.44974 c 3.03016,0 3.558001,-0.742845 4.104316,0.704505 0.499278,1.322738 -0.03685,-0.40035 1.729035,-0.40035 2.768619,0 0.470905,0.223246 1.860754,0.317826 L 30.867417,53.056757 63.640381,52.25 l 33.301786,0.663615 1.684783,2.458738 c 0.914125,1.334056 2.38981,1.24383 2.42852,-1.23973 0,-1.148054 5.54512,-1.966783 6.50538,-1.378051 l 3.32303,0.523156 0.17678,21.433942 c 0.14808,17.954716 -0.24221,20.558769 -0.94531,20.828585 -1.4249,0.546785 -91.086397,0.69497 -92.035845,0.141967 z"
     id="path20" /><path
     d="M 20.236797,50.31864 H 108.2368 c 4.41797,0 8,3.58203 8,8 v 72.0697 c 0,4.41797 -3.58203,8 -8,8 H 20.236797 c -4.417969,0 -8,-3.58203 -8,-8 v -72.0697 c 0,-4.41797 3.582031,-8 8,-8 z"
     fill="url(#a)"
     id="path24"
     style="fill:url(#a-4)" /><path
     id="path11"
     style="fill:#222222;fill-opacity:1"
     d="m 71.705542,28.05631 c -1.12555,0.001 -2.260602,0.0481 -3.382813,0.0156 h -16.609374 -0.01758 c -4.11711,-0.0952 -8.111994,2.86603 -8.990234,6.9336 -0.55057,2.26785 -0.259488,4.60433 -0.335937,6.91406 v 4.80664 h 8.003906 c 0.01629,-3.20106 -0.02369,-6.4123 0.0332,-9.61133 0.14801,-0.81 0.783096,-1.01158 1.472656,-1.05469 h 0.002 c 0.0984,-0.006 0.200751,9e-4 0.300782,0 0.26512,-0.002 0.518866,-8.1e-4 0.753906,0 h 20.091797 c 1.27567,-0.0325 1.431093,1.34895 1.339843,2.31055 v 8.35547 h 7.988282 c -0.0244,-3.42218 0.04877,-6.84573 -0.04883,-10.26563 -0.288701,-3.92738 -3.355731,-7.45457 -7.25,-8.15429 -1.108711,-0.21226 -2.22407,-0.25081 -3.34961,-0.25 z" /><path
     style="fill:#666666;fill-opacity:1;fill-rule:evenodd;stroke:#1a1a1a;stroke-width:0.1935;stroke-dasharray:none;stroke-opacity:1"
     d="m 17.625,51.009008 0.375,-4.1875 51.827665,-0.545496 41.047335,0.732996 -0.125,3.125 0.5,1.875 -5.375,-0.125 L 66.15533,52.69911 19.25,52.696508 Z"
     id="path23" /><path
     id="rect17"
     style="fill:#222222;fill-rule:evenodd;stroke-width:1.06115"
     d="m 17.228985,51.58761 93.426365,0.0186 v 2.51416 l -93.426365,0.11925 z" /><path
     d="m 20.412578,46.64251 h 87.648442 c 1.75781,0 3.18359,0.88305 3.18359,1.97318 v 45.59737 c 0,1.09013 -1.42578,1.97318 -3.18359,1.97318 H 20.412578 c -1.757812,0 -3.183593,-0.88305 -3.183593,-1.97318 V 48.61569 c 0,-1.09013 1.425781,-1.97318 3.183593,-1.97318 z"
     fill="none"
     stroke="#573718"
     stroke-width="1.54772"
     id="path28"
     style="stroke:#1a1a1a" /><path
     d="M 16.236797,44.38834 H 112.2368 c 4.41797,0 8,3.58203 8,8 v 26 c 0,4.41797 -3.53906,8.57812 -7.84766,9.55469 -11.77734,2.66797 -19.335937,5.71484 -40.152343,6.33203 -4.417969,0.13281 -11.582031,0.13281 -16,0 C 35.451641,93.64225 27.627422,90.53287 16.084453,87.9274 11.775859,86.95084 8.236797,82.80631 8.236797,78.38834 v -26 c 0,-4.41797 3.582031,-8 8,-8 z m 0,0"
     fill="url(#e)"
     id="path30"
     style="fill:url(#e)" /><path
     d="m 64.000384,56.872353 c -1.188725,0 -2.158252,0.96953 -2.158252,2.15825 v 0.51427 c 0,1.00324 -0.817775,1.94748 -1.770441,2.25943 -0.05059,0.0173 -0.101179,0.0252 -0.134891,0.0421 -0.961097,0.32035 -2.175115,0.0336 -2.765261,-0.77563 l -0.303506,-0.42147 c -0.337227,-0.46366 -0.843065,-0.77562 -1.407921,-0.85993 -0.564856,-0.0928 -1.146572,0.0421 -1.601829,0.37938 -0.969528,0.69975 -1.188724,2.04866 -0.480548,3.01819 l 0.303504,0.42997 c 0.598578,0.80934 0.488979,2.05707 -0.118035,2.86641 -0.01684,0.0337 -0.04215,0.076 -0.07588,0.10964 -0.590146,0.81777 -1.736718,1.29832 -2.697816,0.98639 l -0.497407,-0.16012 c -1.129712,-0.37096 -2.352159,0.25293 -2.714679,1.38262 -0.370949,1.13816 0.244489,2.35218 1.382631,2.72311 l 0.480547,0.16015 c 0.961098,0.31193 1.5934,1.3742 1.618691,2.37744 v 0.15173 c 0.03373,1.00323 -0.657593,2.07393 -1.61026,2.38586 l -0.488978,0.15173 c -1.138142,0.37093 -1.75358,1.59339 -1.382631,2.7231 0.36252,1.1297 1.584967,1.75359 2.714679,1.38262 l 0.497407,-0.16014 c 0.961098,-0.31193 2.10767,0.16856 2.697816,0.98639 0.02529,0.0336 0.059,0.076 0.08431,0.10964 0.598577,0.80934 0.699747,2.05709 0.109596,2.86643 l -0.311935,0.43839 c -0.699746,0.96111 -0.48898,2.31002 0.480549,3.00977 0.961097,0.69973 2.310005,0.48898 3.00975,-0.47212 l 0.311936,-0.42996 c 0.590146,-0.81779 1.804163,-1.09601 2.756829,-0.77564 0.04215,0.0173 0.101157,0.0252 0.13489,0.0421 0.961099,0.30352 1.770443,1.24775 1.770443,2.25943 v 0.51432 c 0,1.18872 0.969526,2.15825 2.158253,2.15825 1.188724,0 2.158252,-0.96953 2.158252,-2.15825 v -0.51427 c 0,-1.01168 0.817775,-1.95592 1.77044,-2.25943 0.05059,-0.0173 0.101157,-0.0336 0.14333,-0.0505 0.952668,-0.31193 2.166684,-0.0336 2.75683,0.78407 l 0.311937,0.42995 c 0.699744,0.96111 2.048652,1.17186 3.00975,0.47212 0.961096,-0.69973 1.180294,-2.04864 0.480548,-3.00975 l -0.320351,-0.43847 c -0.590149,-0.80935 -0.48898,-2.0571 0.118034,-2.86645 0.02529,-0.0336 0.05059,-0.076 0.08431,-0.10963 0.590146,-0.81779 1.736718,-1.29834 2.697815,-0.98641 l 0.505839,0.16856 c 1.129717,0.36252 2.343735,-0.26136 2.714684,-1.39106 0.37095,-1.12972 -0.252919,-2.35217 -1.38263,-2.71469 l -0.49741,-0.16015 c -0.961096,-0.31192 -1.584967,-1.38261 -1.610258,-2.38586 0,-0.0506 0,-0.10122 0,-0.15173 -0.03373,-1.00323 0.649162,-2.06551 1.610258,-2.37744 l 0.49741,-0.16014 c 1.129711,-0.37094 1.75358,-1.58496 1.38263,-2.72311 -0.370949,-1.12969 -1.584967,-1.75357 -2.714678,-1.38261 l -0.497408,0.16014 c -0.961098,0.31193 -2.116099,-0.16856 -2.706245,-0.98639 -0.02529,-0.0336 -0.05058,-0.076 -0.08431,-0.10964 -0.598579,-0.80934 -0.699747,-2.05707 -0.109596,-2.86642 l 0.311934,-0.42997 c 0.699747,-0.96108 0.48898,-2.31844 -0.480548,-3.01819 -0.463688,-0.33722 -1.036973,-0.47211 -1.601829,-0.38779 -0.573286,0.0928 -1.079126,0.40467 -1.407921,0.86836 l -0.311936,0.42152 c -0.590147,0.81778 -1.804163,1.09598 -2.765261,0.78405 -0.03373,-0.0173 -0.08431,-0.0336 -0.134891,-0.0505 -0.952665,-0.30351 -1.770441,-1.24775 -1.770441,-2.25942 v -0.51427 c 0,-1.18872 -0.969528,-2.15826 -2.158252,-2.15826 z m 0,8.63301 c 1.88004,0 3.616758,0.59015 5.033111,1.60184 0.0085,0.0173 0.01684,0.0336 0.03373,0.0505 0.02529,0.009 0.04215,0.0173 0.06745,0.0337 1.424783,1.04539 2.50391,2.52919 3.068765,4.26591 v 0.0173 c 0,0 0.01684,0.009 0.01684,0.0173 0.632299,1.83788 0.337227,3.5746 0,5.30289 0,0 -0.01684,0.009 -0.01684,0.0173 v 0.009 c -0.564855,1.72828 -1.635549,3.21209 -3.051902,4.26593 -0.03373,0.009 -0.059,0.0252 -0.08431,0.0421 -0.01684,0.009 -0.03373,0.0252 -0.04215,0.0421 -1.416373,1.01052 -3.15309,1.60067 -5.033131,1.60067 -1.846319,0 -3.549315,-0.5733 -4.940377,-1.5428 -0.04215,-0.0336 -0.09274,-0.076 -0.134891,-0.10123 -0.02529,-0.0173 -0.05059,-0.0336 -0.07588,-0.0421 -1.407923,-1.04542 -2.478617,-2.50392 -3.035042,-4.19847 -0.0085,-0.0336 -0.01684,-0.0506 -0.02529,-0.076 -0.0085,-0.0173 -0.01684,-0.0336 -0.02529,-0.042 -0.615441,-1.82947 -0.320367,-3.54932 0,-5.26075 0.01684,-0.0173 0.02529,-0.0252 0.02529,-0.0421 0.0085,-0.0252 0.02529,-0.0506 0.02529,-0.0844 0.564855,-1.69458 1.635551,-3.15308 3.051904,-4.19849 0.02529,-0.009 0.04215,-0.0173 0.059,-0.0336 0.04215,-0.0252 0.09274,-0.0674 0.126452,-0.10122 1.399514,-0.96952 3.102511,-1.54279 4.94883,-1.54279 z m 0,0"
     fill="#222222"
     id="path1"
     style="fill:#222222;fill-opacity:1;stroke-width:2.15825" /><path
     id="rect19"
     style="fill:#222222;fill-opacity:1;fill-rule:evenodd;stroke-width:1.05894"
     d="m 128,232.44623 h 6 a 2.75,2.75 45 0 1 2.75,2.75 v 9.67516 a 2.75,2.75 135 0 1 -2.75,2.75 h -6 a 2.75,2.75 45 0 1 -2.75,-2.75 v -9.67516 a 2.75,2.75 135 0 1 2.75,-2.75 z"
     transform="matrix(0.52173913,0,0,0.52173913,-40.405659,-72.321416)" /><path
     id="rect19-4"
     style="fill:#222222;fill-opacity:1;fill-rule:evenodd;stroke-width:1.05894"
     d="m 128,232.44623 h 6 a 2.75,2.75 45 0 1 2.75,2.75 v 9.67516 a 2.75,2.75 135 0 1 -2.75,2.75 h -6 a 2.75,2.75 45 0 1 -2.75,-2.75 v -9.67516 a 2.75,2.75 135 0 1 2.75,-2.75 z"
     transform="matrix(0.52173913,0,0,0.52173913,31.594341,-72.321416)" /></svg>
