<svg xmlns="http://www.w3.org/2000/svg" xmlns:xlink="http://www.w3.org/1999/xlink" xml:space="preserve" width="1000" height="700"><defs><linearGradient id="F"><stop offset="0" style="stop-color:#1f396c;stop-opacity:1"/><stop offset="1" style="stop-color:#2a4c8f;stop-opacity:0"/></linearGradient><linearGradient id="E"><stop offset="0" style="stop-color:#383633;stop-opacity:1"/><stop offset="1" style="stop-color:#2e2c2a;stop-opacity:0"/></linearGradient><linearGradient id="D"><stop offset="0" style="stop-color:#a9a9a9;stop-opacity:1"/><stop offset=".5" style="stop-color:#fff;stop-opacity:1"/><stop offset="1" style="stop-color:#a9a9a9;stop-opacity:1"/></linearGradient><linearGradient id="C"><stop offset="0" style="stop-color:#284b90;stop-opacity:1"/><stop offset="1" style="stop-color:#284b90;stop-opacity:0"/></linearGradient><linearGradient id="B"><stop offset="0" style="stop-color:#423f3c;stop-opacity:1"/><stop offset="1" style="stop-color:#423f3c;stop-opacity:0"/></linearGradient><linearGradient id="u"><stop offset="0" style="stop-color:#54514e;stop-opacity:1"/><stop offset="1" style="stop-color:#43403d;stop-opacity:0"/></linearGradient><linearGradient id="t"><stop offset="0" style="stop-color:#3b3936;stop-opacity:1"/><stop offset="1" style="stop-color:#2c2b29;stop-opacity:1"/></linearGradient><linearGradient id="I"><stop offset="0" style="stop-color:#3059a9;stop-opacity:.22426501"/><stop offset="1" style="stop-color:#152648;stop-opacity:0"/></linearGradient><linearGradient id="s"><stop offset="0" style="stop-color:#2c529b;stop-opacity:1"/><stop offset=".505" style="stop-color:#678ed5;stop-opacity:1"/><stop offset="1" style="stop-color:#2c529b;stop-opacity:1"/></linearGradient><linearGradient id="r"><stop offset="0" style="stop-color:#3f3d3a;stop-opacity:1"/><stop offset="1" style="stop-color:#302e2c;stop-opacity:1"/></linearGradient><linearGradient id="q"><stop offset="0" style="stop-color:#1d3a6b;stop-opacity:1"/><stop offset="1" style="stop-color:#23447e;stop-opacity:0"/></linearGradient><linearGradient id="p"><stop offset="0" style="stop-color:#23447e;stop-opacity:1"/><stop offset="1" style="stop-color:#23447e;stop-opacity:0"/></linearGradient><linearGradient id="o"><stop offset="0" style="stop-color:#3059a9;stop-opacity:1"/><stop offset="1" style="stop-color:#3059a9;stop-opacity:1"/></linearGradient><linearGradient id="n"><stop offset="0" style="stop-color:#373432;stop-opacity:1"/><stop offset="1" style="stop-color:#373432;stop-opacity:0"/></linearGradient><linearGradient id="m"><stop offset="0" style="stop-color:#373432;stop-opacity:1"/><stop offset="1" style="stop-color:#373432;stop-opacity:0"/></linearGradient><linearGradient id="l"><stop offset="0" style="stop-color:#373432;stop-opacity:1"/><stop offset="1" style="stop-color:#373432;stop-opacity:0"/></linearGradient><linearGradient id="k"><stop offset="0" style="stop-color:#181b1a;stop-opacity:1"/><stop offset="1" style="stop-color:#181b1a;stop-opacity:0"/></linearGradient><linearGradient id="j"><stop offset="0" style="stop-color:#373432;stop-opacity:1"/><stop offset="1" style="stop-color:#282624;stop-opacity:1"/></linearGradient><linearGradient id="i"><stop offset="0" style="stop-color:#294e90;stop-opacity:1"/><stop offset=".596" style="stop-color:#4173cc;stop-opacity:1"/><stop offset="1" style="stop-color:#294e90;stop-opacity:1"/></linearGradient><linearGradient id="h"><stop offset="0" style="stop-color:#2c519a;stop-opacity:1"/><stop offset=".298" style="stop-color:#3159ac;stop-opacity:1"/><stop offset="1" style="stop-color:#1e386a;stop-opacity:1"/></linearGradient><linearGradient id="g"><stop offset="0" style="stop-color:#060b14;stop-opacity:1"/><stop offset="1" style="stop-color:#274989;stop-opacity:0"/></linearGradient><linearGradient id="f"><stop offset="0" style="stop-color:#264786;stop-opacity:1"/><stop offset="1" style="stop-color:#1e386a;stop-opacity:1"/></linearGradient><linearGradient id="e"><stop offset="0" style="stop-color:#254582;stop-opacity:1"/><stop offset="1" style="stop-color:#284b8e;stop-opacity:1"/></linearGradient><linearGradient id="d"><stop offset="0" style="stop-color:#1d3565;stop-opacity:1"/><stop offset="1" style="stop-color:#23417b;stop-opacity:1"/></linearGradient><linearGradient id="c"><stop offset="0" style="stop-color:#254683;stop-opacity:1"/><stop offset="1" style="stop-color:#244481;stop-opacity:1"/></linearGradient><linearGradient id="b"><stop offset="0" style="stop-color:#182c53;stop-opacity:1"/><stop offset="1" style="stop-color:#24417d;stop-opacity:1"/></linearGradient><linearGradient id="A"><stop offset="0" stop-color="#4e4c4b"/><stop offset="1" stop-color="#343232"/></linearGradient><linearGradient id="v"><stop offset="0" stop-color="#d6d8d7"/><stop offset="1" stop-color="#b0b4b1"/></linearGradient><linearGradient id="x"><stop offset="0" stop-color="#d6d8d7"/><stop offset="1" stop-color="#b0b4b1"/></linearGradient><linearGradient id="w"><stop offset="0" stop-color="#d6d8d7"/><stop offset="1" stop-color="#b0b4b1"/></linearGradient><linearGradient id="z"><stop offset="0" stop-color="#686f6f"/><stop offset=".5" stop-color="#7d8484"/><stop offset="1" stop-color="#373b3b"/></linearGradient><linearGradient xlink:href="#a" id="U" x1="324.912" x2="553.023" y1="1116.645" y2="1153.361" gradientTransform="translate(174.262 -367.346)scale(.73118)" gradientUnits="userSpaceOnUse"/><linearGradient id="a"><stop offset="0" style="stop-color:#000001;stop-opacity:1"/><stop offset=".5" style="stop-color:#191c1b;stop-opacity:1"/><stop offset="1" style="stop-color:#333835;stop-opacity:1"/></linearGradient><linearGradient xlink:href="#b" id="T" x1="333.202" x2="554.295" y1="1081.52" y2="1086.519" gradientTransform="translate(174.262 -367.346)scale(.73118)" gradientUnits="userSpaceOnUse"/><linearGradient xlink:href="#c" id="S" x1="323.513" x2="554.132" y1="1087.467" y2="1097.502" gradientTransform="translate(174.262 -367.346)scale(.73118)" gradientUnits="userSpaceOnUse"/><linearGradient xlink:href="#d" id="R" x1="339.45" x2="535.237" y1="1120.568" y2="1120.568" gradientTransform="translate(174.262 -367.346)scale(.73118)" gradientUnits="userSpaceOnUse"/><linearGradient xlink:href="#e" id="V" x1="-254.733" x2="-130.685" y1="498.737" y2="495.936" gradientTransform="translate(660.577 59.012)scale(.73118)" gradientUnits="userSpaceOnUse"/><linearGradient xlink:href="#f" id="aG" x1="-254.818" x2="-241.759" y1="482.005" y2="482.882" gradientTransform="translate(660.577 59.012)scale(.73118)" gradientUnits="userSpaceOnUse"/><linearGradient xlink:href="#g" id="as" x1="-486.469" x2="-445.777" y1="-165.382" y2="-113.44" gradientTransform="rotate(1.163 -17951.529 36540.013)scale(.73118)" gradientUnits="userSpaceOnUse"/><linearGradient xlink:href="#h" id="aj" x1="-263.645" x2="-270.841" y1="116.201" y2="367.814" gradientTransform="translate(662.129 51.204)scale(.73118)" gradientUnits="userSpaceOnUse"/><linearGradient xlink:href="#i" id="ak" x1="-326.774" x2="-334.681" y1="113.913" y2="229.998" gradientTransform="translate(662.129 51.204)scale(.73118)" gradientUnits="userSpaceOnUse"/><linearGradient xlink:href="#j" id="ah" x1="-89.803" x2="-23.911" y1="107.553" y2="213.266" gradientTransform="translate(662.129 51.204)scale(.73118)" gradientUnits="userSpaceOnUse"/><linearGradient xlink:href="#k" id="ai" x1="-103.945" x2="-89.093" y1="199.105" y2="198.219" gradientTransform="matrix(.61682 0 0 .73118 649.777 51.203)" gradientUnits="userSpaceOnUse"/><linearGradient xlink:href="#l" id="ax" x1="-88.13" x2="-6.812" y1="169.462" y2="169.462" gradientTransform="translate(662.129 51.204)scale(.73118)" gradientUnits="userSpaceOnUse"/><linearGradient xlink:href="#m" id="aw" x1="-88.13" x2="-6.812" y1="141.962" y2="141.962" gradientTransform="translate(662.129 51.204)scale(.73118)" gradientUnits="userSpaceOnUse"/><linearGradient xlink:href="#n" id="ay" x1="-88.13" x2="-6.812" y1="194.712" y2="194.712" gradientTransform="translate(662.129 51.204)scale(.73118)" gradientUnits="userSpaceOnUse"/><linearGradient xlink:href="#o" id="at" x1="-526.079" x2="-514.849" y1="110.966" y2="205.424" gradientTransform="translate(662.129 51.204)scale(.73118)" gradientUnits="userSpaceOnUse"/><linearGradient xlink:href="#p" id="az" x1="-553.295" x2="-503.537" y1="139.301" y2="139.301" gradientTransform="translate(662.129 46.163)scale(.73118)" gradientUnits="userSpaceOnUse"/><linearGradient xlink:href="#p" id="aA" x1="-553.295" x2="-503.537" y1="139.301" y2="139.301" gradientTransform="translate(662.129 62.19)scale(.73118)" gradientUnits="userSpaceOnUse"/><linearGradient xlink:href="#p" id="aB" x1="-553.295" x2="-503.537" y1="139.301" y2="139.301" gradientTransform="translate(662.129 76.15)scale(.73118)" gradientUnits="userSpaceOnUse"/><linearGradient xlink:href="#q" id="aC" x1="-553.295" x2="-503.537" y1="139.301" y2="139.301" gradientTransform="translate(662.769 93.165)scale(.73118)" gradientUnits="userSpaceOnUse"/><linearGradient xlink:href="#r" id="au" x1="-446.106" x2="-438.361" y1="85.295" y2="250.094" gradientTransform="translate(662.129 51.204)scale(.73118)" gradientUnits="userSpaceOnUse"/><linearGradient xlink:href="#s" id="ag" x1="-374.717" x2="-378.419" y1="87.743" y2="268.327" gradientTransform="translate(662.129 51.204)scale(.73118)" gradientUnits="userSpaceOnUse"/><linearGradient xlink:href="#t" id="af" x1="14.496" x2="39.131" y1="-378.915" y2="-364.396" gradientTransform="matrix(.90103 0 0 .9348 222.502 527.694)" gradientUnits="userSpaceOnUse"/><linearGradient xlink:href="#u" id="aD" x1="-447.098" x2="-434.033" y1="85" y2="138.154" gradientTransform="translate(662.129 51.204)scale(.73118)" gradientUnits="userSpaceOnUse"/><linearGradient xlink:href="#v" id="X" x1="67.768" x2="25.666" y1="248.97" y2="267.237" gradientTransform="matrix(.90103 .28739 -.4262 .62444 279.66 -5.708)" gradientUnits="userSpaceOnUse"/><linearGradient xlink:href="#w" id="Y" x1="-37.528" x2="-45.94" y1="294.3" y2="303.421" gradientTransform="matrix(.90103 .28739 -.4262 .62444 279.66 -5.708)" gradientUnits="userSpaceOnUse"/><linearGradient xlink:href="#x" id="Z" x1="-1.438" x2="-11.334" y1="277.751" y2="285.429" gradientTransform="matrix(.90103 .28739 -.4262 .62444 279.66 -5.708)" gradientUnits="userSpaceOnUse"/><linearGradient xlink:href="#z" id="aa" x1="61.281" x2="-51.43" y1="247.875" y2="311.894" gradientTransform="matrix(.90102 .2874 -.4262 .62444 278.865 -5.842)" gradientUnits="userSpaceOnUse"/><linearGradient xlink:href="#A" id="ab" x1="29.499" x2="-53.528" y1="261.487" y2="317.759" gradientTransform="matrix(.90102 .2874 -.4262 .62444 278.865 -5.842)" gradientUnits="userSpaceOnUse"/><linearGradient xlink:href="#A" id="ac" x1="29.499" x2="-53.528" y1="261.487" y2="317.759" gradientTransform="matrix(.90102 .2874 -.4262 .62444 278.865 -5.842)" gradientUnits="userSpaceOnUse"/><linearGradient xlink:href="#A" id="ad" x1="29.499" x2="-53.528" y1="261.487" y2="317.759" gradientTransform="matrix(.90102 .2874 -.4262 .62444 278.865 -5.842)" gradientUnits="userSpaceOnUse"/><linearGradient xlink:href="#A" id="ae" x1="29.499" x2="-53.528" y1="261.487" y2="317.759" gradientTransform="matrix(.90102 .2874 -.4262 .62444 278.865 -5.842)" gradientUnits="userSpaceOnUse"/><linearGradient xlink:href="#B" id="aE" x1="-588.23" x2="-568.999" y1="162.737" y2="165.225" gradientTransform="translate(662.129 51.204)scale(.73118)" gradientUnits="userSpaceOnUse"/><linearGradient xlink:href="#C" id="ar" x1="328.804" x2="338.376" y1="286.367" y2="286.724" gradientTransform="translate(-11.686 -111.919)scale(1.3422)" gradientUnits="userSpaceOnUse"/><linearGradient xlink:href="#D" id="aF" x1="348.305" x2="363.941" y1="210.923" y2="247.423" gradientTransform="translate(-7.827 -111.919)scale(1.3422)" gradientUnits="userSpaceOnUse"/><linearGradient xlink:href="#E" id="aq" x1="347.891" x2="376.969" y1="342.837" y2="341.095" gradientTransform="translate(-11.686 -111.919)scale(1.3422)" gradientUnits="userSpaceOnUse"/><linearGradient xlink:href="#F" id="ap" x1="479.706" x2="469.251" y1="224.333" y2="193.111" gradientTransform="translate(75.406 13.862)" gradientUnits="userSpaceOnUse"/><linearGradient xlink:href="#G" id="W" x1="304.429" x2="304.429" y1="80.857" y2="553.674" gradientTransform="translate(84.806 -148.7)scale(1.35224)" gradientUnits="userSpaceOnUse"/><linearGradient id="G"><stop offset="0" style="stop-color:#222;stop-opacity:1"/><stop offset=".435" style="stop-color:#9e9e9e;stop-opacity:1"/><stop offset="1" style="stop-color:#222;stop-opacity:1"/></linearGradient><radialGradient xlink:href="#I" id="av" cx="-496.217" cy="167.239" r="6.284" fx="-496.217" fy="167.239" gradientTransform="matrix(.73118 0 0 6.54816 662.129 -921.621)" gradientUnits="userSpaceOnUse"/></defs><g transform="translate(55.163 69.681)"><path d="M410.812 426.836c.282 24.423 2.723 48.797 5.944 73.004 35.615 21.502 134.966 19.117 159.076-1.516 1.555-15.571 3.72-71.377 3.72-71.377z" style="fill:url(#R);fill-opacity:1;fill-rule:evenodd;stroke-width:2.92473"/><path d="M578.842 426.064c-11.011 17.003-158.154 19.192-167.613.286a6 6 0 0 0-.42 1.44q.018 1.002.04 2.004c4.513 20.523 164.204 17.98 168.554-.504q.017-.792.03-1.584a5.1 5.1 0 0 0-.59-1.642" style="fill:url(#S);fill-opacity:1;fill-rule:evenodd;stroke-width:3.09491"/><path d="M579.553 427.228c0 8.918-38.214 16.016-84.59 16.016s-84.152-7.21-84.152-16.127 37.775-16.166 84.152-16.166c46.376 0 84.59 7.36 84.59 16.277" style="vector-effect:none;fill:url(#T);fill-opacity:1;fill-rule:evenodd;stroke-width:15.0338;stop-color:#000"/><path d="M578.622 449.127c-24.812 23.653-133.375 26.643-166.79 3.176.067 2.58.29 5.19.574 7.811.39 3.605.894 7.23 1.26 10.815 55.723 7.471 110.058 5.93 163.72 0 .428-8.152.895-14.095 1.236-21.804z" style="fill:url(#U);fill-opacity:1;fill-rule:evenodd;stroke-width:2.92473"/><path d="M578.494 451.994c-24.814 23.652-133.043 26.724-166.458 3.257 1.07 14.907 2.749 29.78 4.72 44.589 16.69 10.076 47.374 14.905 77.755 15.07 24.163-.124 47.837-2.907 64.503-8.097 7.157-2.346 12.954-5.183 16.817-8.49.858-8.58 1.9-29.384 2.662-46.33" style="fill:#282624;fill-opacity:1;fill-rule:evenodd;stroke-width:2.92473"/><path d="M528.704 416.759c-29.788 0-53.649 3.237-56.906 9.285-.234.435-1.507.832-1.507.832.08.445 34.759 6.502 52.895 5.751 18.6-.771 34.68-6.636 44.776-13.57-.516-.429-1.027.956-1.537.524-10.545-1.823-23.909-2.821-37.72-2.822" style="fill:url(#V);fill-rule:evenodd;stroke-width:2.92474"/><path fill="#222" d="M496.616-39.363c-21.997 0-39.957 17.959-39.957 39.974v9.516c0 18.571-15.145 36.049-32.77 41.845-.927.314-1.872.462-2.5.758-17.793 5.926-40.27.63-51.194-14.348l-5.629-7.814a39.43 39.43 0 0 0-26.07-15.922 39.25 39.25 0 0 0-29.661 7.035 39.807 39.807 0 0 0-8.887 55.88l5.61 7.96c11.09 14.998 9.072 38.086-2.184 53.064a7.5 7.5 0 0 1-1.407 2.037c-10.925 15.145-32.143 24.033-49.935 18.256l-9.221-2.963a39.807 39.807 0 0 0-50.27 25.607 39.88 39.88 0 0 0 25.608 50.416l8.886 2.963c17.812 5.777 29.514 25.44 29.995 44.029v2.795c.61 18.59-12.183 38.402-29.829 44.178l-9.052 2.814a39.94 39.94 0 0 0-25.608 50.417 39.807 39.807 0 0 0 50.27 25.606l9.22-2.963c17.774-5.776 39.01 3.11 49.936 18.256.48.611 1.11 1.408 1.573 2.037 11.072 14.98 12.96 38.085 2.037 53.065l-5.796 8.109a39.807 39.807 0 0 0 8.888 55.73c17.81 12.962 42.77 9.073 55.73-8.739l5.796-7.96c10.923-15.146 33.4-20.293 51.027-14.37.797.335 1.888.483 2.5.779 17.792 5.628 32.772 23.107 32.772 41.844v9.517c0 22.014 17.96 39.955 39.974 39.955s39.955-17.96 39.955-39.955v-9.517c0-18.737 15.145-36.216 32.771-41.844.945-.315 1.889-.611 2.667-.926 17.645-5.776 40.122-.629 51.046 14.516l5.777 7.961a39.9 39.9 0 0 0 55.73 8.74c17.775-12.961 21.848-37.92 8.888-55.731l-5.926-8.11c-10.923-14.996-9.071-38.085 2.185-53.082.463-.611.926-1.408 1.556-2.037 10.924-15.127 32.161-24.014 49.953-18.256l9.369 3.129a40.12 40.12 0 0 0 50.25-25.755 39.807 39.807 0 0 0-25.588-50.267l-9.22-2.963c-17.775-5.777-29.346-25.607-29.81-44.178v-2.794c-.63-18.591 12.035-38.253 29.81-44.03l9.22-2.963a39.993 39.993 0 0 0 25.588-50.416 39.9 39.9 0 0 0-50.25-25.607l-9.22 2.963c-17.775 5.777-39.178-3.111-50.102-18.256-.463-.629-.926-1.407-1.556-2.037-11.09-14.98-12.96-38.085-2.037-53.064l5.778-7.962a39.993 39.993 0 0 0-8.887-55.878 40.18 40.18 0 0 0-29.663-7.184 39.62 39.62 0 0 0-26.068 16.07l-5.777 7.815c-10.924 15.145-33.401 20.293-51.194 14.515a19 19 0 0 0-2.5-.925c-17.645-5.63-32.772-23.107-32.772-41.845V.611c0-22.015-17.959-39.974-39.973-39.974Zm0 159.84c34.808 0 66.969 10.924 93.186 29.662a3.7 3.7 0 0 0 .63.926 5.6 5.6 0 0 1 1.259.629 158.5 158.5 0 0 1 56.803 78.985v.334s.316.166.316.314c11.72 34.032 6.258 66.192 0 98.187 0 0-.315.165-.315.314v.185a160.33 160.33 0 0 1-56.49 78.967 5.6 5.6 0 0 0-1.574.778 1.85 1.85 0 0 0-.777.777 159.8 159.8 0 0 1-93.186 29.625 159.23 159.23 0 0 1-91.466-28.55c-.795-.612-1.721-1.409-2.498-1.87a5.6 5.6 0 0 0-1.408-.779 158.5 158.5 0 0 1-56.193-77.744c-.166-.612-.315-.926-.481-1.407a3.6 3.6 0 0 0-.463-.778c-11.387-33.883-5.926-65.71 0-97.39.315-.333.462-.48.462-.796.167-.463.482-.926.482-1.556a159.23 159.23 0 0 1 56.507-77.725 3.7 3.7 0 0 0 1.093-.63 13 13 0 0 0 2.332-1.87 160.33 160.33 0 0 1 91.633-28.569zm0 0" style="fill:url(#W);stroke-width:39.9602"/><path fill="url(#J)" fill-rule="evenodd" d="M236.505 166.81s-.258-.07-.333-.085-.128-.021-.17-.027c-.085-.012-.134-.016-.173-.02-.079-.007-.12-.008-.156-.01l-.176-.005-.388-.004q-.469-.002-1.293 0c-1.099.005-2.664.013-4.583.029-3.839.03-9.1.082-14.861.147-11.513.13-22.162.247-23.54.256-1.163.009-1.94.018-2.753.132a7.2 7.2 0 0 0-2.14.672c-.306.154-.568.296-.804.439-.117.07-.22.13-.388.263-.083.067-.188.123-.375.393-.092.136-.259.336-.22.778.039.441.673 1.11 1.294 1.308 0 0 .357.09.44.103.085.014.133.02.174.023.08.008.117.01.149.012.063.004.09.004.117.005l.124.002h.28q.34 0 .949-.004c.81-.006 1.966-.017 3.389-.03 2.845-.029 6.753-.074 11.04-.125 28.263-.346 31.764-.373 32.476-.35.341.011.65.013.95.001a2.75 3.987 89.21 0 0 .504-.037c.107-.012.227-.025.457-.083.231-.06.77-.029 1.313-.824.32-.468.262-.674.263-.878a3.093 4.486 89.21 0 0-.072-.552 2.75 3.987 89.21 0 0-.22-.554c-.119-.21-.004-.57-1.274-.975" style="fill:url(#X);stroke-width:.827722"/><path fill="url(#K)" fill-rule="evenodd" d="m122.379 166.587-.226-.046s-.067-.006-.088-.006c-.04-.002-.061 0-.077 0-.032.001-.046.003-.058.004l-.066.004-.15.016-.487.054-1.536.182a191.765 278.105 89.21 0 0-3.23.397c-3.635.47-6.477.968-8.925 1.566a37.803 54.823 89.21 0 0-1.96.508q-.406.114-.672.198c-.087.028-.16.051-.24.081a.687.997 89.21 0 0-.14.063c-.033.017-.073.035-.134.082a.687.997 89.21 0 0-.11.105l-.065.095-.046.143c.011-.074-.011.06-.03.163l-.069.387a6 6 0 0 0-.075.475c-.006.058-.017.102.013.219.015.058.031.147.178.273.146.126.5.227.723.216.227-.012.174-.02.249-.032l.278-.047c.22-.038.512-.088.836-.147.833-.153 1.726-.284 4.041-.584 2.952-.383 4.457-.643 5.91-1.033.924-.248 1.568-.47 2.7-.927a46.051 66.785 89.21 0 1 2.562-.995c.356-.131.601-.223.775-.295.087-.036.151-.061.242-.11.046-.024.097-.036.212-.153a.55.797 89.21 0 0 .135-.232l.01-.142-.178-.317-.157-.105s-.1-.046-.145-.06" style="fill:url(#Y);stroke-width:.827722"/><path fill="url(#L)" fill-rule="evenodd" d="M160.645 166.8c-.144-.071-.21-.064-.26-.068-.098-.008-.148-.003-.22.001-.142.008-.34.026-.658.058-.634.064-1.727.183-3.585.392-2.54.285-3.906.443-4.866.619-.961.175-1.517.38-2.283.7a52.237 75.756 89.21 0 0-2.021.877c-.285.127-.526.239-.705.325q-.133.065-.224.113a.687.997 89.21 0 0-.089.05c-.03.02-.057.005-.145.134a.31.31 0 0 0 .035.362c.11.115.234.138.305.152.143.029.203.021.288.02a4.811 6.978 89.21 0 0 .734-.056c.693-.066 1.883-.2 3.89-.429 2.004-.229 3.023-.345 3.72-.466.699-.121 1.077-.258 1.638-.474.62-.24 1.858-.711 2.747-1.049.447-.17.859-.327 1.16-.446q.227-.09.365-.149l.117-.048.054-.026c.011-.005.022-.013.044-.026q.015-.009.043-.03l.036-.03.048-.057a1 1 0 0 0 .045-.102l-.01-.14s-.087-.13-.089-.13c0 0-.078-.06-.114-.077" style="fill:url(#Z);stroke-width:.827722"/><path fill="url(#M)" d="M87.104 172.64c-.007-.032.826-.553 1.85-1.158 5.624-3.316 13.117-7.78 13.214-7.87.15-.141 4.28-.025 5.795.161 1.809.224 3.431.666 5.847 1.587 1.184.453 2.191.807 2.238.79.045-.018.917-.247 1.937-.507 8.205-2.098 24.447-3.805 34.827.501l.916.38 2.086-.617c5.225-1.546 9.932-2.178 16.455-2.21a87.074 126.278 89.21 0 0 3.014-.035c1.981-.056 5.833.116 7.735.345 2.762.332 4.691.792 8.252 1.967l1.248.412 1.48-.468c2.6-.821 6.033-1.634 7.22-1.708 10.463-.102 20.928-.202 31.392-.242l3.17-.012c4.312 3.122 10.42 9.61.019 16.64-2.758.224-30.736.122-46.811.345-3.514.05-4.302-.126-7.981-1.772a110.362 160.05 89.21 0 0-3.163-1.386c-.987-.41-.969-.41-2.632.164a29.565 42.876 89.21 0 1-11.603 2.688c-2.652.342-4.672.443-8.967.456-8.97.024-10.036-.153-15.764-2.621-1.121-.482-2.105-.877-2.188-.878-.082 0-.813.233-1.625.52-3.768 1.329-7.713 2.306-11.293 2.797-3.656.501-6.566.651-14.56.753l-5.781.074-1.365-.762c-.75-.418-3.675-2.03-6.502-3.582-5.885-3.231-8.442-4.667-8.46-4.752m17.087-2.725-.102.58-.104.582.637-.1c4.162-.831 8.765-.86 12.558-2.389a50.625 73.417 89.21 0 1 2.989-1.173c.963-.342 1.144-.42 1.067-.46-5.827.685-11.621 1.3-17.045 2.96m40.665.245c.041.022 2.152-.204 4.692-.5l4.619-.54 2.052-.813a48.6 70.48 89.21 0 1 2.972-1.123c.505-.17.885-.328.841-.35-.043-.02-2.353.221-5.134.538-4.268.487-5.179.625-5.84.886-1.318.52-4.28 1.861-4.203 1.903m40.375-.607q-.025.02-.022.03c.018.085 1.527.087 6.436.01 5.093-.08 27.775-.363 35.062-.437a472.834 685.719 89.21 0 1 7.108-.055l1.334.005.011-.52c.007-.286.01-.543.007-.57-.012-.129.548-.133-31.924.26-8.095.098-14.913.157-15.149.131-.246-.026-.637.045-.916.167-.854.37-1.79.843-1.947.98" style="fill:url(#aa);stroke-width:1.2193"/><path fill="url(#N)" d="M109.837 163.996a9.619 13.95 89.21 0 0-2.695-.531c-.939-.116-2.88-.205-4.258-.222-1.262.285-2.275.64-2.955 1.05-5.888 3.554-9.751 6.322-12.921 8.326.765.54 3.052 1.75 7.925 4.425l.273.15 8.779-6.117.206-1.162a23.287 33.772 89.21 0 1 5.502-1.347c1.64-1.031 2.852-2.396 4.117-3.208q-.388-.144-.822-.309c-1.207-.461-2.217-.802-3.15-1.054" style="fill:url(#ab);stroke-width:1.2193"/><path fill="url(#O)" d="M147.148 164.569c-4.994-1.073-10.636-1.24-15.894-.918l-9.208 5.752a3582 3582 0 0 1-15.244 9.487c-2.176 1.337-3.719 2.734-3.371 2.846.347.111 4.523 0 9.083-.125 2.661-.105 5.339-.094 7.982-.335l.214-.02 13.667-8.758c5.055-3.24 9.859-6.213 12.77-7.93" style="fill:url(#ac);stroke-width:1.2193"/><path fill="url(#P)" d="M180.256 163.783c-1.475-.116-9.483-.762-18.722.765-1.15.817-2.143 1.606-3.427 2.47 3.205-.178-.805.672-1.76.965-6.142 4.053-13.016 8.227-17.083 10.654 4.306 2.493 9.11 2.43 14.086 2.455 10.397-6.5 15.515-10.464 26.906-17.31" style="fill:url(#ad);stroke-width:1.2193"/><path fill="url(#Q)" d="M210.666 164.12c-3.45.03-6.69-.17-10.14-.137-1.186.075-4.62.888-7.218 1.709l-1.48.468-1.25-.411q-.147-.05-.29-.095c-2.59 1.653-5.858 3.605-9.1 5.753l-12.674 8.398c2.116-.469 4.464-.79 6.289-1.718 2.635-1.341 2.546.114 7.183 1.515 4.164-.285 6.073-.83 7.324-1.886 1.119-.947 6.608-4.423 12.792-8.265-5.085.065-9.298.206-11.146-.083-3.145-.493-8.766-.55-4.073-.665 5.699-.138 11.56-.436 17.191-.438 2.049-1.451 4.948-2.555 6.59-4.147" style="fill:url(#ae);stroke-width:1.2193"/><path d="M235.563 155.821v33.348a16.189 16.796 0 0 0 4.742 11.876l13.098 13.589h47.493a5.431 5.634 0 0 0 5.431-5.589l.551-71.117a5.344 5.545 0 0 0-5.344-5.588h-48.131l-12.838 11.89a14.977 15.539 0 0 0-5.002 11.591" style="fill:url(#af);fill-opacity:1;fill-rule:evenodd;stroke-width:3.67102"/><path d="M387.965 245.312c-6.022-1.695-16.753-1.766-21.165-3.363-4.413-1.598-3.993-4.462-4.846-26.062s.512-62.195.39-102.533l225.049-.517c10.63 8.337 20.235 16.675-10.23 40.056-30.462 23.38-102.016 61.804-140.196 79.488s-42.982 14.625-49.002 12.93" style="fill:url(#ag);fill-rule:evenodd;stroke-width:2.92474"/><path d="M587.393 112.837c-1.554 42.796-.845 82.653-1.268 123.98 21.918-2.027 42.576-6.065 56.898-13.288 16.846-8.496 19.987-29.623 20.656-48.107 1.344-37.027-6.718-58.408-76.286-62.585" style="fill:url(#ah);fill-rule:evenodd;stroke-width:2.91442"/><path d="M587.393 112.837c-.22 0-1.617 82.652-1.73 123.978.836-.033 2.662-.21 2.662-.21s2.566-35.97 2.566-55.716c0-25.807-.847-50.604-3.498-68.052-.24-.061 0 0 0 0" style="fill:url(#ai);fill-rule:evenodd;stroke-width:1.51103"/><path d="M457.838 323.297c-.814-4.234-1.795-8.003-6.655-12.863-4.667-4.668-12.59-7.575-20.623-13.15-.556-.386-1.795-.988-2.188-1.537-11.497-16.116-23.047-35.09-28.18-51.846-5.24-17.1-4.01-34.972-.896-52.266 3.115-17.294 8.111-34.01 16.643-44.739 8.53-10.728 20.595-15.467 49.721-18.181s75.313-3.404 121.5-4.094l-1.035 112.195c-6.893-.173-13.787-.345-20.94 0-7.152.345-14.561 1.206-22.145 8.359-7.584 7.152-15.338 20.594-23.525 39.207s-16.803 42.396-26.803 52.016-21.386 5.076-27.4.455c-6.016-4.622-6.66-9.322-7.474-13.556" style="fill:url(#aj);fill-opacity:1;fill-rule:evenodd;stroke-width:2.92474"/><path d="M587.134 120.591c-46.188.691-93.698 1.382-122.824 4.096s-41.19 7.452-49.722 18.182c-8.53 10.727-13.53 27.445-16.643 44.738-3.114 17.294-4.343 35.163.897 52.265a69 69 0 0 0 1.236 3.653c.124-2.05.274-4.186.48-7.034.657-9.058 3.029-21.5 6.897-36.311s9.23-31.994 32.08-44.058 63.185-19.01 93.347-22.24c24.461-2.62 43.625-3.73 54.278-9.26z" style="fill:url(#ak);fill-rule:evenodd;stroke-width:2.92474"/><path d="m505.918 215.683 22.488 50.278c4.99-9.249 9.847-16.272 14.635-20.787 7.584-7.153 14.992-8.013 22.145-8.358s14.046-.173 20.94 0l.376-40.908-.29-1.469c-28.507-12.372-54.048 9.414-80.294 21.244" style="fill:url(#ap);fill-opacity:1;fill-rule:evenodd;stroke-width:2.92474"/><path d="M494.687 287.437c2.426 14.546 2.59 24.951-2.162 29.582-4.754 4.63-13.772 7.19-22.485 7.19-4.17 0-8.27-.586-12.033-1.378l.1.38c1.858 13.079 3.05 23.286 3.732 32.082 2.97 16.753 5.94 33.503 7.348 45.433 2.95 11.931 3.152 19.04 1.104 26.15 55.922 8.967 72.798 4.905 97.67-7.82-4.712-19.599-12.897-38.467-15.741-57.163-2.844-18.694-6.186-35.55-10.97-65.593-4.785-30.045-11.353-73.425-25.154-78.14-47.678-16.294-25.62 49.411-21.409 69.277" style="fill:#2e2c2a;fill-opacity:1;fill-rule:evenodd;stroke-width:2.92474"/><path d="m458.008 322.831.1.38c1.857 13.08 3.048 23.288 3.73 32.083 2.97 16.752 5.94 33.502 7.348 45.432 2.73 11.037 3.107 17.949 1.526 24.55a43.102 60.717 0 0 0 23.573-54.126 43.102 60.717 0 0 0-16.372-47.629 45.3 45.3 0 0 1-7.872.689c-4.17 0-8.27-.587-12.033-1.379" style="fill:url(#aq);fill-opacity:1;fill-rule:evenodd;stroke-width:2.92474"/><path d="M407.713 244.864c-2.256 0-4.64.228-7.084.44q.159.485.324.972c9.957-.78 44.69-.13 27.436 49.413l-.017.058c.179.242.519.493.89.731 12.262-21.33 4.742-46.296-10.935-50.559-3.05-.829-6.668-1.058-10.614-1.055" style="fill:url(#ar);fill-opacity:1;fill-rule:evenodd;stroke-width:2.92474"/><path d="M406.317 244.877c-3.946.001-8.288.7-12.647.786.029.165-.125.182-.128.354-.018.865-.217 1.305-.87 1.766 25.42 23.522 4.985 43.843 20.857 46.715 3.395.892 9.12 1.07 14.843 1.249 12.265-21.331 4.236-45.55-11.44-49.813-3.05-.83-6.669-1.06-10.615-1.057" style="fill:#131515;fill-opacity:1;fill-rule:evenodd;stroke-width:2.92474"/><path d="M393.67 245.663c-1.206.022-2.095.35-3.308.34 29.882 24.592 6.72 45.519 23.165 48.495 3.395.892 9.121 1.07 14.845 1.249q.134-.232.265-.463c-3.657-2.638-22.325 4.763-19.416-13.672 2.486-15.763-4.482-25.566-14.964-35.574-.296-.284-.29-.1-.587-.375" style="fill:url(#as);fill-rule:evenodd;stroke-width:2.92474"/><path d="m253.403 132.34-.5.462v81.313l.5.519h47.493a5.431 5.634 0 0 0 5.43-5.589l.552-71.117a5.344 5.545 0 0 0-5.344-5.588z" style="fill:url(#at);fill-opacity:1;fill-rule:evenodd;stroke-width:3.67102"/><path d="M341.606 113.354c-22.2 0-40.072 9.793-40.072 21.959v76.798c0 12.164 17.872 21.957 40.072 21.957l21.163-.004c1.614-40.017 1.29-80.276-.426-120.71z" style="fill:url(#au);fill-opacity:1;fill-rule:evenodd;stroke-width:3.34232"/><path d="M294.71 132.34c0 .03-.004.062 0 .093 1.926 27.8 1.601 55.132 0 82.2h6.186a5.3 5.3 0 0 0 3.001-.938v-80.783a5.2 5.2 0 0 0-2.363-.572z" style="fill:url(#av);fill-opacity:1;fill-rule:evenodd;stroke-width:3.67102"/><rect width="59.458" height="9.133" x="597.69" y="150.438" ry="4.567" style="fill:url(#aw);fill-opacity:1;fill-rule:evenodd;stroke-width:1.30207"/><rect width="59.458" height="9.133" x="597.69" y="170.545" ry="4.567" style="fill:url(#ax);fill-opacity:1;fill-rule:evenodd;stroke-width:1.30207"/><rect width="59.458" height="9.133" x="597.69" y="189.008" ry="4.567" style="fill:url(#ay);fill-opacity:1;fill-rule:evenodd;stroke-width:1.30207"/><rect width="36.382" height="4.747" x="257.569" y="145.644" ry="2.373" style="fill:url(#az);fill-rule:evenodd;stroke-width:.734247"/><rect width="36.382" height="4.747" x="257.569" y="161.672" ry="2.373" style="fill:url(#aA);fill-rule:evenodd;stroke-width:.734247"/><rect width="36.382" height="4.747" x="257.569" y="175.631" ry="2.373" style="fill:url(#aB);fill-rule:evenodd;stroke-width:.734247"/><rect width="36.382" height="4.747" x="258.208" y="192.646" ry="2.373" style="fill:url(#aC);fill-rule:evenodd;stroke-width:.734247"/><path d="M341.606 113.354c-22.2 0-40.072 9.795-40.072 21.959v38.399l60.743-30.193.067-30.165z" style="fill:url(#aD);fill-rule:evenodd;stroke-width:3.34232"/><path d="M239.642 145.164a14.977 15.539 0 0 0-4.08 10.657v33.348a16.189 16.796 0 0 0 2.972 9.695 25.592 39.118 0 0 0 7.552-27.746 25.592 39.118 0 0 0-6.444-25.954" style="fill:url(#aE);fill-opacity:1;fill-rule:evenodd;stroke-width:3.67102"/><path d="M473.937 167.438c-3.534.137-6.938 1.014-9.631 2.52-4.716 2.634-7.567 7.103-7.917 12.304-.308 4.545.867 7.903 3.723 10.754 2.12 2.116 4.742 3.667 10.783 6.388 4.394 1.98 6.263 3.01 7.934 4.37 2.479 2.02 3.594 4.41 3.429 7.304-.153 2.656-1.186 4.723-3.193 6.416-2.573 2.17-6.881 3.032-10.877 2.182-5.005-1.066-8.479-5.134-10.146-11.997l-.266-1.09-1.114.018c-.613.011-1.142.045-1.174.076-.034.03.004 1.21.082 2.612.232 4.165.31 5.962.355 8.187a81 81 0 0 0 .091 2.753l.05.652.493.057 2.07.234c.866.098 2.24.29 3.051.428 2.849.483 4.057.665 5.424.814 2.082.229 5.81.237 7.298.017 4.008-.592 7.256-1.919 9.782-4.002 3.25-2.681 5.013-6.115 5.322-10.44.206-2.894-.311-5.214-1.667-7.422-1.928-3.141-4.927-5.32-11.537-8.35-7.563-3.467-10.508-5.665-11.719-8.78-.844-2.17-.636-5.455.498-7.673 1.363-2.665 3.955-4.395 7.444-4.952 1.356-.217 3.704-.14 5.01.164 1.992.465 3.387 1.29 4.77 2.817 1.982 2.19 2.882 4.41 4.224 10.378.033.145 1.124.2 2.067.105l.542-.055-.017-.534c-.033-1.007.011-5.395.093-9.104.045-2.059.087-4.2.091-4.744l.008-.992-2.078-.057c-1.623-.045-2.5-.13-4.015-.388-3.42-.584-4.116-.689-5.729-.856a25 25 0 0 0-3.554-.114" style="fill:url(#aF);stroke-width:1.43992"/><path d="M470.708 400.726c-.518-.247-1.07.314-1.33.78 2.768 11.463 2.916 18.417.913 25.37 55.923 8.967 72.797 4.906 97.67-7.819-1.367-6.135-3.268-12.011-5.124-18.043-27.97 8.82-55.125 17.492-92.13-.288" style="fill:#1e386a;fill-opacity:1;fill-rule:evenodd;stroke-width:2.92474"/><path d="M470.416 400.667c-.422.019-.828.46-1.038.84 2.768 11.462 2.916 18.416.913 25.37a626 626 0 0 0 10.322 1.569c4.554-3.613 7.329-10.478 5.507-16.878-.55-1.938-1.524-3.835-2.733-5.64a114 114 0 0 1-12.68-5.202.6.6 0 0 0-.291-.06" style="fill:url(#aG);fill-opacity:1;fill-rule:evenodd;stroke-width:2.92474"/></g></svg>