<svg xmlns="http://www.w3.org/2000/svg" xmlns:xlink="http://www.w3.org/1999/xlink" xml:space="preserve" width="256" height="256"><defs><linearGradient id="I"><stop offset="0" style="stop-color:#132343;stop-opacity:1"/><stop offset="1" style="stop-color:#1c3361;stop-opacity:1"/></linearGradient><linearGradient id="C"><stop offset="0" stop-color="#4e4c4b" style="stop-color:#54514e;stop-opacity:1"/><stop offset="1" stop-color="#343232"/></linearGradient><linearGradient id="B"><stop offset="0" stop-color="#4e4c4b" style="stop-color:#54514e;stop-opacity:1"/><stop offset="1" stop-color="#343232" style="stop-color:#484643;stop-opacity:1"/></linearGradient><linearGradient id="A"><stop offset="0" stop-color="#4e4c4b" style="stop-color:#54514e;stop-opacity:1"/><stop offset="1" stop-color="#343232" style="stop-color:#42403d;stop-opacity:1"/></linearGradient><linearGradient id="H"><stop offset="0" style="stop-color:#1f396c;stop-opacity:1"/><stop offset="1" style="stop-color:#2a4c8f;stop-opacity:0"/></linearGradient><linearGradient id="G"><stop offset="0" style="stop-color:#423f3c;stop-opacity:1"/><stop offset="1" style="stop-color:#3d3b38;stop-opacity:0"/></linearGradient><linearGradient id="F"><stop offset="0" style="stop-color:#284b90;stop-opacity:1"/><stop offset="1" style="stop-color:#284b90;stop-opacity:0"/></linearGradient><linearGradient id="D"><stop offset="0" style="stop-color:#4c4a47;stop-opacity:1"/><stop offset="1" style="stop-color:#423f3c;stop-opacity:0"/></linearGradient><linearGradient id="u"><stop offset="0" style="stop-color:#54514e;stop-opacity:1"/><stop offset="1" style="stop-color:#43403d;stop-opacity:0"/></linearGradient><linearGradient id="t"><stop offset="0" style="stop-color:#54514e;stop-opacity:1"/><stop offset="1" style="stop-color:#42403e;stop-opacity:1"/></linearGradient><linearGradient id="S"><stop offset="0" style="stop-color:#3059a9;stop-opacity:.22426501"/><stop offset="1" style="stop-color:#152648;stop-opacity:0"/></linearGradient><linearGradient id="s"><stop offset="0" style="stop-color:#2c529b;stop-opacity:1"/><stop offset=".505" style="stop-color:#678ed5;stop-opacity:1"/><stop offset="1" style="stop-color:#2c529b;stop-opacity:1"/></linearGradient><linearGradient id="r"><stop offset="0" style="stop-color:#585551;stop-opacity:1"/><stop offset="1" style="stop-color:#43403e;stop-opacity:1"/></linearGradient><linearGradient id="q"><stop offset="0" style="stop-color:#1d3a6b;stop-opacity:1"/><stop offset="1" style="stop-color:#23447e;stop-opacity:0"/></linearGradient><linearGradient id="p"><stop offset="0" style="stop-color:#23447e;stop-opacity:1"/><stop offset="1" style="stop-color:#23447e;stop-opacity:0"/></linearGradient><linearGradient id="o"><stop offset="0" style="stop-color:#3059a9;stop-opacity:1"/><stop offset="1" style="stop-color:#3059a9;stop-opacity:1"/></linearGradient><linearGradient id="n"><stop offset="0" style="stop-color:#373432;stop-opacity:1"/><stop offset="1" style="stop-color:#373432;stop-opacity:0"/></linearGradient><linearGradient id="m"><stop offset="0" style="stop-color:#373432;stop-opacity:1"/><stop offset="1" style="stop-color:#373432;stop-opacity:0"/></linearGradient><linearGradient id="k"><stop offset="0" style="stop-color:#373432;stop-opacity:1"/><stop offset="1" style="stop-color:#373432;stop-opacity:0"/></linearGradient><linearGradient id="j"><stop offset="0" style="stop-color:#181b1a;stop-opacity:1"/><stop offset="1" style="stop-color:#181b1a;stop-opacity:0"/></linearGradient><linearGradient id="i"><stop offset="0" style="stop-color:#54514e;stop-opacity:1"/><stop offset="1" style="stop-color:#2d2b2a;stop-opacity:1"/></linearGradient><linearGradient id="h"><stop offset="0" style="stop-color:#294e90;stop-opacity:1"/><stop offset=".596" style="stop-color:#4173cc;stop-opacity:1"/><stop offset="1" style="stop-color:#294e90;stop-opacity:1"/></linearGradient><linearGradient id="g"><stop offset="0" style="stop-color:#2c519a;stop-opacity:1"/><stop offset=".298" style="stop-color:#3159ac;stop-opacity:1"/><stop offset="1" style="stop-color:#1e386a;stop-opacity:1"/></linearGradient><linearGradient id="f"><stop offset="0" style="stop-color:#264786;stop-opacity:1"/><stop offset="1" style="stop-color:#1e386a;stop-opacity:1"/></linearGradient><linearGradient id="e"><stop offset="0" style="stop-color:#254582;stop-opacity:1"/><stop offset="1" style="stop-color:#284b8e;stop-opacity:1"/></linearGradient><linearGradient id="d"><stop offset="0" style="stop-color:#1d3565;stop-opacity:1"/><stop offset="1" style="stop-color:#23417b;stop-opacity:1"/></linearGradient><linearGradient id="c"><stop offset="0" style="stop-color:#254683;stop-opacity:1"/><stop offset="1" style="stop-color:#244481;stop-opacity:1"/></linearGradient><linearGradient id="b"><stop offset="0" style="stop-color:#182c53;stop-opacity:1"/><stop offset="1" style="stop-color:#24417d;stop-opacity:1"/></linearGradient><linearGradient id="z"><stop offset="0" stop-color="#4e4c4b" style="stop-color:#54514e;stop-opacity:1"/><stop offset="1" stop-color="#343232" style="stop-color:#44413f;stop-opacity:1"/></linearGradient><linearGradient id="v"><stop offset="0" stop-color="#d6d8d7"/><stop offset="1" stop-color="#b0b4b1"/></linearGradient><linearGradient id="x"><stop offset="0" stop-color="#d6d8d7"/><stop offset="1" stop-color="#b0b4b1"/></linearGradient><linearGradient id="w"><stop offset="0" stop-color="#d6d8d7"/><stop offset="1" stop-color="#b0b4b1"/></linearGradient><linearGradient id="y"><stop offset="0" stop-color="#686f6f"/><stop offset=".5" stop-color="#7d8484"/><stop offset="1" stop-color="#373b3b"/></linearGradient><linearGradient xlink:href="#a" id="ah" x1="324.912" x2="553.023" y1="1116.645" y2="1153.361" gradientTransform="matrix(.18282 0 0 .23276 73.554 -88.847)" gradientUnits="userSpaceOnUse"/><linearGradient id="a"><stop offset="0" style="stop-color:#000001;stop-opacity:1"/><stop offset=".5" style="stop-color:#191c1b;stop-opacity:1"/><stop offset="1" style="stop-color:#333835;stop-opacity:1"/></linearGradient><linearGradient xlink:href="#b" id="ag" x1="333.202" x2="554.295" y1="1081.52" y2="1086.519" gradientTransform="matrix(.18282 0 0 .23276 73.554 -88.847)" gradientUnits="userSpaceOnUse"/><linearGradient xlink:href="#c" id="ae" x1="323.513" x2="554.132" y1="1087.467" y2="1097.502" gradientTransform="matrix(.18282 0 0 .23276 73.554 -88.847)" gradientUnits="userSpaceOnUse"/><linearGradient xlink:href="#d" id="ad" x1="339.45" x2="535.237" y1="1120.568" y2="1120.568" gradientTransform="matrix(.18282 0 0 .23276 73.554 -88.847)" gradientUnits="userSpaceOnUse"/><linearGradient xlink:href="#e" id="ai" x1="-254.733" x2="-130.685" y1="498.737" y2="495.936" gradientTransform="matrix(.18282 0 0 .23276 195.15 46.875)" gradientUnits="userSpaceOnUse"/><linearGradient xlink:href="#f" id="ak" x1="-254.818" x2="-241.759" y1="482.005" y2="482.882" gradientTransform="matrix(.18282 0 0 .23276 195.15 46.875)" gradientUnits="userSpaceOnUse"/><linearGradient xlink:href="#g" id="V" x1="-263.645" x2="-270.841" y1="116.201" y2="367.814" gradientTransform="matrix(.17718 0 0 .23276 194.027 44.39)" gradientUnits="userSpaceOnUse"/><linearGradient xlink:href="#h" id="X" x1="-326.774" x2="-334.681" y1="113.913" y2="229.998" gradientTransform="matrix(.17718 0 0 .23276 194.027 44.39)" gradientUnits="userSpaceOnUse"/><linearGradient xlink:href="#i" id="Y" x1="-89.803" x2="-23.911" y1="107.553" y2="213.266" gradientTransform="matrix(.15309 0 0 .23276 191.648 44.39)" gradientUnits="userSpaceOnUse"/><linearGradient xlink:href="#j" id="aK" x1="-103.945" x2="-89.093" y1="199.105" y2="198.219" gradientTransform="matrix(.14274 0 0 .23276 190.465 44.389)" gradientUnits="userSpaceOnUse"/><linearGradient xlink:href="#k" id="aa" x1="-88.13" x2="-6.812" y1="169.462" y2="169.462" gradientTransform="matrix(.15309 0 0 .23276 191.648 44.39)" gradientUnits="userSpaceOnUse"/><linearGradient xlink:href="#m" id="Z" x1="-88.13" x2="-6.812" y1="141.962" y2="141.962" gradientTransform="matrix(.15309 0 0 .23276 191.648 44.39)" gradientUnits="userSpaceOnUse"/><linearGradient xlink:href="#n" id="ab" x1="-88.13" x2="-6.812" y1="194.712" y2="194.712" gradientTransform="matrix(.15309 0 0 .23276 191.648 44.39)" gradientUnits="userSpaceOnUse"/><linearGradient xlink:href="#o" id="an" x1="-526.079" x2="-514.849" y1="110.966" y2="205.424" gradientTransform="matrix(.14594 0 0 .23276 179.77 44.39)" gradientUnits="userSpaceOnUse"/><linearGradient xlink:href="#p" id="at" x1="-553.295" x2="-503.537" y1="139.301" y2="139.301" gradientTransform="matrix(.14594 0 0 .23276 179.77 42.784)" gradientUnits="userSpaceOnUse"/><linearGradient xlink:href="#p" id="au" x1="-553.295" x2="-503.537" y1="139.301" y2="139.301" gradientTransform="matrix(.14594 0 0 .23276 179.77 47.886)" gradientUnits="userSpaceOnUse"/><linearGradient xlink:href="#p" id="av" x1="-553.295" x2="-503.537" y1="139.301" y2="139.301" gradientTransform="matrix(.14594 0 0 .23276 179.77 52.33)" gradientUnits="userSpaceOnUse"/><linearGradient xlink:href="#q" id="aw" x1="-553.295" x2="-503.537" y1="139.301" y2="139.301" gradientTransform="matrix(.14594 0 0 .23276 179.898 57.746)" gradientUnits="userSpaceOnUse"/><linearGradient xlink:href="#r" id="ao" x1="-446.106" x2="-438.361" y1="85.295" y2="250.094" gradientTransform="matrix(.16552 0 0 .23276 189.288 44.39)" gradientUnits="userSpaceOnUse"/><linearGradient xlink:href="#s" id="U" x1="-374.717" x2="-378.419" y1="87.743" y2="268.327" gradientTransform="matrix(.17718 0 0 .23276 194.027 44.39)" gradientUnits="userSpaceOnUse"/><linearGradient xlink:href="#t" id="T" x1="14.496" x2="39.131" y1="-378.915" y2="-364.396" gradientTransform="matrix(.17984 0 0 .29757 92.025 196.07)" gradientUnits="userSpaceOnUse"/><linearGradient xlink:href="#u" id="ax" x1="-447.098" x2="-434.033" y1="85" y2="138.154" gradientTransform="matrix(.16552 0 0 .23276 189.288 44.39)" gradientUnits="userSpaceOnUse"/><linearGradient xlink:href="#v" id="ay" x1="67.768" x2="25.666" y1="248.97" y2="267.237" gradientTransform="matrix(.1863 .09148 -.08812 .19878 103.834 26.582)" gradientUnits="userSpaceOnUse"/><linearGradient xlink:href="#w" id="az" x1="-37.528" x2="-45.94" y1="294.3" y2="303.421" gradientTransform="matrix(.1863 .09148 -.08812 .19878 103.834 26.582)" gradientUnits="userSpaceOnUse"/><linearGradient xlink:href="#x" id="aA" x1="-1.438" x2="-11.334" y1="277.751" y2="285.429" gradientTransform="matrix(.1863 .09148 -.08812 .19878 103.834 26.582)" gradientUnits="userSpaceOnUse"/><linearGradient xlink:href="#y" id="aB" x1="61.281" x2="-51.43" y1="247.875" y2="311.894" gradientTransform="matrix(.1863 .09149 -.08812 .19878 103.67 26.54)" gradientUnits="userSpaceOnUse"/><linearGradient xlink:href="#z" id="aC" x1="29.499" x2="-53.528" y1="261.487" y2="317.759" gradientTransform="matrix(.1863 .09149 -.08812 .19878 103.67 26.54)" gradientUnits="userSpaceOnUse"/><linearGradient xlink:href="#A" id="aD" x1="29.499" x2="-53.528" y1="261.487" y2="317.759" gradientTransform="matrix(.1863 .09149 -.08812 .19878 103.67 26.54)" gradientUnits="userSpaceOnUse"/><linearGradient xlink:href="#B" id="aE" x1="29.499" x2="-53.528" y1="261.487" y2="317.759" gradientTransform="matrix(.1863 .09149 -.08812 .19878 103.67 26.54)" gradientUnits="userSpaceOnUse"/><linearGradient xlink:href="#C" id="aF" x1="29.499" x2="-53.528" y1="261.487" y2="317.759" gradientTransform="matrix(.1863 .09149 -.08812 .19878 103.67 26.54)" gradientUnits="userSpaceOnUse"/><linearGradient xlink:href="#D" id="aJ" x1="-574.443" x2="-568.999" y1="165.589" y2="165.225" gradientTransform="matrix(.14594 0 0 .23276 179.77 44.39)" gradientUnits="userSpaceOnUse"/><linearGradient xlink:href="#F" id="al" x1="328.804" x2="338.376" y1="286.367" y2="286.724" gradientTransform="matrix(.3356 0 0 .42726 27.867 -7.537)" gradientUnits="userSpaceOnUse"/><linearGradient xlink:href="#G" id="aj" x1="347.891" x2="376.969" y1="342.837" y2="341.095" gradientTransform="matrix(.3356 0 0 .42726 27.06 -7.537)" gradientUnits="userSpaceOnUse"/><linearGradient xlink:href="#H" id="ac" x1="479.706" x2="469.251" y1="224.333" y2="193.111" gradientTransform="matrix(.24232 0 0 .31833 51.85 32.502)" gradientUnits="userSpaceOnUse"/><linearGradient xlink:href="#I" id="am" x1="146.049" x2="149.342" y1="108.397" y2="116.505" gradientTransform="matrix(.90438 0 0 1 -2.023 0)" gradientUnits="userSpaceOnUse"/><radialGradient xlink:href="#S" id="ap" cx="-496.217" cy="167.239" r="6.284" fx="-496.217" fy="167.239" gradientTransform="matrix(.14594 0 0 2.08447 179.77 -265.289)" gradientUnits="userSpaceOnUse"/></defs><path d="M94.632 77.692v10.615a3.232 5.347 0 0 0 .946 3.78l2.614 4.326h9.48a1.084 1.793 0 0 0 1.084-1.779l.109-22.638a1.067 1.765 0 0 0-1.067-1.779h-9.606l-2.562 3.785a2.99 4.947 0 0 0-.998 3.69" style="fill:url(#T);fill-opacity:1;fill-rule:evenodd;stroke-width:.925337"/><path d="M127.59 106.18c-1.459-.54-4.059-.563-5.129-1.072-1.07-.508-.967-1.42-1.173-8.296-.208-6.876.123-19.798.094-32.639l54.535-.164c2.576 2.654 4.904 5.308-2.48 12.75-7.382 7.442-24.72 19.675-33.973 25.304-9.251 5.629-10.415 4.655-11.874 4.116" style="fill:url(#U);fill-rule:evenodd;stroke-width:.812315"/><path d="M144.522 131.004c-.197-1.348-.435-2.548-1.612-4.095-1.132-1.486-2.845-2.667-4.791-4.442-.135-.123-.062-.206-.157-.38-2.786-5.13-6.165-11.023-7.409-16.357-1.27-5.444-.972-11.132-.217-16.638.755-5.505 1.966-10.826 4.033-14.241 2.066-3.415 4.991-4.924 12.05-5.788 7.056-.865 18.249-1.084 29.441-1.303l-.25 35.715c-1.67-.055-3.341-.11-5.075 0s-3.529.384-5.366 2.66-3.717 6.556-5.7 12.481-4.072 13.496-6.495 16.558c-2.423 3.063-5.183 1.616-6.64.145-1.458-1.471-1.614-2.967-1.812-4.315" style="fill:url(#V);fill-opacity:1;fill-rule:evenodd;stroke-width:.812315"/><path d="M175.854 66.477c-11.192.22-22.705.44-29.763 1.304s-9.981 2.372-12.049 5.788c-2.068 3.414-3.28 8.736-4.033 14.241-.755 5.505-1.053 11.193.217 16.637a16.72 21.965 0 0 0 .3 1.163c.03-.652.066-1.332.116-2.239.159-2.883.735-6.844 1.671-11.559.937-4.715 2.237-10.184 7.774-14.025 5.537-3.84 15.31-6.051 22.62-7.08 5.928-.833 10.572-1.187 13.153-2.947z" style="fill:url(#X);fill-rule:evenodd;stroke-width:.812315"/><path d="M176.001 64.009c-.325 13.623-.177 26.31-.265 39.466 4.588-.646 8.914-1.93 11.912-4.23 3.528-2.704 4.185-9.43 4.325-15.314.282-11.787-1.406-18.593-15.972-19.922" style="fill:url(#Y);fill-rule:evenodd;stroke-width:.752403"/><rect width="12.449" height="2.907" x="178.157" y="75.978" ry="1.454" style="fill:url(#Z);fill-opacity:1;fill-rule:evenodd;stroke-width:.33615"/><rect width="12.449" height="2.907" x="178.157" y="82.379" ry="1.454" style="fill:url(#aa);fill-opacity:1;fill-rule:evenodd;stroke-width:.33615"/><rect width="12.449" height="2.907" x="178.157" y="88.256" ry="1.454" style="fill:url(#ab);fill-opacity:1;fill-rule:evenodd;stroke-width:.33615"/><path d="m156.173 96.747 5.45 16.006c1.21-2.945 2.386-5.18 3.546-6.617 1.837-2.277 3.633-2.551 5.367-2.661s3.403-.055 5.074 0l.091-13.022-.07-.468c-6.908-3.938-13.098 2.997-19.457 6.763" style="fill:url(#ac);fill-opacity:1;fill-rule:evenodd;stroke-width:.812315"/><path d="M153.672 119.589c.606 4.63.647 7.942-.541 9.417-1.19 1.473-3.443 2.288-5.621 2.288-1.043 0-2.069-.186-3.01-.438l.025.12c.588 8.289 1.957 16.428 2.771 24.676.737 3.798.788 6.06.275 8.324 13.983 2.855 18.203 1.562 24.42-2.49-1.177-6.238-3.223-12.244-3.934-18.196-.711-5.95-1.547-11.316-2.743-20.88-1.197-9.564-2.84-23.373-6.29-24.874-11.92-5.187-6.405 15.729-5.352 22.053" style="fill:#383533;fill-opacity:1;fill-rule:evenodd;stroke-width:.825136"/><path d="M132.7 163.964c.07 7.775.68 15.533 1.486 23.24 3.57 2.742 17.393-1.24 18.939-1.24h14.356c1.463 0 5.605 1.709 6.48.757.387-4.957.93-22.721.93-22.721z" style="fill:url(#ad);fill-opacity:1;fill-rule:evenodd;stroke-width:.825134"/><path d="M174.714 163.718c-2.754 5.412-39.545 6.11-41.91.09a1.5 1.91 0 0 0-.105.46l.01.637c1.129 6.533 41.057 5.724 42.145-.16q.005-.252.007-.505a1.275 1.623 0 0 0-.148-.522" style="fill:url(#ae);fill-opacity:1;fill-rule:evenodd;stroke-width:.873144"/><path d="M174.89 164.088c0 2.84-9.553 5.099-21.15 5.099-11.595 0-21.04-2.296-21.04-5.134s9.444-5.146 21.04-5.146 21.15 2.343 21.15 5.181" style="vector-effect:none;fill:url(#ag);fill-opacity:1;fill-rule:evenodd;stroke-width:4.24137;stop-color:#000"/><path d="M174.658 171.06c-6.204 7.529-33.348 8.48-41.703 1.01.017.822.072 1.653.144 2.487.097 1.147.223 2.301.314 3.443 13.934 2.378 27.52 1.887 40.936 0 .107-2.595.224-4.487.308-6.941z" style="fill:url(#ah);fill-opacity:1;fill-rule:evenodd;stroke-width:.825134"/><path d="M174.627 171.972c-6.205 7.53-33.266 8.507-41.622 1.037.268 4.745.689 9.48 1.181 14.194 4.173 3.207 11.845 4.744 19.441 4.797 6.042-.04 11.961-.925 16.128-2.578 1.79-.746 3.24-1.65 4.205-2.702.215-2.731.476-9.354.666-14.748" style="fill:#312e2c;fill-opacity:1;fill-rule:evenodd;stroke-width:.825134"/><path d="M162.177 160.755c-7.448 0-13.414 1.031-14.228 2.956-.059.139-.378.265-.378.265.02.142 8.692 2.07 13.226 1.83 4.651-.244 8.671-2.111 11.196-4.319-.13-.137-.257.304-.385.167-2.636-.58-5.978-.898-9.431-.899" style="fill:url(#ai);fill-rule:evenodd;stroke-width:.825136"/><path d="m144.5 130.856.025.12c.587 8.29 1.956 16.428 2.771 24.676.682 3.513.777 5.714.38 7.815 3.617-3.296 5.895-9.955 5.895-17.23 0-5.91-1.508-11.496-4.094-15.162a8.938 9 0 0 1-1.967.22c-1.043 0-2.069-.187-3.01-.44" style="fill:url(#aj);fill-opacity:1;fill-rule:evenodd;stroke-width:.825136"/><path d="M147.676 155.652c-.13-.079-.268.1-.332.248.691 3.65.729 5.863.228 8.076 13.983 2.855 18.202 1.562 24.42-2.489-.34-1.953-.817-3.823-1.28-5.743-6.994 2.807-13.785 5.568-23.036-.092" style="fill:#1e386a;fill-opacity:1;fill-rule:evenodd;stroke-width:.825136"/><path d="M147.602 155.633c-.104.006-.207.147-.258.268.692 3.648.729 5.862.228 8.075q1.348.275 2.58.5c1.14-1.15 1.833-3.335 1.378-5.373a7.25 7.3 0 0 0-.683-1.795 28.504 36.29 0 0 1-3.171-1.656.15.191 0 0 0-.073-.02" style="fill:url(#ak);fill-opacity:1;fill-rule:evenodd;stroke-width:.825136"/><path d="M132.73 106.037c-.564 0-1.16.072-1.77.14l.08.31c2.49-.25 11.174-.042 6.86 15.729l-.005.018c.045.077.13.157.223.233 3.065-6.79 1.186-14.738-2.734-16.095-.763-.264-1.668-.336-2.654-.335" style="fill:url(#al);fill-opacity:1;fill-rule:evenodd;stroke-width:.825136"/><path d="M132.382 106.04c-.986 0-2.071.224-3.162.251.024.27-.168.462-.25.675 6.356 7.488 1.247 13.956 5.216 14.87.848.284 2.28.341 3.71.398 3.067-6.79 1.06-14.5-2.86-15.857-.762-.264-1.667-.337-2.653-.336" style="fill:#254381;fill-opacity:1;fill-rule:evenodd;stroke-width:.825137"/><path d="M128.55 106.511c6.356 7.488 1.668 14.41 5.636 15.325.814.272 2.163.336 3.535.39l.064-.14c-.915-.84-5.582 1.516-4.854-4.352.621-5.017-1.09-8.257-3.71-11.443-.279.307-.412.145-.671.22" style="fill:url(#am);fill-opacity:1;fill-rule:evenodd;stroke-width:.825137"/><path d="m98.192 70.217-.1.147v25.884l.1.165h9.48a1.084 1.793 0 0 0 1.084-1.779l.109-22.638a1.067 1.765 0 0 0-1.067-1.779z" style="fill:url(#an);fill-opacity:1;fill-rule:evenodd;stroke-width:.925337"/><path d="M116.726 64.173c-5.025 0-9.07 3.118-9.07 6.99V95.61c0 3.873 4.045 6.99 9.071 6.99l4.791-.001c.365-12.739.292-25.554-.096-38.426z" style="fill:url(#ao);fill-opacity:1;fill-rule:evenodd;stroke-width:.897235"/><path d="M106.437 70.217v.03c.384 8.85.32 17.55 0 26.166h1.234a1.058 1.687 0 0 0 .599-.298V70.399a1.038 1.655 0 0 0-.472-.182z" style="fill:url(#ap);fill-opacity:1;fill-rule:evenodd;stroke-width:.925337"/><rect width="7.262" height="1.511" x="99.023" y="74.452" ry=".755" style="fill:url(#at);fill-rule:evenodd;stroke-width:.185078"/><rect width="7.262" height="1.511" x="99.023" y="79.554" ry=".755" style="fill:url(#au);fill-rule:evenodd;stroke-width:.185078"/><rect width="7.262" height="1.511" x="99.023" y="83.998" ry=".755" style="fill:url(#av);fill-rule:evenodd;stroke-width:.185078"/><rect width="7.262" height="1.511" x="99.151" y="89.414" ry=".755" style="fill:url(#aw);fill-rule:evenodd;stroke-width:.185078"/><path d="M116.726 64.173c-5.025 0-9.07 3.118-9.07 6.99v12.224l13.75-9.612.016-9.602z" style="fill:url(#ax);fill-rule:evenodd;stroke-width:.897235"/><path fill="url(#J)" fill-rule="evenodd" d="M94.911 81.5s-.053-.022-.07-.027q-.022-.007-.034-.009l-.035-.006-.033-.003-.036-.002-.081-.001h-.267a784.528 1049 0 0 0-4.02.056c-2.381.041-4.583.078-4.868.081a3.74 5 0 0 0-.569.042 1.488 2.292 0 0 0-.443.214 2.244 3 0 0 0-.166.14c-.024.022-.045.041-.08.084-.017.02-.039.039-.078.125-.018.043-.053.107-.044.247.007.14.138.354.267.417 0 0 .074.028.09.032a.3.4 0 0 0 .067.012l.024.001h.28l.7-.01 2.284-.04c5.844-.11 6.567-.119 6.715-.111q.104.005.196 0a.824.876 4.945 0 0 .105-.012.748 1 0 0 0 .094-.026c.048-.02.16-.01.272-.262.065-.15.054-.215.054-.28a.927.986 4.897 0 0-.015-.176.824.876 4.945 0 0-.045-.176c-.025-.067-.001-.181-.264-.31" style="fill:url(#ay);stroke-width:.212356"/><path fill="url(#K)" fill-rule="evenodd" d="m71.314 81.429-.048-.015-.018-.002h-.016l-.012.002h-.013l-.031.006-.101.017-.318.058a57.473 61.077 4.96 0 0-.668.126c-.751.15-1.338.309-1.845.499a11.33 12.04 4.963 0 0-.405.162q-.084.036-.14.063l-.049.025a.206.22 5.006 0 0-.03.02c-.005.006-.014.012-.026.027a.206.22 5.006 0 0-.023.033l-.013.03-.01.046-.006.052-.015.123a1.24 1.91 0 0 0-.015.151c-.001.018-.004.033.003.07.003.018.006.047.037.087a.2.2 0 0 0 .15.068c.046-.004.035-.006.05-.01l.058-.015.173-.046c.172-.05.357-.09.836-.186.61-.122.921-.205 1.222-.33a3.74 5 0 0 0 .558-.295 13.802 14.667 4.958 0 1 .53-.316q.108-.061.16-.094l.05-.035c.009-.008.02-.012.043-.049a.164.175 4.768 0 0 .029-.073l.001-.046-.036-.1-.033-.034z" style="fill:url(#az);stroke-width:.212356"/><path fill="url(#L)" fill-rule="evenodd" d="M79.225 81.497c-.03-.023-.043-.02-.053-.022-.02-.003-.03-.001-.045 0l-.137.019c-.131.02-.357.058-.74.125-.526.09-.808.14-1.007.197a1.795 2.4 0 0 0-.472.222 15.655 16.638 4.957 0 0-.418.28q-.09.061-.146.103-.028.02-.046.036a.206.22 5.006 0 0-.018.016c-.007.006-.012.002-.03.043a.064.099 0 0 0 .007.114c.023.037.048.045.063.05.03.008.042.006.06.005a1.443 1.532 5.038 0 0 .15-.017c.145-.021.39-.064.806-.137.414-.073.624-.11.768-.148.145-.039.223-.082.34-.151a102.46 137 0 0 1 .807-.476l.076-.047.023-.016.012-.008.009-.008.009-.01.007-.01.01-.018a.206.318 0 0 0 .01-.032l-.003-.045-.018-.041s-.016-.02-.023-.024" style="fill:url(#aA);stroke-width:.212356"/><path fill="url(#M)" d="M64.02 83.356a5 5 0 0 1 .382-.369 259.515 347 0 0 0 2.732-2.505c.031-.045.885-.008 1.198.051.374.071.71.212 1.21.505.244.144.452.257.462.252s.19-.08.4-.162c1.697-.668 5.056-1.211 7.201.16l.19.12.431-.196c1.08-.492 2.054-.693 3.403-.703a26.096 27.733 4.96 0 0 .623-.011 12.714 17 0 0 1 1.6.11c.57.105.97.252 1.706.626l.258.13.306-.148c.537-.262 1.247-.52 1.492-.544a739 739 0 0 1 6.492-.077l.655-.004c.892.994 2.154 3.06.004 5.297-.57.072-6.356.04-9.68.11-.726.016-.89-.04-1.65-.564a33.075 35.15 4.958 0 0-.653-.441c-.205-.13-.2-.13-.545.052a8.861 9.416 4.963 0 1-2.398.856c-.55.109-.967.14-1.855.145-1.855.007-2.075-.049-3.26-.834a5.235 7 0 0 0-.452-.28 2.992 4 0 0 0-.336.166 10.844 14.5 0 0 1-2.335.89c-.756.16-1.358.207-3.01.24l-1.196.023-.282-.242c-.155-.133-.76-.647-1.344-1.14-1.217-1.03-1.746-1.487-1.75-1.513m3.533-.868-.02.185-.022.185.131-.032c.861-.264 1.813-.274 2.597-.76a15.172 16.124 4.957 0 1 .619-.374c.198-.108.236-.133.22-.146-1.205.218-2.403.414-3.525.942m8.409.078c.008.007.445-.065.97-.16l.955-.17.424-.26a14.566 15.479 4.96 0 1 .615-.357c.104-.055.183-.105.174-.112a20 20 0 0 0-1.062.172c-.883.155-1.071.199-1.207.282-.273.165-.886.592-.87.605m8.349-.193q-.006.007-.005.01c.004.027.316.028 1.331.003 1.053-.025 5.743-.115 7.25-.139a141.71 150.597 4.96 0 1 1.47-.018l.276.002.001-.165.002-.182c-.002-.041.114-.042-6.6.083-1.675.03-3.084.05-3.133.042a.374.5 0 0 0-.19.052 3 3 0 0 0-.402.312" style="fill:url(#aB);stroke-width:.312818"/><path fill="url(#N)" d="M68.72 80.604a2.883 3.064 4.957 0 0-.557-.169 7 7 0 0 0-.88-.07c-.262.09-.472.203-.612.334-1.217 1.13-2.016 2.012-2.672 2.65.159.172.631.557 1.64 1.409l.056.047 1.815-1.947.042-.37a6.979 7.417 4.95 0 1 1.138-.429c.34-.328.59-.762.852-1.02l-.17-.1a5.983 8 0 0 0-.651-.335" style="fill:url(#aC);stroke-width:.312818"/><path fill="url(#O)" d="M76.435 80.786c-1.033-.341-2.2-.394-3.287-.292l-1.903 1.831a724.697 969 0 0 1-3.153 3.02c-.45.426-.768.87-.697.906.072.035.935 0 1.878-.04.55-.033 1.104-.03 1.65-.106l.046-.007 2.825-2.788a91.99 123 0 0 1 2.64-2.524" style="fill:url(#aD);stroke-width:.312818"/><path fill="url(#P)" d="M83.28 80.536c-.305-.037-1.96-.243-3.87.244-.238.26-.444.511-.71.786.664-.057-.166.214-.363.307a97.225 130 0 0 1-3.532 3.392c.89.793 1.884.773 2.912.781 2.15-2.069 3.208-3.33 5.563-5.51" style="fill:url(#aE);stroke-width:.312818"/><path fill="url(#Q)" d="M89.569 80.643c-.714.01-1.384-.054-2.097-.043-.246.024-.956.282-1.492.544l-.307.149-.258-.131-.06-.03c-.535.526-1.212 1.147-1.882 1.831l-2.62 2.673c.437-.15.923-.251 1.3-.546.545-.428.526.036 1.485.482.861-.09 1.256-.264 1.514-.6.232-.302 1.367-1.408 2.646-2.632-1.052.021-1.922.066-2.305-.026-.651-.157-1.812-.175-.842-.212 1.178-.044 2.39-.138 3.554-.139.424-.462 1.023-.813 1.363-1.32" style="fill:url(#aF);stroke-width:.312818"/><path d="M95.446 74.3a2.99 4.947 0 0 0-.814 3.392v10.615a3.232 5.347 0 0 0 .592 3.086 5.108 12.452 0 0 0 1.508-8.832 5.108 12.452 0 0 0-1.288-8.261" style="fill:url(#aJ);fill-opacity:1;fill-rule:evenodd;stroke-width:.925337"/><path d="M176.029 64.009c-.05 0-.375 26.31-.4 39.465.193-.01.615-.066.615-.066s.594-11.45.594-17.736c0-8.216-.195-16.11-.81-21.663-.055-.02 0 0 0 0" style="fill:url(#aK);fill-rule:evenodd;stroke-width:.410109"/></svg>